# Blender v3.4.1 OBJ File: 'restaurant_bits_export.blend'
# www.blender.org
mtllib crate_lid.mtl
o crate_lid_Cube.002
v -0.975000 0.000000 -0.525000
v -1.000000 0.025000 -0.525000
v -0.975000 0.175000 -0.500000
v -0.975000 0.200000 -0.525000
v -1.000000 0.175000 -0.525000
v -0.975000 0.000000 -0.975000
v -1.000000 0.025000 -0.975000
v -0.975000 0.025000 -1.000000
v -0.975000 0.200000 -0.975000
v -0.975000 0.175000 -1.000000
v -1.000000 0.175000 -0.975000
v 0.975000 0.000000 -0.525000
v 1.000000 0.025000 -0.525000
v 0.975000 0.200000 -0.525000
v 1.000000 0.175000 -0.525000
v 0.975000 0.000000 -0.975000
v 0.975000 0.025000 -1.000000
v 1.000000 0.025000 -0.975000
v 0.975000 0.200000 -0.975000
v 1.000000 0.175000 -0.975000
v 0.975000 0.175000 -1.000000
v -0.975000 0.000000 -0.025000
v -0.975000 0.025000 0.000000
v -1.000000 0.025000 -0.025000
v -0.975000 0.175000 0.000000
v -0.975000 0.200000 -0.025000
v -1.000000 0.175000 -0.025000
v -0.975000 0.000000 -0.475000
v -1.000000 0.025000 -0.475000
v -0.975000 0.025000 -0.500000
v -0.975000 0.200000 -0.475000
v -1.000000 0.175000 -0.475000
v 0.975000 0.000000 -0.025000
v 1.000000 0.025000 -0.025000
v 0.975000 0.025000 0.000000
v 0.975000 0.200000 -0.025000
v 0.975000 0.175000 0.000000
v 1.000000 0.175000 -0.025000
v 0.975000 0.000000 -0.475000
v 0.975000 0.025000 -0.500000
v 1.000000 0.025000 -0.475000
v 0.975000 0.200000 -0.475000
v 1.000000 0.175000 -0.475000
v 0.975000 0.175000 -0.500000
v -0.975000 0.000000 0.475000
v -1.000000 0.025000 0.475000
v -0.975000 0.175000 0.500000
v -0.975000 0.200000 0.475000
v -1.000000 0.175000 0.475000
v -0.975000 0.000000 0.025000
v -1.000000 0.025000 0.025000
v -0.975000 0.200000 0.025000
v -1.000000 0.175000 0.025000
v 0.975000 0.000000 0.475000
v 1.000000 0.025000 0.475000
v 0.975000 0.200000 0.475000
v 1.000000 0.175000 0.475000
v 0.975000 0.000000 0.025000
v 1.000000 0.025000 0.025000
v 0.975000 0.200000 0.025000
v 1.000000 0.175000 0.025000
v -0.975000 0.000000 0.975000
v -0.975000 0.025000 1.000000
v -1.000000 0.025000 0.975000
v -0.975000 0.175000 1.000000
v -0.975000 0.200000 0.975000
v -1.000000 0.175000 0.975000
v -0.975000 0.000000 0.525000
v -1.000000 0.025000 0.525000
v -0.975000 0.025000 0.500000
v -0.975000 0.200000 0.525000
v -1.000000 0.175000 0.525000
v 0.975000 0.000000 0.975000
v 1.000000 0.025000 0.975000
v 0.975000 0.025000 1.000000
v 0.975000 0.200000 0.975000
v 0.975000 0.175000 1.000000
v 1.000000 0.175000 0.975000
v 0.975000 0.000000 0.525000
v 0.975000 0.025000 0.500000
v 1.000000 0.025000 0.525000
v 0.975000 0.200000 0.525000
v 1.000000 0.175000 0.525000
v 0.975000 0.175000 0.500000
vt 0.863592 0.889813
vt 0.863592 0.913220
vt 0.863592 0.913220
vt 0.863592 0.889813
vt 0.857940 0.938690
vt 0.767062 0.938690
vt 0.767062 0.938690
vt 0.857940 0.938690
vt 0.761409 0.889813
vt 0.761409 0.913220
vt 0.761409 0.913220
vt 0.761409 0.889813
vt 0.767062 0.889813
vt 0.767062 0.913220
vt 0.857940 0.913220
vt 0.857940 0.889813
vt 0.767062 0.918265
vt 0.767062 0.922166
vt 0.761409 0.922166
vt 0.767062 0.961198
vt 0.767062 0.965099
vt 0.761409 0.961198
vt 0.767062 0.918265
vt 0.761409 0.922166
vt 0.767062 0.922166
vt 0.767062 0.965099
vt 0.767062 0.961198
vt 0.761409 0.961198
vt 0.857940 0.918265
vt 0.863592 0.922166
vt 0.857940 0.922166
vt 0.857940 0.965099
vt 0.857940 0.961198
vt 0.863592 0.961198
vt 0.857940 0.918265
vt 0.857940 0.922166
vt 0.863592 0.922166
vt 0.857940 0.965099
vt 0.863592 0.961198
vt 0.857940 0.961198
vt 0.767062 0.945573
vt 0.761409 0.945573
vt 0.767062 0.945573
vt 0.761409 0.945573
vt 0.863592 0.945573
vt 0.857940 0.945573
vt 0.857940 0.945573
vt 0.863592 0.945573
vt 0.767062 0.864343
vt 0.857940 0.864343
vt 0.857940 0.864343
vt 0.767062 0.864343
vt 0.863592 0.889813
vt 0.863592 0.913220
vt 0.863592 0.913220
vt 0.863592 0.889813
vt 0.857940 0.938690
vt 0.767062 0.938690
vt 0.767062 0.938690
vt 0.857940 0.938690
vt 0.761409 0.889813
vt 0.761409 0.913220
vt 0.761409 0.913220
vt 0.761409 0.889813
vt 0.767062 0.918265
vt 0.767062 0.922166
vt 0.761409 0.922166
vt 0.767062 0.961198
vt 0.767062 0.965099
vt 0.761409 0.961198
vt 0.767062 0.918265
vt 0.761409 0.922166
vt 0.767062 0.965099
vt 0.761409 0.961198
vt 0.857940 0.918265
vt 0.863592 0.922166
vt 0.857940 0.922166
vt 0.857940 0.965099
vt 0.857940 0.961198
vt 0.863592 0.961198
vt 0.857940 0.918265
vt 0.863592 0.922166
vt 0.857940 0.965099
vt 0.863592 0.961198
vt 0.767062 0.945573
vt 0.761409 0.945573
vt 0.761409 0.945573
vt 0.863592 0.945573
vt 0.857940 0.945573
vt 0.863592 0.945573
vt 0.767062 0.864343
vt 0.857940 0.864343
vt 0.857940 0.864343
vt 0.767062 0.864343
vt 0.863592 0.889813
vt 0.863592 0.913220
vt 0.863592 0.913220
vt 0.863592 0.889813
vt 0.857940 0.938690
vt 0.767062 0.938690
vt 0.767062 0.938690
vt 0.857940 0.938690
vt 0.761409 0.889813
vt 0.761409 0.913220
vt 0.761409 0.913220
vt 0.761409 0.889813
vt 0.767062 0.918265
vt 0.767062 0.922166
vt 0.761409 0.922166
vt 0.767062 0.961198
vt 0.767062 0.965099
vt 0.761409 0.961198
vt 0.767062 0.918265
vt 0.761409 0.922166
vt 0.767062 0.965099
vt 0.761409 0.961198
vt 0.857940 0.918265
vt 0.863592 0.922166
vt 0.857940 0.922166
vt 0.857940 0.965099
vt 0.857940 0.961198
vt 0.863592 0.961198
vt 0.857940 0.918265
vt 0.863592 0.922166
vt 0.857940 0.965099
vt 0.863592 0.961198
vt 0.767062 0.945573
vt 0.761409 0.945573
vt 0.761409 0.945573
vt 0.863592 0.945573
vt 0.857940 0.945573
vt 0.863592 0.945573
vt 0.767062 0.864343
vt 0.857940 0.864343
vt 0.857940 0.864343
vt 0.767062 0.864343
vt 0.857940 0.889813
vt 0.857940 0.913220
vt 0.767062 0.913220
vt 0.767062 0.889813
vt 0.863592 0.889813
vt 0.863592 0.913220
vt 0.863592 0.913220
vt 0.863592 0.889813
vt 0.857940 0.938690
vt 0.767062 0.938690
vt 0.767062 0.938690
vt 0.857940 0.938690
vt 0.761409 0.889813
vt 0.761409 0.913220
vt 0.761409 0.913220
vt 0.761409 0.889813
vt 0.767062 0.918265
vt 0.767062 0.922166
vt 0.761409 0.922166
vt 0.767062 0.961198
vt 0.767062 0.965099
vt 0.761409 0.961198
vt 0.767062 0.918265
vt 0.761409 0.922166
vt 0.767062 0.965099
vt 0.761409 0.961198
vt 0.857940 0.918265
vt 0.863592 0.922166
vt 0.857940 0.922166
vt 0.857940 0.965099
vt 0.857940 0.961198
vt 0.863592 0.961198
vt 0.857940 0.918265
vt 0.863592 0.922166
vt 0.857940 0.965099
vt 0.863592 0.961198
vt 0.767062 0.945573
vt 0.761409 0.945573
vt 0.761409 0.945573
vt 0.863592 0.945573
vt 0.857940 0.945573
vt 0.863592 0.945573
vt 0.767062 0.864343
vt 0.857940 0.864343
vt 0.857940 0.864343
vt 0.767062 0.864343
vn 1.0000 0.0000 0.0000
vn 0.0000 1.0000 0.0000
vn -1.0000 0.0000 0.0000
vn 0.0000 0.0000 -1.0000
vn -0.5773 -0.5774 0.5774
vn -0.5773 0.5774 0.5774
vn -0.5774 -0.5774 -0.5773
vn -0.5774 0.5774 -0.5773
vn 0.5773 -0.5774 0.5774
vn 0.5773 0.5774 0.5774
vn 0.5774 -0.5774 -0.5773
vn 0.5774 0.5774 -0.5773
vn -0.7071 -0.7071 0.0000
vn -0.7071 0.0000 0.7071
vn -0.7071 0.7071 0.0000
vn -0.7071 0.0000 -0.7071
vn 0.0000 -0.7071 -0.7071
vn 0.0000 0.7071 -0.7071
vn 0.7071 0.0000 -0.7071
vn 0.7071 -0.7071 0.0000
vn 0.7071 0.7071 0.0000
vn 0.7071 0.0000 0.7071
vn 0.0000 -0.7071 0.7071
vn 0.0000 0.7071 0.7071
vn 0.0000 -1.0000 0.0000
vn -0.5774 -0.5774 0.5774
vn -0.5774 0.5774 0.5773
vn -0.5773 -0.5774 -0.5774
vn -0.5773 0.5774 -0.5774
vn 0.5774 -0.5774 0.5774
vn 0.5774 0.5774 0.5773
vn 0.5773 -0.5774 -0.5774
vn 0.5773 0.5774 -0.5774
vn -0.5774 -0.5774 -0.5774
vn 0.5774 -0.5774 -0.5774
vn 0.0000 0.0000 1.0000
vn -0.5774 -0.5774 0.5773
vn 0.5774 -0.5774 0.5773
usemtl restaurant
s off
f 18/1/1 20/2/1 15/3/1 13/4/1
f 19/5/2 9/6/2 4/7/2 14/8/2
f 2/9/3 5/10/3 11/11/3 7/12/3
f 8/13/4 10/14/4 21/15/4 17/16/4
f 1/17/5 30/18/5 2/19/5
f 3/20/6 4/21/6 5/22/6
f 6/23/7 7/24/7 8/25/7
f 9/26/8 10/27/8 11/28/8
f 12/29/9 13/30/9 40/31/9
f 14/32/10 44/33/10 15/34/10
f 16/35/11 17/36/11 18/37/11
f 19/38/12 20/39/12 21/40/12
f 6/23/13 1/17/13 2/19/13 7/24/13
f 30/18/14 3/41/14 5/42/14 2/19/14
f 4/21/15 9/26/15 11/28/15 5/22/15
f 10/43/16 8/25/16 7/24/16 11/44/16
f 16/35/17 6/23/17 8/25/17 17/36/17
f 9/26/18 19/38/18 21/40/18 10/27/18
f 20/45/19 18/37/19 17/36/19 21/46/19
f 12/29/20 16/35/20 18/37/20 13/30/20
f 19/38/21 14/32/21 15/34/21 20/39/21
f 44/47/22 40/31/22 13/30/22 15/48/22
f 1/17/23 12/29/23 40/31/23 30/18/23
f 14/32/24 4/21/24 3/20/24 44/33/24
f 6/49/25 16/50/25 12/51/25 1/52/25
f 41/53/1 43/54/1 38/55/1 34/56/1
f 42/57/2 31/58/2 26/59/2 36/60/2
f 24/61/3 27/62/3 32/63/3 29/64/3
f 22/65/26 23/66/26 24/67/26
f 25/68/27 26/69/27 27/70/27
f 28/71/28 29/72/28 30/18/28
f 31/73/29 3/20/29 32/74/29
f 33/75/30 34/76/30 35/77/30
f 36/78/31 37/79/31 38/80/31
f 39/81/32 40/31/32 41/82/32
f 42/83/33 43/84/33 44/33/33
f 28/71/13 22/65/13 24/67/13 29/72/13
f 23/66/14 25/85/14 27/86/14 24/67/14
f 26/69/15 31/73/15 32/74/15 27/70/15
f 3/41/16 30/18/16 29/72/16 32/87/16
f 39/81/17 28/71/17 30/18/17 40/31/17
f 31/73/18 42/83/18 44/33/18 3/20/18
f 43/88/19 41/82/19 40/31/19 44/47/19
f 33/75/20 39/81/20 41/82/20 34/76/20
f 42/83/21 36/78/21 38/80/21 43/84/21
f 37/89/22 35/77/22 34/76/22 38/90/22
f 22/65/23 33/75/23 35/77/23 23/66/23
f 36/78/24 26/69/24 25/68/24 37/79/24
f 28/91/25 39/92/25 33/93/25 22/94/25
f 59/95/1 61/96/1 57/97/1 55/98/1
f 60/99/2 52/100/2 48/101/2 56/102/2
f 46/103/3 49/104/3 53/105/3 51/106/3
f 45/107/5 70/108/5 46/109/5
f 47/110/6 48/111/6 49/112/6
f 50/113/34 51/114/34 23/66/34
f 52/115/8 25/68/8 53/116/8
f 54/117/9 55/118/9 80/119/9
f 56/120/10 84/121/10 57/122/10
f 58/123/35 35/77/35 59/124/35
f 60/125/12 61/126/12 37/79/12
f 50/113/13 45/107/13 46/109/13 51/114/13
f 70/108/14 47/127/14 49/128/14 46/109/14
f 48/111/15 52/115/15 53/116/15 49/112/15
f 25/85/16 23/66/16 51/114/16 53/129/16
f 58/123/17 50/113/17 23/66/17 35/77/17
f 52/115/18 60/125/18 37/79/18 25/68/18
f 61/130/19 59/124/19 35/77/19 37/89/19
f 54/117/20 58/123/20 59/124/20 55/118/20
f 60/125/21 56/120/21 57/122/21 61/126/21
f 84/131/22 80/119/22 55/118/22 57/132/22
f 45/107/23 54/117/23 80/119/23 70/108/23
f 56/120/24 48/111/24 47/110/24 84/121/24
f 50/133/25 58/134/25 54/135/25 45/136/25
f 75/137/36 77/138/36 65/139/36 63/140/36
f 81/141/1 83/142/1 78/143/1 74/144/1
f 82/145/2 71/146/2 66/147/2 76/148/2
f 64/149/3 67/150/3 72/151/3 69/152/3
f 62/153/37 63/154/37 64/155/37
f 65/156/27 66/157/27 67/158/27
f 68/159/28 69/160/28 70/108/28
f 71/161/29 47/110/29 72/162/29
f 73/163/38 74/164/38 75/165/38
f 76/166/31 77/167/31 78/168/31
f 79/169/32 80/119/32 81/170/32
f 82/171/33 83/172/33 84/121/33
f 68/159/13 62/153/13 64/155/13 69/160/13
f 63/154/14 65/173/14 67/174/14 64/155/14
f 66/157/15 71/161/15 72/162/15 67/158/15
f 47/127/16 70/108/16 69/160/16 72/175/16
f 79/169/17 68/159/17 70/108/17 80/119/17
f 71/161/18 82/171/18 84/121/18 47/110/18
f 83/176/19 81/170/19 80/119/19 84/131/19
f 73/163/20 79/169/20 81/170/20 74/164/20
f 82/171/21 76/166/21 78/168/21 83/172/21
f 77/177/22 75/165/22 74/164/22 78/178/22
f 62/153/23 73/163/23 75/165/23 63/154/23
f 76/166/24 66/157/24 65/156/24 77/167/24
f 68/179/25 79/180/25 73/181/25 62/182/25
