# Blender v3.4.1 OBJ File: 'restaurant_bits_export.blend'
# www.blender.org
mtllib cuttingboard.mtl
o cuttingboard_Cube.555
v -0.750000 0.000000 0.500000
v -0.750000 0.000000 -0.500000
v 0.750000 0.000000 0.500000
v 0.750000 0.000000 -0.500000
v -0.700000 0.150000 0.450000
v -0.750000 0.100000 0.500000
v -0.700000 0.150000 -0.450000
v -0.750000 0.100000 -0.500000
v 0.700000 0.150000 0.450000
v 0.750000 0.100000 0.500000
v 0.700000 0.150000 -0.450000
v 0.750000 0.100000 -0.500000
v 0.355092 0.000000 0.500000
v 0.150967 0.000000 0.500000
v 0.253030 0.000000 0.413773
v 0.150967 0.150000 0.450000
v 0.355092 0.150000 0.450000
v 0.253030 0.150000 0.363773
v 0.355092 0.100000 0.500000
v 0.150967 0.100000 0.500000
v 0.253030 0.100000 0.413773
vt 0.729174 0.584666
vt 0.729174 0.618601
vt 0.729174 0.618601
vt 0.729174 0.584666
vt 0.653591 0.584666
vt 0.653591 0.618601
vt 0.653591 0.618601
vt 0.653591 0.584666
vt 0.726654 0.682443
vt 0.726654 0.682443
vt 0.704132 0.682443
vt 0.698989 0.666818
vt 0.698989 0.649851
vt 0.704132 0.618601
vt 0.704132 0.666818
vt 0.656110 0.682443
vt 0.698989 0.682443
vt 0.726654 0.666818
vt 0.709275 0.666818
vt 0.709275 0.649851
vt 0.729174 0.649851
vt 0.698989 0.584666
vt 0.698989 0.618601
vt 0.656110 0.682443
vt 0.729174 0.649851
vt 0.726654 0.666818
vt 0.653591 0.553416
vt 0.653591 0.553416
vt 0.704132 0.553416
vt 0.729174 0.553416
vt 0.704132 0.587351
vt 0.704132 0.584666
vt 0.709275 0.584666
vt 0.709275 0.618601
vt 0.704132 0.649851
vt 0.656110 0.666818
vt 0.653591 0.649851
vt 0.656110 0.666818
vt 0.653591 0.649851
vt 0.729174 0.553416
vt 0.709275 0.553416
vt 0.698989 0.553416
vt 0.709275 0.682443
vn 1.0000 0.0000 0.0000
vn -1.0000 0.0000 0.0000
vn 0.0000 1.0000 0.0000
vn 0.0000 0.0000 -1.0000
vn 0.3007 0.6744 0.6744
vn 0.2185 0.6900 0.6900
vn 0.5129 0.6070 0.6070
vn 0.0000 0.7071 0.7071
vn -0.3007 0.6744 0.6744
vn -0.2185 0.6900 0.6900
vn 0.3436 0.0000 0.9391
vn 0.0000 0.0000 1.0000
vn 0.7071 0.7071 0.0000
vn 0.0000 -1.0000 0.0000
vn 0.6454 0.0000 0.7639
vn -0.6454 0.0000 0.7639
vn -0.3436 0.0000 0.9391
vn -0.5129 0.6070 0.6070
vn -0.7071 0.7071 0.0000
vn 0.0000 0.7071 -0.7071
usemtl restaurant
s 1
f 4/1/1 12/2/1 10/3/1 3/4/1
f 1/5/2 6/6/2 8/7/2 2/8/2
f 9/9/3 11/10/3 18/11/3
f 2/8/4 8/7/4 12/2/4 4/1/4
f 16/12/5 20/13/6 21/14/7 18/15/7
f 5/16/3 16/17/3 18/11/3
f 9/18/8 17/19/9 19/20/10 10/21/8
f 14/22/11 20/23/11 6/6/12 1/5/12
f 11/10/3 7/24/3 18/11/3
f 9/18/13 10/21/13 12/25/13 11/26/13
f 1/27/14 2/28/14 15/29/14
f 2/28/14 4/30/14 15/29/14
f 20/23/11 14/22/11 15/29/15 21/31/15
f 21/14/16 15/32/16 13/33/17 19/34/17
f 18/15/18 21/35/18 19/20/10 17/19/9
f 5/36/8 6/37/8 20/13/6 16/12/5
f 3/4/12 10/3/12 19/34/17 13/33/17
f 7/38/19 8/39/19 6/37/19 5/36/19
f 3/40/14 13/41/14 15/29/14
f 11/26/20 12/25/20 8/39/20 7/38/20
f 14/42/14 1/27/14 15/29/14
f 4/30/14 3/40/14 15/29/14
f 7/24/3 5/16/3 18/11/3
f 17/43/3 9/9/3 18/11/3
