# Blender v3.4.1 OBJ File: 'restaurant_bits_export.blend'
# www.blender.org
mtllib dishrack.mtl
o dishrack_Cylinder.153
v 0.020714 0.050006 0.500000
v 0.020714 0.050006 -0.500000
v 0.050004 0.079295 0.500000
v 0.050004 0.079295 -0.500000
v 0.050004 0.120717 0.500000
v 0.050004 0.120717 -0.500000
v 0.020714 0.150006 0.500000
v 0.020714 0.150006 -0.500000
v -0.020707 0.150006 0.500000
v -0.020707 0.150006 -0.500000
v -0.049996 0.120717 0.500000
v -0.049996 0.120717 -0.500000
v -0.049996 0.079295 0.500000
v -0.049996 0.079295 -0.500000
v -0.020707 0.050006 0.500000
v -0.020707 0.050006 -0.500000
v -0.549996 0.000000 0.550000
v -0.599996 0.050000 0.550000
v -0.549996 0.600000 0.550000
v -0.599996 0.550000 0.550000
v -0.549996 0.000000 0.450000
v -0.599996 0.050000 0.450000
v -0.549996 0.600000 0.450000
v -0.599996 0.550000 0.450000
v 0.550004 0.000000 0.550000
v 0.600004 0.050000 0.550000
v 0.550004 0.600000 0.550000
v 0.600004 0.550000 0.550000
v 0.550004 0.000000 0.450000
v 0.600004 0.050000 0.450000
v 0.550004 0.600000 0.450000
v 0.600004 0.550000 0.450000
v -0.549996 0.000000 -0.450000
v -0.599996 0.050000 -0.450000
v -0.549996 0.600000 -0.450000
v -0.599996 0.550000 -0.450000
v -0.549996 0.000000 -0.550000
v -0.599996 0.050000 -0.550000
v -0.549996 0.600000 -0.550000
v -0.599996 0.550000 -0.550000
v 0.550004 0.000000 -0.450000
v 0.600004 0.050000 -0.450000
v 0.550004 0.600000 -0.450000
v 0.600004 0.550000 -0.450000
v 0.550004 0.000000 -0.550000
v 0.600004 0.050000 -0.550000
v 0.550004 0.600000 -0.550000
v 0.600004 0.550000 -0.550000
v -0.479286 0.450000 0.500000
v -0.479286 0.450000 -0.500000
v -0.449996 0.479289 0.500000
v -0.449996 0.479289 -0.500000
v -0.449996 0.520711 0.500000
v -0.449996 0.520711 -0.500000
v -0.479286 0.550000 0.500000
v -0.479286 0.550000 -0.500000
v -0.520707 0.550000 0.500000
v -0.520707 0.550000 -0.500000
v -0.549996 0.520711 0.500000
v -0.549996 0.520711 -0.500000
v -0.549996 0.479289 0.500000
v -0.549996 0.479289 -0.500000
v -0.520707 0.450000 0.500000
v -0.520707 0.450000 -0.500000
v 0.520715 0.450000 0.500000
v 0.520715 0.450000 -0.500000
v 0.550004 0.479289 0.500000
v 0.550004 0.479289 -0.500000
v 0.550004 0.520711 0.500000
v 0.550004 0.520711 -0.500000
v 0.520714 0.550000 0.500000
v 0.520714 0.550000 -0.500000
v 0.479293 0.550000 0.500000
v 0.479293 0.550000 -0.500000
v 0.450004 0.520711 0.500000
v 0.450004 0.520711 -0.500000
v 0.450004 0.479289 0.500000
v 0.450004 0.479289 -0.500000
v 0.479293 0.450000 0.500000
v 0.479293 0.450000 -0.500000
v -0.549996 0.050000 0.600000
v -0.549996 0.550000 0.600000
v -0.549996 0.550000 0.400000
v -0.549996 0.050000 0.400000
v 0.550004 0.050000 0.400000
v 0.550004 0.550000 0.400000
v 0.550004 0.550000 0.600000
v 0.550004 0.050000 0.600000
v -0.549996 0.050000 -0.400000
v -0.549996 0.550000 -0.400000
v -0.549996 0.550000 -0.600000
v -0.549996 0.050000 -0.600000
v 0.550004 0.050000 -0.600000
v 0.550004 0.550000 -0.600000
v 0.550004 0.550000 -0.400000
v 0.550004 0.050000 -0.400000
v -0.479996 0.120000 0.600000
v -0.429996 0.170000 0.550000
v -0.429996 0.430000 0.550000
v -0.479996 0.480000 0.600000
v -0.429996 0.170000 0.450000
v -0.479996 0.120000 0.400000
v -0.479996 0.480000 0.400000
v -0.429996 0.430000 0.450000
v 0.430004 0.170000 0.550000
v 0.480004 0.120000 0.600000
v 0.480004 0.480000 0.600000
v 0.430004 0.430000 0.550000
v 0.430004 0.170000 0.450000
v 0.480004 0.120000 0.400000
v 0.480004 0.480000 0.400000
v 0.430004 0.430000 0.450000
v -0.479996 0.120000 -0.400000
v -0.429996 0.170000 -0.450000
v -0.429996 0.430000 -0.450000
v -0.479996 0.480000 -0.400000
v -0.429996 0.170000 -0.550000
v -0.479996 0.120000 -0.600000
v -0.479996 0.480000 -0.600000
v -0.429996 0.430000 -0.550000
v 0.430004 0.170000 -0.450000
v 0.480004 0.120000 -0.400000
v 0.480004 0.480000 -0.400000
v 0.430004 0.430000 -0.450000
v 0.430004 0.170000 -0.550000
v 0.480004 0.120000 -0.600000
v 0.480004 0.480000 -0.600000
v 0.430004 0.430000 -0.550000
v 0.050004 0.120717 -0.250000
v 0.050004 0.120717 -0.125000
v 0.050004 0.120717 0.125000
v 0.050004 0.120717 0.250000
v 0.020714 0.150006 -0.250000
v 0.020714 0.150006 -0.125000
v 0.020714 0.150006 0.125000
v 0.020714 0.150006 0.250000
v -0.020707 0.150006 -0.250000
v -0.020707 0.150006 -0.125000
v -0.020707 0.150006 0.125000
v -0.020707 0.150006 0.250000
v -0.049996 0.120717 -0.250000
v -0.049996 0.120717 -0.125000
v -0.049996 0.120717 0.125000
v -0.049996 0.120717 0.250000
v 0.450004 0.520711 -0.254286
v 0.450004 0.520711 -0.111429
v 0.450004 0.520711 0.111429
v 0.450004 0.520711 0.254286
v 0.450004 0.479289 -0.254286
v 0.450004 0.479289 -0.111429
v 0.450004 0.479289 0.111429
v 0.450004 0.479289 0.254286
v -0.449996 0.479289 -0.254286
v -0.449996 0.479289 -0.111429
v -0.449996 0.479289 0.111429
v -0.449996 0.479289 0.254286
v -0.449996 0.520711 -0.254286
v -0.449996 0.520711 -0.111429
v -0.449996 0.520711 0.111429
v -0.449996 0.520711 0.254286
vt 0.453525 0.947718
vt 0.453525 0.947718
vt 0.451965 0.952462
vt 0.451965 0.952462
vt 0.423112 0.808966
vt 0.425319 0.808966
vt 0.425319 0.808966
vt 0.423112 0.808966
vt 0.398636 0.909873
vt 0.449795 0.909873
vt 0.453525 0.921212
vt 0.394906 0.921212
vt 0.456190 0.840215
vt 0.456190 0.921212
vt 0.456190 0.921212
vt 0.456190 0.840215
vt 0.453525 0.976187
vt 0.394906 0.976187
vt 0.394906 0.976187
vt 0.453525 0.976187
vt 0.392241 0.840215
vt 0.392241 0.921212
vt 0.392241 0.921212
vt 0.392241 0.840215
vt 0.449795 0.851554
vt 0.398636 0.851554
vt 0.394906 0.840215
vt 0.453525 0.840215
vt 0.394906 0.800865
vt 0.394906 0.808965
vt 0.392241 0.808965
vt 0.394906 0.952462
vt 0.392241 0.952462
vt 0.394906 0.800865
vt 0.392241 0.808965
vt 0.394906 0.808965
vt 0.394906 0.952462
vt 0.392241 0.952462
vt 0.453525 0.800865
vt 0.456190 0.808965
vt 0.453525 0.808965
vt 0.453525 0.952462
vt 0.456190 0.952462
vt 0.453525 0.800865
vt 0.453525 0.808965
vt 0.456190 0.808965
vt 0.456190 0.952462
vt 0.453525 0.952462
vt 0.394906 0.921212
vt 0.394906 0.840215
vt 0.453525 0.840215
vt 0.453525 0.921212
vt 0.449795 0.851554
vt 0.449795 0.909873
vt 0.456190 0.840215
vt 0.456190 0.921212
vt 0.456190 0.921212
vt 0.456190 0.840215
vt 0.453525 0.976187
vt 0.394906 0.976187
vt 0.394906 0.976187
vt 0.453525 0.976187
vt 0.392241 0.840215
vt 0.392241 0.921212
vt 0.392241 0.921212
vt 0.392241 0.840215
vt 0.398636 0.909873
vt 0.398636 0.851554
vt 0.394906 0.800865
vt 0.394906 0.808965
vt 0.392241 0.808965
vt 0.394906 0.952462
vt 0.392241 0.952462
vt 0.394906 0.800865
vt 0.392241 0.808965
vt 0.394906 0.808965
vt 0.394906 0.952462
vt 0.392241 0.952462
vt 0.453525 0.800865
vt 0.456190 0.808965
vt 0.453525 0.808965
vt 0.453525 0.952462
vt 0.456190 0.952462
vt 0.453525 0.800865
vt 0.453525 0.808965
vt 0.456190 0.808965
vt 0.456190 0.952462
vt 0.453525 0.952462
vt 0.394906 0.840215
vt 0.394906 0.921212
vt 0.394906 0.921212
vt 0.394906 0.840215
vt 0.453525 0.840215
vt 0.453525 0.921212
vt 0.453525 0.921212
vt 0.453525 0.840215
vt 0.396467 0.873763
vt 0.398674 0.873763
vt 0.398674 0.873763
vt 0.396467 0.873763
vt 0.400235 0.947718
vt 0.398674 0.952462
vt 0.398674 0.952462
vt 0.400235 0.947718
vt 0.448196 0.909757
vt 0.449757 0.873763
vt 0.449757 0.873763
vt 0.448196 0.909758
vt 0.426880 0.844961
vt 0.426880 0.844961
vt 0.425319 0.887665
vt 0.423112 0.887665
vt 0.423112 0.887665
vt 0.425319 0.887665
vt 0.421551 0.851671
vt 0.421551 0.844961
vt 0.421551 0.844961
vt 0.421551 0.851671
vt 0.426880 0.851671
vt 0.426880 0.851671
vt 0.449757 0.952462
vt 0.449757 0.952462
vt 0.448196 0.947718
vt 0.448196 0.947718
vt 0.451965 0.873763
vt 0.451965 0.873763
vt 0.453525 0.909757
vt 0.453525 0.909758
vt 0.453525 0.916468
vt 0.453525 0.916468
vt 0.394906 0.909758
vt 0.394906 0.909757
vt 0.394906 0.916468
vt 0.394906 0.916468
vt 0.396467 0.952462
vt 0.396467 0.952462
vt 0.394906 0.947718
vt 0.394906 0.947718
vt 0.400235 0.909757
vt 0.400235 0.909758
vt 0.448196 0.916468
vt 0.448196 0.916468
vt 0.400235 0.916468
vt 0.400235 0.916468
vt 0.447131 0.859654
vt 0.401300 0.859654
vt 0.401300 0.859654
vt 0.447131 0.859654
vt 0.401300 0.828404
vt 0.401300 0.870523
vt 0.401300 0.870523
vt 0.401300 0.828404
vt 0.447131 0.870523
vt 0.447131 0.828404
vt 0.447131 0.828404
vt 0.447131 0.870523
vt 0.401300 0.828404
vt 0.401300 0.870523
vt 0.401300 0.870523
vt 0.401300 0.828404
vt 0.401300 0.839273
vt 0.447131 0.839273
vt 0.447131 0.839273
vt 0.401300 0.839273
vt 0.447131 0.859654
vt 0.401300 0.859654
vt 0.401300 0.859654
vt 0.447131 0.859654
vt 0.398636 0.851554
vt 0.449795 0.851554
vt 0.449795 0.909873
vt 0.398636 0.909873
vt 0.447131 0.870523
vt 0.447131 0.828404
vt 0.447131 0.828404
vt 0.447131 0.870523
vt 0.401300 0.839273
vt 0.447131 0.839273
vt 0.447131 0.839273
vt 0.401300 0.839273
vt 0.398636 0.909873
vt 0.449795 0.909873
vt 0.449795 0.851554
vt 0.398636 0.851554
vt 0.401300 0.901773
vt 0.401300 0.901773
vt 0.401300 0.890904
vt 0.447131 0.890904
vt 0.449795 0.882804
vt 0.398636 0.882804
vt 0.398636 0.878623
vt 0.449795 0.878623
vt 0.447131 0.901773
vt 0.447131 0.901773
vt 0.447131 0.890904
vt 0.401300 0.890904
vt 0.398636 0.882804
vt 0.449795 0.882804
vt 0.449795 0.878623
vt 0.398636 0.878623
vt 0.401300 0.901773
vt 0.401300 0.901773
vt 0.401300 0.890904
vt 0.447131 0.890904
vt 0.449795 0.882804
vt 0.398636 0.882804
vt 0.398636 0.878623
vt 0.449795 0.878623
vt 0.447131 0.901773
vt 0.447131 0.901773
vt 0.447131 0.890904
vt 0.401300 0.890904
vt 0.398636 0.882804
vt 0.449795 0.882804
vt 0.449795 0.878623
vt 0.398636 0.878623
vt 0.400235 0.878508
vt 0.400235 0.878507
vt 0.421551 0.820421
vt 0.421551 0.820421
vt 0.400235 0.878507
vt 0.400235 0.878507
vt 0.421551 0.820421
vt 0.421551 0.820421
vt 0.448196 0.947718
vt 0.448196 0.947718
vt 0.425319 0.887665
vt 0.425319 0.887665
vt 0.448196 0.947718
vt 0.448196 0.947718
vt 0.425319 0.887665
vt 0.425319 0.887665
vt 0.448196 0.909758
vt 0.448196 0.916468
vt 0.425319 0.856415
vt 0.426880 0.851671
vt 0.448196 0.909757
vt 0.448196 0.916468
vt 0.425319 0.856415
vt 0.426880 0.851671
vt 0.400235 0.916468
vt 0.400235 0.909758
vt 0.421551 0.851671
vt 0.423112 0.856415
vt 0.400235 0.916468
vt 0.400235 0.909757
vt 0.421551 0.851671
vt 0.423112 0.856415
vt 0.448196 0.916468
vt 0.448196 0.909757
vt 0.426880 0.851671
vt 0.425319 0.856415
vt 0.448196 0.878507
vt 0.448196 0.878508
vt 0.426880 0.820421
vt 0.426880 0.820421
vt 0.400235 0.909757
vt 0.400235 0.916468
vt 0.423112 0.856415
vt 0.421551 0.851671
vt 0.400235 0.947718
vt 0.400235 0.947718
vt 0.423112 0.887665
vt 0.423112 0.887665
vt 0.400235 0.909757
vt 0.400235 0.916468
vt 0.423112 0.856415
vt 0.421551 0.851671
vt 0.400235 0.947718
vt 0.400235 0.947718
vt 0.423112 0.887665
vt 0.423112 0.887665
vt 0.448196 0.916468
vt 0.448196 0.909757
vt 0.426880 0.851671
vt 0.425319 0.856415
vt 0.448196 0.878507
vt 0.448196 0.878507
vt 0.426880 0.820421
vt 0.426880 0.820421
vn 0.7071 0.7071 -0.0000
vn 0.3827 0.9239 -0.0000
vn 0.0000 -1.0000 0.0000
vn 0.1244 0.0000 0.9922
vn 0.0000 0.0000 1.0000
vn -0.3416 0.3416 0.8756
vn 0.9239 -0.3827 -0.0000
vn 0.9239 0.3827 0.0000
vn 0.0000 1.0000 0.0000
vn -0.9239 -0.3827 0.0000
vn -0.9239 0.3827 0.0000
vn -0.3416 -0.3416 0.8756
vn -0.2418 -0.6861 0.6861
vn -0.6861 -0.2418 0.6861
vn -0.2418 0.6861 0.6861
vn -0.6861 0.2418 0.6861
vn -0.2418 -0.6861 -0.6861
vn -0.6861 -0.2418 -0.6861
vn -0.3416 -0.3416 -0.8756
vn -0.2418 0.6861 -0.6861
vn -0.3416 0.3416 -0.8756
vn -0.6861 0.2418 -0.6861
vn 0.2418 -0.6861 0.6861
vn 0.6861 -0.2418 0.6861
vn 0.4606 -0.4606 0.7588
vn 0.2418 0.6861 0.6861
vn 0.4606 0.4606 0.7588
vn 0.6861 0.2418 0.6861
vn 0.2418 -0.6861 -0.6861
vn 0.3416 -0.3416 -0.8756
vn 0.6861 -0.2418 -0.6861
vn 0.2418 0.6861 -0.6861
vn 0.6861 0.2418 -0.6861
vn 0.3416 0.3416 -0.8756
vn -0.7071 -0.7071 0.0000
vn -0.7071 0.7071 0.0000
vn 0.3827 -0.9239 -0.0000
vn 0.0000 0.0000 -1.0000
vn -0.3827 0.9239 0.0000
vn 0.1244 0.0000 -0.9922
vn -0.4606 -0.4606 -0.7588
vn -0.4606 0.4606 -0.7588
vn 0.4606 -0.4606 -0.7588
vn 0.4606 0.4606 -0.7588
vn -0.3827 -0.9239 0.0000
vn 0.7071 -0.7071 0.0000
vn 1.0000 0.0000 0.0000
vn -1.0000 0.0000 0.0000
vn -0.1244 0.0000 -0.9922
vn -0.1244 0.0000 0.9922
vn 0.7071 0.0000 0.7071
vn 0.7071 0.0000 -0.7071
vn 0.0000 0.7071 -0.7071
vn 0.0000 -0.7071 -0.7071
vn -0.7071 0.0000 -0.7071
vn -0.7071 0.0000 0.7071
vn -0.0000 0.7071 0.7071
vn 0.0000 -0.7071 0.7071
vn -0.6675 -0.7446 0.0000
vn -0.6536 0.7569 0.0000
vn -0.0076 -0.0031 1.0000
vn -0.0240 -0.0099 0.9997
vn 0.0076 -0.0031 1.0000
vn 0.0240 -0.0099 0.9997
vn -0.0240 -0.0099 -0.9997
vn 0.6675 -0.7446 0.0000
vn 0.0240 -0.0099 -0.9997
vn 0.6536 0.7569 0.0000
vn 0.0076 -0.0031 -1.0000
vn -0.0076 -0.0031 -1.0000
usemtl restaurant
s 1
f 69/1/1 70/2/1 72/3/2 71/4/2
f 16/5/3 2/6/3 1/7/3 15/8/3
f 100/9/4 107/10/5 87/11/5 82/12/6
f 30/13/7 32/14/8 28/15/8 26/16/7
f 31/17/2 23/18/9 19/19/9 27/20/2
f 18/21/10 20/22/11 24/23/11 22/24/10
f 106/25/5 97/26/4 81/27/12 88/28/5
f 17/29/13 81/30/12 18/31/14
f 82/32/6 19/19/15 20/33/16
f 21/34/17 22/35/18 84/36/19
f 23/18/20 83/37/21 24/38/22
f 25/39/23 26/40/24 88/41/25
f 27/20/26 87/42/27 28/43/28
f 29/44/29 85/45/30 30/46/31
f 31/17/32 32/47/33 86/48/34
f 21/34/35 17/29/35 18/31/10 22/35/10
f 81/27/12 82/12/6 20/22/16 18/21/14
f 19/19/36 23/18/36 24/38/11 20/33/11
f 83/49/21 84/50/19 22/24/18 24/23/22
f 29/44/29 21/34/17 84/36/19 85/45/30
f 23/18/20 31/17/32 86/48/34 83/37/21
f 32/14/33 30/13/31 85/51/30 86/52/34
f 25/39/37 29/44/37 30/46/7 26/40/7
f 31/17/2 27/20/2 28/43/8 32/47/8
f 87/11/27 88/28/25 26/16/24 28/15/28
f 17/29/13 25/39/23 88/41/25 81/30/12
f 27/20/26 19/19/15 82/32/6 87/42/27
f 21/34/3 29/44/37 25/39/37 17/29/3
f 110/53/38 111/54/38 86/52/34 85/51/30
f 46/55/7 48/56/8 44/57/8 42/58/7
f 47/59/2 39/60/39 35/61/39 43/62/2
f 34/63/10 36/64/11 40/65/11 38/66/10
f 103/67/40 102/68/40 84/50/19 83/49/21
f 33/69/13 89/70/12 34/71/14
f 90/72/6 35/61/15 36/73/16
f 37/74/17 38/75/18 92/76/41
f 39/60/20 91/77/42 40/78/22
f 41/79/23 42/80/24 96/81/25
f 43/62/26 95/82/27 44/83/28
f 45/84/29 93/85/43 46/86/31
f 47/59/32 48/87/33 94/88/44
f 37/74/45 33/69/45 34/71/10 38/75/10
f 89/89/12 90/90/6 36/64/16 34/63/14
f 35/61/39 39/60/39 40/78/11 36/73/11
f 91/91/42 92/92/41 38/66/18 40/65/22
f 45/84/29 37/74/17 92/76/41 93/85/43
f 39/60/20 47/59/32 94/88/44 91/77/42
f 48/56/33 46/55/31 93/93/43 94/94/44
f 41/79/37 45/84/37 46/86/7 42/80/7
f 47/59/2 43/62/2 44/83/8 48/87/8
f 95/95/27 96/96/25 42/58/24 44/57/28
f 33/69/13 41/79/23 96/81/25 89/70/12
f 43/62/26 35/61/15 90/72/6 95/82/27
f 37/74/45 45/84/37 41/79/37 33/69/45
f 64/97/3 50/98/37 49/99/37 63/100/3
f 54/101/8 56/102/2 55/103/2 53/104/8
f 78/105/10 80/106/45 79/107/45 77/108/10
f 1/7/46 2/6/46 4/109/7 3/110/7
f 8/111/9 10/112/9 9/113/9 7/114/9
f 12/115/11 14/116/10 13/117/10 11/118/11
f 6/119/8 5/120/8 3/110/7 4/109/7
f 73/121/39 74/122/39 76/123/11 75/124/11
f 72/3/2 74/122/39 73/121/39 71/4/2
f 65/125/46 66/126/46 68/127/7 67/128/7
f 79/107/45 80/106/45 66/126/3 65/125/3
f 67/128/7 68/127/7 70/129/47 69/130/47
f 61/131/10 62/132/10 64/97/35 63/100/35
f 59/133/11 60/134/11 62/132/10 61/131/10
f 57/135/36 58/136/36 60/137/11 59/138/11
f 55/103/2 56/102/2 58/136/9 57/135/9
f 49/99/37 50/98/37 52/139/7 51/140/7
f 76/141/11 78/105/10 77/108/10 75/142/11
f 52/139/7 54/143/8 53/144/8 51/140/7
f 10/112/36 12/115/11 11/118/11 9/113/36
f 6/119/8 8/111/1 7/114/1 5/120/8
f 16/5/35 15/8/35 13/117/10 14/116/10
f 109/145/9 101/146/9 98/147/9 105/148/9
f 102/68/40 110/53/38 85/51/30 84/50/19
f 111/54/38 103/67/40 83/49/21 86/52/34
f 107/10/5 106/25/5 88/28/5 87/11/5
f 117/149/47 120/150/47 115/151/47 114/152/47
f 112/153/48 109/154/48 105/155/48 108/156/48
f 101/157/47 104/158/47 99/159/47 98/160/47
f 104/161/3 112/162/3 108/163/3 99/164/3
f 125/165/9 117/166/9 114/167/9 121/168/9
f 118/169/38 126/170/49 93/93/38 92/92/38
f 127/171/49 119/172/38 91/91/38 94/94/38
f 128/173/48 125/174/48 121/175/48 124/176/48
f 126/170/49 127/171/49 94/94/38 93/93/38
f 120/177/3 128/178/3 124/179/3 115/180/3
f 119/172/38 118/169/38 92/92/38 91/91/38
f 116/181/5 123/182/50 95/95/5 90/90/6
f 123/182/50 122/183/50 96/96/5 95/95/5
f 122/183/50 113/184/5 89/89/12 96/96/5
f 113/184/5 116/181/5 90/90/6 89/89/12
f 98/147/51 99/185/51 100/9/4 97/26/4
f 104/186/52 101/146/52 102/68/40 103/67/40
f 101/187/53 109/188/53 110/189/53 102/190/53
f 112/153/54 104/158/54 103/191/54 111/192/54
f 109/145/55 112/193/55 111/54/55 110/53/55
f 108/194/56 105/148/56 106/25/56 107/10/56
f 105/195/57 98/196/57 97/197/57 106/198/57
f 99/159/58 108/156/58 107/199/58 100/200/58
f 114/167/51 115/201/51 116/181/51 113/184/51
f 120/202/52 117/166/52 118/169/52 119/172/52
f 117/203/53 125/204/53 126/205/53 118/206/53
f 128/173/54 120/150/54 119/207/54 127/208/54
f 125/165/55 128/209/55 127/171/49 126/170/49
f 124/210/56 121/168/56 122/183/50 123/182/50
f 121/211/57 114/212/57 113/213/57 122/214/57
f 115/151/58 124/176/58 123/215/58 116/216/58
f 97/26/4 100/9/4 82/12/6 81/27/12
f 156/217/59 155/218/59 143/219/59 144/220/59
f 154/221/59 153/222/59 141/223/59 142/224/59
f 148/225/60 147/226/60 135/227/60 136/228/60
f 146/229/60 145/230/60 133/231/60 134/232/60
f 152/233/61 148/234/61 136/235/61 132/236/61
f 150/237/62 146/238/62 134/239/62 130/240/62
f 160/241/63 156/242/63 144/243/63 140/244/63
f 158/245/64 154/246/64 142/247/64 138/248/64
f 147/249/65 151/250/65 131/251/65 135/252/65
f 151/253/66 152/254/66 132/255/66 131/256/66
f 155/257/67 159/258/67 139/259/67 143/260/67
f 159/261/68 160/262/68 140/263/68 139/264/68
f 153/265/69 157/266/69 137/267/69 141/268/69
f 157/269/68 158/270/68 138/271/68 137/272/68
f 145/273/70 149/274/70 129/275/70 133/276/70
f 149/277/66 150/278/66 130/279/66 129/280/66
