# Blender v3.4.1 OBJ File: 'restaurant_bits_export.blend'
# www.blender.org
mtllib food_ingredient_tomato_slice.mtl
o food_ingredient_tomato_slice_Sphere.116
v 0.124372 0.081231 -0.300261
v 0.229810 0.081231 -0.229810
v 0.300261 0.081231 -0.124372
v 0.325000 0.081231 0.000000
v 0.300261 0.081231 0.124372
v 0.229810 0.081231 0.229810
v 0.124372 0.081231 0.300261
v -0.000000 0.081231 0.325000
v -0.124372 0.081231 0.300261
v -0.229810 0.081231 0.229810
v -0.300261 0.081231 0.124372
v -0.325000 0.081231 -0.000000
v -0.300261 0.081231 -0.124372
v -0.229810 0.081231 -0.229810
v -0.124372 0.081231 -0.300261
v 0.000000 0.081231 -0.325000
v 0.117049 0.100000 -0.282581
v 0.216278 0.100000 -0.216278
v 0.282581 0.100000 -0.117049
v 0.305863 0.100000 0.000000
v 0.282581 0.100000 0.117049
v 0.216278 0.100000 0.216278
v 0.117049 0.100000 0.282581
v -0.000000 0.100000 0.305863
v -0.117049 0.100000 0.282581
v -0.216278 0.100000 0.216278
v -0.282581 0.100000 0.117049
v -0.305863 0.100000 -0.000000
v -0.282580 0.100000 -0.117049
v -0.216278 0.100000 -0.216278
v -0.117049 0.100000 -0.282581
v 0.000000 0.100000 -0.305863
v 0.129693 0.100000 -0.194100
v 0.219897 0.100000 -0.091084
v 0.238015 0.100000 0.000000
v 0.194100 0.100000 0.129693
v 0.091084 0.100000 0.219897
v -0.000000 0.100000 0.238015
v -0.129693 0.100000 0.194100
v -0.219897 0.100000 0.091084
v -0.238015 0.100000 -0.000000
v -0.194100 0.100000 -0.129693
v -0.091084 0.100000 -0.219897
v 0.000000 0.100000 -0.238015
v 0.038163 0.099995 -0.057114
v 0.108948 0.100000 -0.045128
v 0.117925 0.100000 -0.000000
v 0.057114 0.099995 0.038163
v 0.045128 0.100000 0.108948
v 0.000000 0.100000 0.117925
v -0.038163 0.099995 0.057114
v -0.108948 0.100000 0.045128
v -0.117925 0.100000 -0.000000
v -0.057114 0.099995 -0.038163
v -0.045128 0.100000 -0.108948
v 0.000000 0.100000 -0.117925
v 0.124372 0.018800 -0.300261
v 0.229810 0.018800 -0.229810
v 0.300261 0.018800 -0.124372
v 0.325000 0.018800 0.000000
v 0.300261 0.018800 0.124372
v 0.229810 0.018800 0.229810
v 0.124372 0.018800 0.300261
v -0.000000 0.018800 0.325000
v -0.124372 0.018800 0.300261
v -0.229810 0.018800 0.229810
v -0.300261 0.018800 0.124372
v -0.325000 0.018800 -0.000000
v -0.300261 0.018800 -0.124372
v -0.229810 0.018800 -0.229810
v -0.124372 0.018800 -0.300261
v 0.000000 0.018800 -0.325000
v 0.117049 0.000031 -0.282581
v 0.216278 0.000030 -0.216278
v 0.282581 0.000031 -0.117049
v 0.305863 0.000030 0.000000
v 0.282581 0.000031 0.117049
v 0.216278 0.000030 0.216278
v 0.117049 0.000031 0.282581
v -0.000000 0.000031 0.305863
v -0.117049 0.000031 0.282581
v -0.216278 0.000030 0.216278
v -0.282581 0.000031 0.117049
v -0.305863 0.000030 -0.000000
v -0.282580 0.000031 -0.117049
v -0.216278 0.000031 -0.216278
v -0.117049 0.000031 -0.282581
v 0.000000 0.000031 -0.305863
v 0.129693 0.000031 -0.194100
v 0.219897 0.000031 -0.091084
v 0.238015 0.000030 0.000000
v 0.194100 0.000031 0.129693
v 0.091084 0.000031 0.219897
v -0.000000 0.000031 0.238015
v -0.129693 0.000031 0.194100
v -0.219897 0.000031 0.091084
v -0.238015 0.000030 -0.000000
v -0.194100 0.000031 -0.129693
v -0.091084 0.000031 -0.219897
v 0.000000 0.000031 -0.238015
v 0.038163 0.000035 -0.057114
v 0.108948 0.000031 -0.045128
v 0.117925 0.000030 -0.000000
v 0.057114 0.000035 0.038163
v 0.045128 0.000031 0.108948
v 0.000000 0.000031 0.117925
v -0.038163 0.000035 0.057114
v -0.108948 0.000031 0.045128
v -0.117925 0.000030 -0.000000
v -0.057114 0.000035 -0.038163
v -0.045128 0.000031 -0.108948
v 0.000000 0.000031 -0.117925
vt 0.967646 0.400217
vt 0.953367 0.400217
vt 0.952375 0.407746
vt 0.965813 0.407746
vt 0.974792 0.407746
vt 0.977186 0.400217
vt 0.980537 0.400217
vt 0.977945 0.407746
vt 0.977186 0.400217
vt 0.974792 0.407746
vt 0.965813 0.407746
vt 0.967646 0.400217
vt 0.952375 0.407746
vt 0.953367 0.400217
vt 0.936524 0.400217
vt 0.936524 0.407746
vt 0.919681 0.400217
vt 0.920672 0.407746
vt 0.907234 0.407746
vt 0.905402 0.400217
vt 0.898255 0.407746
vt 0.895861 0.400217
vt 0.892511 0.400217
vt 0.895102 0.407746
vt 0.895861 0.400217
vt 0.898255 0.407746
vt 0.907234 0.407746
vt 0.905402 0.400217
vt 0.919681 0.400217
vt 0.920672 0.407746
vt 0.936524 0.400217
vt 0.936524 0.407746
vt 0.954087 0.376496
vt 0.965813 0.376496
vt 0.952375 0.376496
vt 0.966303 0.376496
vt 0.974792 0.376496
vt 0.968757 0.376496
vt 0.977945 0.376496
vt 0.962810 0.376496
vt 0.974792 0.376496
vt 0.965813 0.376496
vt 0.948859 0.376496
vt 0.952375 0.376496
vt 0.936524 0.376496
vt 0.936524 0.376496
vt 0.918960 0.376496
vt 0.920672 0.376496
vt 0.907234 0.376496
vt 0.906744 0.376496
vt 0.898255 0.376496
vt 0.904290 0.376496
vt 0.895102 0.376496
vt 0.910238 0.376496
vt 0.898255 0.376496
vt 0.907234 0.376496
vt 0.924188 0.376496
vt 0.920672 0.376496
vt 0.936524 0.376496
vt 0.936524 0.376496
vt 0.941692 0.360870
vt 0.951278 0.360871
vt 0.966303 0.392121
vt 0.954087 0.392121
vt 0.951278 0.407746
vt 0.952494 0.407746
vt 0.968757 0.407746
vt 0.966303 0.407746
vt 0.952494 0.360871
vt 0.944258 0.360870
vt 0.962810 0.392121
vt 0.968757 0.392121
vt 0.942635 0.360871
vt 0.948859 0.392121
vt 0.942635 0.407746
vt 0.936524 0.407746
vt 0.936524 0.407746
vt 0.948859 0.407746
vt 0.936524 0.360871
vt 0.931355 0.360870
vt 0.918960 0.392121
vt 0.936524 0.392121
vt 0.921769 0.360871
vt 0.906744 0.392121
vt 0.921769 0.407746
vt 0.920554 0.407746
vt 0.904290 0.407746
vt 0.906744 0.407746
vt 0.920554 0.360871
vt 0.928789 0.360870
vt 0.910238 0.392121
vt 0.904290 0.392121
vt 0.930412 0.360871
vt 0.924188 0.392121
vt 0.930412 0.407746
vt 0.936524 0.407746
vt 0.936524 0.407746
vt 0.924188 0.407746
vt 0.936524 0.360871
vt 0.936524 0.392121
vt 0.967646 0.343923
vt 0.953367 0.343923
vt 0.953367 0.384592
vt 0.967646 0.384592
vt 0.905402 0.343923
vt 0.905402 0.384592
vt 0.895861 0.384592
vt 0.895861 0.343923
vt 0.919681 0.343923
vt 0.919681 0.384592
vt 0.977186 0.343923
vt 0.980537 0.343923
vt 0.980537 0.384592
vt 0.977186 0.384592
vt 0.895861 0.343923
vt 0.895861 0.384592
vt 0.905402 0.384592
vt 0.905402 0.343923
vt 0.977186 0.343923
vt 0.977186 0.384592
vt 0.936524 0.343923
vt 0.953367 0.343923
vt 0.953367 0.384592
vt 0.936524 0.384592
vt 0.936524 0.343923
vt 0.936524 0.384592
vt 0.919681 0.343923
vt 0.919681 0.384592
vt 0.892511 0.343923
vt 0.892511 0.384592
vt 0.967646 0.384592
vt 0.967646 0.343923
vt 0.967646 0.359548
vt 0.965813 0.352018
vt 0.952375 0.352018
vt 0.953367 0.359548
vt 0.977186 0.359548
vt 0.974792 0.352018
vt 0.980537 0.359548
vt 0.977945 0.352018
vt 0.977186 0.359548
vt 0.974792 0.352018
vt 0.967646 0.359548
vt 0.965813 0.352018
vt 0.953367 0.359548
vt 0.952375 0.352018
vt 0.936524 0.359548
vt 0.936524 0.352018
vt 0.919681 0.359548
vt 0.920672 0.352018
vt 0.905402 0.359548
vt 0.907234 0.352018
vt 0.895861 0.359548
vt 0.898255 0.352018
vt 0.892511 0.359548
vt 0.895102 0.352018
vt 0.895861 0.359548
vt 0.898255 0.352018
vt 0.905402 0.359548
vt 0.907234 0.352018
vt 0.919681 0.359548
vt 0.920672 0.352018
vt 0.936524 0.359548
vt 0.936524 0.352018
vt 0.954087 0.336393
vt 0.952375 0.336393
vt 0.965813 0.336393
vt 0.974792 0.336393
vt 0.966303 0.336393
vt 0.977945 0.336393
vt 0.968757 0.336393
vt 0.974792 0.336393
vt 0.962810 0.336393
vt 0.965813 0.336393
vt 0.952375 0.336393
vt 0.948859 0.336393
vt 0.936524 0.336393
vt 0.936524 0.336393
vt 0.920672 0.336393
vt 0.918960 0.336393
vt 0.907234 0.336393
vt 0.898255 0.336393
vt 0.906744 0.336393
vt 0.895102 0.336393
vt 0.904290 0.336393
vt 0.898255 0.336393
vt 0.910238 0.336393
vt 0.907234 0.336393
vt 0.920672 0.336393
vt 0.924188 0.336393
vt 0.936524 0.336393
vt 0.936524 0.336393
vt 0.941692 0.320770
vt 0.954087 0.352018
vt 0.966303 0.352018
vt 0.951278 0.320768
vt 0.951278 0.367643
vt 0.966303 0.367643
vt 0.968757 0.367643
vt 0.952494 0.367643
vt 0.952494 0.320768
vt 0.968757 0.352018
vt 0.962810 0.352018
vt 0.944258 0.320770
vt 0.948859 0.352018
vt 0.942635 0.320768
vt 0.942635 0.367643
vt 0.948859 0.367643
vt 0.936524 0.367643
vt 0.936524 0.367643
vt 0.936524 0.320768
vt 0.936524 0.352018
vt 0.918960 0.352018
vt 0.931355 0.320770
vt 0.906744 0.352018
vt 0.921769 0.320768
vt 0.921769 0.367643
vt 0.906744 0.367643
vt 0.904290 0.367643
vt 0.920554 0.367643
vt 0.920554 0.320768
vt 0.904290 0.352018
vt 0.910238 0.352018
vt 0.928789 0.320770
vt 0.924188 0.352018
vt 0.930412 0.320768
vt 0.930412 0.367643
vt 0.924188 0.367643
vt 0.936524 0.367643
vt 0.936524 0.367643
vt 0.936524 0.320768
vt 0.936524 0.352018
vt 0.944258 0.423370
vt 0.931355 0.423370
vt 0.936524 0.423371
vt 0.942635 0.423371
vt 0.941692 0.423370
vt 0.952494 0.423371
vt 0.951278 0.423371
vt 0.936524 0.423371
vt 0.930412 0.423371
vt 0.928789 0.423370
vt 0.941692 0.383270
vt 0.928789 0.383270
vt 0.930412 0.383268
vt 0.936524 0.383268
vt 0.931355 0.383270
vt 0.944258 0.383270
vt 0.936524 0.383268
vt 0.942635 0.383268
vt 0.921769 0.383268
vt 0.920554 0.383268
vt 0.920554 0.423371
vt 0.921769 0.423371
vt 0.951278 0.383268
vt 0.952494 0.383268
vn 0.6567 0.3710 -0.6567
vn 0.3554 0.3710 -0.8580
vn 0.1597 0.9088 -0.3855
vn 0.2950 0.9088 -0.2950
vn 0.3855 0.9088 -0.1597
vn 0.8580 0.3710 -0.3554
vn 0.9286 0.3710 0.0000
vn 0.4172 0.9088 0.0000
vn 0.8580 0.3710 0.3554
vn 0.3855 0.9088 0.1597
vn 0.2950 0.9088 0.2950
vn 0.6567 0.3710 0.6567
vn 0.1597 0.9088 0.3855
vn 0.3554 0.3710 0.8580
vn -0.0000 0.3710 0.9286
vn -0.0000 0.9088 0.4172
vn -0.3554 0.3710 0.8580
vn -0.1597 0.9088 0.3855
vn -0.2950 0.9088 0.2950
vn -0.6567 0.3710 0.6566
vn -0.3855 0.9088 0.1597
vn -0.8580 0.3710 0.3554
vn -0.9286 0.3710 -0.0000
vn -0.4172 0.9088 -0.0000
vn -0.8580 0.3710 -0.3554
vn -0.3855 0.9088 -0.1597
vn -0.2950 0.9088 -0.2950
vn -0.6566 0.3710 -0.6567
vn -0.3554 0.3710 -0.8580
vn -0.1597 0.9088 -0.3855
vn 0.0000 0.3710 -0.9286
vn -0.0000 0.9088 -0.4172
vn -0.0000 1.0000 0.0000
vn 0.6567 -0.3710 -0.6567
vn 0.3554 -0.3710 -0.8580
vn -0.6567 -0.3710 0.6566
vn -0.8580 -0.3710 0.3554
vn -0.3554 -0.3710 0.8580
vn 0.8580 -0.3710 0.3554
vn 0.9286 -0.3710 0.0000
vn -0.8580 -0.3710 -0.3554
vn -0.6566 -0.3710 -0.6567
vn 0.8580 -0.3710 -0.3554
vn -0.0000 -0.3710 0.9286
vn 0.3554 -0.3710 0.8580
vn 0.0000 -0.3710 -0.9286
vn -0.3554 -0.3710 -0.8580
vn -0.9286 -0.3710 -0.0000
vn 0.6567 -0.3710 0.6567
vn 0.2950 -0.9088 -0.2950
vn 0.1597 -0.9088 -0.3855
vn 0.3855 -0.9088 -0.1597
vn 0.4172 -0.9088 -0.0000
vn 0.3855 -0.9088 0.1597
vn 0.2950 -0.9088 0.2950
vn 0.1597 -0.9088 0.3855
vn -0.0000 -0.9088 0.4172
vn -0.1597 -0.9088 0.3855
vn -0.2950 -0.9088 0.2950
vn -0.3855 -0.9088 0.1597
vn -0.4172 -0.9088 -0.0000
vn -0.3855 -0.9088 -0.1597
vn -0.2950 -0.9088 -0.2950
vn -0.1597 -0.9088 -0.3855
vn -0.0000 -0.9088 -0.4172
vn -0.0000 -1.0000 0.0000
usemtl restaurant
s 1
f 2/1/1 1/2/2 17/3/3 18/4/4
f 18/4/4 19/5/5 3/6/6 2/1/1
f 4/7/7 3/6/6 19/5/5 20/8/8
f 5/9/9 4/7/7 20/8/8 21/10/10
f 21/10/10 22/11/11 6/12/12 5/9/9
f 22/11/11 23/13/13 7/14/14 6/12/12
f 8/15/15 7/14/14 23/13/13 24/16/16
f 9/17/17 8/15/15 24/16/16 25/18/18
f 25/18/18 26/19/19 10/20/20 9/17/17
f 26/19/19 27/21/21 11/22/22 10/20/20
f 12/23/23 11/22/22 27/21/21 28/24/24
f 13/25/25 12/23/23 28/24/24 29/26/26
f 29/26/26 30/27/27 14/28/28 13/25/25
f 15/29/29 14/28/28 30/27/27 31/30/30
f 16/31/31 15/29/29 31/30/30 32/32/32
f 1/2/2 16/31/31 32/32/32 17/3/3
f 33/33/33 18/34/4 17/35/3
f 33/33/33 34/36/33 19/37/5 18/34/4
f 34/36/33 35/38/33 20/39/8 19/37/5
f 35/38/33 36/40/33 21/41/10 20/39/8
f 36/40/33 22/42/11 21/41/10
f 36/40/33 37/43/33 23/44/13 22/42/11
f 37/43/33 38/45/33 24/46/16 23/44/13
f 38/45/33 39/47/33 25/48/18 24/46/16
f 39/47/33 26/49/19 25/48/18
f 39/47/33 40/50/33 27/51/21 26/49/19
f 40/50/33 41/52/33 28/53/24 27/51/21
f 41/52/33 42/54/33 29/55/26 28/53/24
f 42/54/33 30/56/27 29/55/26
f 42/54/33 43/57/33 31/58/30 30/56/27
f 43/57/33 44/59/33 32/60/32 31/58/30
f 44/59/33 33/33/33 17/35/3 32/60/32
f 45/61/33 46/62/33 34/63/33 33/64/33
f 46/65/33 47/66/33 35/67/33 34/68/33
f 47/69/33 48/70/33 36/71/33 35/72/33
f 48/70/33 49/73/33 37/74/33 36/71/33
f 49/75/33 50/76/33 38/77/33 37/78/33
f 50/79/33 51/80/33 39/81/33 38/82/33
f 51/80/33 52/83/33 40/84/33 39/81/33
f 52/85/33 53/86/33 41/87/33 40/88/33
f 53/89/33 54/90/33 42/91/33 41/92/33
f 54/90/33 55/93/33 43/94/33 42/91/33
f 55/95/33 56/96/33 44/97/33 43/98/33
f 56/99/33 45/61/33 33/64/33 44/100/33
f 58/101/34 57/102/35 1/103/2 2/104/1
f 66/105/36 10/106/20 11/107/22 67/108/37
f 65/109/38 9/110/17 10/106/20 66/105/36
f 61/111/39 60/112/40 4/113/7 5/114/9
f 69/115/41 13/116/25 14/117/28 70/118/42
f 60/112/40 59/119/43 3/120/6 4/113/7
f 64/121/44 63/122/45 7/123/14 8/124/15
f 58/101/34 2/104/1 3/120/6 59/119/43
f 57/102/35 72/125/46 16/126/31 1/103/2
f 72/125/46 71/127/47 15/128/29 16/126/31
f 69/115/41 68/129/48 12/130/23 13/116/25
f 61/111/39 5/114/9 6/131/12 62/132/49
f 62/132/49 6/131/12 7/123/14 63/122/45
f 68/129/48 67/108/37 11/107/22 12/130/23
f 65/109/38 64/121/44 8/124/15 9/110/17
f 58/133/34 74/134/50 73/135/51 57/136/35
f 74/134/50 58/133/34 59/137/43 75/138/52
f 60/139/40 76/140/53 75/138/52 59/137/43
f 61/141/39 77/142/54 76/140/53 60/139/40
f 77/142/54 61/141/39 62/143/49 78/144/55
f 78/144/55 62/143/49 63/145/45 79/146/56
f 64/147/44 80/148/57 79/146/56 63/145/45
f 65/149/38 81/150/58 80/148/57 64/147/44
f 81/150/58 65/149/38 66/151/36 82/152/59
f 82/152/59 66/151/36 67/153/37 83/154/60
f 68/155/48 84/156/61 83/154/60 67/153/37
f 69/157/41 85/158/62 84/156/61 68/155/48
f 85/158/62 69/157/41 70/159/42 86/160/63
f 71/161/47 87/162/64 86/160/63 70/159/42
f 72/163/46 88/164/65 87/162/64 71/161/47
f 57/136/35 73/135/51 88/164/65 72/163/46
f 89/165/66 73/166/51 74/167/50
f 89/165/66 74/167/50 75/168/52 90/169/66
f 90/169/66 75/168/52 76/170/53 91/171/66
f 91/171/66 76/170/53 77/172/54 92/173/66
f 92/173/66 77/172/54 78/174/55
f 92/173/66 78/174/55 79/175/56 93/176/66
f 93/176/66 79/175/56 80/177/57 94/178/66
f 94/178/66 80/177/57 81/179/58 95/180/66
f 95/180/66 81/179/58 82/181/59
f 95/180/66 82/181/59 83/182/60 96/183/66
f 96/183/66 83/182/60 84/184/61 97/185/66
f 97/185/66 84/184/61 85/186/62 98/187/66
f 98/187/66 85/186/62 86/188/63
f 98/187/66 86/188/63 87/189/64 99/190/66
f 99/190/66 87/189/64 88/191/65 100/192/66
f 100/192/66 88/191/65 73/166/51 89/165/66
f 101/193/66 89/194/66 90/195/66 102/196/66
f 102/197/66 90/198/66 91/199/66 103/200/66
f 103/201/66 91/202/66 92/203/66 104/204/66
f 104/204/66 92/203/66 93/205/66 105/206/66
f 105/207/66 93/208/66 94/209/66 106/210/66
f 106/211/66 94/212/66 95/213/66 107/214/66
f 107/214/66 95/213/66 96/215/66 108/216/66
f 108/217/66 96/218/66 97/219/66 109/220/66
f 109/221/66 97/222/66 98/223/66 110/224/66
f 110/224/66 98/223/66 99/225/66 111/226/66
f 111/227/66 99/228/66 100/229/66 112/230/66
f 112/231/66 100/232/66 89/194/66 101/193/66
f 48/233/33 51/234/33 50/235/33 49/236/33
f 45/237/33 48/233/33 47/238/33 46/239/33
f 56/240/33 55/241/33 54/242/33 45/237/33
f 101/243/66 110/244/66 111/245/66 112/246/66
f 107/247/66 110/244/66 101/243/66 104/248/66
f 45/237/33 54/242/33 51/234/33 48/233/33
f 106/249/66 107/247/66 104/248/66 105/250/66
f 107/247/66 108/251/66 109/252/66 110/244/66
f 71/127/47 70/118/42 14/117/28 15/128/29
f 51/234/33 54/242/33 53/253/33 52/254/33
f 104/248/66 101/243/66 102/255/66 103/256/66
