# Blender v3.4.1 OBJ File: 'restaurant_bits_export.blend'
# www.blender.org
mtllib food_ingredient_potato_mashed.mtl
o food_ingredient_potato_mashed_Cylinder.077
v -0.043402 0.208307 -0.245171
v 0.061140 0.183217 -0.291776
v 0.254361 0.193645 -0.217579
v 0.303439 0.232778 -0.091984
v 0.295389 0.211874 0.018361
v 0.235748 0.187128 0.099615
v 0.115900 0.163534 0.130243
v 0.002043 0.151828 0.050252
v -0.031817 0.146667 -0.008275
v -0.078305 0.190050 -0.122497
v 0.085832 0.237090 -0.004415
v -0.112189 0.025630 -0.342430
v 0.070984 0.025630 -0.419788
v 0.245900 0.025630 -0.319762
v 0.393867 0.025630 -0.203959
v 0.426622 0.025630 -0.072877
v 0.386988 0.025630 0.073059
v 0.298647 0.025630 0.167422
v 0.182884 0.025630 0.215981
v 0.035701 0.025630 0.180044
v -0.051264 0.025630 0.102179
v -0.094201 0.025630 0.017933
v -0.175884 0.025630 -0.122511
vt 0.817500 0.663174
vt 0.827158 0.607890
vt 0.816915 0.607890
vt 0.820341 0.681406
vt 0.820898 0.684397
vt 0.805833 0.716264
vt 0.820898 0.668772
vt 0.816212 0.677867
vt 0.812552 0.607890
vt 0.820566 0.607890
vt 0.816212 0.662242
vt 0.807915 0.658867
vt 0.802363 0.607890
vt 0.796343 0.607890
vt 0.800033 0.657192
vt 0.793370 0.607890
vt 0.787715 0.607890
vt 0.797689 0.656454
vt 0.826682 0.607890
vt 0.820341 0.665781
vt 0.807915 0.674492
vt 0.800033 0.672817
vt 0.817500 0.678799
vt 0.804124 0.677307
vt 0.797689 0.672079
vt 0.796887 0.680896
vt 0.794471 0.678285
vt 0.804806 0.607890
vt 0.792125 0.607890
vt 0.796887 0.665271
vt 0.804124 0.661682
vt 0.794471 0.662660
vt 0.829425 0.607890
vn 0.5433 0.5092 -0.6675
vn 0.7428 0.4886 -0.4577
vn 0.4343 0.4934 -0.7536
vn 0.5162 0.7820 0.3493
vn -0.0114 0.9969 -0.0773
vn -0.2074 0.9517 0.2262
vn 0.8291 0.5441 -0.1289
vn 0.2782 0.7303 0.6240
vn 0.0781 0.4963 0.8646
vn 0.5016 0.4907 0.7125
vn -0.2114 0.6761 0.7058
vn -0.4291 0.5170 0.7407
vn -0.6665 0.5187 0.5354
vn -0.6079 0.6310 0.4820
vn -0.7658 0.4873 0.4197
vn -0.8514 0.5149 0.0997
vn -0.6869 0.5886 0.4262
vn 0.7570 0.4969 0.4243
vn -0.0287 0.9748 -0.2214
vn 0.0746 0.7966 -0.5998
vn -0.1241 0.9030 -0.4113
vn -0.6867 0.7122 0.1461
vn 0.0618 0.6151 -0.7860
vn -0.3281 0.5372 -0.7770
vn -0.8539 0.4713 -0.2208
vn 0.8657 0.5005 0.0087
vn -0.8824 0.4317 -0.1868
usemtl restaurant
s 1
f 3/1/1 15/2/2 14/3/3
f 5/4/4 4/5/5 11/6/6
f 3/1/1 4/7/7 15/2/2
f 6/8/8 5/4/4 11/6/6
f 19/9/9 18/10/10 6/11/8
f 7/12/11 20/13/12 19/9/9
f 21/14/13 20/13/12 7/12/11
f 21/14/13 8/15/14 22/16/15
f 23/17/16 22/16/15 9/18/17
f 18/10/10 17/19/18 5/20/4
f 7/21/11 6/8/8 11/6/6
f 8/22/14 7/21/11 11/6/6
f 3/23/19 2/24/20 11/6/6
f 9/25/17 8/22/14 11/6/6
f 1/26/21 10/27/22 11/6/6
f 10/27/22 9/25/17 11/6/6
f 2/24/20 1/26/21 11/6/6
f 13/28/23 12/29/24 1/30/21
f 13/28/23 2/31/20 14/3/3
f 23/17/16 10/32/22 12/29/25
f 4/5/5 3/23/19 11/6/6
f 5/20/4 17/19/18 16/33/26
f 2/31/20 13/28/23 1/30/21
f 8/15/14 9/18/17 22/16/15
f 4/7/7 5/20/4 16/33/26
f 6/11/8 18/10/10 5/20/4
f 10/32/22 23/17/16 9/18/17
f 10/32/22 1/30/27 12/29/25
f 8/15/14 21/14/13 7/12/11
f 7/12/11 19/9/9 6/11/8
f 4/7/7 16/33/26 15/2/2
f 2/31/20 3/1/1 14/3/3
