# Blender v3.4.1 OBJ File: 'restaurant_bits_export.blend'
# www.blender.org
mtllib food_ingredient_potato.mtl
o food_ingredient_potato_Cube.18442
v -0.215024 -0.322475 0.205958
v -0.172159 0.323869 0.151411
v -0.215024 -0.322475 -0.205958
v -0.172159 0.323869 -0.151411
v 0.165123 -0.318681 0.207396
v 0.097712 0.322532 0.152738
v 0.165123 -0.318681 -0.207396
v 0.097712 0.322532 -0.152738
v -0.242579 -0.345028 -0.119886
v -0.242579 -0.345028 0.119886
v -0.255576 0.109524 0.229452
v -0.204330 0.264932 0.180518
v -0.185449 0.343281 0.087652
v -0.185449 0.343281 -0.087652
v -0.281026 -0.062927 -0.263555
v -0.254376 -0.249066 -0.242392
v 0.086778 -0.343023 -0.237220
v -0.132777 -0.344936 -0.236114
v -0.114967 0.343925 -0.172364
v 0.040918 0.343507 -0.173391
v 0.166510 -0.059384 -0.265384
v 0.181803 -0.243068 -0.243516
v 0.201870 -0.341421 0.120962
v 0.201870 -0.341421 -0.120962
v 0.124256 0.341997 -0.088656
v 0.124256 0.341997 0.088656
v 0.166510 -0.059384 0.265384
v 0.181803 -0.243068 0.243516
v -0.132777 -0.344936 0.236114
v 0.086778 -0.343023 0.237220
v 0.040918 0.343507 0.173391
v -0.114967 0.343925 0.172364
v -0.254376 -0.249066 0.242392
v -0.281026 -0.062927 0.263555
v -0.204330 0.264932 -0.180518
v -0.255576 0.109524 -0.229452
v 0.110700 0.262983 -0.181646
v 0.131936 0.110328 -0.230964
v 0.110700 0.262983 0.181646
v 0.131936 0.110328 0.230963
v -0.308500 0.107873 0.122577
v -0.243681 0.269613 0.097341
v -0.308500 0.107873 -0.122577
v -0.243681 0.269613 -0.097341
v -0.168213 0.108961 -0.295643
v -0.134815 0.270619 -0.230963
v 0.035421 0.109510 -0.296590
v 0.033262 0.269865 -0.231733
v 0.195724 0.108540 -0.123637
v 0.161079 0.266852 -0.098109
v 0.195724 0.108540 0.123637
v 0.161079 0.266852 0.098109
v 0.035421 0.109510 0.296590
v 0.033262 0.269866 0.231733
v -0.168213 0.108961 0.295643
v -0.134815 0.270619 0.230963
v -0.132180 -0.393539 -0.126148
v 0.107240 -0.392575 -0.126748
v -0.132180 -0.393538 0.126148
v 0.107240 -0.392575 0.126748
v 0.058958 0.386461 -0.092253
v -0.108558 0.386425 -0.091607
v 0.058958 0.386461 0.092253
v -0.108558 0.386425 0.091607
v 0.078020 -0.251920 0.311747
v 0.056786 -0.060322 0.340000
v -0.152772 -0.255088 0.310979
v -0.175942 -0.062492 0.338924
v 0.250901 -0.247995 -0.131672
v 0.240013 -0.059716 -0.142277
v 0.250902 -0.247995 0.131672
v 0.240013 -0.059716 0.142277
v -0.152772 -0.255088 -0.310979
v -0.175942 -0.062492 -0.338924
v 0.078020 -0.251920 -0.311747
v 0.056786 -0.060322 -0.340000
v -0.319478 -0.255294 0.130910
v -0.349099 -0.063497 0.140891
v -0.319478 -0.255294 -0.130910
v -0.349099 -0.063497 -0.140891
vt 0.796345 0.695920
vt 0.796345 0.675554
vt 0.792314 0.667740
vt 0.792314 0.688106
vt 0.791491 0.636372
vt 0.795038 0.667244
vt 0.787827 0.636198
vt 0.792391 0.544627
vt 0.787067 0.554144
vt 0.787067 0.574510
vt 0.792391 0.564993
vt 0.787827 0.636198
vt 0.795038 0.667244
vt 0.791491 0.636372
vt 0.797266 0.673495
vt 0.820335 0.687813
vt 0.820335 0.687813
vt 0.822733 0.636268
vt 0.822733 0.636268
vt 0.797266 0.673495
vt 0.801225 0.695988
vt 0.812016 0.695944
vt 0.811486 0.688133
vt 0.799851 0.688213
vt 0.785016 0.618022
vt 0.789729 0.618082
vt 0.797539 0.615947
vt 0.799992 0.565002
vt 0.798608 0.574532
vt 0.814585 0.574867
vt 0.815191 0.565205
vt 0.811636 0.616005
vt 0.816847 0.687403
vt 0.818317 0.636458
vt 0.811486 0.688133
vt 0.799851 0.667847
vt 0.797539 0.636313
vt 0.811636 0.636371
vt 0.815948 0.693719
vt 0.817786 0.695783
vt 0.817786 0.695783
vt 0.789729 0.618082
vt 0.785016 0.618022
vt 0.813115 0.597992
vt 0.820711 0.618458
vt 0.823159 0.565375
vt 0.826553 0.575284
vt 0.826553 0.554918
vt 0.823159 0.565375
vt 0.816847 0.687403
vt 0.818317 0.636458
vt 0.816608 0.559950
vt 0.800033 0.559847
vt 0.815948 0.693719
vt 0.812016 0.695944
vt 0.801225 0.675622
vt 0.797004 0.597762
vt 0.825799 0.598057
vt 0.820711 0.598092
vt 0.815191 0.565205
vt 0.814585 0.574867
vt 0.798608 0.574532
vt 0.799992 0.565002
vt 0.816608 0.559950
vt 0.800033 0.559847
vt 0.797004 0.618128
vt 0.813115 0.618358
vt 0.825799 0.618423
vt 0.794298 0.567385
vt 0.820615 0.567787
vt 0.820615 0.567787
vt 0.801669 0.700496
vt 0.801669 0.700496
vt 0.813265 0.700499
vt 0.813265 0.700499
vt 0.794298 0.547019
vt 0.821769 0.555441
vt 0.791574 0.554804
vt 0.821769 0.575807
vt 0.791574 0.575170
vn -0.6337 0.7535 0.1751
vn -0.6337 0.7535 -0.1751
vn -0.8429 0.5033 -0.1903
vn -0.8429 0.5033 0.1903
vn -0.7252 0.3229 0.6081
vn -0.6672 0.5040 0.5485
vn -0.9234 0.3134 0.2214
vn -0.5879 -0.7870 0.1869
vn -0.8832 -0.4064 0.2338
vn -0.8832 -0.4064 -0.2338
vn -0.5879 -0.7870 -0.1869
vn -0.9234 0.3134 -0.2214
vn -0.6672 0.5040 -0.5485
vn -0.7252 0.3229 -0.6081
vn -0.5645 0.6828 0.4638
vn 0.9073 0.3430 -0.2432
vn 0.9073 0.3430 0.2432
vn 0.9294 0.2617 0.2602
vn 0.9294 0.2617 -0.2602
vn -0.5645 0.6828 -0.4638
vn -0.2274 0.7672 -0.5998
vn 0.2384 0.7264 -0.6446
vn 0.2518 0.4713 -0.8452
vn -0.2683 0.5172 -0.8127
vn -0.9669 0.0362 -0.2524
vn -0.7463 0.0305 -0.6649
vn -0.3088 0.3256 -0.8937
vn -0.1977 -0.7860 -0.5858
vn -0.2641 -0.4059 -0.8749
vn 0.2725 -0.3515 -0.8956
vn 0.2305 -0.7520 -0.6176
vn 0.2647 0.3151 -0.9114
vn 0.6706 0.3799 -0.6372
vn 0.6909 0.2908 -0.6619
vn 0.2518 0.4713 0.8452
vn -0.2683 0.5172 0.8127
vn -0.3088 0.3256 0.8937
vn 0.2647 0.3151 0.9114
vn 0.6026 0.5669 -0.5617
vn 0.7305 0.6440 -0.2271
vn 0.7305 0.6440 0.2271
vn -0.7463 0.0305 0.6649
vn -0.9669 0.0362 0.2524
vn 0.2800 0.0793 -0.9567
vn 0.7126 0.1257 -0.6902
vn 0.6963 -0.6841 -0.2171
vn 0.9430 -0.2122 -0.2563
vn 0.9430 -0.2122 0.2563
vn 0.6963 -0.6841 0.2171
vn 0.6706 0.3799 0.6372
vn 0.6909 0.2908 0.6619
vn 0.2461 -0.9453 -0.2140
vn -0.1963 -0.9603 -0.1984
vn 0.6026 0.5669 0.5617
vn 0.2384 0.7264 0.6446
vn -0.2274 0.7672 0.5998
vn -0.3114 0.0390 -0.9495
vn 0.9501 0.1522 0.2724
vn 0.7126 0.1257 0.6902
vn 0.2305 -0.7520 0.6176
vn 0.2725 -0.3515 0.8956
vn -0.2641 -0.4059 0.8749
vn -0.1977 -0.7860 0.5858
vn 0.2461 -0.9453 0.2140
vn -0.1963 -0.9603 0.1984
vn -0.3114 0.0390 0.9495
vn 0.2800 0.0793 0.9567
vn 0.9501 0.1522 -0.2724
vn -0.5138 -0.7072 -0.4856
vn 0.5824 -0.6023 -0.5459
vn 0.5824 -0.6023 0.5459
vn -0.2348 0.9472 -0.2185
vn -0.2348 0.9472 0.2185
vn 0.2862 0.9270 0.2423
vn 0.2862 0.9270 -0.2423
vn -0.5138 -0.7072 0.4856
vn 0.7017 -0.2406 0.6706
vn -0.6754 -0.3907 0.6255
vn 0.7017 -0.2406 -0.6706
vn -0.6754 -0.3907 -0.6255
usemtl restaurant
s 1
f 13/1/1 14/2/2 44/3/3 42/4/4
f 11/5/5 12/6/6 42/4/4 41/7/7
f 10/8/8 77/9/9 79/10/10 9/11/11
f 43/12/12 44/3/3 35/13/13 36/14/14
f 12/6/6 2/15/15 13/1/1 42/4/4
f 50/16/16 52/17/17 51/18/18 49/19/19
f 44/3/3 14/2/2 4/20/20 35/13/13
f 19/21/21 20/22/22 48/23/23 46/24/24
f 80/25/25 43/12/12 36/14/14 15/26/26
f 35/13/13 46/24/24 45/27/27 36/14/14
f 18/28/28 73/29/29 75/30/30 17/31/31
f 47/32/32 48/23/23 37/33/33 38/34/34
f 35/13/13 4/20/20 19/21/21 46/24/24
f 54/35/35 56/36/36 55/37/37 53/38/38
f 48/23/23 20/22/22 8/39/39 37/33/33
f 25/40/40 26/41/41 52/17/17 50/16/16
f 34/42/42 11/5/5 41/7/7 78/43/43
f 76/44/44 47/32/32 38/34/34 21/45/45
f 37/33/33 50/16/16 49/19/19 38/34/34
f 24/46/46 69/47/47 71/48/48 23/49/49
f 51/18/18 52/17/17 39/50/50 40/51/51
f 37/33/33 8/39/39 25/40/40 50/16/16
f 17/31/31 58/52/52 57/53/53 18/28/28
f 52/17/17 26/41/41 6/54/54 39/50/50
f 31/55/55 32/56/56 56/36/36 54/35/35
f 15/26/26 36/14/14 45/27/27 74/57/57
f 72/58/58 51/18/18 40/51/51 27/59/59
f 39/50/50 54/35/35 53/38/38 40/51/51
f 30/60/60 65/61/61 67/62/62 29/63/63
f 55/37/37 56/36/36 12/6/6 11/5/5
f 39/50/50 6/54/54 31/55/55 54/35/35
f 58/52/52 60/64/64 59/65/65 57/53/53
f 56/36/36 32/56/56 2/15/15 12/6/6
f 53/38/38 55/37/37 68/66/66 66/67/67
f 21/45/45 38/34/34 49/19/19 70/68/68
f 68/66/66 55/37/37 11/5/5 34/42/42
f 23/49/49 60/64/64 58/52/52 24/46/46
f 3/69/69 18/28/28 57/53/53 9/11/11
f 59/65/65 60/64/64 30/60/60 29/63/63
f 17/31/31 7/70/70 24/46/46 58/52/52
f 9/11/11 57/53/53 59/65/65 10/8/8
f 60/64/64 23/49/49 5/71/71 30/60/60
f 62/72/72 64/73/73 63/74/74 61/75/75
f 10/8/8 59/65/65 29/63/63 1/76/76
f 19/21/21 62/72/72 61/75/75 20/22/22
f 13/1/1 64/73/73 62/72/72 14/2/2
f 8/39/39 20/22/22 61/75/75 25/40/40
f 63/74/74 64/73/73 32/56/56 31/55/55
f 19/21/21 4/20/20 14/2/2 62/72/72
f 25/40/40 61/75/75 63/74/74 26/41/41
f 64/73/73 13/1/1 2/15/15 32/56/56
f 66/67/67 68/66/66 67/62/62 65/61/61
f 26/41/41 63/74/74 31/55/55 6/54/54
f 70/68/68 72/58/58 71/48/48 69/47/47
f 27/59/59 66/67/67 65/61/61 28/77/77
f 5/71/71 28/77/77 65/61/61 30/60/60
f 67/62/62 68/66/66 34/42/42 33/78/78
f 49/19/19 51/18/18 72/58/58 70/68/68
f 29/63/63 67/62/62 33/78/78 1/76/76
f 74/57/57 76/44/44 75/30/30 73/29/29
f 21/45/45 70/68/68 69/47/47 22/79/79
f 7/70/70 22/79/79 69/47/47 24/46/46
f 71/48/48 72/58/58 27/59/59 28/77/77
f 45/27/27 47/32/32 76/44/44 74/57/57
f 23/49/49 71/48/48 28/77/77 5/71/71
f 78/43/43 80/25/25 79/10/10 77/9/9
f 15/26/26 74/57/57 73/29/29 16/80/80
f 3/69/69 16/80/80 73/29/29 18/28/28
f 75/30/30 76/44/44 21/45/45 22/79/79
f 41/7/7 43/12/12 80/25/25 78/43/43
f 17/31/31 75/30/30 22/79/79 7/70/70
f 33/78/78 34/42/42 78/43/43 77/9/9
f 1/76/76 33/78/78 77/9/9 10/8/8
f 79/10/10 80/25/25 15/26/26 16/80/80
f 9/11/11 79/10/10 16/80/80 3/69/69
f 27/59/59 40/51/51 53/38/38 66/67/67
f 41/7/7 42/4/4 44/3/3 43/12/12
f 46/24/24 48/23/23 47/32/32 45/27/27
