# Blender v3.4.1 OBJ File: 'restaurant_bits_export.blend'
# www.blender.org
mtllib food_ingredient_cheese_chopped.mtl
o food_ingredient_cheese_chopped_Cube.011
v -0.089980 -0.000005 0.132292
v 0.282665 -0.000005 0.131245
v -0.089841 -0.000005 -0.132268
v 0.282514 -0.000005 -0.131570
v -0.089980 0.060003 0.132292
v 0.282665 0.060003 0.131245
v -0.089841 0.060003 -0.132268
v 0.282514 0.060003 -0.131570
v -0.099251 -0.000005 0.182455
v 0.291956 -0.000005 0.181562
v -0.099220 -0.000005 -0.182757
v 0.291908 -0.000005 -0.181983
v 0.325648 -0.000005 0.112797
v 0.313863 -0.000005 0.157538
v 0.325638 -0.000005 -0.113590
v 0.313829 -0.000005 -0.157224
v -0.132931 -0.000005 0.114350
v -0.121136 -0.000005 0.158304
v -0.132933 -0.000005 -0.114151
v -0.121127 -0.000005 -0.158036
v -0.099251 0.060003 0.182455
v -0.103651 0.040003 0.206262
v 0.296348 0.040003 0.205354
v 0.291956 0.060003 0.181562
v -0.103651 0.040003 -0.206612
v -0.099220 0.060003 -0.182757
v 0.291908 0.060003 -0.181983
v 0.296348 0.040003 -0.205815
v 0.346349 0.040003 0.103913
v 0.325648 0.060003 0.112797
v 0.313863 0.060003 0.157538
v 0.328802 0.040003 0.170128
v 0.346349 0.040003 -0.104955
v 0.325638 0.060003 -0.113590
v 0.328809 0.040003 -0.169496
v 0.313829 0.060003 -0.157224
v -0.132931 0.060003 0.114350
v -0.153651 0.040003 0.105695
v -0.136097 0.040003 0.170795
v -0.121136 0.060003 0.158304
v -0.132933 0.060003 -0.114151
v -0.153651 0.040003 -0.105440
v -0.121127 0.060003 -0.158036
v -0.136094 0.040003 -0.170364
v -0.672466 0.152981 -0.017475
v -0.672466 0.347010 -0.017475
v -0.672466 0.347010 -0.221171
v -0.672466 0.152981 -0.221171
v -0.355391 0.122102 0.259629
v -0.355391 0.334490 0.259629
v -0.537287 0.334490 0.327840
v -0.537287 0.122102 0.327840
v -0.480641 0.227395 -0.297063
v -0.480641 0.387854 -0.297063
v -0.343219 0.387854 -0.245530
v -0.343219 0.227395 -0.245530
v -0.672466 0.249995 0.021336
v -0.672466 0.109337 -0.119323
v -0.672466 0.390654 -0.119323
v -0.672466 0.249995 -0.259982
v -0.311586 0.228296 0.243202
v -0.446339 0.084379 0.293735
v -0.446339 0.372212 0.293735
v -0.581092 0.228296 0.344267
v -0.513736 0.307625 -0.309473
v -0.411930 0.198896 -0.271296
v -0.411930 0.417106 -0.280782
v -0.310124 0.307625 -0.233119
v -0.612466 0.249995 -0.014127
v -0.612466 0.322118 -0.042979
v -0.612466 0.354833 -0.119323
v -0.612466 0.322118 -0.195667
v -0.612466 0.249995 -0.224519
v -0.612466 0.177873 -0.195667
v -0.612466 0.145158 -0.119323
v -0.612466 0.177873 -0.042979
v -0.370942 0.228296 0.195300
v -0.403114 0.306290 0.207365
v -0.468809 0.333538 0.232000
v -0.534503 0.306290 0.256636
v -0.566675 0.228296 0.268701
v -0.534503 0.150302 0.256636
v -0.468809 0.123054 0.232000
v -0.403114 0.150302 0.207365
v -0.478537 0.248700 -0.243268
v -0.502844 0.307625 -0.252383
v -0.478537 0.366549 -0.243268
v -0.428906 0.387135 -0.224656
v -0.379274 0.366549 -0.206044
v -0.354967 0.307625 -0.196929
v -0.379274 0.248700 -0.206044
v -0.428906 0.228115 -0.224656
v -0.562466 0.249995 -0.119323
v -0.487533 0.228296 0.180555
v -0.443052 0.307625 -0.185790
v -0.587080 -0.000005 0.254617
v -0.625833 0.049995 0.362108
v -0.673360 0.049995 0.320604
v -0.596873 0.017559 0.327888
v -0.655153 0.017559 0.294230
v -0.674164 0.449995 0.320834
v -0.624813 0.449995 0.363043
v -0.587255 0.499995 0.251819
v -0.654852 0.482426 0.287647
v -0.596918 0.482424 0.328240
v -0.672539 0.049995 -0.316408
v -0.624994 0.049995 -0.358088
v -0.587208 -0.000005 -0.253838
v -0.654916 0.017565 -0.291703
v -0.596967 0.017566 -0.327469
v -0.587460 0.499995 -0.253883
v -0.623355 0.449995 -0.358947
v -0.671029 0.449995 -0.317531
v -0.597017 0.482440 -0.327890
v -0.654475 0.482441 -0.291968
v -0.183647 0.049995 0.206262
v -0.183647 0.449995 0.205354
v -0.183647 0.049995 -0.206611
v -0.183647 0.449995 -0.205815
v -0.183647 0.499995 0.103913
v -0.183647 0.482448 0.170128
v -0.183647 0.499995 -0.104955
v -0.183647 0.482456 -0.169496
v -0.183647 -0.000005 0.105695
v -0.183647 0.017549 0.170795
v -0.183647 -0.000005 -0.105440
v -0.183647 0.017552 -0.170364
v -0.143647 0.063667 0.132292
v -0.143647 0.436312 0.131245
v -0.143647 0.063806 -0.132268
v -0.143647 0.436161 -0.131570
vt 0.321530 0.393824
vt 0.320742 0.393824
vt 0.353972 0.393824
vt 0.353183 0.393824
vt 0.353170 0.326227
vt 0.355830 0.326227
vt 0.356833 0.326227
vt 0.321542 0.326227
vt 0.321530 0.326227
vt 0.317881 0.326227
vt 0.317881 0.326227
vt 0.320742 0.326227
vt 0.318883 0.326227
vt 0.316122 0.345250
vt 0.316122 0.345250
vt 0.353968 0.326227
vt 0.320745 0.326227
vt 0.320369 0.345250
vt 0.354346 0.345250
vt 0.318884 0.326227
vt 0.353183 0.326227
vt 0.356834 0.326227
vt 0.355833 0.326227
vt 0.320369 0.345250
vt 0.317613 0.345250
vt 0.357103 0.345250
vt 0.358593 0.345250
vt 0.358593 0.345250
vt 0.353972 0.326227
vt 0.357102 0.345250
vt 0.354346 0.345250
vt 0.317613 0.345250
vt 0.353170 0.393824
vt 0.321542 0.393824
vt 0.318883 0.393824
vt 0.320745 0.393824
vt 0.318884 0.393824
vt 0.356834 0.393824
vt 0.356833 0.393824
vt 0.355830 0.393824
vt 0.317881 0.393824
vt 0.355833 0.393824
vt 0.353968 0.393824
vt 0.317881 0.393824
vt 0.320369 0.360875
vt 0.354346 0.360875
vt 0.353972 0.378199
vt 0.320742 0.378199
vt 0.320745 0.378199
vt 0.353968 0.378199
vt 0.354346 0.360875
vt 0.320369 0.360875
vt 0.356834 0.378199
vt 0.355833 0.378199
vt 0.357102 0.360875
vt 0.358593 0.360875
vt 0.356833 0.378199
vt 0.358593 0.360875
vt 0.357103 0.360875
vt 0.355830 0.378199
vt 0.316122 0.360875
vt 0.317613 0.360875
vt 0.318883 0.378199
vt 0.317881 0.378199
vt 0.316122 0.360875
vt 0.317881 0.378199
vt 0.318884 0.378199
vt 0.317613 0.360875
vt 0.283535 0.352224
vt 0.276013 0.330474
vt 0.291260 0.349020
vt 0.313574 0.411326
vt 0.276100 0.395701
vt 0.291260 0.373469
vt 0.273548 0.414081
vt 0.273580 0.414082
vt 0.272174 0.411326
vt 0.271908 0.411326
vt 0.313574 0.411326
vt 0.300019 0.374798
vt 0.294183 0.377282
vt 0.313574 0.446823
vt 0.279290 0.431198
vt 0.278469 0.414081
vt 0.313574 0.429708
vt 0.313574 0.346099
vt 0.300019 0.361168
vt 0.302830 0.367983
vt 0.283535 0.370265
vt 0.271976 0.330474
vt 0.272052 0.354847
vt 0.272052 0.351140
vt 0.288346 0.374798
vt 0.276224 0.395701
vt 0.294183 0.358747
vt 0.272046 0.330474
vt 0.272052 0.354847
vt 0.272052 0.363087
vt 0.298985 0.352224
vt 0.313574 0.346099
vt 0.302706 0.361244
vt 0.272052 0.371328
vt 0.271908 0.395701
vt 0.272052 0.375035
vt 0.298985 0.370265
vt 0.279814 0.361244
vt 0.272052 0.363087
vt 0.288346 0.361168
vt 0.276085 0.330474
vt 0.285535 0.367983
vt 0.272174 0.395701
vt 0.272052 0.371328
vt 0.313574 0.446823
vt 0.279273 0.431198
vt 0.272052 0.347462
vt 0.272052 0.340078
vt 0.277149 0.337964
vt 0.277149 0.347462
vt 0.272052 0.324453
vt 0.272052 0.328160
vt 0.277149 0.325118
vt 0.277149 0.322339
vt 0.272052 0.324453
vt 0.277149 0.322339
vt 0.272052 0.340078
vt 0.272052 0.347462
vt 0.277149 0.347462
vt 0.277149 0.337964
vt 0.277149 0.356961
vt 0.272052 0.370472
vt 0.272052 0.366765
vt 0.277149 0.369807
vt 0.277149 0.372586
vt 0.272052 0.370472
vt 0.277149 0.372586
vt 0.277149 0.356961
vt 0.302706 0.345619
vt 0.298985 0.339015
vt 0.294932 0.336619
vt 0.297664 0.345619
vt 0.298985 0.323390
vt 0.291260 0.326594
vt 0.289351 0.323309
vt 0.294932 0.320994
vt 0.283535 0.323390
vt 0.283771 0.320994
vt 0.283535 0.339015
vt 0.279814 0.345619
vt 0.281038 0.345619
vt 0.283771 0.336619
vt 0.283771 0.354619
vt 0.283535 0.367849
vt 0.291260 0.364645
vt 0.289351 0.367930
vt 0.283771 0.370244
vt 0.298985 0.367849
vt 0.294932 0.370244
vt 0.294932 0.354619
vt 0.285535 0.352358
vt 0.286460 0.352358
vt 0.288525 0.362978
vt 0.288346 0.343548
vt 0.288525 0.341738
vt 0.288346 0.327923
vt 0.294183 0.330407
vt 0.292741 0.327861
vt 0.288525 0.326113
vt 0.300019 0.327923
vt 0.296957 0.326113
vt 0.300019 0.343548
vt 0.302830 0.352358
vt 0.299021 0.352358
vt 0.296957 0.341738
vt 0.296957 0.362978
vt 0.300019 0.376793
vt 0.294183 0.374372
vt 0.292741 0.376854
vt 0.296957 0.378603
vt 0.288346 0.376793
vt 0.288525 0.378603
vt 0.277149 0.353589
vt 0.281396 0.347462
vt 0.277149 0.356368
vt 0.277149 0.353589
vt 0.277149 0.341336
vt 0.277149 0.338557
vt 0.277149 0.341336
vt 0.294932 0.352244
vt 0.287761 0.345619
vt 0.289351 0.354559
vt 0.283771 0.352244
vt 0.283771 0.338994
vt 0.289351 0.336680
vt 0.294932 0.338994
vt 0.288525 0.347353
vt 0.291539 0.352358
vt 0.288525 0.357363
vt 0.292741 0.359111
vt 0.296957 0.357363
vt 0.296957 0.347353
vt 0.292741 0.345604
vt 0.313574 0.327718
vt 0.278465 0.312094
vt 0.313574 0.330474
vt 0.313574 0.426951
vt 0.276224 0.411326
vt 0.278461 0.414082
vt 0.313574 0.426951
vt 0.276013 0.314849
vt 0.278473 0.312094
vt 0.313574 0.330474
vt 0.276085 0.314849
vt 0.313574 0.326227
vt 0.279294 0.310602
vt 0.273543 0.312094
vt 0.273523 0.312094
vt 0.271976 0.314849
vt 0.272046 0.314849
vt 0.276100 0.411326
vt 0.279305 0.310602
vt 0.313574 0.429708
vt 0.313574 0.326227
vt 0.313574 0.327718
vt 0.316971 0.347272
vt 0.313574 0.341852
vt 0.313574 0.343343
vt 0.316971 0.441401
vt 0.313574 0.445333
vt 0.313574 0.462448
vt 0.316971 0.347260
vt 0.313574 0.343343
vt 0.313574 0.341852
vt 0.316971 0.441414
vt 0.313574 0.462448
vt 0.313574 0.445333
vt 0.316971 0.425776
vt 0.316971 0.362897
vt 0.313574 0.361724
vt 0.313574 0.442576
vt 0.313574 0.442576
vt 0.316971 0.425789
vt 0.316971 0.362885
vt 0.313574 0.361724
vn -0.0000 1.0000 0.0000
vn -0.1955 0.9056 0.3763
vn 0.1952 0.9059 0.3759
vn 0.0000 -1.0000 0.0000
vn -0.8916 -0.4312 -0.1383
vn -0.8915 -0.4315 0.1378
vn -0.8923 -0.4401 0.1001
vn -0.8924 -0.4400 -0.1003
vn 0.3850 -0.5044 -0.7729
vn -0.3831 -0.5049 -0.7735
vn -0.3297 -0.5109 -0.7939
vn 0.3316 -0.5105 -0.7934
vn -0.7980 -0.4297 0.4225
vn -0.3777 -0.5047 0.7763
vn -0.3260 -0.5104 0.7957
vn -0.7862 -0.4314 0.4425
vn 0.8915 -0.4311 -0.1389
vn 0.8005 -0.4278 -0.4198
vn 0.7894 -0.4294 -0.4387
vn 0.8924 -0.4398 -0.1009
vn 0.8921 -0.4309 0.1358
vn 0.8927 -0.4398 0.0982
vn 0.3779 -0.5044 0.7764
vn 0.7983 -0.4301 0.4215
vn 0.7860 -0.4319 0.4424
vn 0.3267 -0.5101 0.7957
vn -0.8006 -0.4281 -0.4192
vn -0.7893 -0.4297 -0.4386
vn -0.3929 0.8969 0.2031
vn -0.1989 0.9052 -0.3755
vn -0.3937 0.8969 -0.2015
vn 0.4162 0.9067 0.0689
vn 0.4164 0.9064 -0.0706
vn 0.3936 0.8969 -0.2018
vn -0.4160 0.9067 0.0699
vn 0.3937 0.8966 0.2027
vn 0.1999 0.9052 -0.3751
vn -0.4163 0.9065 -0.0702
vn -0.2379 0.7655 0.5978
vn 0.2385 0.7652 0.5980
vn 0.2419 0.7656 -0.5961
vn -0.2404 0.7660 -0.5962
vn 0.6267 0.6922 0.3580
vn 0.7089 0.7018 0.0709
vn 0.7086 0.7018 -0.0730
vn 0.6310 0.6895 -0.3556
vn -0.7084 0.7021 0.0724
vn -0.6272 0.6916 0.3582
vn -0.7085 0.7019 -0.0725
vn -0.6307 0.6898 -0.3555
vn 0.3563 0.0065 0.9344
vn -0.1860 -0.3610 0.9138
vn 0.3324 0.1122 0.9364
vn 0.5945 0.3253 0.7354
vn 0.0610 0.5017 0.8629
vn 0.3393 -0.0539 0.9391
vn -0.5532 0.8142 0.1760
vn -0.5535 0.8071 -0.2052
vn -0.8348 0.3466 -0.4278
vn -0.8308 0.3650 0.4201
vn 0.5830 0.3208 -0.7464
vn 0.0357 -0.4207 -0.9065
vn 0.2989 -0.4870 -0.8206
vn 0.4748 0.8761 0.0843
vn -0.0758 0.9908 0.1122
vn 0.0014 0.8418 0.5398
vn 0.5139 0.7648 0.3885
vn 0.5881 -0.3231 -0.7415
vn 0.2971 0.0582 -0.9531
vn 0.2375 -0.0037 -0.9714
vn 0.3611 -0.0105 0.9325
vn -0.8340 -0.3548 0.4225
vn -1.0000 0.0026 -0.0019
vn -1.0000 0.0044 -0.0011
vn 0.3436 -0.1362 -0.9292
vn -0.1832 0.3383 -0.9230
vn 0.3319 0.0707 -0.9406
vn -0.8388 -0.3436 -0.4223
vn -1.0000 0.0004 0.0004
vn -0.9999 0.0032 -0.0096
vn 0.3164 0.0526 0.9472
vn 0.5917 -0.3249 0.7378
vn 0.2946 0.0024 0.9556
vn -1.0000 -0.0049 -0.0035
vn -1.0000 0.0062 -0.0045
vn 0.3234 -0.0366 0.9455
vn 0.3748 -0.0026 0.9271
vn -1.0000 -0.0009 -0.0037
vn 0.3689 0.0194 -0.9292
vn -0.1933 -0.3404 -0.9202
vn 0.3962 -0.0045 -0.9181
vn -0.9999 0.0070 -0.0074
vn 0.4750 0.8757 -0.0867
vn -0.0737 0.9906 -0.1148
vn -0.5088 -0.0000 -0.8609
vn -0.5107 -0.6005 -0.6153
vn -0.7045 -0.4953 -0.5082
vn -0.7049 -0.0000 -0.7093
vn -0.5126 -0.8586 -0.0000
vn -0.7043 -0.7099 -0.0000
vn -0.5107 -0.6005 0.6153
vn -0.7045 -0.4953 0.5082
vn -0.5088 0.0000 0.8609
vn -0.7049 -0.0000 0.7093
vn -0.5107 0.6005 0.6153
vn -0.7045 0.4953 0.5082
vn -0.5126 0.8586 0.0000
vn -0.7043 0.7099 -0.0000
vn -0.5107 0.6005 -0.6153
vn -0.7045 0.4953 -0.5082
vn -0.6280 0.0000 0.7782
vn -0.3795 -0.6239 0.6832
vn -0.2244 -0.5221 0.8228
vn -0.4352 0.0000 0.9003
vn 0.1795 -0.8617 0.4745
vn 0.2429 -0.7194 0.6507
vn 0.7363 -0.6188 0.2738
vn 0.7077 -0.5199 0.4784
vn 0.9823 -0.0000 0.1874
vn 0.9161 -0.0000 0.4009
vn 0.7363 0.6188 0.2738
vn 0.7077 0.5199 0.4784
vn 0.1795 0.8617 0.4745
vn 0.2429 0.7194 0.6507
vn -0.3795 0.6239 0.6832
vn -0.2244 0.5221 0.8228
vn 0.7363 0.6188 -0.2738
vn 0.9823 0.0000 -0.1874
vn 0.9161 0.0000 -0.4009
vn 0.7077 0.5199 -0.4784
vn 0.7189 -0.6401 -0.2710
vn 0.7042 -0.5271 -0.4757
vn 0.2360 -0.7334 -0.6375
vn -0.2227 -0.5343 -0.8154
vn -0.6280 -0.0000 -0.7782
vn -0.4352 -0.0000 -0.9003
vn -0.3795 0.6239 -0.6832
vn -0.2244 0.5221 -0.8228
vn 0.1795 0.8617 -0.4745
vn 0.2429 0.7194 -0.6507
vn -1.0000 0.0000 -0.0000
vn 0.3490 -0.0000 0.9371
vn 0.3490 0.0000 -0.9371
vn 0.5132 -0.7662 -0.3867
vn 0.0060 -0.8160 -0.5780
vn 0.0018 0.8201 -0.5721
vn 0.0110 -0.8330 0.5532
vn 0.4750 -0.8757 -0.0866
vn -0.0728 -0.9907 -0.1152
vn -0.5505 -0.8088 -0.2068
vn -0.5455 -0.8133 0.2025
vn -0.6538 -0.0009 0.7567
vn -0.0719 -0.9907 0.1151
vn 0.5136 0.7662 -0.3862
vn 0.4750 -0.8757 0.0865
vn 0.5138 -0.7640 0.3903
vn 0.9455 -0.2500 -0.2088
vn 0.9454 0.2504 -0.2086
vn 0.9454 -0.2498 0.2093
vn 0.9454 0.2505 0.2085
usemtl restaurant
s 1
f 5/1/1 21/2/2 24/3/3 6/4/1
f 4/5/4 16/6/4 15/7/4
f 3/8/4 1/9/4 17/10/4 19/11/4
f 1/9/4 9/12/4 18/13/4
f 19/11/5 17/10/6 38/14/7 42/15/8
f 4/5/4 12/16/4 16/6/4
f 12/16/9 11/17/10 25/18/11 28/19/12
f 1/9/4 18/13/4 17/10/4
f 4/5/4 3/8/4 11/17/4 12/16/4
f 3/8/4 20/20/4 11/17/4
f 2/21/4 13/22/4 14/23/4
f 2/21/4 1/9/4 3/8/4 4/5/4
f 18/13/13 9/12/14 22/24/15 39/25/16
f 15/7/17 16/6/18 35/26/19 33/27/20
f 13/22/21 15/7/17 33/27/20 29/28/22
f 16/6/18 12/16/9 28/19/12 35/26/19
f 10/29/23 14/23/24 32/30/25 23/31/26
f 17/10/6 18/13/13 39/25/16 38/14/7
f 20/20/27 19/11/5 42/15/8 44/32/28
f 3/8/4 19/11/4 20/20/4
f 11/17/10 20/20/27 44/32/28 25/18/11
f 14/23/24 13/22/21 29/28/22 32/30/25
f 2/21/4 14/23/4 10/29/4
f 6/4/1 8/33/1 7/34/1 5/1/1
f 5/1/1 40/35/29 21/2/2
f 7/34/1 26/36/30 43/37/31
f 6/4/1 30/38/32 34/39/33 8/33/1
f 8/33/1 34/39/33 36/40/34
f 5/1/1 37/41/35 40/35/29
f 6/4/1 31/42/36 30/38/32
f 8/33/1 27/43/37 26/36/30 7/34/1
f 7/34/1 41/44/38 37/41/35 5/1/1
f 7/34/1 43/37/31 41/44/38
f 8/33/1 36/40/34 27/43/37
f 6/4/1 24/3/3 31/42/36
f 2/21/4 4/5/4 15/7/4 13/22/4
f 22/45/39 23/46/40 24/47/3 21/48/2
f 26/49/30 27/50/37 28/51/41 25/52/42
f 30/53/32 31/54/36 32/55/43 29/56/44
f 34/57/33 30/53/32 29/56/44 33/58/45
f 33/58/45 35/59/46 36/60/34 34/57/33
f 35/59/46 28/51/41 27/50/37 36/60/34
f 31/54/36 24/47/3 23/46/40 32/55/43
f 38/61/47 39/62/48 40/63/29 37/64/35
f 42/65/49 38/61/47 37/64/35 41/66/38
f 41/66/38 43/67/31 44/68/50 42/65/49
f 43/67/31 26/49/30 25/52/42 44/68/50
f 39/62/48 22/45/39 21/48/2 40/63/29
f 1/9/4 2/21/4 10/29/4 9/12/4
f 52/69/51 97/70/52 62/71/53
f 117/72/54 102/73/55 63/74/56
f 104/75/57 115/76/58 113/77/59 101/78/60
f 119/79/61 55/80/62 67/81/63
f 120/82/64 103/83/65 105/84/66 121/85/67
f 118/86/68 56/87/69 68/88/70
f 102/73/55 51/89/71 63/74/56
f 98/90/72 45/91/73 58/92/74
f 54/93/75 112/94/76 67/81/63
f 55/80/62 119/79/61 68/88/70
f 56/87/69 118/86/68 66/95/77
f 106/96/78 48/97/79 60/98/80
f 49/99/81 116/100/82 61/101/83
f 46/102/84 101/103/60 59/104/85
f 117/72/54 50/105/86 61/101/83
f 116/100/82 49/99/81 62/71/53
f 50/105/86 117/72/54 63/74/56
f 102/73/55 97/70/52 64/106/87
f 97/70/52 52/69/51 64/106/87
f 98/90/72 101/103/60 57/107/88
f 101/103/60 46/102/84 57/107/88
f 53/108/89 107/109/90 65/110/91
f 113/111/59 47/112/92 59/104/85
f 113/111/59 106/96/78 60/98/80
f 106/96/78 98/90/72 58/92/74
f 122/113/93 111/114/94 103/83/65 120/82/64
f 107/109/90 53/108/89 66/95/77
f 119/79/61 118/86/68 68/88/70
f 107/109/90 112/94/76 65/110/91
f 47/112/92 113/111/59 60/98/80
f 118/86/68 107/109/90 66/95/77
f 112/94/76 54/93/75 65/110/91
f 116/100/82 117/72/54 61/101/83
f 57/115/95 46/116/96 70/117/97 69/118/98
f 46/119/96 59/120/99 71/121/100 70/122/97
f 59/120/99 47/123/101 72/124/102 71/121/100
f 47/125/101 60/126/103 73/127/104 72/128/102
f 60/126/103 48/97/105 74/129/106 73/127/104
f 48/130/105 58/131/107 75/132/108 74/133/106
f 58/131/107 45/134/109 76/135/110 75/132/108
f 45/91/109 57/115/95 69/118/98 76/136/110
f 61/137/111 50/138/112 78/139/113 77/140/114
f 50/141/112 63/142/115 79/143/116 78/144/113
f 63/142/115 51/145/117 80/146/118 79/143/116
f 51/147/117 64/148/119 81/149/120 80/150/118
f 64/148/119 52/69/121 82/151/122 81/149/120
f 52/152/121 62/153/123 83/154/124 82/155/122
f 62/153/123 49/156/125 84/157/126 83/154/124
f 49/99/125 61/137/111 77/140/114 84/158/126
f 53/108/127 65/159/128 86/160/129 85/161/130
f 65/159/128 54/162/131 87/163/132 86/160/129
f 54/164/131 67/165/63 88/166/133 87/167/132
f 67/165/63 55/168/62 89/169/134 88/166/133
f 55/170/62 68/171/135 90/172/136 89/173/134
f 68/171/135 56/87/137 91/174/138 90/172/136
f 56/175/137 66/176/139 92/177/140 91/178/138
f 66/176/139 53/179/127 85/180/130 92/177/140
f 69/118/98 70/181/97 93/182/141
f 70/181/97 71/183/100 93/182/141
f 71/183/100 72/184/102 93/182/141
f 72/184/102 73/127/104 93/182/141
f 73/127/104 74/185/106 93/182/141
f 74/185/106 75/186/108 93/182/141
f 75/186/108 76/187/110 93/182/141
f 76/187/110 69/118/98 93/182/141
f 77/140/114 78/188/113 94/189/142
f 78/188/113 79/190/116 94/189/142
f 79/190/116 80/191/118 94/189/142
f 80/191/118 81/149/120 94/189/142
f 81/149/120 82/192/122 94/189/142
f 82/192/122 83/193/124 94/189/142
f 83/193/124 84/194/126 94/189/142
f 84/194/126 77/140/114 94/189/142
f 85/195/130 86/160/129 95/196/143
f 86/160/129 87/197/132 95/196/143
f 87/197/132 88/198/133 95/196/143
f 88/198/133 89/199/134 95/196/143
f 89/199/134 90/172/136 95/196/143
f 90/172/136 91/200/138 95/196/143
f 91/200/138 92/201/140 95/196/143
f 92/201/140 85/195/130 95/196/143
f 127/202/144 110/203/145 118/204/68
f 97/70/52 116/100/82 62/71/53
f 101/103/60 113/111/59 59/104/85
f 121/85/67 105/84/66 117/205/54
f 48/97/79 106/96/78 58/92/74
f 112/206/76 114/207/146 119/208/61
f 97/209/52 99/210/147 116/211/82
f 110/203/145 107/212/90 118/204/68
f 103/83/65 111/114/94 115/76/58 104/75/57
f 51/89/71 102/73/55 64/106/87
f 126/213/148 108/214/149 110/203/145 127/202/144
f 112/94/76 119/79/61 67/81/63
f 109/215/150 100/216/151 98/217/72 106/218/78
f 45/91/73 98/90/72 57/107/88
f 102/73/152 101/103/60 98/90/72 97/70/52
f 114/207/146 115/76/58 111/114/94
f 97/209/52 98/217/72 100/216/151 99/210/147
f 105/84/66 104/75/57 101/78/60 102/219/55
f 103/83/65 104/75/57 105/84/66
f 112/206/76 113/77/59 115/76/58 114/207/146
f 108/214/149 109/215/150 110/203/145
f 112/94/76 107/109/90 106/96/78 113/111/59
f 99/210/147 100/216/151 96/220/153
f 108/214/149 96/220/153 100/216/151 109/215/150
f 105/84/66 102/219/55 117/205/54
f 111/114/94 122/113/93 123/221/154 114/207/146
f 114/207/146 123/221/154 119/208/61
f 96/220/153 124/222/155 125/223/156 99/210/147
f 96/220/153 108/214/149 126/213/148 124/222/155
f 99/210/147 125/223/156 116/211/82
f 130/224/157 126/225/148 127/226/144
f 131/227/158 123/228/154 122/229/93
f 128/230/159 125/231/156 124/232/155
f 130/224/157 128/230/159 124/232/155 126/225/148
f 129/233/160 120/234/64 121/235/67
f 129/233/160 131/227/158 122/229/93 120/234/64
f 128/230/159 116/100/82 125/231/156
f 131/236/158 130/237/157 118/238/68 119/208/61
f 129/233/160 121/235/67 117/239/54
f 130/224/157 127/226/144 118/86/68
f 131/227/158 119/240/61 123/228/154
f 129/241/160 128/242/159 130/237/157 131/236/158
f 9/12/14 10/29/23 23/31/26 22/24/15
f 128/242/159 129/241/160 117/205/54 116/243/82
f 110/203/145 109/215/150 106/218/78 107/212/90
