# Blender v3.4.1 OBJ File: 'restaurant_bits_export.blend'
# www.blender.org
mtllib food_ingredient_potato_chopped.mtl
o food_ingredient_potato_chopped_Cube.18438
v -0.531807 0.471904 0.207733
v -0.531807 0.471904 -0.197877
v -0.598370 0.114403 0.209150
v -0.598370 0.114403 -0.199293
v -0.548456 0.501940 -0.113123
v -0.556210 0.516838 0.004928
v -0.548456 0.501940 0.122979
v -0.242875 0.474540 -0.247389
v -0.453782 0.495255 -0.233753
v -0.607361 0.192441 -0.228660
v -0.598868 0.296690 -0.242087
v -0.568650 0.398865 -0.227571
v -0.317437 0.066286 -0.247499
v -0.528569 0.084754 -0.234860
v -0.627076 0.084121 0.124038
v -0.640760 0.069792 0.004928
v -0.627076 0.084121 -0.114182
v -0.317437 0.066286 0.257356
v -0.528569 0.084754 0.244716
v -0.568650 0.398865 0.237428
v -0.598868 0.296690 0.251944
v -0.607361 0.192441 0.238517
v -0.453782 0.495255 0.243610
v -0.242875 0.474540 0.257246
v -0.615606 0.407299 -0.119289
v -0.652291 0.295955 -0.125915
v -0.658903 0.182405 -0.119880
v -0.629313 0.414065 0.004928
v -0.669417 0.293579 0.004928
v -0.675669 0.174698 0.004928
v -0.615606 0.407299 0.129145
v -0.652291 0.295955 0.135772
v -0.658903 0.182405 0.129736
v -0.517931 0.183801 0.311903
v -0.300958 0.165614 0.331098
v -0.504058 0.293174 0.333125
v -0.282786 0.272823 0.354928
v -0.478354 0.401005 0.311147
v -0.262156 0.379401 0.331039
v -0.546082 0.020812 -0.124728
v -0.330381 -0.000485 -0.130461
v -0.555500 0.000299 0.004928
v -0.335117 -0.021626 0.004928
v -0.546082 0.020812 0.134585
v -0.330381 -0.000485 0.140317
v -0.478354 0.401005 -0.301291
v -0.262156 0.379401 -0.321182
v -0.504058 0.293174 -0.323268
v -0.282786 0.272823 -0.345072
v -0.517931 0.183801 -0.302047
v -0.300958 0.165614 -0.321241
v -0.447759 0.557511 0.133835
v -0.231446 0.537786 0.140252
v -0.449208 0.578374 0.004928
v -0.228134 0.559110 0.004928
v -0.447759 0.557511 -0.123978
v -0.231446 0.537786 -0.130396
v -0.030284 0.449678 0.116566
v -0.030284 0.463237 0.004928
v -0.030284 0.449678 -0.106709
v -0.030284 0.402939 0.213328
v -0.030284 0.402939 -0.203471
v -0.030284 0.327850 -0.264628
v -0.030284 0.240542 -0.284504
v -0.030284 0.150828 -0.264982
v -0.030284 0.067751 -0.204049
v -0.030284 0.012718 -0.107094
v -0.030284 -0.004634 0.004928
v -0.030284 0.012718 0.116951
v -0.030284 0.067751 0.213905
v -0.030284 0.150828 0.274839
v -0.030284 0.240542 0.294361
v -0.030284 0.327850 0.274485
v -0.010284 0.350146 -0.146584
v -0.010284 0.235797 -0.159544
v -0.010284 0.119374 -0.146819
v -0.010284 0.355611 0.004928
v -0.010284 0.232833 0.004928
v -0.010284 0.108513 0.004928
v -0.010284 0.350146 0.156440
v -0.010284 0.235797 0.169401
v -0.010284 0.119374 0.156675
v 0.250583 0.199388 -0.251843
v 0.315562 0.199388 -0.081967
v 0.276359 0.060509 -0.300269
v 0.367143 0.060509 -0.062931
v 0.311659 0.218067 -0.121139
v 0.297253 0.227331 -0.172292
v 0.273835 0.218067 -0.220022
v 0.275971 0.213909 -0.049715
v 0.341728 0.153967 -0.077664
v 0.334488 0.042071 -0.026854
v 0.311958 0.041677 -0.257150
v 0.346383 0.032767 -0.190959
v 0.364906 0.041677 -0.118726
v 0.227894 0.042071 -0.305526
v 0.267235 0.153967 -0.272413
v 0.199497 0.213909 -0.249642
v 0.351666 0.159212 -0.133382
v 0.339731 0.163420 -0.188432
v 0.311867 0.159212 -0.237430
v 0.202956 0.155298 -0.283353
v 0.320186 0.002307 -0.094716
v 0.296840 -0.010449 -0.172135
v 0.262549 0.002307 -0.245397
v 0.301069 0.155298 -0.026854
v 0.213583 0.252625 -0.202337
v 0.235076 0.265599 -0.148669
v 0.254885 0.252625 -0.094361
v 0.059348 0.244655 -0.146390
v 0.080885 0.254809 -0.090085
v 0.102422 0.244655 -0.033780
v 0.040680 0.209652 -0.195193
v 0.121089 0.209652 0.015023
v 0.132888 0.153419 0.045868
v 0.136821 0.042075 0.056149
v 0.110869 0.000862 -0.011696
v 0.080885 -0.012133 -0.090085
v 0.050900 0.000862 -0.168474
v 0.024949 0.042075 -0.236319
v 0.028882 0.153419 -0.226038
v 0.096119 0.170116 -0.008351
v 0.107507 0.080735 0.021419
v 0.066889 0.174209 -0.084768
v 0.073857 0.081435 -0.087415
v 0.037660 0.170116 -0.161184
v 0.026272 0.080735 -0.190954
v 0.083939 0.219106 0.210441
v 0.303475 0.219106 0.110069
v 0.017494 0.035216 0.180721
v 0.324213 0.035216 0.040489
v 0.251886 0.243838 0.118624
v 0.185329 0.256105 0.142053
v 0.124096 0.243838 0.177050
v 0.306898 0.158964 0.075239
v 0.071553 0.010281 0.130087
v 0.156300 -0.001517 0.078986
v 0.250443 0.010281 0.048298
v 0.055217 0.158964 0.190308
v 0.232168 0.165908 0.067010
v 0.160230 0.171480 0.087525
v 0.097704 0.165908 0.128487
v 0.173203 0.244891 0.260225
v 0.228157 0.255045 0.235100
v 0.283112 0.244891 0.209974
v 0.125571 0.209889 0.282002
v 0.330744 0.209889 0.188197
v 0.360849 0.153655 0.174433
v 0.370883 0.042312 0.169845
v 0.304666 0.001098 0.200120
v 0.228157 -0.011897 0.235100
v 0.151649 0.001098 0.270079
v 0.085431 0.042312 0.300354
v 0.095466 0.153655 0.295766
v 0.308985 0.170353 0.214568
v 0.338042 0.080972 0.201283
v 0.234402 0.174445 0.248667
v 0.231293 0.081672 0.241912
v 0.159819 0.170353 0.282767
v 0.130763 0.080972 0.296052
vt 0.803548 0.688377
vt 0.817245 0.679929
vt 0.817245 0.678734
vt 0.803319 0.686498
vt 0.801193 0.659232
vt 0.817245 0.622092
vt 0.817245 0.609603
vt 0.799765 0.643986
vt 0.802527 0.699262
vt 0.817245 0.674615
vt 0.817245 0.678734
vt 0.803319 0.704836
vt 0.817245 0.596769
vt 0.798507 0.598885
vt 0.817245 0.674615
vt 0.802527 0.680925
vt 0.796470 0.543875
vt 0.817245 0.545763
vt 0.817245 0.543281
vt 0.796142 0.540851
vt 0.817245 0.545763
vt 0.796470 0.543875
vt 0.817245 0.553636
vt 0.797366 0.553426
vt 0.798507 0.598885
vt 0.817245 0.596769
vt 0.817245 0.609603
vt 0.799765 0.614220
vt 0.817245 0.622092
vt 0.801193 0.629466
vt 0.783486 0.631252
vt 0.784446 0.646897
vt 0.817245 0.553636
vt 0.797366 0.553426
vt 0.776724 0.664458
vt 0.774185 0.647295
vt 0.772999 0.617189
vt 0.775775 0.634425
vt 0.773727 0.601286
vt 0.772566 0.600184
vt 0.774185 0.617529
vt 0.776724 0.633457
vt 0.773727 0.601286
vt 0.782525 0.680692
vt 0.779975 0.663715
vt 0.781373 0.683339
vt 0.777883 0.647400
vt 0.777295 0.602722
vt 0.777917 0.590075
vt 0.775930 0.585743
vt 0.774983 0.553928
vt 0.775930 0.555977
vt 0.777917 0.560309
vt 0.777295 0.632487
vt 0.777883 0.647400
vt 0.779975 0.632250
vt 0.781373 0.683339
vt 0.782525 0.680692
vt 0.780836 0.684652
vt 0.786226 0.632556
vt 0.782750 0.556068
vt 0.787927 0.701088
vt 0.781537 0.576687
vt 0.780885 0.543987
vt 0.781537 0.546921
vt 0.782750 0.585834
vt 0.786226 0.663904
vt 0.784446 0.646897
vt 0.783486 0.601486
vt 0.787927 0.682750
vt 0.788344 0.706574
vt 0.788244 0.690075
vt 0.788344 0.688236
vt 0.817245 0.704062
vt 0.817245 0.706242
vt 0.818629 0.698695
vt 0.817245 0.706875
vt 0.818629 0.699109
vt 0.817245 0.706242
vt 0.818629 0.698695
vt 0.817245 0.704062
vt 0.817245 0.697007
vt 0.817245 0.697007
vt 0.818629 0.690036
vt 0.817245 0.690396
vt 0.818629 0.689812
vt 0.818629 0.690036
vt 0.817245 0.690396
vt 0.818629 0.681220
vt 0.817245 0.683602
vt 0.818629 0.680398
vt 0.818629 0.681220
vt 0.817245 0.683602
vt 0.817245 0.656601
vt 0.817245 0.660768
vt 0.817245 0.655287
vt 0.817245 0.656601
vt 0.817245 0.660768
vt 0.833152 0.605793
vt 0.822157 0.605184
vt 0.823450 0.657066
vt 0.834127 0.658206
vt 0.826784 0.661751
vt 0.828813 0.658824
vt 0.828541 0.683798
vt 0.825995 0.685063
vt 0.836986 0.658206
vt 0.826432 0.657066
vt 0.827724 0.605184
vt 0.838446 0.637043
vt 0.840183 0.597409
vt 0.828541 0.597140
vt 0.839891 0.542450
vt 0.824941 0.542208
vt 0.822865 0.544067
vt 0.837517 0.544274
vt 0.833391 0.597409
vt 0.835118 0.549962
vt 0.821068 0.549963
vt 0.821341 0.597140
vt 0.841507 0.544274
vt 0.842497 0.549962
vt 0.828813 0.549963
vt 0.827016 0.544067
vt 0.824941 0.658518
vt 0.835615 0.660062
vt 0.824454 0.661804
vt 0.824941 0.654719
vt 0.827016 0.655703
vt 0.844758 0.552600
vt 0.844603 0.549906
vt 0.843686 0.597969
vt 0.842998 0.597218
vt 0.840931 0.597969
vt 0.840937 0.549906
vt 0.838473 0.552600
vt 0.837841 0.597218
vt 0.841187 0.603716
vt 0.840917 0.653263
vt 0.842860 0.598571
vt 0.843320 0.548631
vt 0.838298 0.653263
vt 0.836689 0.603716
vt 0.839919 0.654588
vt 0.827724 0.688056
vt 0.826432 0.715521
vt 0.824941 0.716290
vt 0.823972 0.685373
vt 0.823450 0.715521
vt 0.821948 0.685063
vt 0.822157 0.688056
vt 0.821341 0.683798
vt 0.821160 0.661751
vt 0.822865 0.655703
vt 0.821068 0.658824
vt 0.836779 0.656949
vt 0.838940 0.657100
vt 0.842238 0.605218
vt 0.840350 0.637786
vt 0.842743 0.678312
vt 0.845017 0.658842
vt 0.844322 0.683816
vt 0.840732 0.685080
vt 0.840587 0.597933
vt 0.844322 0.597174
vt 0.845017 0.549997
vt 0.841786 0.548981
vt 0.840432 0.544101
vt 0.836679 0.545415
vt 0.823164 0.597933
vt 0.825950 0.597174
vt 0.828034 0.605218
vt 0.825152 0.606536
vt 0.824295 0.545415
vt 0.829839 0.544101
vt 0.825255 0.549997
vt 0.820552 0.548981
vt 0.832171 0.658704
vt 0.835136 0.658552
vt 0.835353 0.678365
vt 0.835136 0.654737
vt 0.840432 0.655721
vt 0.835136 0.542242
vt 0.830161 0.543727
vt 0.835414 0.598927
vt 0.826105 0.598927
vt 0.830433 0.599724
vt 0.827932 0.656949
vt 0.831332 0.657100
vt 0.842238 0.688074
vt 0.838940 0.715539
vt 0.835136 0.716308
vt 0.835568 0.685390
vt 0.831332 0.715539
vt 0.830405 0.685080
vt 0.828034 0.688074
vt 0.825950 0.683816
vt 0.828394 0.661769
vt 0.829839 0.655721
vt 0.825255 0.658842
vn 0.2582 0.9661 -0.0000
vn 0.4253 0.9051 0.0000
vn 0.4085 0.8655 -0.2900
vn 0.2435 0.9175 -0.3144
vn 0.1315 0.4064 -0.9042
vn 0.2996 0.3736 -0.8779
vn 0.2295 -0.0370 -0.9726
vn 0.0684 0.0013 -0.9977
vn 0.1983 0.7363 0.6470
vn 0.3633 0.6995 0.6154
vn 0.4085 0.8655 0.2900
vn 0.2435 0.9175 0.3144
vn 0.1607 -0.4362 -0.8854
vn 0.0246 -0.4007 -0.9159
vn 0.3633 0.6995 -0.6154
vn 0.1983 0.7363 -0.6470
vn -0.0190 -0.9414 -0.3368
vn 0.0669 -0.9450 -0.3201
vn 0.0558 -0.9984 -0.0000
vn -0.0241 -0.9997 -0.0000
vn 0.0669 -0.9450 0.3201
vn -0.0190 -0.9414 0.3368
vn 0.1029 -0.7576 -0.6446
vn -0.0030 -0.7378 -0.6751
vn 0.0246 -0.4007 0.9159
vn 0.1607 -0.4362 0.8854
vn 0.2295 -0.0370 0.9726
vn 0.0684 0.0013 0.9977
vn 0.2996 0.3736 0.8779
vn 0.1315 0.4064 0.9042
vn -0.3759 -0.3100 0.8733
vn -0.3788 0.0716 0.9227
vn 0.1029 -0.7576 0.6446
vn -0.0030 -0.7378 0.6751
vn -0.8616 0.4410 -0.2512
vn -0.9452 0.1771 -0.2744
vn -0.9831 0.1829 -0.0000
vn -0.8907 0.4545 -0.0000
vn -0.9509 -0.1312 -0.2803
vn -0.9903 -0.1391 -0.0000
vn -0.9452 0.1771 0.2744
vn -0.8616 0.4410 0.2512
vn -0.9509 -0.1312 0.2803
vn -0.5900 0.6491 -0.4802
vn -0.7093 0.4295 -0.5589
vn -0.6465 0.7193 -0.2543
vn -0.7819 0.1446 -0.6064
vn -0.7774 -0.1712 -0.6052
vn -0.6996 -0.4673 -0.5406
vn -0.7850 -0.5435 -0.2971
vn -0.8193 -0.5733 -0.0000
vn -0.7850 -0.5435 0.2971
vn -0.6996 -0.4673 0.5406
vn -0.7774 -0.1712 0.6052
vn -0.7819 0.1446 0.6064
vn -0.7093 0.4295 0.5589
vn -0.6465 0.7193 0.2543
vn -0.5900 0.6491 0.4802
vn -0.6671 0.7450 -0.0000
vn -0.3060 0.4356 0.8465
vn -0.3439 -0.6614 0.6666
vn -0.2188 0.7492 0.6251
vn -0.3594 -0.8713 -0.3343
vn -0.3827 -0.9239 -0.0000
vn -0.3594 -0.8713 0.3343
vn -0.3439 -0.6614 -0.6666
vn -0.3060 0.4356 -0.8465
vn -0.3788 0.0716 -0.9227
vn -0.3759 -0.3100 -0.8733
vn -0.2188 0.7492 -0.6251
vn -0.2001 0.9299 0.3088
vn -0.2108 0.9775 -0.0000
vn -0.2001 0.9299 -0.3088
vn 0.9678 0.1948 -0.1594
vn 0.9778 0.2053 -0.0414
vn 0.9901 0.1103 -0.0870
vn 0.9814 0.1922 0.0000
vn 0.9951 0.0987 -0.0000
vn 0.9778 0.2053 0.0414
vn 0.9901 0.1103 0.0870
vn 0.9678 0.1948 0.1594
vn 0.9831 0.0618 0.1724
vn 0.9831 0.0618 -0.1724
vn 0.9961 -0.0001 -0.0887
vn 0.9863 0.0010 -0.1652
vn 1.0000 0.0000 -0.0000
vn 0.9961 -0.0001 0.0887
vn 0.9863 0.0010 0.1652
vn 0.9901 -0.1055 -0.0924
vn 0.9827 -0.0574 -0.1758
vn 0.9954 -0.0957 -0.0000
vn 0.9901 -0.1055 0.0924
vn 0.9827 -0.0574 0.1758
vn 0.9797 -0.1947 -0.0480
vn 0.9676 -0.1865 -0.1699
vn 0.9832 -0.1825 -0.0000
vn 0.9797 -0.1947 0.0480
vn 0.9676 -0.1865 0.1699
vn -0.0606 0.6600 -0.7488
vn -0.2620 0.6583 -0.7057
vn -0.1765 0.9143 -0.3646
vn 0.0589 0.8984 -0.4353
vn -0.8740 -0.0509 0.4832
vn -0.8382 -0.1193 0.5321
vn -0.7863 0.0912 0.6111
vn -0.8836 0.0981 0.4579
vn 0.3331 0.8986 0.2855
vn 0.1100 0.9145 0.3894
vn 0.2726 0.6587 0.7013
vn 0.4521 0.6604 0.5996
vn 0.5433 0.3309 0.7716
vn 0.3695 0.2992 0.8798
vn 0.3186 -0.9400 -0.1218
vn 0.0074 -1.0000 -0.0031
vn -0.1077 -0.9426 -0.3161
vn 0.1775 -0.8874 -0.4255
vn -0.1066 0.3305 -0.9377
vn -0.1029 0.1854 -0.9773
vn -0.3168 0.1066 -0.9425
vn -0.3079 0.2990 -0.9032
vn 0.4152 -0.8877 0.1991
vn 0.4196 -0.8243 0.3800
vn 0.1910 -0.8668 0.4606
vn 0.1292 -0.9428 0.3074
vn -0.0519 0.9985 0.0196
vn 0.2090 0.9746 -0.0799
vn -0.9306 -0.0857 0.3559
vn -0.9268 -0.1236 0.3545
vn -0.9191 -0.1512 0.3637
vn -0.1631 -0.8668 -0.4712
vn 0.0602 -0.8241 -0.5632
vn 0.8945 0.2325 0.3817
vn 0.9868 0.1242 -0.1039
vn 0.9396 0.3384 -0.0518
vn 0.8565 0.3635 0.3664
vn 0.7347 0.3381 -0.5881
vn 0.8045 0.1240 -0.5809
vn 0.4134 0.2320 -0.8805
vn 0.3953 0.3629 -0.8438
vn 0.7179 0.5886 0.3718
vn 0.7084 0.6999 0.0916
vn 0.8785 0.3396 -0.3359
vn 0.9319 0.0668 -0.3564
vn 0.5723 0.1856 0.7988
vn 0.4674 0.6993 -0.5409
vn 0.2885 0.5879 -0.7558
vn 0.6221 0.7460 -0.2378
vn 0.3890 0.1066 0.9151
vn 0.6913 -0.6844 0.2318
vn 0.6718 -0.7373 0.0708
vn 0.4542 -0.7368 -0.5009
vn 0.3616 -0.6836 -0.6340
vn 0.5892 -0.7760 -0.2251
vn -0.8203 0.2017 0.5351
vn -0.8925 0.2047 0.4019
vn -0.9166 0.1921 0.3506
vn -0.9313 0.0765 0.3562
vn -0.9329 0.2048 0.2964
vn -0.9636 0.0982 0.2485
vn -0.9680 0.2019 0.1488
vn -0.9934 0.0913 0.0692
vn -0.9734 -0.0508 0.2233
vn -0.9273 -0.1512 0.3426
vn -0.9794 -0.1194 0.1630
vn 0.3177 0.9435 -0.0941
vn 0.3152 0.9444 -0.0936
vn 0.7046 0.6621 -0.2553
vn 0.7110 0.6536 -0.2594
vn 0.5374 -0.0507 0.8418
vn 0.5837 -0.1190 0.8032
vn 0.6591 0.0912 0.7465
vn 0.5127 0.0980 0.8530
vn 0.8850 0.2643 -0.3833
vn 0.8815 0.2795 -0.3805
vn 0.9012 0.1715 -0.3981
vn 0.3897 -0.9092 -0.1466
vn 0.2402 -0.9625 -0.1260
vn 0.2382 -0.9631 -0.1257
vn -0.8668 0.2642 0.4230
vn -0.8623 0.2796 0.4221
vn -0.6518 0.6625 0.3691
vn -0.6599 0.6530 0.3716
vn -0.2506 -0.9630 0.0995
vn -0.2515 -0.9626 0.1002
vn -0.3649 -0.9091 0.2008
vn 0.0033 1.0000 0.0079
vn 0.0038 1.0000 0.0076
vn 0.4143 -0.0855 0.9061
vn 0.4126 -0.1233 0.9025
vn 0.4213 -0.1509 0.8943
vn -0.0218 -0.9986 -0.0481
vn -0.0222 -0.9986 -0.0479
vn -0.0197 0.1855 -0.9824
vn -0.1677 0.1238 -0.9780
vn -0.1131 0.3376 -0.9345
vn 0.0486 0.3435 -0.9379
vn -0.6332 0.3380 -0.6963
vn -0.6303 0.1240 -0.7664
vn -0.7306 0.1858 -0.6570
vn -0.7416 0.3440 -0.5759
vn 0.1271 0.5155 -0.8474
vn -0.0460 0.5542 -0.8311
vn -0.3913 0.3391 -0.8555
vn -0.4149 0.0666 -0.9074
vn -0.2787 0.9432 0.1806
vn -0.2759 0.9445 0.1783
vn -0.5984 0.5549 -0.5780
vn -0.7243 0.5164 -0.4569
vn -0.3384 0.5807 -0.7405
vn 0.5856 0.2015 0.7852
vn 0.4575 0.2043 0.8654
vn 0.4081 0.1916 0.8926
vn 0.4146 0.0764 0.9068
vn 0.3552 0.2043 0.9122
vn 0.3099 0.0979 0.9457
vn 0.2110 0.2013 0.9566
vn 0.1338 0.0910 0.9868
vn 0.2853 -0.0508 0.9571
vn 0.4007 -0.1509 0.9037
vn 0.2257 -0.1188 0.9669
vn -0.8885 0.1714 0.4257
usemtl restaurant
s 1
f 55/1/1 59/2/2 60/3/3 57/4/4
f 47/5/5 63/6/6 64/7/7 49/8/8
f 24/9/9 61/10/10 58/11/11 53/12/12
f 49/8/8 64/7/7 65/13/13 51/14/14
f 57/4/4 60/3/3 62/15/15 8/16/16
f 41/17/17 67/18/18 68/19/19 43/20/20
f 8/16/16 62/15/15 63/6/6 47/5/5
f 43/20/20 68/19/19 69/21/21 45/22/22
f 51/14/14 65/13/13 66/23/23 13/24/24
f 35/25/25 71/26/26 72/27/27 37/28/28
f 13/24/24 66/23/23 67/18/18 41/17/17
f 37/28/28 72/27/27 73/29/29 39/30/30
f 34/31/31 35/25/25 37/28/28 36/32/32
f 45/22/22 69/21/21 70/33/33 18/34/34
f 18/34/34 70/33/33 71/26/26 35/25/25
f 25/35/35 26/36/36 29/37/37 28/38/38
f 26/36/36 27/39/39 30/40/40 29/37/37
f 28/38/38 29/37/37 32/41/41 31/42/42
f 29/37/37 30/40/40 33/43/43 32/41/41
f 2/44/44 12/45/45 25/35/35 5/46/46
f 12/45/45 11/47/47 26/36/36 25/35/35
f 11/47/47 10/48/48 27/39/39 26/36/36
f 10/48/48 4/49/49 17/50/50 27/39/39
f 27/39/39 17/50/50 16/51/51 30/40/40
f 30/40/40 16/51/51 15/52/52 33/43/43
f 33/43/43 15/52/52 3/53/53 22/54/54
f 32/41/41 33/43/43 22/54/54 21/55/55
f 31/42/42 32/41/41 21/55/55 20/56/56
f 7/57/57 31/42/42 20/56/56 1/58/58
f 6/59/59 28/38/38 31/42/42 7/57/57
f 5/46/46 25/35/35 28/38/38 6/59/59
f 36/32/32 37/28/28 39/30/30 38/60/60
f 18/34/34 35/25/25 34/31/31 19/61/61
f 3/53/53 19/61/61 34/31/31 22/54/54
f 38/60/60 39/30/30 24/9/9 23/62/62
f 40/63/63 41/17/17 43/20/20 42/64/64
f 20/56/56 38/60/60 23/62/62 1/58/58
f 21/55/55 36/32/32 38/60/60 20/56/56
f 22/54/54 34/31/31 36/32/32 21/55/55
f 42/64/64 43/20/20 45/22/22 44/65/65
f 13/24/24 41/17/17 40/63/63 14/66/66
f 4/49/49 14/66/66 40/63/63 17/50/50
f 44/65/65 45/22/22 18/34/34 19/61/61
f 46/67/67 47/5/5 49/8/8 48/68/68
f 15/52/52 44/65/65 19/61/61 3/53/53
f 16/51/51 42/64/64 44/65/65 15/52/52
f 17/50/50 40/63/63 42/64/64 16/51/51
f 48/68/68 49/8/8 51/14/14 50/69/69
f 8/16/16 47/5/5 46/67/67 9/70/70
f 2/44/44 9/70/70 46/67/67 12/45/45
f 50/69/69 51/14/14 13/24/24 14/66/66
f 52/71/71 53/12/12 55/1/1 54/72/72
f 10/48/48 50/69/69 14/66/66 4/49/49
f 11/47/47 48/68/68 50/69/69 10/48/48
f 12/45/45 46/67/67 48/68/68 11/47/47
f 54/72/72 55/1/1 57/4/4 56/73/73
f 23/62/62 24/9/9 53/12/12 52/71/71
f 1/58/58 23/62/62 52/71/71 7/57/57
f 56/73/73 57/4/4 8/16/16 9/70/70
f 5/46/46 56/73/73 9/70/70 2/44/44
f 6/59/59 54/72/72 56/73/73 5/46/46
f 7/57/57 52/71/71 54/72/72 6/59/59
f 39/30/30 73/29/29 61/10/10 24/9/9
f 53/12/12 58/11/11 59/2/2 55/1/1
f 62/74/74 60/75/75 74/76/76
f 60/75/75 59/77/77 77/78/78 74/76/76
f 59/77/77 58/79/79 80/80/80 77/78/78
f 61/81/81 73/82/82 80/80/80
f 63/83/83 74/76/76 75/84/84 64/85/85
f 74/76/76 77/78/78 78/86/86 75/84/84
f 77/78/78 80/80/80 81/87/87 78/86/86
f 80/80/80 73/82/82 72/88/88 81/87/87
f 64/85/85 75/84/84 76/89/89 65/90/90
f 75/84/84 78/86/86 79/91/91 76/89/89
f 78/86/86 81/87/87 82/92/92 79/91/91
f 81/87/87 72/88/88 71/93/93 82/92/92
f 76/89/89 67/94/94 66/95/95
f 76/89/89 79/91/91 68/96/96 67/94/94
f 79/91/91 82/92/92 69/97/97 68/96/96
f 82/92/92 71/93/93 70/98/98
f 58/79/79 61/81/81 80/80/80
f 63/83/83 62/74/74 74/76/76
f 69/97/97 82/92/92 70/98/98
f 65/90/90 76/89/89 66/95/95
f 98/99/99 113/100/100 110/101/101 107/102/102
f 123/103/103 116/104/104 115/105/105 122/106/106
f 109/107/107 112/108/108 114/109/109 90/110/110
f 106/111/111 90/110/110 114/109/109 115/112/112
f 104/113/113 118/114/114 119/115/115 105/116/116
f 102/117/117 96/118/118 120/119/119 121/120/120
f 103/121/121 92/122/122 116/123/123 117/124/124
f 107/102/102 110/101/101 111/125/125 108/126/126
f 125/127/127 118/128/128 117/129/129 123/103/103
f 105/116/116 119/115/115 120/119/130 96/118/131
f 102/117/117 121/120/120 113/100/100 98/99/99
f 86/130/132 95/131/133 99/132/134 91/133/135
f 101/134/136 93/135/137 85/136/138 97/137/139
f 84/138/140 91/133/135 99/132/134 87/139/141
f 85/136/138 96/118/118 102/117/117 97/137/139
f 100/140/142 94/141/143 93/135/137 101/134/136
f 106/111/111 92/122/144 86/130/132 91/133/135
f 89/142/145 101/134/136 97/137/139 83/143/146
f 88/144/147 100/140/142 101/134/136 89/142/145
f 87/139/141 99/132/134 100/140/142 88/144/147
f 103/121/121 117/124/124 118/114/114 104/113/113
f 97/137/139 102/117/117 98/99/99 83/143/146
f 106/111/111 115/112/112 116/123/148 92/122/144
f 86/130/149 92/122/122 103/121/121 95/131/150
f 93/135/151 105/116/116 96/118/131 85/136/152
f 94/141/153 104/113/113 105/116/116 93/135/151
f 95/131/150 103/121/121 104/113/113 94/141/153
f 84/138/140 90/110/110 106/111/111 91/133/135
f 108/126/126 111/125/125 112/108/108 109/107/107
f 83/143/146 98/99/99 107/102/102 89/142/145
f 87/139/141 109/107/107 90/110/110 84/138/140
f 88/144/147 108/126/126 109/107/107 87/139/141
f 89/142/145 107/102/102 108/126/126 88/144/147
f 114/145/154 112/146/155 122/106/106
f 112/146/155 111/147/156 124/148/157 122/106/106
f 111/147/156 110/149/158 126/150/159 124/148/157
f 113/151/160 121/152/161 126/150/159
f 127/153/162 119/154/163 118/128/128 125/127/127
f 121/152/161 120/155/164 127/153/162 126/150/159
f 126/150/159 127/153/162 125/127/127 124/148/157
f 123/103/103 117/129/129 116/104/104
f 124/148/157 125/127/127 123/103/103 122/106/106
f 110/149/158 113/151/160 126/150/159
f 115/105/105 114/145/154 122/106/106
f 119/154/163 127/153/162 120/155/164
f 99/132/134 95/131/133 94/141/143 100/140/142
f 132/156/165 145/157/166 147/158/167 129/159/168
f 156/160/169 149/161/170 148/162/171 155/163/172
f 135/164/173 148/165/174 149/166/175 131/167/175
f 131/167/176 149/166/176 150/168/177 138/169/178
f 139/170/179 154/171/180 146/172/181 128/173/182
f 136/174/183 152/175/184 153/176/185 130/177/185
f 133/178/186 144/179/187 145/157/166 132/156/165
f 158/180/188 151/181/189 150/182/190 156/160/169
f 129/159/168 147/158/167 148/165/174 135/164/173
f 138/169/178 150/168/177 151/183/191 137/184/192
f 131/167/193 138/169/194 140/185/195 135/164/196
f 142/186/197 136/174/198 130/177/199 139/170/200
f 129/159/201 135/164/196 140/185/195 132/156/202
f 141/187/203 137/184/204 136/174/198 142/186/197
f 134/188/205 143/189/206 144/179/187 133/178/186
f 134/188/207 142/186/197 139/170/200 128/173/208
f 133/178/209 141/187/203 142/186/197 134/188/207
f 132/156/202 140/185/195 141/187/203 133/178/209
f 137/184/192 151/183/191 152/175/184 136/174/183
f 128/173/182 146/172/181 143/189/206 134/188/205
f 147/190/210 145/191/211 155/163/172
f 145/191/211 144/192/212 157/193/213 155/163/172
f 144/192/212 143/194/214 159/195/215 157/193/213
f 146/196/216 154/197/217 159/195/215
f 160/198/218 152/199/219 151/181/189 158/180/188
f 154/197/217 153/200/220 160/198/218 159/195/215
f 159/195/215 160/198/218 158/180/188 157/193/213
f 156/160/169 150/182/190 149/161/170
f 157/193/213 158/180/188 156/160/169 155/163/172
f 143/194/214 146/196/216 159/195/215
f 148/162/171 147/190/210 155/163/172
f 152/199/219 160/198/218 153/200/220
f 140/185/195 138/169/194 137/184/204 141/187/203
f 130/177/221 153/176/221 154/171/180 139/170/179
