# Blender v3.4.1 OBJ File: 'restaurant_bits_export.blend'
# www.blender.org
mtllib food_ingredient_onion.mtl
o food_ingredient_onion_Sphere.022
v 0.000000 0.591536 -0.256868
v 0.000000 0.480757 -0.346455
v 0.000000 0.235939 -0.346455
v 0.000000 0.052655 -0.143506
v 0.045790 0.665436 -0.110545
v 0.098299 0.591536 -0.237315
v 0.132583 0.480757 -0.320083
v 0.143506 0.360277 -0.346455
v 0.132583 0.235939 -0.320083
v 0.101474 0.127104 -0.244981
v 0.054918 0.052655 -0.132583
v 0.084608 0.665436 -0.084607
v 0.181633 0.591536 -0.181633
v 0.244981 0.480757 -0.244981
v 0.265165 0.360277 -0.265165
v 0.244981 0.235939 -0.244981
v 0.187500 0.127105 -0.187500
v 0.101474 0.052655 -0.101474
v 0.110546 0.665435 -0.045789
v 0.237315 0.591536 -0.098299
v 0.320083 0.480757 -0.132582
v 0.346455 0.360278 -0.143506
v 0.320083 0.235940 -0.132582
v 0.244981 0.127105 -0.101474
v 0.132583 0.052655 -0.054917
v 0.119654 0.665435 0.000000
v 0.256868 0.591536 0.000000
v 0.346455 0.480757 0.000000
v 0.375000 0.360277 0.000000
v 0.346455 0.235940 0.000000
v 0.265165 0.127105 0.000000
v 0.143506 0.052655 0.000000
v 0.110545 0.665435 0.045789
v 0.237315 0.591536 0.098299
v 0.320083 0.480757 0.132583
v 0.346455 0.360278 0.143506
v 0.320083 0.235940 0.132583
v 0.244981 0.127105 0.101474
v 0.132583 0.052655 0.054918
v 0.084608 0.665436 0.084607
v 0.181633 0.591536 0.181633
v 0.244981 0.480757 0.244981
v 0.265165 0.360277 0.265165
v 0.244981 0.235939 0.244981
v 0.187500 0.127105 0.187500
v 0.101474 0.052655 0.101474
v 0.045790 0.665436 0.110545
v 0.098299 0.591536 0.237315
v 0.132582 0.480757 0.320083
v 0.143506 0.360277 0.346455
v 0.132582 0.235939 0.320083
v 0.101474 0.127104 0.244981
v 0.054917 0.052655 0.132583
v 0.027308 0.706752 -0.065919
v 0.000001 0.665436 0.119653
v 0.000000 0.591536 0.256868
v -0.000000 0.480757 0.346455
v -0.000000 0.360277 0.375000
v -0.000000 0.235939 0.346455
v -0.000000 0.127105 0.265165
v -0.000000 0.052655 0.143506
v -0.045789 0.665437 0.110545
v -0.098299 0.591536 0.237315
v -0.132583 0.480757 0.320083
v -0.143506 0.360277 0.346455
v -0.132583 0.235939 0.320083
v -0.101474 0.127104 0.244981
v -0.054918 0.052655 0.132583
v -0.084607 0.665437 0.084607
v -0.181633 0.591536 0.181633
v -0.244981 0.480757 0.244980
v -0.265165 0.360277 0.265165
v -0.244981 0.235939 0.244980
v -0.187500 0.127105 0.187500
v -0.101474 0.052655 0.101474
v 0.000000 -0.011334 0.000000
v -0.110544 0.665436 0.045789
v -0.237315 0.591536 0.098299
v -0.320083 0.480757 0.132582
v -0.346455 0.360278 0.143506
v -0.320083 0.235940 0.132582
v -0.244981 0.127105 0.101474
v -0.132583 0.052655 0.054917
v -0.119652 0.665436 -0.000000
v -0.256868 0.591536 -0.000000
v -0.346455 0.480757 -0.000000
v -0.375000 0.360277 -0.000000
v -0.346455 0.235940 -0.000000
v -0.265165 0.127105 -0.000000
v -0.143506 0.052655 -0.000000
v -0.110544 0.665436 -0.045789
v -0.237315 0.591536 -0.098299
v -0.320082 0.480757 -0.132583
v -0.346455 0.360278 -0.143506
v -0.320082 0.235940 -0.132583
v -0.244980 0.127105 -0.101474
v -0.132583 0.052655 -0.054918
v -0.084607 0.665437 -0.084607
v -0.181633 0.591536 -0.181633
v -0.244980 0.480757 -0.244981
v -0.265165 0.360277 -0.265165
v -0.244980 0.235939 -0.244981
v -0.187500 0.127105 -0.187500
v -0.101474 0.052655 -0.101474
v -0.045788 0.665437 -0.110545
v -0.098299 0.591536 -0.237315
v -0.132582 0.480757 -0.320082
v -0.143506 0.360277 -0.346455
v -0.132582 0.235939 -0.320082
v -0.101474 0.127104 -0.244981
v -0.054917 0.052655 -0.132583
v 0.000001 0.665436 -0.119653
v 0.000000 0.360277 -0.375000
v 0.000000 0.127105 -0.265165
v 0.050456 0.706752 -0.050452
v 0.065923 0.706752 -0.027305
v 0.071354 0.706752 0.000000
v 0.065923 0.706752 0.027305
v 0.050456 0.706752 0.050452
v 0.027308 0.706752 0.065919
v 0.000004 0.706752 0.071351
v -0.027301 0.706752 0.065919
v -0.050449 0.706752 0.050452
v -0.065916 0.706752 0.027305
v -0.071347 0.706752 -0.000000
v -0.065916 0.706752 -0.027305
v -0.050449 0.706752 -0.050452
v -0.027301 0.706752 -0.065919
v 0.000004 0.706752 -0.071351
v 0.020741 0.768434 -0.050064
v 0.038321 0.768434 -0.038317
v 0.050068 0.768434 -0.020737
v 0.054193 0.768434 0.000000
v 0.050068 0.768434 0.020737
v 0.038321 0.768434 0.038317
v 0.020741 0.768434 0.050064
v 0.000004 0.768434 0.054188
v -0.020733 0.768434 0.050064
v -0.038313 0.768434 0.038317
v -0.050059 0.768434 0.020737
v -0.054184 0.768434 -0.000000
v -0.050059 0.768434 -0.020737
v -0.038313 0.768434 -0.038317
v -0.020733 0.768434 -0.050064
v 0.000004 0.768434 -0.054188
v 0.000004 0.851064 0.000000
v 0.017162 0.836212 -0.025678
v -0.006021 0.836212 -0.030289
v -0.025674 0.836212 -0.017158
v -0.030285 0.836212 0.006025
v -0.017153 0.836212 0.025678
v 0.006029 0.836212 0.030289
v 0.025682 0.836212 0.017158
v 0.030294 0.836212 -0.006025
vt 0.694608 0.681389
vt 0.692031 0.650139
vt 0.688637 0.634089
vt 0.690174 0.643149
vt 0.683623 0.520392
vt 0.683623 0.526750
vt 0.689080 0.558000
vt 0.683623 0.550981
vt 0.683623 0.576212
vt 0.696797 0.607462
vt 0.693706 0.569355
vt 0.683623 0.588567
vt 0.683623 0.600538
vt 0.696797 0.631788
vt 0.697883 0.619817
vt 0.683623 0.642796
vt 0.683623 0.650139
vt 0.688173 0.681389
vt 0.693391 0.674046
vt 0.683623 0.545815
vt 0.693706 0.564190
vt 0.707966 0.631788
vt 0.709972 0.619817
vt 0.692031 0.681389
vt 0.701671 0.674046
vt 0.702254 0.564190
vt 0.693706 0.558000
vt 0.707966 0.607462
vt 0.686337 0.643149
vt 0.688637 0.643149
vt 0.702254 0.569355
vt 0.693706 0.526750
vt 0.702254 0.545815
vt 0.707966 0.564190
vt 0.696797 0.558000
vt 0.707966 0.576212
vt 0.709972 0.588567
vt 0.718049 0.619817
vt 0.715428 0.607462
vt 0.707966 0.600538
vt 0.701671 0.642796
vt 0.707204 0.674046
vt 0.715428 0.631788
vt 0.679074 0.681389
vt 0.675217 0.650139
vt 0.678611 0.634089
vt 0.680911 0.643149
vt 0.702254 0.550981
vt 0.707966 0.569355
vt 0.709147 0.674046
vt 0.718049 0.631788
vt 0.683623 0.681389
vt 0.683624 0.643149
vt 0.697883 0.558000
vt 0.718049 0.607462
vt 0.709972 0.569355
vt 0.720885 0.619817
vt 0.695513 0.681389
vt 0.709972 0.564190
vt 0.697883 0.526750
vt 0.696797 0.558000
vt 0.709972 0.550981
vt 0.718049 0.576212
vt 0.715428 0.607462
vt 0.707966 0.569355
vt 0.720885 0.588567
vt 0.718049 0.600538
vt 0.715428 0.631788
vt 0.718049 0.619817
vt 0.709147 0.642796
vt 0.695513 0.650139
vt 0.694608 0.681389
vt 0.707204 0.674046
vt 0.709972 0.545815
vt 0.707966 0.564190
vt 0.692031 0.681389
vt 0.690174 0.643149
vt 0.688637 0.643149
vt 0.701671 0.674046
vt 0.702254 0.564190
vt 0.693706 0.558000
vt 0.709972 0.619817
vt 0.707966 0.607462
vt 0.707966 0.631788
vt 0.675217 0.681389
vt 0.672639 0.681389
vt 0.677074 0.643149
vt 0.678611 0.643149
vt 0.702254 0.569355
vt 0.693706 0.526750
vt 0.702254 0.545815
vt 0.693706 0.564190
vt 0.689080 0.558000
vt 0.707966 0.576212
vt 0.709972 0.588567
vt 0.697883 0.619817
vt 0.696797 0.607462
vt 0.707966 0.600538
vt 0.701671 0.642796
vt 0.693391 0.674046
vt 0.696797 0.631788
vt 0.675217 0.681389
vt 0.679074 0.681389
vt 0.680911 0.643149
vt 0.678611 0.643149
vt 0.702254 0.550981
vt 0.693706 0.569355
vt 0.692031 0.650139
vt 0.688173 0.681389
vt 0.672639 0.681389
vt 0.675217 0.650139
vt 0.678611 0.634089
vt 0.677074 0.643149
vt 0.683623 0.558000
vt 0.683623 0.607462
vt 0.683623 0.569355
vt 0.683623 0.631788
vt 0.683623 0.619817
vt 0.683623 0.681389
vt 0.683623 0.674046
vt 0.683623 0.564190
vt 0.683623 0.550981
vt 0.683623 0.576212
vt 0.670450 0.607462
vt 0.673540 0.569355
vt 0.683623 0.588567
vt 0.683623 0.600538
vt 0.670450 0.631788
vt 0.669364 0.619817
vt 0.683623 0.642796
vt 0.683623 0.650139
vt 0.673856 0.674046
vt 0.683623 0.526750
vt 0.683623 0.545815
vt 0.673540 0.564190
vt 0.678166 0.558000
vt 0.671734 0.681389
vt 0.676534 0.643149
vt 0.664993 0.564190
vt 0.673540 0.558000
vt 0.657275 0.619817
vt 0.659281 0.607462
vt 0.665576 0.674046
vt 0.659281 0.631788
vt 0.683624 0.634089
vt 0.664993 0.569355
vt 0.659281 0.576212
vt 0.657275 0.588567
vt 0.649198 0.619817
vt 0.651819 0.607462
vt 0.659281 0.600538
vt 0.665576 0.642796
vt 0.660043 0.674046
vt 0.651819 0.631788
vt 0.690713 0.634089
vt 0.673540 0.526750
vt 0.670450 0.558000
vt 0.664993 0.550981
vt 0.659281 0.569355
vt 0.664993 0.545815
vt 0.659281 0.564190
vt 0.669364 0.558000
vt 0.649198 0.607462
vt 0.657275 0.569355
vt 0.649198 0.631788
vt 0.646362 0.619817
vt 0.658100 0.674046
vt 0.657275 0.564190
vt 0.671734 0.650139
vt 0.676534 0.634089
vt 0.646362 0.588567
vt 0.649198 0.600538
vt 0.651819 0.631788
vt 0.649198 0.619817
vt 0.658100 0.642796
vt 0.660043 0.674046
vt 0.669364 0.526750
vt 0.657275 0.545815
vt 0.659281 0.564190
vt 0.670450 0.558000
vt 0.649198 0.576212
vt 0.651819 0.607462
vt 0.690713 0.643149
vt 0.657275 0.550981
vt 0.659281 0.569355
vt 0.664993 0.564190
vt 0.673540 0.558000
vt 0.657275 0.619817
vt 0.659281 0.607462
vt 0.665576 0.674046
vt 0.659281 0.631788
vt 0.686337 0.643149
vt 0.683624 0.643149
vt 0.664993 0.569355
vt 0.659281 0.600538
vt 0.665576 0.642796
vt 0.673856 0.674046
vt 0.670450 0.631788
vt 0.683624 0.634089
vt 0.673540 0.526750
vt 0.678166 0.558000
vt 0.664993 0.550981
vt 0.659281 0.576212
vt 0.670450 0.607462
vt 0.673540 0.569355
vt 0.657275 0.588567
vt 0.669364 0.619817
vt 0.664993 0.545815
vt 0.673540 0.564190
vt 0.683623 0.558000
vt 0.683623 0.607462
vt 0.683623 0.569355
vt 0.683623 0.631788
vt 0.683623 0.619817
vt 0.683623 0.674046
vt 0.683623 0.564190
vt 0.688637 0.634089
vt 0.686337 0.638619
vt 0.683624 0.638619
vt 0.683624 0.644748
vt 0.685684 0.644748
vt 0.690713 0.638619
vt 0.690174 0.638619
vt 0.688598 0.644748
vt 0.689008 0.644748
vt 0.683624 0.638619
vt 0.686337 0.638619
vt 0.685684 0.644748
vt 0.683624 0.644748
vt 0.677074 0.638619
vt 0.678611 0.638619
vt 0.679817 0.644748
vt 0.678650 0.644748
vt 0.688637 0.638619
vt 0.687431 0.644748
vt 0.678611 0.638619
vt 0.677074 0.638619
vt 0.678650 0.644748
vt 0.679817 0.644748
vt 0.688637 0.638619
vt 0.687431 0.644748
vt 0.680911 0.638619
vt 0.681563 0.644748
vt 0.690174 0.638619
vt 0.688598 0.644748
vt 0.676534 0.638619
vt 0.678240 0.644748
vt 0.680911 0.638619
vt 0.681563 0.644748
vt 0.681072 0.651483
vt 0.686175 0.651483
vt 0.680614 0.651483
vt 0.686634 0.651483
vt 0.681919 0.651483
vt 0.685329 0.651483
vt 0.683025 0.651483
vt 0.684223 0.651483
vt 0.683624 0.682733
vt 0.685329 0.682733
vt 0.683025 0.682733
vt 0.681072 0.682733
vt 0.680614 0.682733
vt 0.681919 0.682733
vt 0.684223 0.682733
vt 0.686175 0.682733
vt 0.686634 0.682733
vn 0.5138 0.8311 -0.2128
vn 0.3933 0.8311 -0.3932
vn 0.5885 0.5544 -0.5885
vn 0.7689 0.5544 -0.3185
vn -0.0000 -1.0000 -0.0000
vn -0.0000 -0.8817 -0.4719
vn 0.1806 -0.8817 -0.4360
vn -0.0000 -0.7274 -0.6862
vn -0.0000 -0.4107 -0.9118
vn 0.3489 -0.4107 -0.8424
vn 0.2626 -0.7274 -0.6339
vn 0.0000 0.0034 -1.0000
vn -0.0000 0.4301 -0.9028
vn 0.3455 0.4301 -0.8341
vn 0.3827 0.0034 -0.9239
vn 0.0000 0.7578 -0.6525
vn 0.0000 0.8311 -0.5561
vn 0.2128 0.8311 -0.5138
vn 0.2497 0.7578 -0.6028
vn 0.6384 0.4301 -0.6384
vn 0.7071 0.0034 -0.7071
vn 0.4614 0.7578 -0.4614
vn 0.4852 -0.7274 -0.4852
vn 0.3337 -0.8817 -0.3337
vn 0.6447 -0.4107 -0.6447
vn 0.3185 0.5544 -0.7689
vn 0.6339 -0.7274 -0.2626
vn 0.4360 -0.8817 -0.1806
vn 0.9239 0.0034 -0.3827
vn 0.8424 -0.4106 -0.3489
vn 0.6028 0.7578 -0.2497
vn 0.8341 0.4301 -0.3455
vn -0.2128 0.8311 -0.5138
vn -0.3932 0.8311 -0.3932
vn -0.5885 0.5545 -0.5885
vn -0.3185 0.5545 -0.7689
vn 0.6525 0.7578 -0.0000
vn 0.9028 0.4301 0.0000
vn 0.0000 0.5544 -0.8322
vn 0.4719 -0.8817 0.0000
vn 0.9118 -0.4106 0.0000
vn 0.6862 -0.7274 0.0000
vn 1.0000 0.0034 0.0000
vn 0.5561 0.8311 -0.0000
vn 0.4360 -0.8817 0.1806
vn 0.8424 -0.4106 0.3489
vn 0.6339 -0.7274 0.2626
vn 0.8341 0.4301 0.3455
vn 0.9239 0.0034 0.3827
vn 0.5138 0.8311 0.2128
vn 0.6028 0.7578 0.2497
vn 0.3933 0.8311 0.3932
vn 0.7689 0.5544 0.3185
vn 0.5885 0.5544 0.5885
vn 0.4614 0.7578 0.4614
vn 0.4852 -0.7274 0.4852
vn 0.3337 -0.8817 0.3337
vn 0.7071 0.0034 0.7071
vn 0.6447 -0.4107 0.6447
vn 0.6384 0.4301 0.6384
vn -0.5138 0.8311 -0.2128
vn -0.7689 0.5545 -0.3185
vn 0.2626 -0.7274 0.6339
vn 0.1806 -0.8817 0.4360
vn 0.3827 0.0034 0.9239
vn 0.3489 -0.4107 0.8424
vn 0.2497 0.7578 0.6028
vn 0.3455 0.4301 0.8341
vn -0.3932 0.8311 0.3932
vn -0.2128 0.8311 0.5138
vn -0.3185 0.5545 0.7689
vn -0.5885 0.5545 0.5885
vn 0.2128 0.8311 0.5138
vn -0.5138 0.8311 0.2128
vn -0.7689 0.5545 0.3185
vn -0.0000 -0.8817 0.4719
vn -0.0000 -0.4107 0.9118
vn -0.0000 -0.7274 0.6862
vn -0.0000 0.4301 0.9028
vn -0.0000 0.0034 1.0000
vn 0.0000 0.8311 0.5561
vn 0.0000 0.7578 0.6525
vn -0.3489 -0.4107 0.8424
vn -0.2626 -0.7274 0.6339
vn -0.3455 0.4301 0.8341
vn -0.3827 0.0034 0.9239
vn -0.2497 0.7578 0.6028
vn -0.1806 -0.8817 0.4360
vn -0.5561 0.8311 -0.0000
vn -0.8322 0.5545 -0.0000
vn -0.4852 -0.7274 0.4852
vn -0.3337 -0.8817 0.3337
vn -0.7071 0.0034 0.7071
vn -0.6447 -0.4107 0.6447
vn -0.4614 0.7578 0.4614
vn -0.6384 0.4301 0.6384
vn 0.0000 0.5544 0.8322
vn -0.9239 0.0034 0.3827
vn -0.8424 -0.4106 0.3489
vn -0.6028 0.7578 0.2497
vn -0.8341 0.4301 0.3455
vn 0.8322 0.5544 0.0000
vn -0.4360 -0.8817 0.1806
vn -0.6339 -0.7274 0.2626
vn -0.4719 -0.8817 -0.0000
vn -0.9118 -0.4107 -0.0000
vn -0.6862 -0.7274 -0.0000
vn -0.9028 0.4301 -0.0000
vn -1.0000 0.0034 -0.0000
vn -0.6525 0.7578 -0.0000
vn -0.8341 0.4301 -0.3455
vn -0.9239 0.0034 -0.3827
vn -0.6028 0.7578 -0.2497
vn -0.6339 -0.7274 -0.2626
vn -0.4360 -0.8817 -0.1806
vn -0.8424 -0.4107 -0.3489
vn -0.4852 -0.7274 -0.4852
vn -0.3337 -0.8817 -0.3337
vn -0.7071 0.0034 -0.7071
vn -0.6447 -0.4107 -0.6447
vn -0.4614 0.7578 -0.4614
vn -0.6384 0.4301 -0.6384
vn 0.3185 0.5544 0.7689
vn -0.2497 0.7578 -0.6028
vn -0.3455 0.4301 -0.8341
vn -0.1806 -0.8817 -0.4360
vn -0.3489 -0.4107 -0.8424
vn -0.2626 -0.7274 -0.6339
vn -0.3827 0.0034 -0.9239
vn 0.0044 0.2996 -0.9540
vn 0.3610 0.2996 -0.8831
vn 0.8797 0.2996 -0.3692
vn 0.9540 0.2996 0.0044
vn 0.3692 0.2996 0.8797
vn -0.0044 0.2996 0.9540
vn -0.6778 0.2996 0.6715
vn -0.8797 0.2996 0.3692
vn 0.6778 0.2996 -0.6715
vn -0.8831 0.2996 -0.3610
vn -0.6715 0.2996 -0.6778
vn 0.6715 0.2996 0.6778
vn -0.3610 0.2996 0.8831
vn 0.8831 0.2996 0.3610
vn -0.9540 0.2996 -0.0044
vn -0.3692 0.2996 -0.8797
vn -0.6414 0.6364 -0.4285
vn 0.6414 0.6364 0.4285
vn -0.7565 0.6364 0.1505
vn 0.7565 0.6364 -0.1505
vn -0.4285 0.6364 0.6414
vn 0.4285 0.6364 -0.6414
vn -0.1505 0.6364 -0.7565
vn 0.1505 0.6364 0.7565
vn 0.0000 1.0000 -0.0000
usemtl restaurant
s 1
f 19/1/1 12/2/2 115/3/3 116/4/4
f 76/5/5 4/6/6 11/7/7
f 114/8/8 3/9/9 9/10/10 10/11/11
f 113/12/12 2/13/13 7/14/14 8/15/15
f 1/16/16 112/17/17 5/18/18 6/19/19
f 4/6/6 114/20/8 10/21/11 11/7/7
f 3/9/9 113/12/12 8/15/15 9/10/10
f 2/13/13 1/16/16 6/19/19 7/14/14
f 8/15/15 7/14/14 14/22/20 15/23/21
f 6/19/19 5/18/18 12/24/2 13/25/22
f 11/7/7 10/21/11 17/26/23 18/27/24
f 9/10/10 8/15/15 15/23/21 16/28/25
f 7/14/14 6/19/19 13/25/22 14/22/20
f 12/24/2 5/18/18 54/29/26 115/30/3
f 76/5/5 11/7/7 18/27/24
f 10/11/11 9/10/10 16/28/25 17/31/23
f 18/32/24 17/33/23 24/34/27 25/35/28
f 16/36/25 15/37/21 22/38/29 23/39/30
f 14/40/20 13/41/22 20/42/31 21/43/32
f 105/44/33 98/45/34 127/46/35 128/47/36
f 76/5/5 18/32/24 25/35/28
f 17/48/23 16/36/25 23/39/30 24/49/27
f 15/37/21 14/40/20 21/43/32 22/38/29
f 13/41/22 12/2/2 19/1/1 20/42/31
f 21/43/32 20/42/31 27/50/37 28/51/38
f 112/52/17 105/44/33 128/47/36 129/53/39
f 76/5/5 25/35/28 32/54/40
f 24/49/27 23/39/30 30/55/41 31/56/42
f 22/38/29 21/43/32 28/51/38 29/57/43
f 20/42/31 19/1/1 26/58/44 27/50/37
f 25/35/28 24/34/27 31/59/42 32/54/40
f 23/39/30 22/38/29 29/57/43 30/55/41
f 76/5/5 32/60/40 39/61/45
f 31/62/42 30/63/41 37/64/46 38/65/47
f 29/66/43 28/67/38 35/68/48 36/69/49
f 27/70/37 26/71/44 33/72/50 34/73/51
f 32/60/40 31/74/42 38/75/47 39/61/45
f 30/63/41 29/66/43 36/69/49 37/64/46
f 28/67/38 27/70/37 34/73/51 35/68/48
f 40/76/52 33/72/50 118/77/53 119/78/54
f 34/73/51 33/72/50 40/76/52 41/79/55
f 39/61/45 38/75/47 45/80/56 46/81/57
f 37/64/46 36/69/49 43/82/58 44/83/59
f 35/68/48 34/73/51 41/79/55 42/84/60
f 98/85/34 91/86/61 126/87/62 127/88/35
f 76/5/5 39/61/45 46/81/57
f 38/65/47 37/64/46 44/83/59 45/89/56
f 36/69/49 35/68/48 42/84/60 43/82/58
f 46/90/57 45/91/56 52/92/63 53/93/64
f 44/94/59 43/95/58 50/96/65 51/97/66
f 42/98/60 41/99/55 48/100/67 49/101/68
f 69/102/69 62/103/70 122/104/71 123/105/72
f 76/5/5 46/90/57 53/93/64
f 45/106/56 44/94/59 51/97/66 52/107/63
f 43/95/58 42/98/60 49/101/68 50/96/65
f 41/99/55 40/108/52 47/109/73 48/100/67
f 77/110/74 69/111/69 123/112/72 124/113/75
f 76/5/5 53/93/64 61/114/76
f 52/107/63 51/97/66 59/115/77 60/116/78
f 50/96/65 49/101/68 57/117/79 58/118/80
f 48/100/67 47/109/73 55/119/81 56/120/82
f 53/93/64 52/92/63 60/121/78 61/114/76
f 51/97/66 50/96/65 58/118/80 59/115/77
f 49/101/68 48/100/67 56/120/82 57/117/79
f 60/122/78 59/123/77 66/124/83 67/125/84
f 58/126/80 57/127/79 64/128/85 65/129/86
f 56/130/82 55/131/81 62/103/70 63/132/87
f 61/133/76 60/134/78 67/135/84 68/136/88
f 59/123/77 58/126/80 65/129/86 66/124/83
f 57/127/79 56/130/82 63/132/87 64/128/85
f 84/137/89 77/110/74 124/113/75 125/138/90
f 76/5/5 61/133/76 68/136/88
f 68/136/88 67/135/84 74/139/91 75/140/92
f 66/124/83 65/129/86 72/141/93 73/142/94
f 64/128/85 63/132/87 70/143/95 71/144/96
f 62/103/70 55/131/81 121/145/97 122/104/71
f 76/5/5 68/136/88 75/140/92
f 67/125/84 66/124/83 73/142/94 74/146/91
f 65/129/86 64/128/85 71/144/96 72/141/93
f 63/132/87 62/103/70 69/102/69 70/143/95
f 73/147/94 72/148/93 80/149/98 81/150/99
f 71/151/96 70/152/95 78/153/100 79/154/101
f 33/72/50 26/71/44 117/155/102 118/77/53
f 76/5/5 75/156/92 83/157/103
f 74/158/91 73/147/94 81/150/99 82/159/104
f 72/148/93 71/151/96 79/154/101 80/149/98
f 70/152/95 69/111/69 77/110/74 78/153/100
f 75/156/92 74/160/91 82/161/104 83/157/103
f 76/5/5 83/157/103 90/162/105
f 82/159/104 81/150/99 88/163/106 89/164/107
f 80/149/98 79/154/101 86/165/108 87/166/109
f 78/153/100 77/110/74 84/137/89 85/167/110
f 83/157/103 82/161/104 89/168/107 90/162/105
f 81/150/99 80/149/98 87/166/109 88/163/106
f 79/154/101 78/153/100 85/167/110 86/165/108
f 91/86/61 84/169/89 125/170/90 126/87/62
f 87/171/109 86/172/108 93/173/111 94/174/112
f 85/175/110 84/169/89 91/86/61 92/176/113
f 90/177/105 89/178/107 96/179/114 97/180/115
f 88/181/106 87/171/109 94/174/112 95/182/116
f 86/172/108 85/175/110 92/176/113 93/173/111
f 26/58/44 19/1/1 116/4/4 117/183/102
f 76/5/5 90/177/105 97/180/115
f 89/184/107 88/181/106 95/182/116 96/185/114
f 97/180/115 96/179/114 103/186/117 104/187/118
f 95/182/116 94/174/112 101/188/119 102/189/120
f 93/173/111 92/176/113 99/190/121 100/191/122
f 55/119/81 47/109/73 120/192/123 121/193/97
f 76/5/5 97/180/115 104/187/118
f 96/185/114 95/182/116 102/189/120 103/194/117
f 94/174/112 93/173/111 100/191/122 101/188/119
f 92/176/113 91/86/61 98/85/34 99/190/121
f 100/195/122 99/196/121 106/197/124 107/198/125
f 5/18/18 112/17/17 129/199/39 54/29/26
f 76/5/5 104/200/118 111/201/126
f 103/202/117 102/203/120 109/204/127 110/205/128
f 101/206/119 100/195/122 107/198/125 108/207/129
f 99/196/121 98/45/34 105/44/33 106/197/124
f 104/200/118 103/208/117 110/209/128 111/201/126
f 102/203/120 101/206/119 108/207/129 109/204/127
f 76/5/5 111/201/126 4/210/6
f 110/205/128 109/204/127 3/211/9 114/212/8
f 108/207/129 107/198/125 2/213/13 113/214/12
f 106/197/124 105/44/33 112/52/17 1/215/16
f 111/201/126 110/209/128 114/216/8 4/210/6
f 109/204/127 108/207/129 113/214/12 3/211/9
f 107/198/125 106/197/124 1/215/16 2/213/13
f 47/109/73 40/108/52 119/217/54 120/192/123
f 54/218/26 129/219/39 145/220/130 130/221/131
f 117/222/102 116/223/4 132/224/132 133/225/133
f 121/226/97 120/227/123 136/228/134 137/229/135
f 124/230/75 123/231/72 139/232/136 140/233/137
f 116/223/4 115/234/3 131/235/138 132/224/132
f 127/236/35 126/237/62 142/238/139 143/239/140
f 120/227/123 119/240/54 135/241/141 136/228/134
f 123/231/72 122/242/71 138/243/142 139/232/136
f 119/240/54 118/244/53 134/245/143 135/241/141
f 115/234/3 54/218/26 130/221/131 131/235/138
f 126/237/62 125/246/90 141/247/144 142/238/139
f 128/248/36 127/236/35 143/239/140 144/249/145
f 122/242/71 121/226/97 137/229/135 138/243/142
f 129/219/39 128/248/36 144/249/145 145/220/130
f 118/244/53 117/222/102 133/225/133 134/245/143
f 125/246/90 124/230/75 140/233/137 141/247/144
f 143/239/140 142/238/139 149/250/146
f 135/241/141 134/245/143 153/251/147
f 142/238/139 141/247/144 150/252/148 149/250/146
f 134/245/143 133/225/133 154/253/149 153/251/147
f 141/247/144 140/233/137 150/252/148
f 133/225/133 132/224/132 154/253/149
f 140/233/137 139/232/136 151/254/150 150/252/148
f 132/224/132 131/235/138 147/255/151 154/253/149
f 139/232/136 138/243/142 151/254/150
f 130/221/131 145/220/130 148/256/152 147/255/151
f 131/235/138 130/221/131 147/255/151
f 138/243/142 137/229/135 152/257/153 151/254/150
f 145/220/130 144/249/145 148/256/152
f 137/229/135 136/228/134 152/257/153
f 144/249/145 143/239/140 149/250/146 148/256/152
f 136/228/134 135/241/141 153/251/147 152/257/153
f 146/258/154 147/259/151 148/260/152
f 146/258/154 148/260/152 149/261/146
f 146/258/154 149/261/146 150/262/148
f 146/258/154 150/262/148 151/263/150
f 146/258/154 151/263/150 152/264/153
f 146/258/154 152/264/153 153/265/147
f 146/258/154 153/265/147 154/266/149
f 146/258/154 154/266/149 147/259/151
