# Blender v3.4.1 OBJ File: 'restaurant_bits_export.blend'
# www.blender.org
mtllib food_ingredient_bun_bottom.mtl
o food_ingredient_bun_bottom_Cube.013
v -0.201304 -0.000000 -0.104231
v -0.214176 -0.000000 0.000000
v -0.201304 -0.000000 0.104231
v -0.246650 0.073602 -0.246650
v -0.222729 0.022377 -0.222729
v 0.104232 -0.000000 -0.201305
v 0.000001 -0.000000 -0.214177
v -0.104230 -0.000000 -0.201305
v 0.246650 0.073602 -0.246650
v 0.222729 0.022377 -0.222729
v 0.201306 -0.000000 0.104231
v 0.214178 -0.000000 0.000000
v 0.201306 -0.000000 -0.104231
v 0.246650 0.073602 0.246650
v 0.222729 0.022377 0.222729
v -0.104230 -0.000000 0.201305
v 0.000001 -0.000000 0.214177
v 0.104232 -0.000000 0.201305
v -0.222729 0.022377 0.222729
v -0.246650 0.073602 0.246650
v 0.000001 -0.000000 0.000000
v 0.122906 0.022377 0.283390
v 0.135077 0.073602 0.315745
v -0.000000 0.022377 0.303920
v 0.000000 0.073602 0.338880
v -0.122906 0.022377 0.283390
v -0.135077 0.073602 0.315745
v 0.283390 0.022377 -0.122906
v 0.315745 0.073602 -0.135077
v 0.303920 0.022377 0.000000
v 0.338881 0.073602 -0.000000
v 0.283390 0.022377 0.122906
v 0.315745 0.073602 0.135077
v -0.122906 0.022377 -0.283390
v -0.135077 0.073602 -0.315745
v 0.000000 0.022377 -0.303920
v 0.000000 0.073602 -0.338880
v 0.122906 0.022377 -0.283390
v 0.135077 0.073602 -0.315745
v -0.283390 0.022377 0.122906
v -0.315745 0.073602 0.135077
v -0.303920 0.022377 -0.000000
v -0.338880 0.073602 0.000000
v -0.283390 0.022377 -0.122906
v -0.315745 0.073602 -0.135077
v 0.000000 0.200000 -0.000000
v -0.252056 0.170146 0.252056
v -0.252056 0.170146 -0.252056
v 0.252056 0.170146 -0.252056
v 0.252056 0.170146 0.252056
v 0.137857 0.170100 0.323107
v 0.000000 0.170059 0.346878
v -0.137857 0.170100 0.323107
v 0.323107 0.170100 -0.137857
v 0.346878 0.170059 -0.000000
v 0.323107 0.170100 0.137857
v -0.137857 0.170100 -0.323107
v -0.000000 0.170059 -0.346878
v 0.137857 0.170100 -0.323107
v -0.323107 0.170100 0.137857
v -0.346878 0.170059 0.000000
v -0.323107 0.170100 -0.137857
v 0.237947 0.200000 0.237947
v 0.131092 0.200000 0.304270
v -0.000000 0.200000 0.326743
v -0.131092 0.200000 0.304270
v -0.237947 0.200000 0.237947
v 0.237947 0.200000 -0.237947
v 0.304270 0.200000 -0.131092
v 0.326743 0.200000 0.000000
v 0.304270 0.200000 0.131092
v -0.237947 0.200000 -0.237947
v -0.131092 0.200000 -0.304270
v 0.000000 0.200000 -0.326743
v 0.131092 0.200000 -0.304270
v -0.304270 0.200000 0.131092
v -0.326743 0.200000 -0.000000
v -0.304270 0.200000 -0.131092
vt 0.452966 0.562583
vt 0.453249 0.627003
vt 0.439231 0.627000
vt 0.439231 0.562583
vt 0.461879 0.530155
vt 0.459701 0.526634
vt 0.449830 0.526634
vt 0.459701 0.526634
vt 0.461879 0.530155
vt 0.449830 0.526634
vt 0.439231 0.526634
vt 0.418761 0.526634
vt 0.428632 0.526634
vt 0.418761 0.526634
vt 0.416583 0.530155
vt 0.428632 0.526634
vt 0.439231 0.526634
vt 0.416583 0.530155
vt 0.461009 0.526634
vt 0.439231 0.526634
vt 0.417453 0.526634
vt 0.451728 0.545780
vt 0.439231 0.545780
vt 0.471337 0.562583
vt 0.472086 0.627003
vt 0.474503 0.627000
vt 0.473690 0.562583
vt 0.425496 0.562583
vt 0.426733 0.545780
vt 0.451728 0.530155
vt 0.461879 0.545780
vt 0.464311 0.562583
vt 0.472086 0.627003
vt 0.471337 0.562583
vt 0.414150 0.562583
vt 0.416583 0.545780
vt 0.426733 0.530155
vt 0.439231 0.530155
vt 0.468047 0.545780
vt 0.470135 0.545780
vt 0.425496 0.562583
vt 0.425213 0.627003
vt 0.439231 0.627000
vt 0.439231 0.562583
vt 0.468047 0.545780
vt 0.464861 0.627007
vt 0.468047 0.530155
vt 0.461879 0.545780
vt 0.464311 0.562583
vt 0.453249 0.627003
vt 0.452966 0.562583
vt 0.468047 0.530155
vt 0.470135 0.530155
vt 0.426733 0.545780
vt 0.439231 0.545780
vt 0.407125 0.562583
vt 0.406376 0.627003
vt 0.403959 0.627000
vt 0.404772 0.562583
vt 0.451728 0.545780
vt 0.464861 0.627007
vt 0.426733 0.530155
vt 0.416583 0.545780
vt 0.414150 0.562583
vt 0.406376 0.627003
vt 0.407125 0.562583
vt 0.451728 0.530155
vt 0.439231 0.530155
vt 0.410415 0.545780
vt 0.408327 0.545780
vt 0.410415 0.545780
vt 0.425213 0.627003
vt 0.413601 0.627007
vt 0.410415 0.530155
vt 0.413601 0.627007
vt 0.410415 0.530155
vt 0.408327 0.530155
vt 0.463426 0.693706
vt 0.452561 0.693706
vt 0.453249 0.635747
vt 0.464861 0.635750
vt 0.439231 0.693706
vt 0.439231 0.635744
vt 0.425901 0.693706
vt 0.425213 0.635747
vt 0.415035 0.693706
vt 0.413601 0.635750
vt 0.463426 0.693706
vt 0.470170 0.693706
vt 0.472086 0.635747
vt 0.464861 0.635750
vt 0.472455 0.693706
vt 0.474503 0.635744
vt 0.470170 0.693706
vt 0.472086 0.635747
vt 0.415035 0.693706
vt 0.425901 0.693706
vt 0.425213 0.635747
vt 0.413601 0.635750
vt 0.439231 0.693706
vt 0.439231 0.635744
vt 0.452561 0.693706
vt 0.453249 0.635747
vt 0.408291 0.693706
vt 0.406376 0.635747
vt 0.406006 0.693706
vt 0.403959 0.635744
vt 0.408291 0.693706
vt 0.406376 0.635747
vt 0.437335 0.727596
vt 0.450665 0.665806
vt 0.461530 0.665806
vt 0.437335 0.665806
vt 0.424005 0.665806
vt 0.413139 0.665806
vt 0.468274 0.665806
vt 0.461530 0.665806
vt 0.470560 0.665806
vt 0.468274 0.665806
vt 0.424005 0.665806
vt 0.413139 0.665806
vt 0.437335 0.665806
vt 0.450665 0.665806
vt 0.406395 0.665806
vt 0.404110 0.665806
vt 0.406395 0.665806
vn 0.3349 -0.3209 0.8859
vn 0.3441 0.2424 0.9071
vn -0.0000 0.2433 0.9699
vn 0.0000 -0.3239 0.9461
vn 0.4311 -0.7927 -0.4311
vn 0.1335 -0.9892 -0.0600
vn 0.0600 -0.9892 -0.1335
vn 0.1335 -0.9892 0.0600
vn 0.4311 -0.7927 0.4311
vn 0.0600 -0.9892 0.1335
vn 0.0000 -1.0000 -0.0000
vn -0.1335 -0.9892 0.0600
vn -0.0600 -0.9892 0.1335
vn -0.1335 -0.9892 -0.0600
vn -0.4311 -0.7927 -0.4311
vn -0.0600 -0.9892 -0.1335
vn 0.0000 -0.9909 -0.1348
vn -0.4311 -0.7927 0.4311
vn 0.1348 -0.9909 0.0000
vn 0.0000 -0.9909 0.1348
vn -0.1348 -0.9909 0.0000
vn 0.2105 -0.7951 0.5688
vn -0.0000 -0.8004 0.5994
vn 0.8859 -0.3209 -0.3349
vn 0.9071 0.2424 -0.3441
vn 0.9699 0.2433 0.0000
vn 0.9461 -0.3239 0.0000
vn -0.3349 -0.3209 0.8859
vn -0.2105 -0.7951 0.5688
vn 0.6703 -0.3185 0.6703
vn 0.9071 0.2424 0.3441
vn 0.8859 -0.3209 0.3349
vn -0.6703 -0.3185 0.6703
vn 0.5688 -0.7951 -0.2105
vn 0.5994 -0.8004 0.0000
vn -0.3349 -0.3209 -0.8859
vn -0.3441 0.2424 -0.9071
vn -0.0000 0.2433 -0.9699
vn 0.0000 -0.3239 -0.9461
vn 0.5688 -0.7951 0.2105
vn 0.6862 0.2414 0.6862
vn 0.6703 -0.3185 -0.6703
vn 0.3441 0.2424 -0.9071
vn 0.3349 -0.3209 -0.8859
vn -0.2105 -0.7951 -0.5688
vn -0.0000 -0.8004 -0.5994
vn -0.8859 -0.3209 0.3349
vn -0.9071 0.2424 0.3441
vn -0.9699 0.2433 -0.0000
vn -0.9461 -0.3239 -0.0000
vn 0.2105 -0.7951 -0.5688
vn 0.6862 0.2414 -0.6862
vn -0.6703 -0.3185 -0.6703
vn -0.9071 0.2424 -0.3441
vn -0.8859 -0.3209 -0.3349
vn -0.5688 -0.7951 0.2105
vn -0.5994 -0.8004 -0.0000
vn -0.5688 -0.7951 -0.2105
vn -0.3441 0.2424 0.9071
vn -0.6862 0.2414 0.6862
vn -0.6862 0.2414 -0.6862
vn 0.5874 0.5568 0.5874
vn 0.2963 0.5562 0.7765
vn 0.0000 0.5570 0.8305
vn -0.2963 0.5562 0.7765
vn -0.5874 0.5568 0.5874
vn 0.5874 0.5568 -0.5874
vn 0.7765 0.5562 -0.2963
vn 0.8305 0.5570 0.0000
vn 0.7765 0.5562 0.2963
vn -0.5874 0.5568 -0.5874
vn -0.2963 0.5562 -0.7765
vn -0.0000 0.5570 -0.8305
vn 0.2963 0.5562 -0.7765
vn -0.7765 0.5562 0.2963
vn -0.8305 0.5570 -0.0000
vn -0.7765 0.5562 -0.2963
vn -0.0000 1.0000 0.0000
usemtl restaurant
s 1
f 23/1/1 51/2/2 52/3/3 25/4/4
f 10/5/5 13/6/6 6/7/7
f 11/8/8 15/9/9 18/10/10
f 21/11/11 11/8/8 18/10/10
f 3/12/12 21/11/11 16/13/13
f 1/14/14 5/15/15 8/16/16
f 8/16/16 7/17/17 21/11/11
f 7/17/17 6/7/7 21/11/11
f 19/18/18 3/12/12 16/13/13
f 21/11/11 13/6/6 12/19/19
f 21/11/11 12/19/19 11/8/8
f 21/11/11 18/10/10 17/20/20
f 21/11/11 17/20/20 16/13/13
f 2/21/21 21/11/11 3/12/12
f 1/14/14 21/11/11 2/21/21
f 22/22/22 23/1/1 25/4/4 24/23/23
f 29/24/24 54/25/25 55/26/26 31/27/27
f 24/23/23 25/4/4 27/28/28 26/29/29
f 15/9/9 22/30/22 18/10/10
f 15/31/9 14/32/30 23/1/1 22/22/22
f 31/27/27 55/26/26 56/33/31 33/34/32
f 26/29/29 27/28/28 20/35/33 19/36/18
f 16/13/13 26/37/29 19/18/18
f 17/20/20 24/38/23 26/37/29 16/13/13
f 18/10/10 22/30/22 24/38/23 17/20/20
f 28/39/34 29/24/24 31/27/27 30/40/35
f 35/41/36 57/42/37 58/43/38 37/44/39
f 30/40/35 31/27/27 33/34/32 32/45/40
f 33/34/32 56/33/31 50/46/41 14/32/30
f 10/5/5 28/47/34 13/6/6
f 10/48/5 9/49/42 29/24/24 28/39/34
f 50/46/41 51/2/2 23/1/1 14/32/30
f 37/44/39 58/43/38 59/50/43 39/51/44
f 32/45/40 33/34/32 14/32/30 15/31/9
f 11/8/8 32/52/40 15/9/9
f 12/19/19 30/53/35 32/52/40 11/8/8
f 13/6/6 28/47/34 30/53/35 12/19/19
f 34/54/45 35/41/36 37/44/39 36/55/46
f 41/56/47 60/57/48 61/58/49 43/59/50
f 36/55/46 37/44/39 39/51/44 38/60/51
f 39/51/44 59/50/43 49/61/52 9/49/42
f 5/15/15 34/62/45 8/16/16
f 5/63/15 4/64/53 35/41/36 34/54/45
f 49/61/52 54/25/25 29/24/24 9/49/42
f 43/59/50 61/58/49 62/65/54 45/66/55
f 38/60/51 39/51/44 9/49/42 10/48/5
f 6/7/7 38/67/51 10/5/5
f 7/17/17 36/68/46 38/67/51 6/7/7
f 8/16/16 34/62/45 36/68/46 7/17/17
f 40/69/56 41/56/47 43/59/50 42/70/57
f 42/70/57 43/59/50 45/66/55 44/71/58
f 27/28/28 53/72/59 47/73/60 20/35/33
f 19/18/18 40/74/56 3/12/12
f 19/36/18 20/35/33 41/56/47 40/69/56
f 48/75/61 57/42/37 35/41/36 4/64/53
f 45/66/55 62/65/54 48/75/61 4/64/53
f 44/71/58 45/66/55 4/64/53 5/63/15
f 1/14/14 44/76/58 5/15/15
f 2/21/21 42/77/57 44/76/58 1/14/14
f 3/12/12 40/74/56 42/77/57 2/21/21
f 25/4/4 52/3/3 53/72/59 27/28/28
f 63/78/62 64/79/63 51/80/2 50/81/41
f 64/79/63 65/82/64 52/83/3 51/80/2
f 65/82/64 66/84/65 53/85/59 52/83/3
f 66/84/65 67/86/66 47/87/60 53/85/59
f 68/88/67 69/89/68 54/90/25 49/91/52
f 69/89/68 70/92/69 55/93/26 54/90/25
f 70/92/69 71/94/70 56/95/31 55/93/26
f 71/94/70 63/78/62 50/81/41 56/95/31
f 72/96/71 73/97/72 57/98/37 48/99/61
f 73/97/72 74/100/73 58/101/38 57/98/37
f 74/100/73 75/102/74 59/103/43 58/101/38
f 75/102/74 68/88/67 49/91/52 59/103/43
f 67/86/66 76/104/75 60/105/48 47/87/60
f 76/104/75 77/106/76 61/107/49 60/105/48
f 77/106/76 78/108/77 62/109/54 61/107/49
f 78/108/77 72/96/71 48/99/61 62/109/54
f 20/35/33 47/73/60 60/57/48 41/56/47
f 13/6/6 21/11/11 6/7/7
f 21/11/11 1/14/14 8/16/16
f 46/110/78 64/111/78 63/112/78
f 46/110/78 65/113/78 64/111/78
f 46/110/78 66/114/78 65/113/78
f 46/110/78 67/115/78 66/114/78
f 46/110/78 69/116/78 68/117/78
f 46/110/78 70/118/78 69/116/78
f 46/110/78 71/119/78 70/118/78
f 46/110/78 63/112/78 71/119/78
f 46/110/78 73/120/78 72/121/78
f 46/110/78 74/122/78 73/120/78
f 46/110/78 75/123/78 74/122/78
f 46/110/78 68/117/78 75/123/78
f 46/110/78 76/124/78 67/115/78
f 46/110/78 77/125/78 76/124/78
f 46/110/78 78/126/78 77/125/78
f 46/110/78 72/121/78 78/126/78
