# Blender v3.4.1 OBJ File: 'restaurant_bits_export.blend'
# www.blender.org
mtllib food_ingredient_carrot.mtl
o food_ingredient_carrot_Cylinder.896
v -0.000000 -0.585023 -0.000000
v -0.000000 0.351746 0.000000
v 0.016949 -0.541961 -0.063254
v 0.000001 -0.105334 -0.248805
v 0.000000 -0.315826 -0.187921
v 0.124403 -0.105334 -0.215471
v 0.093961 -0.315826 -0.162745
v 0.063254 -0.541960 -0.016949
v 0.215472 -0.105334 -0.124402
v 0.162745 -0.315826 -0.093961
v 0.248805 -0.105334 0.000000
v 0.187921 -0.315826 0.000000
v 0.046305 -0.541961 0.046305
v 0.215472 -0.105334 0.124402
v 0.162745 -0.315826 0.093961
v -0.016949 -0.541961 0.063254
v -0.063254 -0.541960 0.016949
v -0.215470 -0.105334 0.124402
v -0.162745 -0.315826 0.093961
v -0.248804 -0.105334 -0.000000
v -0.187921 -0.315826 -0.000000
v -0.046305 -0.541961 -0.046305
v -0.215470 -0.105334 -0.124402
v -0.162745 -0.315826 -0.093961
v -0.124401 -0.105334 -0.215471
v -0.093961 -0.315826 -0.162745
v 0.000000 0.114219 -0.280000
v -0.000000 0.259771 -0.251460
v 0.140000 0.114219 -0.242487
v 0.125730 0.259771 -0.217771
v 0.242487 0.114219 -0.140000
v 0.217771 0.259771 -0.125730
v 0.280000 0.114219 0.000000
v 0.251460 0.259771 0.000000
v 0.242487 0.114219 0.140000
v 0.217771 0.259771 0.125730
v 0.125730 0.259771 0.217771
v -0.000000 0.259771 0.251460
v -0.125730 0.259771 0.217771
v -0.242487 0.114219 0.140000
v -0.217771 0.259771 0.125730
v -0.280000 0.114219 -0.000000
v -0.251460 0.259771 -0.000000
v -0.242487 0.114219 -0.140000
v -0.217771 0.259771 -0.125730
v -0.140000 0.114219 -0.242487
v -0.125730 0.259771 -0.217771
v -0.059660 0.640104 0.165819
v -0.059660 0.673824 0.055210
v 0.055995 0.640104 0.165819
v 0.055995 0.673824 0.055210
v -0.087890 0.505140 0.154023
v -0.087890 0.555321 -0.010583
v 0.084226 0.555321 -0.010583
v 0.084226 0.505140 0.154023
v -0.080261 0.591299 0.172421
v -0.070953 0.664824 0.112921
v -0.052475 0.340804 -0.039222
v -0.001832 0.684977 0.046815
v 0.048817 0.340804 -0.039222
v 0.067289 0.664824 0.112921
v 0.048817 0.311271 0.057651
v -0.001832 0.644671 0.179026
v -0.052475 0.311271 0.057651
v -0.080261 0.637032 0.022406
v 0.076597 0.637032 0.022406
v 0.076597 0.591299 0.172421
v -0.001832 0.495731 0.184887
v 0.116497 0.530230 0.071720
v -0.001832 0.564730 -0.041447
v -0.120161 0.530230 0.071720
v -0.109455 0.614940 0.097651
v -0.001832 0.646319 -0.005277
v 0.105791 0.614940 0.097651
v -0.001832 0.583562 0.200578
v -0.001832 0.681319 0.117970
v -0.001829 0.305734 0.075814
v 0.067809 0.326037 0.009215
v -0.001829 0.346341 -0.057385
v -0.071467 0.326037 0.009215
v -0.218209 0.593413 -0.041391
v -0.218209 0.565560 -0.139932
v -0.125957 0.636127 -0.053514
v -0.125957 0.608274 -0.152055
v -0.189652 0.488086 0.014484
v -0.189652 0.446636 -0.132162
v -0.052365 0.510202 -0.150203
v -0.052365 0.551651 -0.003556
v -0.217393 0.556422 -0.011932
v -0.230385 0.581623 -0.091268
v -0.079113 0.304385 -0.059197
v -0.175251 0.590505 -0.157406
v 0.001682 0.341794 -0.069815
v -0.120116 0.632679 -0.105758
v 0.001682 0.366188 0.016488
v -0.175251 0.623797 -0.039620
v -0.079113 0.328779 0.027105
v -0.217393 0.518646 -0.145578
v -0.092276 0.576576 -0.162020
v -0.092276 0.614352 -0.028373
v -0.121009 0.527641 0.032960
v -0.026624 0.542845 -0.080262
v -0.121009 0.470647 -0.168679
v -0.215394 0.455443 -0.055456
v -0.240992 0.527374 -0.075871
v -0.155147 0.541202 -0.178850
v -0.069302 0.606868 -0.098433
v -0.155147 0.593039 0.004545
v -0.181898 0.620388 -0.102270
v -0.038716 0.352057 0.037979
v 0.016831 0.361005 -0.028654
v -0.038716 0.318516 -0.080688
v -0.094262 0.309568 -0.014055
v 0.262358 0.518218 -0.010857
v 0.264708 0.501654 -0.111893
v 0.183750 0.582552 -0.023276
v 0.186101 0.565988 -0.124312
v 0.205643 0.417379 0.029764
v 0.209141 0.392729 -0.120596
v 0.092159 0.488470 -0.139077
v 0.088661 0.513120 0.011282
v 0.250502 0.479593 0.013718
v 0.275881 0.509185 -0.060964
v 0.062982 0.273815 -0.072634
v 0.230306 0.537735 -0.128770
v -0.005863 0.330160 -0.083510
v 0.181921 0.586083 -0.075808
v -0.007921 0.344667 0.004978
v 0.227496 0.557534 -0.008002
v 0.060924 0.288322 0.015854
v 0.253690 0.457128 -0.123312
v 0.147078 0.544381 -0.140156
v 0.143890 0.566846 -0.003125
v 0.146496 0.469871 0.048715
v 0.068476 0.518746 -0.067363
v 0.151306 0.435977 -0.158029
v 0.229326 0.387103 -0.041951
v 0.272399 0.452666 -0.051741
v 0.201438 0.497119 -0.157317
v 0.126102 0.572399 -0.074854
v 0.197064 0.527946 0.030721
v 0.238705 0.559241 -0.070069
v 0.026115 0.319215 0.027008
v -0.019801 0.347978 -0.041306
v 0.028946 0.299268 -0.094664
v 0.074862 0.270504 -0.026350
v -0.028832 0.333803 -0.107602
v -0.107602 0.333803 -0.028832
v -0.078770 0.333803 0.078770
v 0.028832 0.333803 0.107602
v 0.107602 0.333803 0.028832
v 0.078770 0.333803 -0.078770
v 0.127954 -0.055345 0.221622
v 0.117375 -0.153930 0.203298
v 0.123385 -0.104926 0.168024
v 0.100989 -0.267230 0.174918
v 0.084580 -0.360341 0.139823
v 0.093272 -0.314630 0.113913
v 0.000001 -0.055345 0.255907
v 0.000001 -0.153930 0.234748
v 0.000001 -0.104926 0.201085
v 0.000000 -0.267230 0.201977
v -0.003337 -0.360354 0.163373
v -0.000977 -0.314634 0.139165
v -0.117374 -0.153930 0.203298
v -0.127953 -0.055345 0.221622
v -0.123383 -0.104926 0.168024
v -0.078791 -0.360368 0.143148
v -0.100988 -0.267230 0.174918
v -0.091576 -0.314639 0.114887
v 0.135140 0.163795 0.234069
v 0.136449 0.064230 0.236336
v 0.137536 0.114098 0.192537
v -0.000000 0.163795 0.270279
v 0.000000 0.064230 0.272897
v 0.000000 0.114098 0.229389
v -0.136448 0.064230 0.236336
v -0.135140 0.163795 0.234069
v -0.137536 0.114098 0.192537
vt 0.561118 0.370867
vt 0.561118 0.407265
vt 0.581228 0.407265
vt 0.578988 0.370867
vt 0.579179 0.462646
vt 0.592400 0.462646
vt 0.576574 0.474919
vt 0.565259 0.474919
vt 0.561118 0.462646
vt 0.543057 0.462646
vt 0.549803 0.474919
vt 0.529836 0.462646
vt 0.524997 0.462646
vt 0.545661 0.474919
vt 0.529836 0.462646
vt 0.543057 0.462646
vt 0.556976 0.474919
vt 0.561118 0.462646
vt 0.549800 0.328585
vt 0.537740 0.335970
vt 0.552031 0.298480
vt 0.558683 0.298480
vt 0.597239 0.462646
vt 0.592400 0.462646
vt 0.572433 0.474919
vt 0.595950 0.407265
vt 0.592070 0.370867
vt 0.574615 0.335970
vt 0.561118 0.335970
vt 0.563552 0.298480
vt 0.584495 0.335970
vt 0.570204 0.298480
vt 0.596858 0.370867
vt 0.588112 0.335970
vt 0.592070 0.370867
vt 0.584495 0.335970
vt 0.567769 0.298480
vt 0.577978 0.362810
vt 0.561118 0.362810
vt 0.561118 0.344027
vt 0.575625 0.344027
vt 0.573267 0.328590
vt 0.560638 0.328588
vt 0.579498 0.379154
vt 0.580718 0.398978
vt 0.561118 0.398978
vt 0.561118 0.379154
vt 0.544257 0.362810
vt 0.546611 0.344027
vt 0.541517 0.398978
vt 0.542738 0.379154
vt 0.530166 0.370867
vt 0.526285 0.407265
vt 0.561118 0.415484
vt 0.580530 0.415484
vt 0.579179 0.447021
vt 0.561118 0.447021
vt 0.525378 0.370867
vt 0.534124 0.335970
vt 0.530166 0.370867
vt 0.537740 0.335970
vt 0.554466 0.298480
vt 0.543248 0.370867
vt 0.547621 0.335970
vt 0.561118 0.291341
vt 0.526285 0.407265
vt 0.541007 0.407265
vt 0.601339 0.407265
vt 0.595950 0.407265
vt 0.520897 0.407265
vt 0.561118 0.447021
vt 0.579179 0.447021
vt 0.579179 0.462646
vt 0.592400 0.447021
vt 0.597239 0.447021
vt 0.592400 0.447021
vt 0.541705 0.415484
vt 0.543057 0.447021
vt 0.529836 0.447021
vt 0.524997 0.447021
vt 0.529836 0.447021
vt 0.543057 0.447021
vt 0.186738 0.432170
vt 0.187207 0.457605
vt 0.185415 0.461929
vt 0.184758 0.436759
vt 0.187207 0.467282
vt 0.188471 0.476209
vt 0.187778 0.480730
vt 0.185415 0.471606
vt 0.188471 0.482376
vt 0.187207 0.475646
vt 0.187207 0.465970
vt 0.186738 0.441348
vt 0.192019 0.467669
vt 0.192019 0.443069
vt 0.192019 0.484416
vt 0.192019 0.477345
vt 0.195567 0.482376
vt 0.196831 0.475646
vt 0.196831 0.465970
vt 0.197299 0.441348
vt 0.198622 0.461929
vt 0.199279 0.436759
vt 0.196259 0.480730
vt 0.198622 0.471606
vt 0.195567 0.476209
vt 0.196831 0.467282
vt 0.196831 0.457605
vt 0.197299 0.432170
vt 0.192019 0.456190
vt 0.192019 0.430449
vt 0.192019 0.477044
vt 0.192019 0.465866
vt 0.192019 0.464394
vt 0.195126 0.377357
vt 0.192019 0.376344
vt 0.188911 0.377357
vt 0.195126 0.382759
vt 0.196291 0.380058
vt 0.188911 0.382759
vt 0.192019 0.383771
vt 0.187746 0.380058
vt 0.180495 0.409045
vt 0.178793 0.431221
vt 0.177345 0.425908
vt 0.178915 0.403075
vt 0.178793 0.440897
vt 0.178743 0.447663
vt 0.177996 0.445507
vt 0.177345 0.435584
vt 0.178743 0.442569
vt 0.178793 0.433988
vt 0.178793 0.424311
vt 0.180495 0.401464
vt 0.182612 0.428437
vt 0.184706 0.405856
vt 0.181378 0.447131
vt 0.182612 0.438114
vt 0.184403 0.450381
vt 0.186469 0.444584
vt 0.186469 0.434907
vt 0.188918 0.413091
vt 0.187879 0.440448
vt 0.190497 0.419061
vt 0.184761 0.454845
vt 0.187879 0.450124
vt 0.184403 0.455476
vt 0.186469 0.451493
vt 0.186469 0.441817
vt 0.188918 0.420672
vt 0.182612 0.437918
vt 0.184706 0.416280
vt 0.181378 0.453220
vt 0.182612 0.447595
vt 0.180971 0.433244
vt 0.192234 0.367397
vt 0.189756 0.364812
vt 0.187277 0.360554
vt 0.192234 0.362935
vt 0.193164 0.366449
vt 0.187277 0.356092
vt 0.189756 0.358677
vt 0.186348 0.357040
vt 0.204748 0.367693
vt 0.206201 0.362155
vt 0.208844 0.383823
vt 0.207501 0.388749
vt 0.207501 0.398425
vt 0.208844 0.393500
vt 0.209058 0.403838
vt 0.208228 0.405490
vt 0.207696 0.394316
vt 0.208372 0.402460
vt 0.204963 0.363184
vt 0.207696 0.384640
vt 0.201414 0.371095
vt 0.204490 0.391954
vt 0.204490 0.401631
vt 0.206261 0.409060
vt 0.201155 0.410276
vt 0.203549 0.414227
vt 0.197785 0.380696
vt 0.201155 0.400599
vt 0.196332 0.386234
vt 0.199868 0.405724
vt 0.199868 0.415400
vt 0.203293 0.417903
vt 0.200959 0.414384
vt 0.203405 0.417257
vt 0.197571 0.385205
vt 0.200959 0.404708
vt 0.201119 0.377294
vt 0.204222 0.397593
vt 0.204222 0.407270
vt 0.206089 0.412681
vt 0.206777 0.393641
vt 0.191645 0.335041
vt 0.193733 0.330385
vt 0.195869 0.324735
vt 0.191771 0.332387
vt 0.190916 0.335646
vt 0.195995 0.322081
vt 0.193907 0.326737
vt 0.196724 0.321476
vt 0.561118 0.477894
vt 0.579498 0.347904
vt 0.578841 0.339684
vt 0.592070 0.339617
vt 0.578841 0.402184
vt 0.577978 0.394060
vt 0.592070 0.402117
vt 0.575625 0.312777
vt 0.574516 0.304918
vt 0.584495 0.304720
vt 0.574516 0.367418
vt 0.573267 0.359840
vt 0.584495 0.367220
vt 0.544257 0.394060
vt 0.543394 0.402184
vt 0.530166 0.402117
vt 0.543394 0.339684
vt 0.542738 0.347904
vt 0.530166 0.339617
vt 0.549800 0.359835
vt 0.547963 0.367417
vt 0.537740 0.367220
vt 0.547963 0.304917
vt 0.546611 0.312777
vt 0.537740 0.304720
vt 0.580530 0.384234
vt 0.580874 0.375995
vt 0.595950 0.376015
vt 0.580874 0.438495
vt 0.580718 0.430228
vt 0.595950 0.438515
vt 0.541517 0.430228
vt 0.541361 0.438495
vt 0.526285 0.438515
vt 0.541361 0.375995
vt 0.541705 0.384234
vt 0.526285 0.376015
vt 0.561118 0.347904
vt 0.561118 0.339684
vt 0.561118 0.402184
vt 0.561118 0.394060
vt 0.560638 0.359838
vt 0.560977 0.367418
vt 0.560977 0.304918
vt 0.561118 0.312777
vt 0.561118 0.430228
vt 0.561118 0.438495
vt 0.561118 0.375995
vt 0.561118 0.384234
vn 0.0000 -0.2074 -0.9782
vn -0.0000 0.0255 -0.9997
vn 0.4998 0.0255 -0.8657
vn 0.4891 -0.2074 -0.8472
vn 0.4159 0.5692 0.7093
vn 0.7093 0.5692 0.4159
vn 0.3212 0.9431 0.0861
vn 0.0861 0.9431 0.3212
vn -0.0056 0.5692 0.8222
vn -0.4063 0.5692 0.7148
vn -0.2351 0.9431 0.2351
vn -0.7148 0.5692 0.4063
vn -0.8222 0.5692 0.0056
vn -0.3212 0.9431 -0.0861
vn -0.7093 0.5692 -0.4159
vn -0.4159 0.5692 -0.7093
vn -0.0861 0.9431 -0.3212
vn 0.0056 0.5692 -0.8222
vn -0.4725 -0.4847 0.7360
vn -0.7656 -0.4426 0.4670
vn -0.7215 -0.6649 0.1933
vn -0.1933 -0.6649 0.7215
vn 0.8222 0.5692 -0.0056
vn 0.7148 0.5692 -0.4063
vn 0.2351 0.9431 -0.2351
vn 0.8657 0.0255 -0.4998
vn 0.8472 -0.2074 -0.4891
vn 0.4666 -0.3766 -0.8003
vn -0.0040 -0.3766 -0.9264
vn 0.1933 -0.6649 -0.7215
vn 0.8003 -0.3766 -0.4666
vn 0.7215 -0.6649 -0.1933
vn 0.9782 -0.2074 0.0000
vn 0.9264 -0.3766 0.0040
vn 0.8344 -0.2596 0.4862
vn 0.7689 -0.4459 0.4581
vn 0.5282 -0.6649 0.5282
vn 0.4397 0.0943 0.8932
vn 0.0000 0.1494 0.9888
vn 0.0005 -0.5439 0.8391
vn 0.3906 -0.5064 0.7687
vn 0.4631 -0.4809 0.7445
vn 0.0085 -0.4833 0.8754
vn 0.4166 -0.4087 0.8121
vn 0.4383 0.2198 0.8715
vn -0.0000 0.2671 0.9637
vn 0.0000 -0.4473 0.8944
vn -0.4397 0.0943 0.8932
vn -0.3912 -0.5050 0.7694
vn -0.4383 0.2198 0.8715
vn -0.4166 -0.4087 0.8121
vn -0.8344 -0.2596 0.4862
vn -0.8478 0.0259 0.5296
vn -0.0000 -0.2297 0.9733
vn 0.4401 -0.1806 0.8796
vn -0.9782 -0.2074 -0.0000
vn -0.9264 -0.3766 -0.0040
vn -0.8472 -0.2074 -0.4891
vn -0.8043 -0.3766 -0.4597
vn -0.5282 -0.6649 -0.5282
vn -0.4891 -0.2074 -0.8472
vn -0.4597 -0.3766 -0.8043
vn -0.0000 -1.0000 -0.0000
vn -0.8657 0.0255 -0.4998
vn -0.4998 0.0255 -0.8657
vn 0.9997 0.0255 0.0000
vn 0.8478 0.0259 0.5296
vn -0.9997 0.0255 -0.0000
vn 0.4063 0.5692 -0.7148
vn -0.4401 -0.1806 0.8796
vn -0.7061 -0.2557 0.6603
vn -0.6643 0.1337 0.7354
vn -0.9417 0.3219 0.0982
vn -0.9987 -0.0482 -0.0147
vn -0.4718 0.5747 0.6687
vn -0.5741 0.7832 0.2389
vn -0.4716 0.8503 -0.2337
vn -0.6641 0.5222 -0.5350
vn -0.7062 0.1576 -0.6903
vn -0.0000 0.5973 -0.8021
vn -0.0000 0.2441 -0.9698
vn -0.0000 0.9507 -0.3100
vn 0.4716 0.8503 -0.2337
vn 0.6641 0.5222 -0.5350
vn 0.7062 0.1576 -0.6903
vn 0.9417 0.3219 0.0982
vn 0.9987 -0.0482 -0.0147
vn 0.5741 0.7832 0.2389
vn 0.4718 0.5747 0.6687
vn 0.6643 0.1337 0.7354
vn 0.7061 -0.2557 0.6603
vn 0.0000 0.0464 0.9989
vn -0.0000 -0.3404 0.9403
vn -0.0000 0.6154 0.7882
vn -0.0000 0.9565 0.2917
vn 0.6884 -0.4198 0.5915
vn 0.0000 -0.4979 0.8673
vn -0.6884 -0.4198 0.5915
vn 0.6884 -0.0168 -0.7252
vn 0.9750 -0.2126 -0.0651
vn -0.6883 -0.0168 -0.7252
vn 0.0000 0.0728 -0.9973
vn -0.9750 -0.2126 -0.0651
vn -0.6138 -0.1473 0.7756
vn -0.7471 0.2005 0.6337
vn -0.9943 -0.1025 0.0290
vn -0.8774 -0.4616 0.1306
vn -0.7483 0.5771 0.3271
vn -0.8727 0.4697 -0.1329
vn -0.7485 0.3198 -0.5810
vn -0.7471 -0.1621 -0.6446
vn -0.6135 -0.5326 -0.5830
vn -0.1460 0.0347 -0.9887
vn 0.0219 -0.3162 -0.9484
vn -0.3553 0.5533 -0.7534
vn 0.1018 0.7143 -0.6924
vn 0.4495 0.3939 -0.8018
vn 0.6583 0.0584 -0.7505
vn 0.7018 0.6855 -0.1939
vn 0.9212 0.3744 -0.1059
vn 0.1618 0.9496 -0.2685
vn 0.1018 0.9712 0.2153
vn 0.4492 0.7560 0.4761
vn 0.6581 0.4438 0.6083
vn -0.1460 0.5486 0.8233
vn 0.0218 0.2289 0.9732
vn -0.3551 0.8662 0.3515
vn -0.4338 0.8670 -0.2451
vn 0.7191 0.2784 0.6367
vn 0.0967 0.0737 0.9926
vn -0.5207 -0.2979 0.8000
vn 0.7194 -0.0974 -0.6877
vn 0.9746 0.2157 -0.0608
vn -0.5206 -0.6736 -0.5246
vn 0.0967 -0.4586 -0.8834
vn -0.7813 -0.6005 0.1700
vn 0.4928 -0.3695 0.7878
vn 0.7337 -0.6675 0.1266
vn 0.9380 -0.3379 0.0772
vn 0.7140 -0.0503 0.6983
vn 0.9652 0.2607 -0.0203
vn 0.8284 0.3455 0.4410
vn 0.7444 -0.2660 -0.6124
vn 0.8501 0.1924 -0.4902
vn 0.5250 -0.5985 -0.6051
vn -0.0093 -0.2004 -0.9797
vn 0.2370 0.1029 -0.9660
vn 0.5373 0.5294 -0.6565
vn -0.2751 0.5713 -0.7733
vn 0.1253 0.7868 -0.6043
vn -0.5585 0.2915 -0.7766
vn -0.7983 0.5911 -0.1155
vn -0.5069 0.8486 -0.1510
vn 0.0833 0.9837 -0.1594
vn -0.3054 0.7865 0.5367
vn 0.1036 0.9396 0.3262
vn -0.5907 0.5206 0.6164
vn -0.0551 0.1238 0.9908
vn 0.1937 0.4086 0.8919
vn 0.5107 0.7156 0.4765
vn 0.6400 0.7605 -0.1098
vn -0.6901 0.3725 0.6205
vn -0.1649 -0.0104 0.9863
vn 0.3661 -0.4955 0.7877
vn -0.6588 0.1491 -0.7374
vn -0.8902 0.4459 -0.0937
vn 0.3976 -0.7188 -0.5704
vn -0.1201 -0.3270 -0.9374
vn 0.6055 -0.7830 0.1426
vn -0.0000 1.0000 0.0000
vn 0.2449 -0.7221 0.6471
vn 0.3076 0.5308 0.7898
vn 0.3694 0.5126 0.7751
vn 0.1578 -0.7893 0.5934
vn 0.2454 0.4423 0.8627
vn 0.2384 0.4442 0.8637
vn 0.2549 0.4397 0.8612
vn -0.3076 0.5308 0.7898
vn -0.3694 0.5126 0.7751
vn -0.2449 -0.7221 0.6471
vn -0.2370 0.4620 0.8546
vn -0.2471 0.4585 0.8536
vn -0.2582 0.4546 0.8524
vn -0.1610 -0.7867 0.5960
vn 0.2967 -0.6039 0.7398
vn 0.2884 0.6283 0.7225
vn -0.2884 0.6283 0.7225
vn -0.2967 -0.6039 0.7398
vn 0.0000 -0.7417 0.6708
vn 0.0000 0.5662 0.8243
vn -0.0061 0.4682 0.8836
vn 0.0074 0.4676 0.8839
vn -0.0015 -0.7982 0.6024
vn -0.0000 0.6574 0.7535
vn 0.0000 -0.6354 0.7722
usemtl restaurant
s 1
f 4/1/1 27/2/2 29/3/3 6/4/4
f 37/5/5 36/6/6 151/7/7 150/8/8
f 38/9/9 37/5/5 150/8/8
f 39/10/10 38/9/9 150/8/8 149/11/11
f 41/12/12 39/10/10 149/11/11
f 43/13/13 41/12/12 149/11/11 148/14/14
f 45/15/15 43/13/13 148/14/14
f 47/16/16 45/15/15 148/14/14 147/17/17
f 28/18/18 47/16/16 147/17/17
f 168/19/19 19/20/20 17/21/21 16/22/22
f 36/6/6 34/23/23 151/7/7
f 34/23/23 32/24/24 152/25/25 151/7/7
f 6/4/4 29/3/3 31/26/26 9/27/27
f 4/1/1 6/4/4 7/28/28 5/29/29
f 5/29/29 7/28/28 3/30/30
f 6/4/4 9/27/27 10/31/31 7/28/28
f 7/28/28 10/31/31 8/32/32 3/30/30
f 9/27/27 11/33/33 12/34/34 10/31/31
f 10/31/31 12/34/34 8/32/32
f 11/33/33 14/35/35 15/36/36 12/34/34
f 12/34/34 15/36/36 13/37/37 8/32/32
f 154/38/38 160/39/39 162/40/40 156/41/41
f 157/42/42 163/43/43 16/22/22 13/37/37
f 153/44/44 172/45/45 175/46/46 159/47/47
f 160/39/39 165/48/48 169/49/49 162/40/40
f 159/47/47 175/46/46 177/50/50 166/51/51
f 165/48/48 18/52/52 19/20/20 169/49/49
f 18/52/52 166/51/51 177/50/50 40/53/53
f 174/54/54 171/55/55 37/56/5 38/57/9
f 18/52/52 20/58/56 21/59/57 19/20/20
f 19/20/20 21/59/57 17/21/21
f 20/58/56 23/60/58 24/61/59 21/59/57
f 21/59/57 24/61/59 22/62/60 17/21/21
f 23/60/58 25/63/61 26/64/62 24/61/59
f 24/61/59 26/64/62 22/62/60
f 25/63/61 4/1/1 5/29/29 26/64/62
f 26/64/62 5/29/29 3/30/30 22/62/60
f 8/32/32 13/37/37 1/65/63
f 3/30/30 8/32/32 1/65/63
f 22/62/60 3/30/30 1/65/63
f 17/21/21 22/62/60 1/65/63
f 16/22/22 17/21/21 1/65/63
f 13/37/37 16/22/22 1/65/63
f 23/60/58 44/66/64 46/67/65 25/63/61
f 9/27/27 31/26/26 33/68/66 11/33/33
f 25/63/61 46/67/65 27/2/2 4/1/1
f 11/33/33 33/68/66 35/69/67 14/35/35
f 14/35/35 154/38/38 156/41/41 15/36/36
f 15/36/36 157/42/42 13/37/37
f 163/43/43 168/19/19 16/22/22
f 20/58/56 42/70/68 44/66/64 23/60/58
f 18/52/52 40/53/53 42/70/68 20/58/56
f 29/3/3 27/2/2 28/71/18 30/72/69
f 32/24/24 30/73/69 152/25/25
f 31/26/26 29/3/3 30/72/69 32/74/24
f 33/68/66 31/26/26 32/74/24 34/75/23
f 35/69/67 33/68/66 34/75/23 36/76/6
f 178/77/70 174/54/54 38/57/9 39/78/10
f 171/55/55 35/69/67 36/76/6 37/56/5
f 40/53/53 178/77/70 39/78/10 41/79/12
f 42/70/68 40/53/53 41/79/12 43/80/13
f 44/66/64 42/70/68 43/80/13 45/81/15
f 46/67/65 44/66/64 45/81/15 47/82/16
f 27/2/2 46/67/65 47/82/16 28/71/18
f 52/83/71 56/84/72 72/85/73 71/86/74
f 56/87/72 48/88/75 57/89/76 72/90/73
f 72/90/73 57/89/76 49/91/77 65/92/78
f 71/86/74 72/85/73 65/93/78 53/94/79
f 53/94/79 65/93/78 73/95/80 70/96/81
f 65/92/78 49/91/77 59/97/82 73/98/80
f 73/98/80 59/97/82 51/99/83 66/100/84
f 70/96/81 73/95/80 66/101/84 54/102/85
f 54/102/85 66/101/84 74/103/86 69/104/87
f 66/100/84 51/99/83 61/105/88 74/106/86
f 74/106/86 61/105/88 50/107/89 67/108/90
f 69/104/87 74/103/86 67/109/90 55/110/91
f 55/110/91 67/109/90 75/111/92 68/112/93
f 67/108/90 50/107/89 63/113/94 75/114/92
f 75/114/92 63/113/94 48/88/75 56/87/72
f 68/112/93 75/111/92 56/84/72 52/83/71
f 51/99/83 59/97/82 76/115/95 61/105/88
f 59/97/82 49/91/77 57/89/76 76/115/95
f 76/115/95 57/89/76 48/88/75 63/113/94
f 61/105/88 76/115/95 63/113/94 50/107/89
f 62/116/96 55/110/91 68/112/93 77/117/97
f 77/117/97 68/112/93 52/83/71 64/118/98
f 60/119/99 54/102/85 69/104/87 78/120/100
f 78/120/100 69/104/87 55/110/91 62/116/96
f 58/121/101 53/94/79 70/96/81 79/122/102
f 79/122/102 70/96/81 54/102/85 60/119/99
f 64/118/98 52/83/71 71/86/74 80/123/103
f 80/123/103 71/86/74 53/94/79 58/121/101
f 85/124/104 89/125/105 105/126/106 104/127/107
f 89/128/105 81/129/108 90/130/109 105/131/106
f 105/131/106 90/130/109 82/132/110 98/133/111
f 104/127/107 105/126/106 98/134/111 86/135/112
f 86/135/112 98/134/111 106/136/113 103/137/114
f 98/133/111 82/132/110 92/138/115 106/139/113
f 106/139/113 92/138/115 84/140/116 99/141/117
f 103/137/114 106/136/113 99/142/117 87/143/118
f 87/143/118 99/142/117 107/144/119 102/145/120
f 99/141/117 84/140/116 94/146/121 107/147/119
f 107/147/119 94/146/121 83/148/122 100/149/123
f 102/145/120 107/144/119 100/150/123 88/151/124
f 88/151/124 100/150/123 108/152/125 101/153/126
f 100/149/123 83/148/122 96/154/127 108/155/125
f 108/155/125 96/154/127 81/129/108 89/128/105
f 101/153/126 108/152/125 89/125/105 85/124/104
f 84/140/116 92/138/115 109/156/128 94/146/121
f 92/138/115 82/132/110 90/130/109 109/156/128
f 109/156/128 90/130/109 81/129/108 96/154/127
f 94/146/121 109/156/128 96/154/127 83/148/122
f 95/157/129 88/151/124 101/153/126 110/158/130
f 110/158/130 101/153/126 85/124/104 97/159/131
f 93/160/132 87/143/118 102/145/120 111/161/133
f 111/161/133 102/145/120 88/151/124 95/157/129
f 91/162/134 86/135/112 103/137/114 112/163/135
f 112/163/135 103/137/114 87/143/118 93/160/132
f 97/159/131 85/124/104 104/127/107 113/164/136
f 113/164/136 104/127/107 86/135/112 91/162/134
f 118/165/137 137/166/138 138/167/139 122/168/140
f 122/169/140 138/170/139 123/171/141 114/172/142
f 138/170/139 131/173/143 115/174/144 123/171/141
f 137/166/138 119/175/145 131/176/143 138/167/139
f 119/175/145 136/177/146 139/178/147 131/176/143
f 131/173/143 139/179/147 125/180/148 115/174/144
f 139/179/147 132/181/149 117/182/150 125/180/148
f 136/177/146 120/183/151 132/184/149 139/178/147
f 120/183/151 135/185/152 140/186/153 132/184/149
f 132/181/149 140/187/153 127/188/154 117/182/150
f 140/187/153 133/189/155 116/190/156 127/188/154
f 135/185/152 121/191/157 133/192/155 140/186/153
f 121/191/157 134/193/158 141/194/159 133/192/155
f 133/189/155 141/195/159 129/196/160 116/190/156
f 141/195/159 122/169/140 114/172/142 129/196/160
f 134/193/158 118/165/137 122/168/140 141/194/159
f 117/182/150 127/188/154 142/197/161 125/180/148
f 125/180/148 142/197/161 123/171/141 115/174/144
f 142/197/161 129/196/160 114/172/142 123/171/141
f 127/188/154 116/190/156 129/196/160 142/197/161
f 128/198/162 143/199/163 134/193/158 121/191/157
f 143/199/163 130/200/164 118/165/137 134/193/158
f 126/201/165 144/202/166 135/185/152 120/183/151
f 144/202/166 128/198/162 121/191/157 135/185/152
f 124/203/167 145/204/168 136/177/146 119/175/145
f 145/204/168 126/201/165 120/183/151 136/177/146
f 130/200/164 146/205/169 137/166/138 118/165/137
f 146/205/169 124/203/167 119/175/145 137/166/138
f 28/18/18 147/17/17 152/25/25 30/73/69
f 2/206/170 147/17/17 148/14/14
f 2/206/170 148/14/14 149/11/11
f 2/206/170 149/11/11 150/8/8
f 2/206/170 150/8/8 151/7/7
f 2/206/170 151/7/7 152/25/25
f 2/206/170 152/25/25 147/17/17
f 153/207/44 155/208/171 14/209/35
f 155/210/172 154/211/38 14/212/173
f 156/213/41 158/214/174 15/215/36
f 158/216/175 157/217/176 15/218/177
f 165/219/48 167/220/178 18/221/179
f 167/222/180 166/223/51 18/224/52
f 168/225/181 170/226/182 19/227/183
f 170/228/184 169/229/49 19/230/20
f 171/231/55 173/232/185 35/233/67
f 173/234/186 172/235/45 35/236/67
f 177/237/50 179/238/187 40/239/53
f 179/240/188 178/241/70 40/242/53
f 153/207/44 159/243/47 161/244/189 155/208/171
f 155/210/172 161/245/190 160/246/39 154/211/38
f 163/247/191 157/217/176 158/216/175 164/248/192
f 164/249/193 158/214/174 156/213/41 162/250/40
f 159/243/47 166/223/51 167/222/180 161/244/189
f 161/245/190 167/220/178 165/219/48 160/246/39
f 168/225/181 163/247/191 164/248/192 170/226/182
f 170/228/184 164/249/193 162/250/40 169/229/49
f 175/251/46 172/235/45 173/234/186 176/252/194
f 176/253/195 173/232/185 171/231/55 174/254/54
f 177/237/50 175/251/46 176/252/194 179/238/187
f 179/240/188 176/253/195 174/254/54 178/241/70
f 14/35/35 35/69/67 172/45/45 153/44/44
