# Blender v3.4.1 OBJ File: 'restaurant_bits_export.blend'
# www.blender.org
mtllib fridge_A_door_top.mtl
o fridge_A_door_top_Cube.617
v -1.000000 1.574998 0.850000
v -0.956066 1.574998 0.956066
v -0.956066 1.521965 0.850000
v -1.000000 1.574998 0.582628
v -1.000000 2.250000 0.850000
v -0.956066 2.241261 0.956066
v -0.926777 2.426776 0.850000
v -1.000000 2.250000 0.582628
v -0.956066 2.241261 0.529595
v -0.926777 2.426776 0.582628
v -0.893151 2.393151 0.529595
v -0.750000 2.500000 0.582628
v -0.741261 2.456066 0.529595
v 0.750000 2.500000 0.582628
v -0.750000 2.500000 0.850000
v -0.741261 2.456066 0.956066
v 0.750000 2.500000 0.850000
v 0.741261 2.456066 0.956066
v 0.926777 2.426776 0.850000
v 0.893151 2.393151 0.956066
v 1.000000 2.250000 0.850000
v 0.926777 2.426776 0.582628
v 0.893151 2.393151 0.529595
v 1.000000 2.250000 0.582628
v 0.956066 2.241261 0.529595
v 1.000000 1.574998 0.582628
v 0.956066 1.574998 0.529595
v 0.956066 1.521965 0.582628
v 1.000000 1.574998 0.850000
v 0.956066 1.521965 0.850000
v 0.956066 1.574998 0.956066
v 0.850000 1.574998 1.000000
v 0.936603 1.531696 0.936603
v 0.956066 2.241261 0.956066
v 0.794045 2.294044 1.000000
v -0.794045 2.294044 1.000000
v -0.850000 1.574998 1.000000
v -0.893151 2.393151 0.956066
v -0.850000 1.521965 0.956066
v -0.850000 1.499998 0.850000
v -0.936603 1.531696 0.936603
v 0.850000 1.521965 0.956066
v 0.850000 1.499998 0.850000
v 0.850000 1.499998 0.582628
v 0.850000 1.521965 0.529595
v -0.850000 1.499998 0.582628
v -0.850000 1.521965 0.529595
v -0.956066 1.521965 0.582628
v -0.936603 1.531696 0.539327
v -0.956066 1.574998 0.529595
v -0.850000 1.574998 0.500000
v 0.850000 1.574998 0.500000
v -0.794045 2.294044 0.500000
v 0.794045 2.294044 0.500000
v 0.741261 2.456066 0.529595
v 0.936603 1.531696 0.539327
v -0.790051 1.862950 1.031595
v -0.754493 1.862950 1.057833
v -0.754493 1.898508 1.031595
v -0.535622 1.862950 1.057833
v -0.500064 1.862950 1.031595
v -0.535622 1.898508 1.031595
v -0.814190 1.874081 0.987979
v -0.775129 1.913142 0.987979
v -0.514986 1.913142 0.987979
v -0.475925 1.874080 0.987979
v -0.790051 1.637023 1.031595
v -0.754493 1.601466 1.031595
v -0.754493 1.637023 1.057833
v -0.500064 1.637023 1.031595
v -0.535622 1.637023 1.057833
v -0.535622 1.601466 1.031595
v -0.775129 1.586832 0.987979
v -0.814190 1.625893 0.987979
v -0.475925 1.625893 0.987979
v -0.514986 1.586832 0.987979
v -0.698153 1.671763 1.210430
v -0.698153 1.701365 1.240033
v -0.727755 1.701365 1.210430
v -0.727755 1.798651 1.210430
v -0.698153 1.798651 1.240033
v -0.698153 1.828254 1.210430
v -0.728624 1.700626 1.049287
v -0.698892 1.670894 1.049287
v -0.698892 1.829122 1.049287
v -0.728624 1.799390 1.049287
v -0.600128 1.670894 1.049287
v -0.570396 1.700626 1.049287
v -0.600128 1.829122 1.049287
v -0.570396 1.799390 1.049287
v -0.566434 1.698425 1.100456
v -0.601846 1.670373 1.115024
v -0.566434 1.801591 1.100456
v -0.601846 1.829643 1.115024
v -0.295812 1.796605 1.162659
v -0.277264 1.777401 1.162520
v -0.295976 1.777174 1.143206
v -0.295795 1.796500 1.198657
v -0.296065 1.776953 1.217992
v -0.277264 1.777401 1.198555
v -0.296065 1.723063 1.217992
v -0.295795 1.703516 1.198657
v -0.277264 1.722615 1.198555
v -0.295812 1.703411 1.162659
v -0.295976 1.722842 1.143206
v -0.277264 1.722615 1.162520
v 0.000000 1.933516 1.040231
v 0.154084 2.052705 1.040231
v -0.154084 2.052705 1.040231
v 0.000000 2.015204 1.040231
v 0.209906 2.089140 0.986899
v 0.000000 1.898986 0.986899
v 0.000000 2.038053 0.986899
v -0.209906 2.089140 0.986899
vt 0.283643 0.650736
vt 0.283643 0.700797
vt 0.282521 0.701096
vt 0.282521 0.650736
vt 0.282521 0.637099
vt 0.283643 0.635285
vt 0.284140 0.635618
vt 0.283643 0.637099
vt 0.282521 0.650736
vt 0.283643 0.648922
vt 0.283643 0.648922
vt 0.282521 0.664372
vt 0.282521 0.714733
vt 0.282521 0.714733
vt 0.282521 0.664372
vt 0.283643 0.714434
vt 0.285250 0.719629
vt 0.284391 0.720779
vt 0.284391 0.734416
vt 0.284391 0.734416
vt 0.282521 0.728369
vt 0.282521 0.728369
vt 0.283643 0.687161
vt 0.283643 0.637099
vt 0.282521 0.637099
vt 0.282521 0.687460
vt 0.285250 0.705993
vt 0.283643 0.700797
vt 0.282521 0.701096
vt 0.284391 0.707143
vt 0.289129 0.708145
vt 0.288906 0.709647
vt 0.288906 0.736920
vt 0.288906 0.736920
vt 0.326991 0.708145
vt 0.327214 0.709647
vt 0.327214 0.736920
vt 0.327214 0.736920
vt 0.289129 0.721781
vt 0.326991 0.721781
vt 0.327214 0.723284
vt 0.288906 0.723284
vt 0.330870 0.719629
vt 0.331728 0.720779
vt 0.331728 0.734416
vt 0.331728 0.734416
vt 0.332477 0.714434
vt 0.333599 0.714733
vt 0.333599 0.728369
vt 0.333599 0.728369
vt 0.332477 0.700797
vt 0.330870 0.705993
vt 0.331728 0.707143
vt 0.333599 0.701096
vt 0.333599 0.687460
vt 0.333599 0.637099
vt 0.332477 0.637099
vt 0.332477 0.687161
vt 0.333599 0.664372
vt 0.333599 0.714733
vt 0.333599 0.664372
vt 0.333599 0.623463
vt 0.332477 0.621649
vt 0.331979 0.621981
vt 0.332477 0.623463
vt 0.333599 0.650736
vt 0.333599 0.650736
vt 0.332477 0.648922
vt 0.332477 0.648922
vt 0.333599 0.637099
vt 0.332477 0.637099
vt 0.331979 0.635618
vt 0.332477 0.635285
vt 0.333599 0.701096
vt 0.332477 0.700797
vt 0.332477 0.650736
vt 0.328339 0.702603
vt 0.329768 0.650736
vt 0.329768 0.637099
vt 0.329768 0.635285
vt 0.328339 0.716239
vt 0.287781 0.702603
vt 0.286352 0.650736
vt 0.287781 0.716239
vt 0.286352 0.637099
vt 0.286352 0.635285
vt 0.286352 0.634534
vt 0.329768 0.634534
vt 0.329768 0.648170
vt 0.329768 0.648170
vt 0.286352 0.648170
vt 0.286352 0.648170
vt 0.329768 0.620897
vt 0.329768 0.621649
vt 0.286352 0.621649
vt 0.286352 0.620897
vt 0.283643 0.621649
vt 0.284140 0.621981
vt 0.282521 0.623463
vt 0.283643 0.623463
vt 0.286352 0.623463
vt 0.287781 0.688966
vt 0.286352 0.637099
vt 0.329768 0.623463
vt 0.328339 0.688966
vt 0.329768 0.637099
vt 0.287781 0.702603
vt 0.328339 0.702603
vt 0.411167 0.890097
vt 0.416757 0.890097
vt 0.416757 0.915212
vt 0.411167 0.915212
vt 0.418282 0.873235
vt 0.418282 0.932075
vt 0.417665 0.930837
vt 0.417665 0.874472
vt 0.411167 0.950415
vt 0.416757 0.950415
vt 0.417284 0.952042
vt 0.410640 0.952042
vt 0.410640 0.837643
vt 0.417284 0.837643
vt 0.416757 0.839270
vt 0.411167 0.839270
vt 0.410259 0.930837
vt 0.411167 0.930837
vt 0.411167 0.934790
vt 0.416757 0.930837
vt 0.416757 0.934790
vt 0.410259 0.858847
vt 0.411167 0.854895
vt 0.411167 0.858847
vt 0.417665 0.858847
vt 0.416757 0.858847
vt 0.416757 0.854895
vt 0.409643 0.947700
vt 0.410259 0.946462
vt 0.417665 0.946462
vt 0.418282 0.947700
vt 0.410259 0.843222
vt 0.409643 0.841985
vt 0.418282 0.841985
vt 0.417665 0.843222
vt 0.410259 0.915212
vt 0.410259 0.890097
vt 0.417665 0.890097
vt 0.417665 0.915212
vt 0.409643 0.932075
vt 0.409643 0.873235
vt 0.410259 0.874472
vt 0.415066 0.878180
vt 0.412606 0.878334
vt 0.412587 0.878238
vt 0.415110 0.878238
vt 0.411828 0.923772
vt 0.411828 0.912793
vt 0.411850 0.912875
vt 0.411850 0.923690
vt 0.415970 0.881298
vt 0.422877 0.884012
vt 0.422882 0.881852
vt 0.422882 0.881864
vt 0.422875 0.884037
vt 0.412606 0.881625
vt 0.422882 0.939087
vt 0.415066 0.942760
vt 0.412606 0.942605
vt 0.422882 0.939076
vt 0.415970 0.912548
vt 0.415970 0.924016
vt 0.422877 0.921302
vt 0.422877 0.915262
vt 0.423355 0.915237
vt 0.423355 0.921327
vt 0.423355 0.921327
vt 0.423355 0.915237
vt 0.415869 0.912793
vt 0.415869 0.923772
vt 0.411850 0.881625
vt 0.411850 0.939315
vt 0.412606 0.939315
vt 0.412587 0.942702
vt 0.415110 0.942702
vt 0.423355 0.936952
vt 0.422877 0.936927
vt 0.422875 0.936903
vt 0.423355 0.936952
vt 0.423355 0.883987
vt 0.423355 0.883987
vt 0.412606 0.912875
vt 0.412606 0.923690
vt 0.415869 0.881543
vt 0.415970 0.939641
vt 0.411828 0.939397
vt 0.415869 0.939397
vt 0.422875 0.921278
vt 0.422875 0.915287
vt 0.411828 0.881543
vt 0.430436 0.938682
vt 0.434371 0.954198
vt 0.430436 0.950030
vt 0.426501 0.954198
vt 0.426501 0.922948
vt 0.425075 0.924731
vt 0.430436 0.903593
vt 0.430436 0.907432
vt 0.435797 0.924731
vt 0.434371 0.922948
vt 0.430436 0.918780
vt 0.430436 0.919052
vn -0.6604 -0.2976 0.6894
vn -0.6914 0.1309 0.7105
vn -0.9622 0.1914 0.1938
vn -0.9343 -0.3114 0.1735
vn -0.5301 -0.8389 0.1233
vn -0.4503 -0.7710 0.4503
vn -0.9055 -0.3001 -0.3001
vn -0.5258 -0.8192 -0.2289
vn -0.9257 0.1841 -0.3305
vn -0.5049 0.5049 0.7002
vn -0.6929 0.6929 0.1994
vn -0.6672 0.6672 -0.3312
vn -0.5357 0.1021 -0.8382
vn -0.5349 -0.2412 -0.8097
vn -0.3916 0.3916 -0.8327
vn -0.0997 0.5260 -0.8446
vn -0.1841 0.9257 -0.3305
vn -0.1914 0.9622 0.1938
vn 0.0997 0.5260 -0.8446
vn 0.1841 0.9257 -0.3305
vn 0.1914 0.9622 0.1938
vn -0.1277 0.6797 0.7223
vn 0.1277 0.6797 0.7223
vn 0.5049 0.5049 0.7002
vn 0.6929 0.6929 0.1994
vn 0.6672 0.6672 -0.3312
vn 0.6914 0.1309 0.7105
vn 0.9622 0.1914 0.1938
vn 0.9257 0.1841 -0.3305
vn 0.5357 0.1021 -0.8382
vn 0.3916 0.3916 -0.8327
vn 0.9055 -0.3001 -0.3001
vn 0.5349 -0.2412 -0.8097
vn 0.9343 -0.3114 0.1735
vn 0.5258 -0.8192 -0.2289
vn 0.3701 -0.6757 -0.6375
vn 0.5301 -0.8389 0.1233
vn 0.6604 -0.2976 0.6894
vn 0.4503 -0.7710 0.4503
vn 0.1337 0.1293 0.9826
vn 0.1580 -0.3073 0.9384
vn 0.1233 -0.8389 0.5301
vn -0.1337 0.1293 0.9826
vn -0.1580 -0.3073 0.9384
vn -0.1233 -0.8389 0.5301
vn -0.0953 -0.9909 0.0953
vn 0.0953 -0.9909 0.0953
vn 0.0941 -0.9787 -0.1823
vn -0.0941 -0.9787 -0.1823
vn 0.0983 -0.7365 -0.6693
vn -0.0983 -0.7365 -0.6693
vn -0.3701 -0.6757 -0.6375
vn -0.1092 -0.2245 -0.9683
vn -0.0922 0.0889 -0.9918
vn 0.1092 -0.2245 -0.9683
vn 0.0922 0.0889 -0.9918
vn -0.2871 -0.2871 0.9139
vn 0.2871 -0.2871 0.9139
vn 0.2871 0.2871 0.9139
vn -0.2871 0.2871 0.9139
vn 0.7877 -0.3302 0.5202
vn 0.7877 0.3302 0.5202
vn 0.7139 0.2753 0.6439
vn 0.7139 -0.2753 0.6439
vn -0.2534 0.7622 0.5957
vn 0.2534 0.7622 0.5957
vn 0.3875 0.8030 0.4528
vn -0.3875 0.8030 0.4528
vn -0.3875 -0.8030 0.4528
vn 0.3875 -0.8030 0.4528
vn 0.2534 -0.7622 0.5957
vn -0.2534 -0.7622 0.5957
vn -0.7139 0.2753 0.6439
vn -0.7139 -0.2753 0.6439
vn -0.7877 0.3302 0.5202
vn -0.7877 -0.3302 0.5202
vn 0.1774 -0.9839 0.0236
vn -0.3119 -0.8806 0.3568
vn -0.3861 -0.9224 0.0046
vn 0.3551 -0.9347 -0.0156
vn -0.9237 0.3832 0.0067
vn -0.9237 -0.3832 0.0067
vn -0.8746 -0.3409 0.3447
vn -0.8746 0.3409 0.3447
vn 0.1802 -0.6578 -0.7313
vn 0.1821 -0.4331 -0.8828
vn 0.4296 -0.3105 -0.8480
vn 0.4196 -0.8541 -0.3073
vn 0.3870 -0.8494 0.3588
vn 0.3798 -0.3292 0.8645
vn -0.3084 -0.3485 0.8851
vn 0.4196 0.8541 -0.3073
vn 0.1774 0.9839 0.0236
vn -0.3119 0.8806 0.3568
vn 0.3870 0.8494 0.3588
vn 0.1821 0.4331 -0.8828
vn 0.4296 0.3105 -0.8480
vn 0.8793 -0.3366 -0.3370
vn 0.8793 0.3366 -0.3370
vn 0.8792 0.3366 0.3371
vn 0.8792 -0.3366 0.3371
vn 0.9102 -0.4098 -0.0591
vn 0.9102 0.4098 -0.0591
vn 0.8908 0.4509 -0.0564
vn 0.8908 -0.4509 -0.0564
vn -0.3084 0.3485 0.8851
vn -0.3861 0.9224 0.0046
vn 0.3551 0.9347 -0.0156
vn 0.3798 0.3292 0.8645
vn 0.1802 0.6578 -0.7313
vn 0.0000 0.0000 1.0000
vn -0.6158 -0.7246 0.3093
vn 0.6158 -0.7246 0.3093
vn -0.0000 0.9192 0.3938
vn 0.2183 0.8970 0.3843
vn -0.2183 0.8970 0.3843
usemtl restaurant
s 1
f 2/1/1 6/2/2 5/3/3 1/4/4
f 1/5/4 3/6/5 41/7/6 2/8/1
f 1/4/4 4/9/7 48/10/8 3/11/5
f 1/12/4 5/13/3 8/14/9 4/15/7
f 6/16/2 38/17/10 7/18/11 5/13/3
f 7/19/11 10/20/12 8/21/9 5/22/3
f 9/23/13 50/24/14 4/25/7 8/26/9
f 11/27/15 9/28/13 8/29/9 10/30/12
f 13/31/16 11/27/15 10/30/12 12/32/17
f 15/33/18 12/34/17 10/20/12 7/19/11
f 55/35/19 13/31/16 12/32/17 14/36/20
f 14/37/20 12/34/17 15/33/18 17/38/21
f 16/39/22 18/40/23 17/41/21 15/42/18
f 38/17/10 16/39/22 15/42/18 7/18/11
f 18/40/23 20/43/24 19/44/25 17/41/21
f 14/37/20 17/38/21 19/45/25 22/46/26
f 20/43/24 34/47/27 21/48/28 19/44/25
f 22/46/26 19/45/25 21/49/28 24/50/29
f 25/51/30 23/52/31 22/53/26 24/54/29
f 23/52/31 55/35/19 14/36/20 22/53/26
f 24/55/29 26/56/32 27/57/33 25/58/30
f 26/59/32 24/60/29 21/48/28 29/61/34
f 26/62/32 28/63/35 56/64/36 27/65/33
f 26/66/32 29/67/34 30/68/37 28/69/35
f 29/70/34 31/71/38 33/72/39 30/73/37
f 29/67/34 21/74/28 34/75/27 31/76/38
f 31/76/38 34/75/27 35/77/40 32/78/41
f 32/79/41 42/80/42 33/72/39 31/71/38
f 35/81/40 34/47/27 20/43/24
f 32/78/41 35/77/40 36/82/43 37/83/44
f 36/84/43 35/81/40 18/40/23 16/39/22
f 35/81/40 20/43/24 18/40/23
f 36/84/43 16/39/22 38/17/10
f 37/83/44 36/82/43 6/2/2 2/1/1
f 36/84/43 38/17/10 6/16/2
f 32/79/41 37/85/44 39/86/45 42/80/42
f 37/85/44 2/8/1 41/7/6 39/86/45
f 42/80/42 39/86/45 40/87/46 43/88/47
f 40/87/46 39/86/45 41/7/6 3/6/5
f 43/88/47 30/73/37 33/72/39 42/80/42
f 28/69/35 30/68/37 43/89/47 44/90/48
f 40/91/46 46/92/49 44/90/48 43/89/47
f 44/93/48 45/94/50 56/64/36 28/63/35
f 47/95/51 45/94/50 44/93/48 46/96/49
f 46/96/49 48/97/8 49/98/52 47/95/51
f 3/11/5 48/10/8 46/92/49 40/91/46
f 4/99/7 50/100/14 49/98/52 48/97/8
f 51/101/53 47/95/51 49/98/52 50/100/14
f 53/102/54 51/103/53 50/24/14 9/23/13
f 51/101/53 52/104/55 45/94/50 47/95/51
f 51/103/53 53/102/54 54/105/56 52/106/55
f 53/107/54 9/28/13 11/27/15
f 54/108/56 53/107/54 13/31/16 55/35/19
f 53/107/54 11/27/15 13/31/16
f 54/108/56 55/35/19 23/52/31
f 54/108/56 23/52/31 25/51/30
f 25/58/30 27/57/33 52/106/55 54/105/56
f 52/104/55 27/65/33 56/64/36 45/94/50
f 69/109/57 71/110/58 60/111/59 58/112/60
f 75/113/61 66/114/62 61/115/63 70/116/64
f 59/117/65 62/118/66 65/119/67 64/120/68
f 73/121/69 76/122/70 72/123/71 68/124/72
f 57/125/73 58/126/60 59/127/65
f 60/128/59 61/115/63 62/129/66
f 67/130/74 68/131/72 69/132/57
f 70/133/64 71/134/58 72/135/71
f 63/136/75 57/137/73 59/117/65 64/120/68
f 58/126/60 60/128/59 62/129/66 59/127/65
f 61/138/63 66/139/62 65/119/67 62/118/66
f 67/140/74 74/141/76 73/121/69 68/124/72
f 75/142/61 70/143/64 72/123/71 76/122/70
f 71/134/58 69/132/57 68/131/72 72/135/71
f 57/144/73 67/145/74 69/109/57 58/112/60
f 70/146/64 61/147/63 60/111/59 71/110/58
f 63/148/75 74/149/76 67/150/74 57/125/73
f 92/151/77 77/152/78 84/153/79 87/154/80
f 86/155/81 83/156/82 79/157/83 80/158/84
f 92/151/85 91/159/86 105/160/87 104/161/88
f 77/152/78 102/162/89 101/163/90 78/164/91
f 95/165/92 94/166/93 82/167/94 98/168/95
f 91/169/86 93/170/96 97/171/97 105/172/87
f 106/173/98 96/174/99 100/175/100 103/176/101
f 92/151/77 104/161/88 102/162/89 77/152/78
f 88/177/102 90/178/103 93/170/104 91/169/105
f 77/152/78 78/164/91 79/179/83
f 80/180/84 81/181/106 82/167/94
f 85/182/107 82/167/94 94/166/93 89/183/108
f 95/165/92 96/184/99 97/185/97
f 98/168/95 99/186/109 100/187/100
f 101/163/90 102/162/89 103/188/101
f 104/161/88 105/160/87 106/189/98
f 78/190/91 81/191/106 80/158/84 79/157/83
f 92/151/77 87/154/80 88/192/102 91/159/105
f 94/166/110 95/165/92 97/185/97 93/193/96
f 85/182/107 86/194/81 80/180/84 82/167/94
f 89/183/108 94/166/93 93/193/104 90/195/103
f 95/165/92 98/168/95 100/187/100 96/184/99
f 99/196/109 101/197/90 103/176/101 100/175/100
f 102/162/89 104/161/88 106/189/98 103/188/101
f 96/174/99 106/173/98 105/172/87 97/171/97
f 98/168/95 82/167/94 81/181/106 99/186/109
f 81/191/106 78/190/91 101/197/90 99/196/109
f 77/152/78 79/179/83 83/198/82 84/153/79
f 107/199/111 108/200/111 110/201/111
f 109/202/111 107/199/111 110/201/111
f 109/203/112 114/204/112 112/205/112 107/206/112
f 107/206/113 112/205/113 111/207/113 108/208/113
f 110/209/114 113/210/114 114/204/115 109/203/115
f 108/208/116 111/207/116 113/210/114 110/209/114
