# Blender v3.4.1 OBJ File: 'restaurant_bits_export.blend'
# www.blender.org
mtllib fridge_B_door.mtl
o fridge_B_door_Cube.565
v -1.000000 0.250000 0.850000
v -0.956066 0.258739 0.956066
v -0.926777 0.073223 0.850000
v -1.000000 0.250000 0.582628
v -0.956066 0.258739 0.529595
v -0.926777 0.073223 0.582628
v -0.893151 0.106849 0.529595
v -0.750000 0.000000 0.582628
v -0.741261 0.043934 0.529595
v 0.750000 0.000000 0.582628
v -0.750000 0.000000 0.850000
v -0.741261 0.043934 0.956066
v 0.750000 0.000000 0.850000
v 0.741261 0.043934 0.956066
v 0.926777 0.073223 0.850000
v 0.893151 0.106849 0.956066
v 1.000000 0.250000 0.850000
v 0.926777 0.073223 0.582628
v 0.893151 0.106849 0.529595
v 1.000000 0.250000 0.582628
v 0.956066 0.258739 0.529595
v -0.794045 0.205955 0.500000
v 0.794045 0.205955 0.500000
v 0.741261 0.043934 0.529595
v -0.794045 0.205955 1.000000
v 0.794045 0.205955 1.000000
v -0.893151 0.106849 0.956066
v 0.956066 0.258739 0.956066
v -1.000000 2.250000 0.850000
v -0.956066 2.241261 0.956066
v -0.926777 2.426777 0.850000
v -1.000000 2.250000 0.582628
v -0.956066 2.241261 0.529595
v -0.926777 2.426777 0.582628
v -0.893151 2.393151 0.529595
v -0.750000 2.500000 0.582628
v -0.741261 2.456066 0.529595
v 0.750000 2.500000 0.582628
v -0.750000 2.500000 0.850000
v -0.741261 2.456066 0.956066
v 0.750000 2.500000 0.850000
v 0.741261 2.456066 0.956066
v 0.926777 2.426777 0.850000
v 0.893151 2.393151 0.956066
v 1.000000 2.250000 0.850000
v 0.926777 2.426777 0.582628
v 0.893151 2.393151 0.529595
v 1.000000 2.250000 0.582628
v 0.956066 2.241261 0.529595
v 0.956066 2.241261 0.956066
v 0.794045 2.294045 1.000000
v -0.794045 2.294045 1.000000
v -0.893151 2.393151 0.956066
v -0.794045 2.294045 0.500000
v 0.794045 2.294045 0.500000
v 0.741261 2.456066 0.529595
v -0.790051 1.362951 1.031595
v -0.754493 1.362951 1.057833
v -0.754493 1.398508 1.031595
v -0.535622 1.362951 1.057833
v -0.500064 1.362951 1.031595
v -0.535622 1.398508 1.031595
v -0.814190 1.374081 0.987979
v -0.775129 1.413142 0.987979
v -0.514986 1.413142 0.987979
v -0.475925 1.374081 0.987979
v -0.790051 1.137024 1.031595
v -0.754493 1.101466 1.031595
v -0.754493 1.137024 1.057833
v -0.500064 1.137024 1.031595
v -0.535622 1.137024 1.057833
v -0.535622 1.101466 1.031595
v -0.775129 1.086832 0.987979
v -0.814190 1.125893 0.987979
v -0.475925 1.125893 0.987979
v -0.514986 1.086832 0.987979
v -0.698153 1.171763 1.210430
v -0.698153 1.201366 1.240033
v -0.727755 1.201366 1.210430
v -0.727755 1.298651 1.210430
v -0.698153 1.298651 1.240033
v -0.698153 1.328254 1.210430
v -0.728624 1.200627 1.049287
v -0.698892 1.170895 1.049287
v -0.698892 1.329122 1.049287
v -0.728624 1.299390 1.049287
v -0.600128 1.170895 1.049287
v -0.570396 1.200627 1.049287
v -0.600128 1.329122 1.049287
v -0.570396 1.299390 1.049287
v -0.566434 1.198425 1.100456
v -0.601846 1.170374 1.115024
v -0.566434 1.301592 1.100456
v -0.601846 1.329643 1.115024
v -0.295812 1.296606 1.162659
v -0.277264 1.277401 1.162520
v -0.295976 1.277175 1.143206
v -0.295795 1.296501 1.198657
v -0.296065 1.276953 1.217992
v -0.277264 1.277401 1.198555
v -0.296065 1.223064 1.217992
v -0.295795 1.203516 1.198657
v -0.277264 1.222616 1.198555
v -0.295812 1.203411 1.162659
v -0.295976 1.222842 1.143206
v -0.277264 1.222616 1.162520
v 0.000000 1.933516 1.040231
v 0.154084 2.052706 1.040231
v -0.154084 2.052706 1.040231
v 0.000000 2.015204 1.040231
v 0.209906 2.089140 0.986899
v 0.000000 1.898986 0.986899
v 0.000000 2.038054 0.986899
v -0.209906 2.089140 0.986899
vt 0.287738 0.586882
vt 0.286131 0.592078
vt 0.285009 0.591779
vt 0.286879 0.585732
vt 0.286879 0.599369
vt 0.286879 0.599369
vt 0.285009 0.605415
vt 0.285009 0.605415
vt 0.286131 0.578441
vt 0.287738 0.573246
vt 0.286879 0.572096
vt 0.285009 0.578142
vt 0.291617 0.571094
vt 0.291394 0.569591
vt 0.291394 0.596864
vt 0.291394 0.596864
vt 0.329479 0.571094
vt 0.329702 0.569591
vt 0.329702 0.596864
vt 0.329702 0.596864
vt 0.329479 0.584730
vt 0.291617 0.584730
vt 0.291394 0.583228
vt 0.329702 0.583228
vt 0.333358 0.586882
vt 0.334216 0.585732
vt 0.334216 0.599369
vt 0.334216 0.599369
vt 0.334964 0.592078
vt 0.336086 0.591779
vt 0.336086 0.605415
vt 0.336086 0.605415
vt 0.333358 0.573246
vt 0.334964 0.578441
vt 0.336086 0.578142
vt 0.334216 0.572096
vt 0.290269 0.576636
vt 0.330827 0.576636
vt 0.330827 0.590272
vt 0.290269 0.590272
vt 0.285009 0.701096
vt 0.286131 0.605714
vt 0.286131 0.700797
vt 0.285009 0.714733
vt 0.285009 0.619052
vt 0.285009 0.619052
vt 0.285009 0.714733
vt 0.336086 0.687460
vt 0.336086 0.591779
vt 0.334964 0.592078
vt 0.334964 0.687161
vt 0.286131 0.714434
vt 0.287738 0.719629
vt 0.286879 0.720779
vt 0.286879 0.734416
vt 0.286879 0.734416
vt 0.285009 0.728369
vt 0.285009 0.728369
vt 0.290269 0.688966
vt 0.290269 0.590272
vt 0.286131 0.592078
vt 0.286131 0.687161
vt 0.287738 0.705993
vt 0.286131 0.700797
vt 0.285009 0.701096
vt 0.286879 0.707143
vt 0.291617 0.708145
vt 0.291394 0.709647
vt 0.291394 0.736920
vt 0.291394 0.736920
vt 0.329479 0.708145
vt 0.329702 0.709647
vt 0.329702 0.736920
vt 0.329702 0.736920
vt 0.291617 0.721781
vt 0.329479 0.721781
vt 0.329702 0.723284
vt 0.291394 0.723284
vt 0.333358 0.719629
vt 0.334216 0.720779
vt 0.334216 0.734416
vt 0.334216 0.734416
vt 0.334964 0.714434
vt 0.336086 0.714733
vt 0.336086 0.728369
vt 0.336086 0.728369
vt 0.334964 0.700797
vt 0.333358 0.705993
vt 0.334216 0.707143
vt 0.336086 0.701096
vt 0.336086 0.619052
vt 0.336086 0.619052
vt 0.336086 0.714733
vt 0.334964 0.700797
vt 0.334964 0.605714
vt 0.336086 0.701096
vt 0.330827 0.702603
vt 0.330827 0.603909
vt 0.290269 0.603909
vt 0.290269 0.702603
vt 0.330827 0.716239
vt 0.285009 0.591779
vt 0.285009 0.687460
vt 0.290269 0.716239
vt 0.330827 0.688966
vt 0.330827 0.590272
vt 0.290269 0.702603
vt 0.330827 0.702603
vt 0.398030 0.881391
vt 0.403620 0.881391
vt 0.403620 0.906506
vt 0.398030 0.906506
vt 0.405145 0.864529
vt 0.405145 0.923368
vt 0.404528 0.922131
vt 0.404528 0.865766
vt 0.398030 0.941709
vt 0.403620 0.941708
vt 0.404147 0.943335
vt 0.397503 0.943335
vt 0.397503 0.828937
vt 0.404147 0.828937
vt 0.403620 0.830563
vt 0.398030 0.830563
vt 0.397122 0.922131
vt 0.398030 0.922131
vt 0.398030 0.926084
vt 0.403620 0.922131
vt 0.403620 0.926083
vt 0.397122 0.850141
vt 0.398030 0.846188
vt 0.398030 0.850141
vt 0.404528 0.850141
vt 0.403620 0.850141
vt 0.403620 0.846188
vt 0.396506 0.938993
vt 0.397122 0.937756
vt 0.404528 0.937756
vt 0.405145 0.938993
vt 0.397122 0.834516
vt 0.396506 0.833279
vt 0.405145 0.833279
vt 0.404528 0.834516
vt 0.397122 0.906506
vt 0.397122 0.881391
vt 0.404528 0.881391
vt 0.404528 0.906506
vt 0.396506 0.923368
vt 0.396506 0.864529
vt 0.397122 0.865766
vt 0.401929 0.869473
vt 0.399469 0.869628
vt 0.399450 0.869531
vt 0.401973 0.869531
vt 0.398691 0.915065
vt 0.398691 0.904086
vt 0.398713 0.904169
vt 0.398713 0.914983
vt 0.402833 0.872592
vt 0.409740 0.875306
vt 0.409744 0.873146
vt 0.409745 0.873158
vt 0.409738 0.875331
vt 0.399469 0.872919
vt 0.409744 0.930381
vt 0.401929 0.934053
vt 0.399469 0.933899
vt 0.409745 0.930369
vt 0.402833 0.903842
vt 0.402833 0.915310
vt 0.409740 0.912596
vt 0.409740 0.906556
vt 0.410218 0.906531
vt 0.410218 0.912621
vt 0.410218 0.912621
vt 0.410218 0.906531
vt 0.402732 0.904086
vt 0.402732 0.915065
vt 0.398713 0.872919
vt 0.398713 0.930608
vt 0.399469 0.930608
vt 0.399450 0.933995
vt 0.401973 0.933995
vt 0.410218 0.928246
vt 0.409740 0.928221
vt 0.409738 0.928196
vt 0.410218 0.928246
vt 0.410218 0.875281
vt 0.410218 0.875281
vt 0.399469 0.904169
vt 0.399469 0.914983
vt 0.402732 0.872836
vt 0.402833 0.930935
vt 0.398691 0.930690
vt 0.402732 0.930690
vt 0.409738 0.912571
vt 0.409738 0.906581
vt 0.398691 0.872836
vt 0.432924 0.938682
vt 0.436859 0.954198
vt 0.432924 0.950030
vt 0.428989 0.954198
vt 0.428989 0.922948
vt 0.427563 0.924731
vt 0.432924 0.903593
vt 0.432924 0.907432
vt 0.438285 0.924731
vt 0.436859 0.922948
vt 0.432924 0.918780
vt 0.432924 0.919052
vn -0.5049 -0.5049 0.7002
vn -0.6797 -0.1277 0.7223
vn -0.9622 -0.1914 0.1938
vn -0.6929 -0.6929 0.1994
vn -0.6672 -0.6672 -0.3312
vn -0.9257 -0.1841 -0.3305
vn -0.5260 -0.0997 -0.8446
vn -0.3916 -0.3916 -0.8327
vn -0.0997 -0.5260 -0.8446
vn -0.1841 -0.9257 -0.3305
vn -0.1914 -0.9622 0.1938
vn 0.0997 -0.5260 -0.8446
vn 0.1841 -0.9257 -0.3305
vn 0.1914 -0.9622 0.1938
vn 0.1277 -0.6797 0.7223
vn -0.1277 -0.6797 0.7223
vn 0.5049 -0.5049 0.7002
vn 0.6929 -0.6929 0.1994
vn 0.6672 -0.6672 -0.3312
vn 0.6797 -0.1277 0.7223
vn 0.9622 -0.1914 0.1938
vn 0.9257 -0.1841 -0.3305
vn 0.3916 -0.3916 -0.8327
vn 0.5260 -0.0997 -0.8446
vn -0.0872 -0.0872 -0.9924
vn 0.0872 -0.0872 -0.9924
vn 0.1267 -0.1267 0.9838
vn -0.1267 -0.1267 0.9838
vn -0.9622 0.1914 0.1938
vn -0.6797 0.1277 0.7223
vn -0.9257 0.1841 -0.3305
vn 0.9257 0.1841 -0.3305
vn 0.5260 0.0997 -0.8446
vn -0.5049 0.5049 0.7002
vn -0.6929 0.6929 0.1994
vn -0.6672 0.6672 -0.3312
vn -0.0872 0.0872 -0.9924
vn -0.5260 0.0997 -0.8446
vn -0.3916 0.3916 -0.8327
vn -0.0997 0.5260 -0.8446
vn -0.1841 0.9257 -0.3305
vn -0.1914 0.9622 0.1938
vn 0.0997 0.5260 -0.8446
vn 0.1841 0.9257 -0.3305
vn 0.1914 0.9622 0.1938
vn -0.1277 0.6797 0.7223
vn 0.1277 0.6797 0.7223
vn 0.5049 0.5049 0.7002
vn 0.6929 0.6929 0.1994
vn 0.6672 0.6672 -0.3312
vn 0.6797 0.1277 0.7223
vn 0.9622 0.1914 0.1938
vn 0.3916 0.3916 -0.8327
vn 0.1267 0.1267 0.9838
vn -0.1267 0.1267 0.9838
vn 0.0872 0.0872 -0.9924
vn -0.2871 -0.2871 0.9139
vn 0.2871 -0.2871 0.9139
vn 0.2871 0.2871 0.9139
vn -0.2871 0.2871 0.9139
vn 0.7877 -0.3302 0.5202
vn 0.7877 0.3302 0.5202
vn 0.7139 0.2753 0.6439
vn 0.7139 -0.2753 0.6439
vn -0.2534 0.7622 0.5957
vn 0.2534 0.7622 0.5957
vn 0.3875 0.8030 0.4528
vn -0.3875 0.8030 0.4528
vn -0.3875 -0.8030 0.4528
vn 0.3875 -0.8030 0.4528
vn 0.2534 -0.7622 0.5957
vn -0.2534 -0.7622 0.5957
vn -0.7139 0.2753 0.6439
vn -0.7139 -0.2753 0.6439
vn -0.7877 0.3302 0.5202
vn -0.7877 -0.3302 0.5202
vn 0.1774 -0.9839 0.0236
vn -0.3119 -0.8806 0.3568
vn -0.3861 -0.9224 0.0046
vn 0.3551 -0.9347 -0.0156
vn -0.9237 0.3832 0.0067
vn -0.9237 -0.3832 0.0067
vn -0.8746 -0.3409 0.3447
vn -0.8746 0.3409 0.3447
vn 0.1802 -0.6578 -0.7313
vn 0.1821 -0.4331 -0.8828
vn 0.4296 -0.3105 -0.8480
vn 0.4196 -0.8541 -0.3073
vn 0.3870 -0.8494 0.3588
vn 0.3798 -0.3292 0.8645
vn -0.3084 -0.3485 0.8851
vn 0.4196 0.8541 -0.3073
vn 0.1774 0.9839 0.0236
vn -0.3119 0.8806 0.3568
vn 0.3870 0.8494 0.3588
vn 0.1821 0.4331 -0.8828
vn 0.4296 0.3105 -0.8480
vn 0.8793 -0.3366 -0.3370
vn 0.8793 0.3366 -0.3370
vn 0.8792 0.3366 0.3371
vn 0.8792 -0.3366 0.3371
vn 0.9102 -0.4098 -0.0591
vn 0.9102 0.4098 -0.0591
vn 0.8908 0.4509 -0.0564
vn 0.8908 -0.4509 -0.0564
vn -0.3084 0.3485 0.8851
vn -0.3861 0.9224 0.0046
vn 0.3551 0.9347 -0.0156
vn 0.3798 0.3292 0.8645
vn 0.1802 0.6578 -0.7313
vn -0.0000 0.0000 1.0000
vn -0.6158 -0.7246 0.3093
vn 0.6158 -0.7246 0.3093
vn -0.0000 0.9192 0.3938
vn 0.2183 0.8970 0.3843
vn -0.2183 0.8970 0.3843
usemtl restaurant
s 1
f 27/1/1 2/2/2 1/3/3 3/4/4
f 6/5/5 3/6/4 1/7/3 4/8/6
f 5/9/7 7/10/8 6/11/5 4/12/6
f 7/10/8 9/13/9 8/14/10 6/11/5
f 8/15/10 11/16/11 3/6/4 6/5/5
f 9/13/9 24/17/12 10/18/13 8/14/10
f 8/15/10 10/19/13 13/20/14 11/16/11
f 14/21/15 12/22/16 11/23/11 13/24/14
f 12/22/16 27/1/1 3/4/4 11/23/11
f 16/25/17 14/21/15 13/24/14 15/26/18
f 13/20/14 10/19/13 18/27/19 15/28/18
f 28/29/20 16/25/17 15/26/18 17/30/21
f 15/28/18 18/27/19 20/31/22 17/32/21
f 19/33/23 21/34/24 20/35/22 18/36/19
f 24/17/12 19/33/23 18/36/19 10/18/13
f 22/37/25 23/38/26 24/17/12 9/13/9
f 22/37/25 9/13/9 7/10/8
f 22/37/25 7/10/8 5/9/7
f 23/38/26 21/34/24 19/33/23
f 23/38/26 19/33/23 24/17/12
f 26/39/27 25/40/28 12/22/16 14/21/15
f 25/40/28 2/2/2 27/1/1
f 25/40/28 27/1/1 12/22/16
f 29/41/29 1/7/3 2/42/2 30/43/30
f 26/39/27 16/25/17 28/29/20
f 26/39/27 14/21/15 16/25/17
f 32/44/31 4/45/6 1/46/3 29/47/29
f 48/48/32 20/49/22 21/50/24 49/51/33
f 30/52/30 53/53/34 31/54/35 29/47/29
f 31/55/35 34/56/36 32/57/31 29/58/29
f 54/59/37 22/60/25 5/61/7 33/62/38
f 35/63/39 33/64/38 32/65/31 34/66/36
f 37/67/40 35/63/39 34/66/36 36/68/41
f 39/69/42 36/70/41 34/56/36 31/55/35
f 56/71/43 37/67/40 36/68/41 38/72/44
f 38/73/44 36/70/41 39/69/42 41/74/45
f 40/75/46 42/76/47 41/77/45 39/78/42
f 53/53/34 40/75/46 39/78/42 31/54/35
f 42/76/47 44/79/48 43/80/49 41/77/45
f 38/73/44 41/74/45 43/81/49 46/82/50
f 44/79/48 50/83/51 45/84/52 43/80/49
f 46/82/50 43/81/49 45/85/52 48/86/32
f 49/87/33 47/88/53 46/89/50 48/90/32
f 47/88/53 56/71/43 38/72/44 46/89/50
f 45/84/52 17/91/21 20/92/22 48/93/32
f 50/94/51 28/95/20 17/32/21 45/96/52
f 51/97/54 26/98/27 28/95/20 50/94/51
f 30/43/30 2/42/2 25/99/28 52/100/55
f 51/101/54 50/83/51 44/79/48
f 33/62/38 5/61/7 4/102/6 32/103/31
f 52/104/55 51/101/54 42/76/47 40/75/46
f 51/101/54 44/79/48 42/76/47
f 52/104/55 40/75/46 53/53/34
f 52/100/55 25/99/28 26/98/27 51/97/54
f 52/104/55 53/53/34 30/52/30
f 55/105/56 23/106/26 22/60/25 54/59/37
f 49/51/33 21/50/24 23/106/26 55/105/56
f 54/107/37 33/64/38 35/63/39
f 55/108/56 54/107/37 37/67/40 56/71/43
f 54/107/37 35/63/39 37/67/40
f 55/108/56 56/71/43 47/88/53
f 55/108/56 47/88/53 49/87/33
f 69/109/57 71/110/58 60/111/59 58/112/60
f 75/113/61 66/114/62 61/115/63 70/116/64
f 59/117/65 62/118/66 65/119/67 64/120/68
f 73/121/69 76/122/70 72/123/71 68/124/72
f 57/125/73 58/126/60 59/127/65
f 60/128/59 61/115/63 62/129/66
f 67/130/74 68/131/72 69/132/57
f 70/133/64 71/134/58 72/135/71
f 63/136/75 57/137/73 59/117/65 64/120/68
f 58/126/60 60/128/59 62/129/66 59/127/65
f 61/138/63 66/139/62 65/119/67 62/118/66
f 67/140/74 74/141/76 73/121/69 68/124/72
f 75/142/61 70/143/64 72/123/71 76/122/70
f 71/134/58 69/132/57 68/131/72 72/135/71
f 57/144/73 67/145/74 69/109/57 58/112/60
f 70/146/64 61/147/63 60/111/59 71/110/58
f 63/148/75 74/149/76 67/150/74 57/125/73
f 92/151/77 77/152/78 84/153/79 87/154/80
f 86/155/81 83/156/82 79/157/83 80/158/84
f 92/151/85 91/159/86 105/160/87 104/161/88
f 77/152/78 102/162/89 101/163/90 78/164/91
f 95/165/92 94/166/93 82/167/94 98/168/95
f 91/169/86 93/170/96 97/171/97 105/172/87
f 106/173/98 96/174/99 100/175/100 103/176/101
f 92/151/77 104/161/88 102/162/89 77/152/78
f 88/177/102 90/178/103 93/170/104 91/169/105
f 77/152/78 78/164/91 79/179/83
f 80/180/84 81/181/106 82/167/94
f 85/182/107 82/167/94 94/166/93 89/183/108
f 95/165/92 96/184/99 97/185/97
f 98/168/95 99/186/109 100/187/100
f 101/163/90 102/162/89 103/188/101
f 104/161/88 105/160/87 106/189/98
f 78/190/91 81/191/106 80/158/84 79/157/83
f 92/151/77 87/154/80 88/192/102 91/159/105
f 94/166/110 95/165/92 97/185/97 93/193/96
f 85/182/107 86/194/81 80/180/84 82/167/94
f 89/183/108 94/166/93 93/193/104 90/195/103
f 95/165/92 98/168/95 100/187/100 96/184/99
f 99/196/109 101/197/90 103/176/101 100/175/100
f 102/162/89 104/161/88 106/189/98 103/188/101
f 96/174/99 106/173/98 105/172/87 97/171/97
f 98/168/95 82/167/94 81/181/106 99/186/109
f 81/191/106 78/190/91 101/197/90 99/196/109
f 77/152/78 79/179/83 83/198/82 84/153/79
f 107/199/111 108/200/111 110/201/111
f 109/202/111 107/199/111 110/201/111
f 109/203/112 114/204/112 112/205/112 107/206/112
f 107/206/113 112/205/113 111/207/113 108/208/113
f 110/209/114 113/210/114 114/204/115 109/203/115
f 108/208/116 111/207/116 113/210/114 110/209/114
