# Blender v3.4.1 OBJ File: 'restaurant_bits_export.blend'
# www.blender.org
mtllib jar_C_small.mtl
o jar_C_small_Cylinder.267
v 0.000000 0.400000 -0.204902
v 0.000000 0.550000 -0.000000
v 0.102451 0.400000 -0.177450
v 0.177450 0.400000 -0.102451
v 0.204902 0.400000 0.000000
v 0.177450 0.400000 0.102451
v 0.102451 0.400000 0.177450
v 0.000000 0.400000 0.204902
v -0.102451 0.400000 0.177450
v -0.177450 0.400000 0.102451
v -0.204902 0.400000 -0.000000
v -0.177450 0.400000 -0.102451
v -0.102451 0.400000 -0.177450
v 0.000000 0.000000 0.000000
v 0.000000 0.340317 -0.250000
v 0.000000 0.200000 -0.283010
v 0.000000 0.059683 -0.250000
v -0.125000 0.059683 -0.216506
v -0.141505 0.200000 -0.245094
v -0.125000 0.340317 -0.216506
v 0.125000 0.340317 -0.216506
v 0.141505 0.200000 -0.245094
v 0.125000 0.059683 -0.216506
v 0.250000 0.340317 0.000000
v 0.283011 0.200000 0.000000
v 0.250000 0.059683 0.000000
v 0.216507 0.059683 -0.125000
v 0.245095 0.200000 -0.141505
v 0.216507 0.340317 -0.125000
v -0.216506 0.059683 -0.125000
v -0.245094 0.200000 -0.141505
v -0.216506 0.340317 -0.125000
v -0.250000 0.059683 -0.000000
v -0.283010 0.200000 0.000000
v -0.250000 0.340317 -0.000000
v -0.216506 0.059683 0.125000
v -0.245094 0.200000 0.141505
v -0.216506 0.340317 0.125000
v -0.125000 0.059683 0.216506
v -0.141505 0.200000 0.245094
v -0.125000 0.340317 0.216506
v 0.000000 0.059683 0.250000
v 0.000000 0.200000 0.283011
v 0.000000 0.340317 0.250000
v 0.125000 0.059683 0.216506
v 0.141505 0.200000 0.245094
v 0.125000 0.340317 0.216506
v 0.216507 0.059683 0.125000
v 0.245094 0.200000 0.141505
v 0.216507 0.340317 0.125000
v 0.000000 0.440626 -0.239664
v 0.000000 0.509373 -0.239664
v 0.119832 0.509373 -0.207555
v 0.119832 0.440626 -0.207555
v 0.207555 0.509373 -0.119832
v 0.207555 0.440626 -0.119832
v 0.239664 0.509373 0.000000
v 0.239664 0.440626 0.000000
v 0.207555 0.509373 0.119832
v 0.207555 0.440626 0.119832
v 0.119832 0.509373 0.207555
v 0.119832 0.440626 0.207555
v 0.000000 0.509373 0.239664
v 0.000000 0.440626 0.239664
v -0.119832 0.509373 0.207555
v -0.119832 0.440626 0.207555
v -0.207555 0.509373 0.119832
v -0.207555 0.440626 0.119832
v -0.239664 0.509373 -0.000000
v -0.239664 0.440626 -0.000000
v -0.207555 0.509373 -0.119832
v -0.207555 0.440626 -0.119832
v -0.119832 0.509373 -0.207555
v -0.119832 0.440626 -0.207555
v 0.102451 0.550000 -0.177450
v 0.000000 0.550000 -0.204902
v 0.177450 0.550000 -0.102451
v 0.204902 0.550000 0.000000
v 0.177450 0.550000 0.102451
v 0.102451 0.550000 0.177450
v 0.000000 0.550000 0.204902
v -0.102451 0.550000 0.177450
v -0.177450 0.550000 0.102451
v -0.204902 0.550000 -0.000000
v -0.177450 0.550000 -0.102451
v -0.102451 0.550000 -0.177450
v 0.000000 0.000000 -0.204902
v 0.102451 0.000000 -0.177450
v 0.177450 0.000000 -0.102451
v 0.204902 0.000000 0.000000
v 0.177450 0.000000 0.102451
v 0.102451 0.000000 0.177450
v 0.000000 0.000000 0.204902
v -0.102451 0.000000 0.177450
v -0.177450 0.000000 0.102451
v -0.204902 0.000000 -0.000000
v -0.177450 0.000000 -0.102451
v -0.102451 0.000000 -0.177450
vt 0.813540 0.909825
vt 0.813540 0.920219
vt 0.827226 0.920219
vt 0.829548 0.909825
vt 0.837245 0.920219
vt 0.841266 0.909825
vt 0.840912 0.920219
vt 0.845556 0.909825
vt 0.837245 0.920219
vt 0.841266 0.909825
vt 0.827226 0.920219
vt 0.829548 0.909825
vt 0.813540 0.920219
vt 0.813540 0.909825
vt 0.799854 0.920219
vt 0.797532 0.909825
vt 0.789835 0.920219
vt 0.785813 0.909825
vt 0.786168 0.920219
vt 0.781524 0.909825
vt 0.789835 0.920219
vt 0.785813 0.909825
vt 0.799854 0.920219
vt 0.797532 0.909825
vt 0.671842 0.551058
vt 0.688540 0.551058
vt 0.688540 0.543085
vt 0.674854 0.543085
vt 0.705238 0.551058
vt 0.702226 0.543085
vt 0.717462 0.551058
vt 0.721936 0.551058
vt 0.715912 0.543085
vt 0.712245 0.543085
vt 0.659617 0.551058
vt 0.664835 0.543085
vt 0.655143 0.551058
vt 0.661168 0.543085
vt 0.659617 0.551058
vt 0.664835 0.543085
vt 0.671842 0.551058
vt 0.674854 0.543085
vt 0.688540 0.551058
vt 0.688540 0.543085
vt 0.705238 0.551058
vt 0.702226 0.543085
vt 0.717462 0.551058
vt 0.712245 0.543085
vt 0.715912 0.643394
vt 0.712245 0.643394
vt 0.717462 0.635421
vt 0.721936 0.635421
vt 0.721936 0.604171
vt 0.717462 0.604171
vt 0.721281 0.585427
vt 0.726346 0.585427
vt 0.717462 0.566683
vt 0.721936 0.566683
vt 0.702226 0.643394
vt 0.705238 0.635421
vt 0.705238 0.604171
vt 0.707443 0.585427
vt 0.705238 0.566683
vt 0.688540 0.643394
vt 0.688540 0.635421
vt 0.688540 0.604171
vt 0.688540 0.585427
vt 0.688540 0.566683
vt 0.674854 0.643394
vt 0.671842 0.635421
vt 0.671842 0.604171
vt 0.669637 0.585427
vt 0.671842 0.566683
vt 0.664835 0.643394
vt 0.659617 0.635421
vt 0.659617 0.604171
vt 0.655799 0.585427
vt 0.659617 0.566683
vt 0.661168 0.643394
vt 0.655143 0.635421
vt 0.655143 0.604171
vt 0.650734 0.585427
vt 0.655143 0.566683
vt 0.664835 0.643394
vt 0.659617 0.635421
vt 0.659617 0.604171
vt 0.655799 0.585427
vt 0.659617 0.566683
vt 0.702226 0.643394
vt 0.712245 0.643394
vt 0.717462 0.635421
vt 0.705238 0.635421
vt 0.705238 0.604171
vt 0.717462 0.604171
vt 0.721281 0.585427
vt 0.707443 0.585427
vt 0.717462 0.566683
vt 0.705238 0.566683
vt 0.674854 0.643394
vt 0.671842 0.635421
vt 0.671842 0.604171
vt 0.669637 0.585427
vt 0.671842 0.566683
vt 0.688540 0.643394
vt 0.688540 0.635421
vt 0.688540 0.604171
vt 0.688540 0.585427
vt 0.688540 0.566683
vt 0.799854 0.792063
vt 0.797532 0.802457
vt 0.813540 0.802457
vt 0.813540 0.792063
vt 0.797532 0.862309
vt 0.797532 0.879898
vt 0.813540 0.879898
vt 0.813540 0.862309
vt 0.789835 0.792063
vt 0.785813 0.802457
vt 0.785813 0.862309
vt 0.785813 0.879898
vt 0.786168 0.792063
vt 0.781524 0.802457
vt 0.781524 0.862309
vt 0.781524 0.879898
vt 0.789835 0.792063
vt 0.785813 0.802457
vt 0.785813 0.862309
vt 0.785813 0.879898
vt 0.799854 0.792063
vt 0.797532 0.802457
vt 0.797532 0.862309
vt 0.797532 0.879898
vt 0.813540 0.792063
vt 0.813540 0.802457
vt 0.813540 0.862309
vt 0.813540 0.879898
vt 0.827226 0.792063
vt 0.829548 0.802457
vt 0.829548 0.862309
vt 0.829548 0.879898
vt 0.837245 0.792063
vt 0.841266 0.802457
vt 0.841266 0.862309
vt 0.841266 0.879898
vt 0.840912 0.792063
vt 0.845556 0.802457
vt 0.845556 0.862309
vt 0.845556 0.879898
vt 0.837245 0.792063
vt 0.841266 0.802457
vt 0.841266 0.862309
vt 0.841266 0.879898
vt 0.827226 0.792063
vt 0.829548 0.802457
vt 0.829548 0.862309
vt 0.829548 0.879898
vt 0.813540 0.950145
vt 0.827226 0.950145
vt 0.813540 0.950145
vt 0.837245 0.950145
vt 0.840912 0.950145
vt 0.837245 0.950145
vt 0.827226 0.950145
vt 0.813540 0.950145
vt 0.799854 0.950145
vt 0.789835 0.950145
vt 0.786168 0.950145
vt 0.789835 0.950145
vt 0.799854 0.950145
vt 0.688540 0.527460
vt 0.688540 0.527460
vt 0.702226 0.527460
vt 0.712245 0.527460
vt 0.715912 0.527460
vt 0.712245 0.527460
vt 0.702226 0.527460
vt 0.688540 0.527460
vt 0.674854 0.527460
vt 0.664835 0.527460
vt 0.661168 0.527460
vt 0.664835 0.527460
vt 0.674854 0.527460
vn 0.0000 0.3293 -0.9442
vn -0.0000 0.6501 -0.7598
vn 0.3799 0.6501 -0.6580
vn 0.4721 0.3293 -0.8177
vn 0.6580 0.6501 -0.3799
vn 0.8177 0.3293 -0.4721
vn 0.7598 0.6501 0.0000
vn 0.9442 0.3293 0.0000
vn 0.6580 0.6501 0.3799
vn 0.8177 0.3293 0.4721
vn 0.3799 0.6501 0.6580
vn 0.4721 0.3293 0.8177
vn -0.0000 0.6501 0.7598
vn -0.0000 0.3293 0.9442
vn -0.3799 0.6501 0.6580
vn -0.4721 0.3293 0.8177
vn -0.6580 0.6501 0.3799
vn -0.8177 0.3293 0.4721
vn -0.7598 0.6501 0.0000
vn -0.9442 0.3293 0.0000
vn -0.6580 0.6501 -0.3799
vn -0.8177 0.3293 -0.4721
vn -0.3799 0.6501 -0.6580
vn -0.4721 0.3293 -0.8177
vn -0.4555 -0.4125 -0.7889
vn 0.0000 -0.4125 -0.9110
vn -0.0000 -0.6029 -0.7978
vn -0.3989 -0.6029 -0.6909
vn 0.4555 -0.4125 -0.7889
vn 0.3989 -0.6029 -0.6909
vn 0.7889 -0.4125 -0.4555
vn 0.9110 -0.4125 0.0000
vn 0.7978 -0.6029 0.0000
vn 0.6909 -0.6029 -0.3989
vn -0.7889 -0.4125 -0.4555
vn -0.6910 -0.6029 -0.3989
vn -0.9110 -0.4125 -0.0000
vn -0.7978 -0.6029 0.0000
vn -0.7889 -0.4125 0.4555
vn -0.6910 -0.6029 0.3989
vn -0.4555 -0.4125 0.7889
vn -0.3989 -0.6029 0.6909
vn 0.0000 -0.4125 0.9110
vn -0.0000 -0.6029 0.7978
vn 0.4555 -0.4125 0.7889
vn 0.3989 -0.6029 0.6909
vn 0.7889 -0.4125 0.4555
vn 0.6909 -0.6029 0.3989
vn 0.7978 0.6029 0.0000
vn 0.6909 0.6029 0.3989
vn 0.7889 0.4125 0.4555
vn 0.9110 0.4125 0.0000
vn 0.8660 -0.0000 0.5000
vn 1.0000 -0.0000 0.0000
vn 0.3989 0.6029 0.6909
vn 0.4555 0.4125 0.7889
vn 0.5000 -0.0000 0.8660
vn -0.0000 0.6029 0.7978
vn 0.0000 0.4125 0.9110
vn -0.0000 -0.0000 1.0000
vn -0.3989 0.6029 0.6909
vn -0.4555 0.4125 0.7889
vn -0.5000 -0.0000 0.8660
vn -0.6909 0.6029 0.3989
vn -0.7889 0.4125 0.4555
vn -0.8660 -0.0000 0.5000
vn -0.7978 0.6029 0.0000
vn -0.9110 0.4125 0.0000
vn -1.0000 -0.0000 0.0000
vn -0.6909 0.6029 -0.3989
vn -0.7889 0.4125 -0.4555
vn -0.8660 -0.0000 -0.5000
vn 0.3989 0.6029 -0.6909
vn 0.6909 0.6029 -0.3989
vn 0.7889 0.4125 -0.4555
vn 0.4555 0.4125 -0.7889
vn 0.8660 -0.0000 -0.5000
vn 0.5000 -0.0000 -0.8660
vn -0.3989 0.6029 -0.6909
vn -0.4555 0.4125 -0.7889
vn -0.5000 -0.0000 -0.8660
vn -0.0000 0.6029 -0.7978
vn 0.0000 0.4125 -0.9110
vn 0.0000 -0.0000 -1.0000
vn -0.3799 -0.6501 -0.6580
vn -0.4721 -0.3293 -0.8177
vn -0.0000 -0.3293 -0.9442
vn -0.0000 -0.6501 -0.7598
vn -0.6580 -0.6501 -0.3799
vn -0.8177 -0.3293 -0.4721
vn -0.7598 -0.6501 0.0000
vn -0.9442 -0.3293 0.0000
vn -0.6580 -0.6501 0.3799
vn -0.8177 -0.3293 0.4721
vn -0.3799 -0.6501 0.6580
vn -0.4721 -0.3293 0.8177
vn -0.0000 -0.6501 0.7598
vn 0.0000 -0.3293 0.9442
vn 0.3799 -0.6501 0.6580
vn 0.4721 -0.3293 0.8177
vn 0.6580 -0.6501 0.3799
vn 0.8177 -0.3293 0.4721
vn 0.7598 -0.6501 0.0000
vn 0.9442 -0.3293 0.0000
vn 0.6580 -0.6501 -0.3799
vn 0.8177 -0.3293 -0.4721
vn 0.3799 -0.6501 -0.6580
vn 0.4721 -0.3293 -0.8177
vn -0.0000 1.0000 -0.0000
vn 0.0000 -1.0000 -0.0000
usemtl restaurant
s 1
f 52/1/1 76/2/2 75/3/3 53/4/4
f 53/4/4 75/3/3 77/5/5 55/6/6
f 55/6/6 77/5/5 78/7/7 57/8/8
f 57/8/8 78/7/7 79/9/9 59/10/10
f 59/10/10 79/9/9 80/11/11 61/12/12
f 61/12/12 80/11/11 81/13/13 63/14/14
f 63/14/14 81/13/13 82/15/15 65/16/16
f 65/16/16 82/15/15 83/17/17 67/18/18
f 67/18/18 83/17/17 84/19/19 69/20/20
f 69/20/20 84/19/19 85/21/21 71/22/22
f 71/22/22 85/21/21 86/23/23 73/24/24
f 73/24/24 86/23/23 76/2/2 52/1/1
f 18/25/25 17/26/26 87/27/27 98/28/28
f 17/26/26 23/29/29 88/30/30 87/27/27
f 27/31/31 26/32/32 90/33/33 89/34/34
f 30/35/35 18/25/25 98/28/28 97/36/36
f 23/29/29 27/31/31 89/34/34 88/30/30
f 33/37/37 30/35/35 97/36/36 96/38/38
f 36/39/39 33/37/37 96/38/38 95/40/40
f 39/41/41 36/39/39 95/40/40 94/42/42
f 42/43/43 39/41/41 94/42/42 93/44/44
f 45/45/45 42/43/43 93/44/44 92/46/46
f 48/47/47 45/45/45 92/46/46 91/48/48
f 26/32/32 48/47/47 91/48/48 90/33/33
f 5/49/49 6/50/50 50/51/51 24/52/52
f 24/53/52 50/54/51 49/55/53 25/56/54
f 25/56/54 49/55/53 48/57/47 26/58/32
f 6/50/50 7/59/55 47/60/56 50/51/51
f 50/54/51 47/61/56 46/62/57 49/55/53
f 49/55/53 46/62/57 45/63/45 48/57/47
f 7/59/55 8/64/58 44/65/59 47/60/56
f 47/61/56 44/66/59 43/67/60 46/62/57
f 46/62/57 43/67/60 42/68/43 45/63/45
f 8/64/58 9/69/61 41/70/62 44/65/59
f 44/66/59 41/71/62 40/72/63 43/67/60
f 43/67/60 40/72/63 39/73/41 42/68/43
f 9/69/61 10/74/64 38/75/65 41/70/62
f 41/71/62 38/76/65 37/77/66 40/72/63
f 40/72/63 37/77/66 36/78/39 39/73/41
f 10/74/64 11/79/67 35/80/68 38/75/65
f 38/76/65 35/81/68 34/82/69 37/77/66
f 37/77/66 34/82/69 33/83/37 36/78/39
f 11/79/67 12/84/70 32/85/71 35/80/68
f 35/81/68 32/86/71 31/87/72 34/82/69
f 34/82/69 31/87/72 30/88/35 33/83/37
f 3/89/73 4/90/74 29/91/75 21/92/76
f 21/93/76 29/94/75 28/95/77 22/96/78
f 22/96/78 28/95/77 27/97/31 23/98/29
f 12/84/70 13/99/79 20/100/80 32/85/71
f 32/86/71 20/101/80 19/102/81 31/87/72
f 31/87/72 19/102/81 18/103/25 30/88/35
f 4/90/74 5/49/49 24/52/52 29/91/75
f 29/94/75 24/53/52 25/56/54 28/95/77
f 28/95/77 25/56/54 26/58/32 27/97/31
f 1/104/82 3/89/73 21/92/76 15/105/83
f 15/106/83 21/93/76 22/96/78 16/107/84
f 16/107/84 22/96/78 23/98/29 17/108/26
f 13/99/79 1/104/82 15/105/83 20/100/80
f 20/101/80 15/106/83 16/107/84 19/102/81
f 19/102/81 16/107/84 17/108/26 18/103/25
f 13/109/85 74/110/86 51/111/87 1/112/88
f 74/113/86 73/114/24 52/115/1 51/116/87
f 12/117/89 72/118/90 74/110/86 13/109/85
f 72/119/90 71/120/22 73/114/24 74/113/86
f 11/121/91 70/122/92 72/118/90 12/117/89
f 70/123/92 69/124/20 71/120/22 72/119/90
f 10/125/93 68/126/94 70/122/92 11/121/91
f 68/127/94 67/128/18 69/124/20 70/123/92
f 9/129/95 66/130/96 68/126/94 10/125/93
f 66/131/96 65/132/16 67/128/18 68/127/94
f 8/133/97 64/134/98 66/130/96 9/129/95
f 64/135/98 63/136/14 65/132/16 66/131/96
f 7/137/99 62/138/100 64/134/98 8/133/97
f 62/139/100 61/140/12 63/136/14 64/135/98
f 6/141/101 60/142/102 62/138/100 7/137/99
f 60/143/102 59/144/10 61/140/12 62/139/100
f 5/145/103 58/146/104 60/142/102 6/141/101
f 58/147/104 57/148/8 59/144/10 60/143/102
f 4/149/105 56/150/106 58/146/104 5/145/103
f 56/151/106 55/152/6 57/148/8 58/147/104
f 3/153/107 54/154/108 56/150/106 4/149/105
f 54/155/108 53/156/4 55/152/6 56/151/106
f 1/112/88 51/111/87 54/154/108 3/153/107
f 51/116/87 52/115/1 53/156/4 54/155/108
f 2/157/109 75/158/109 76/159/109
f 2/157/109 77/160/109 75/158/109
f 2/157/109 78/161/109 77/160/109
f 2/157/109 79/162/109 78/161/109
f 2/157/109 80/163/109 79/162/109
f 2/157/109 81/164/109 80/163/109
f 2/157/109 82/165/109 81/164/109
f 2/157/109 83/166/109 82/165/109
f 2/157/109 84/167/109 83/166/109
f 2/157/109 85/168/109 84/167/109
f 2/157/109 86/169/109 85/168/109
f 2/157/109 76/159/109 86/169/109
f 14/170/110 87/171/110 88/172/110
f 14/170/110 88/172/110 89/173/110
f 14/170/110 89/173/110 90/174/110
f 14/170/110 90/174/110 91/175/110
f 14/170/110 91/175/110 92/176/110
f 14/170/110 92/176/110 93/177/110
f 14/170/110 93/177/110 94/178/110
f 14/170/110 94/178/110 95/179/110
f 14/170/110 95/179/110 96/180/110
f 14/170/110 96/180/110 97/181/110
f 14/170/110 97/181/110 98/182/110
f 14/170/110 98/182/110 87/171/110
