# Blender v3.4.1 OBJ File: 'restaurant_bits_export.blend'
# www.blender.org
mtllib ketchup.mtl
o ketchup_Cylinder.157
v -0.000000 0.000000 0.000000
v 0.000000 0.050000 -0.150000
v 0.000000 0.560000 -0.097346
v 0.075000 0.050000 -0.129904
v 0.048673 0.560000 -0.084304
v 0.129904 0.050000 -0.075000
v 0.084304 0.560000 -0.048673
v 0.150000 0.050000 0.000000
v 0.097346 0.560000 0.000000
v 0.129904 0.050000 0.075000
v 0.084304 0.560000 0.048673
v 0.075000 0.050000 0.129904
v 0.048673 0.560000 0.084304
v -0.000000 0.050000 0.150000
v -0.000000 0.560000 0.097346
v -0.075000 0.050000 0.129904
v -0.048673 0.560000 0.084304
v -0.129904 0.050000 0.075000
v -0.084304 0.560000 0.048673
v -0.150000 0.050000 -0.000000
v -0.097346 0.560000 0.000000
v -0.129904 0.050000 -0.075000
v -0.084304 0.560000 -0.048673
v -0.075000 0.050000 -0.129904
v -0.048673 0.560000 -0.084304
v 0.000000 0.620000 -0.097346
v 0.000000 0.690000 -0.041137
v 0.020568 0.690000 -0.035625
v 0.048673 0.620000 -0.084304
v 0.035625 0.690000 -0.020568
v 0.084304 0.620000 -0.048673
v 0.041137 0.690000 0.000000
v 0.097346 0.620000 0.000000
v 0.035625 0.690000 0.020568
v 0.084304 0.620000 0.048673
v 0.020568 0.690000 0.035625
v 0.048673 0.620000 0.084304
v 0.000000 0.690000 0.041137
v 0.000000 0.620000 0.097346
v -0.020568 0.690000 0.035625
v -0.048673 0.620000 0.084304
v -0.035625 0.690000 0.020568
v -0.084304 0.620000 0.048673
v -0.041137 0.690000 -0.000000
v -0.097346 0.620000 0.000000
v -0.035625 0.690000 -0.020568
v -0.084304 0.620000 -0.048673
v -0.020568 0.690000 -0.035625
v -0.048673 0.620000 -0.084304
v 0.000000 0.778508 0.000000
v 0.000000 0.773101 -0.019474
v 0.009737 0.773101 -0.016865
v 0.016865 0.773101 -0.009737
v 0.019474 0.773101 0.000000
v 0.016865 0.773101 0.009737
v 0.009737 0.773101 0.016865
v 0.000000 0.773101 0.019474
v -0.009737 0.773101 0.016865
v -0.016865 0.773101 0.009737
v -0.019474 0.773101 0.000000
v -0.016865 0.773101 -0.009737
v -0.009737 0.773101 -0.016865
v 0.055418 0.000000 -0.095986
v -0.000000 0.000000 -0.110835
v 0.095986 0.000000 -0.055418
v 0.110835 0.000000 0.000000
v 0.095986 0.000000 0.055418
v 0.055418 0.000000 0.095986
v -0.000000 0.000000 0.110835
v -0.055418 0.000000 0.095986
v -0.095986 0.000000 0.055418
v -0.110835 0.000000 -0.000000
v -0.095986 0.000000 -0.055418
v -0.055418 0.000000 -0.095986
v 0.000000 0.533471 -0.150000
v 0.075000 0.533471 -0.129904
v 0.129904 0.533471 -0.075000
v 0.150000 0.533471 0.000000
v 0.129904 0.533471 0.075000
v 0.075000 0.533471 0.129904
v -0.000000 0.533471 0.150000
v -0.075000 0.533471 0.129904
v -0.129904 0.533471 0.075000
v -0.150000 0.533471 -0.000000
v -0.129904 0.533471 -0.075000
v -0.075000 0.533471 -0.129904
vt 0.934835 0.329767
vt 0.934835 0.371876
vt 0.946328 0.371876
vt 0.946328 0.329767
vt 0.946328 0.424218
vt 0.954742 0.424218
vt 0.947754 0.434485
vt 0.942294 0.434485
vt 0.934835 0.424218
vt 0.934835 0.434485
vt 0.923341 0.424218
vt 0.927376 0.434485
vt 0.914928 0.424218
vt 0.921915 0.434485
vt 0.911848 0.424218
vt 0.919917 0.434485
vt 0.914928 0.424218
vt 0.921915 0.434485
vt 0.923341 0.424218
vt 0.927376 0.434485
vt 0.934835 0.424218
vt 0.934835 0.434485
vt 0.957822 0.424218
vt 0.949753 0.434485
vt 0.949753 0.382143
vt 0.947754 0.382143
vt 0.947754 0.392410
vt 0.949753 0.392410
vt 0.954742 0.424218
vt 0.947754 0.434485
vt 0.934835 0.312320
vt 0.946328 0.312320
vt 0.943328 0.303764
vt 0.934835 0.303764
vt 0.954742 0.312320
vt 0.949544 0.303764
vt 0.954742 0.371876
vt 0.954742 0.329767
vt 0.957822 0.312320
vt 0.951820 0.303764
vt 0.957822 0.371876
vt 0.957822 0.329767
vt 0.954742 0.312320
vt 0.949544 0.303764
vt 0.954742 0.371876
vt 0.954742 0.329767
vt 0.946328 0.312320
vt 0.943328 0.303764
vt 0.946328 0.371876
vt 0.946328 0.329767
vt 0.934835 0.312320
vt 0.934835 0.303764
vt 0.934835 0.371876
vt 0.934835 0.329767
vt 0.923341 0.312320
vt 0.926342 0.303764
vt 0.923341 0.371876
vt 0.923341 0.329767
vt 0.914928 0.312320
vt 0.920125 0.303764
vt 0.914928 0.371876
vt 0.914928 0.329767
vt 0.911848 0.312320
vt 0.917850 0.303764
vt 0.911848 0.371876
vt 0.911848 0.329767
vt 0.914928 0.312320
vt 0.920125 0.303764
vt 0.914928 0.371876
vt 0.914928 0.329767
vt 0.923341 0.312320
vt 0.926342 0.303764
vt 0.923341 0.371876
vt 0.923341 0.329767
vt 0.934835 0.382143
vt 0.927376 0.382143
vt 0.927376 0.392410
vt 0.934835 0.392410
vt 0.942294 0.382143
vt 0.942294 0.392410
vt 0.927376 0.382143
vt 0.934835 0.382143
vt 0.934835 0.392410
vt 0.927376 0.392410
vt 0.921915 0.382143
vt 0.921915 0.392410
vt 0.931683 0.404388
vt 0.934835 0.404388
vt 0.934835 0.426634
vt 0.933889 0.426634
vt 0.942294 0.382143
vt 0.942294 0.392410
vt 0.919917 0.382143
vt 0.919917 0.392410
vt 0.947754 0.382143
vt 0.947754 0.392410
vt 0.921915 0.382143
vt 0.921915 0.392410
vt 0.937987 0.439283
vt 0.940294 0.439283
vt 0.947754 0.427305
vt 0.942294 0.427305
vt 0.941139 0.439283
vt 0.949753 0.427305
vt 0.940294 0.439283
vt 0.947754 0.427305
vt 0.937987 0.439283
vt 0.942294 0.427305
vt 0.934835 0.439283
vt 0.934835 0.427305
vt 0.931683 0.439283
vt 0.927376 0.427305
vt 0.929375 0.439283
vt 0.921915 0.427305
vt 0.928531 0.439283
vt 0.919917 0.427305
vt 0.929375 0.439283
vt 0.921915 0.427305
vt 0.931683 0.439283
vt 0.927376 0.427305
vt 0.934835 0.439283
vt 0.934835 0.427305
vt 0.940294 0.404388
vt 0.941139 0.404388
vt 0.936726 0.426634
vt 0.936473 0.426634
vt 0.931683 0.404388
vt 0.929375 0.404388
vt 0.933197 0.426634
vt 0.933889 0.426634
vt 0.937987 0.404388
vt 0.934835 0.404388
vt 0.934835 0.426634
vt 0.935781 0.426634
vt 0.929375 0.404388
vt 0.933197 0.426634
vt 0.937987 0.404388
vt 0.935781 0.426634
vt 0.940294 0.404388
vt 0.936473 0.426634
vt 0.928531 0.404388
vt 0.932944 0.426634
vt 0.934835 0.462024
vt 0.935781 0.461529
vt 0.934835 0.461529
vt 0.936473 0.461529
vt 0.936726 0.461529
vt 0.936473 0.461529
vt 0.935781 0.461529
vt 0.934835 0.461529
vt 0.933889 0.461529
vt 0.933197 0.461529
vt 0.932944 0.461529
vt 0.933197 0.461529
vt 0.933889 0.461529
vt 0.934835 0.286316
vt 0.934835 0.286316
vt 0.943328 0.286316
vt 0.949544 0.286316
vt 0.951820 0.286316
vt 0.949544 0.286316
vt 0.943328 0.286316
vt 0.934835 0.286316
vt 0.926342 0.286316
vt 0.920125 0.286316
vt 0.917850 0.286316
vt 0.920125 0.286316
vt 0.926342 0.286316
vt 0.946328 0.424218
vt 0.942294 0.434485
vn 0.0000 -0.3107 -0.9505
vn 0.0000 0.0000 -1.0000
vn 0.5000 0.0000 -0.8660
vn 0.4753 -0.3107 -0.8232
vn 0.2250 0.8931 0.3897
vn 0.3897 0.8931 0.2250
vn -0.0000 0.8931 0.4500
vn -0.2250 0.8931 0.3897
vn -0.3897 0.8931 0.2250
vn -0.4500 0.8931 0.0000
vn -0.3897 0.8931 -0.2250
vn -0.2250 0.8931 -0.3897
vn 0.0000 0.8931 -0.4500
vn 0.4500 0.8931 0.0000
vn 1.0000 -0.0000 0.0000
vn 0.8660 -0.0000 -0.5000
vn 0.3897 0.8931 -0.2250
vn 0.3936 -0.6166 -0.6818
vn -0.0000 -0.6166 -0.7872
vn 0.8232 -0.3107 -0.4753
vn 0.6818 -0.6166 -0.3936
vn 0.9505 -0.3107 0.0000
vn 0.7872 -0.6166 0.0000
vn 0.8232 -0.3107 0.4753
vn 0.6818 -0.6166 0.3936
vn 0.8660 0.0000 0.5000
vn 0.4753 -0.3107 0.8232
vn 0.3936 -0.6166 0.6818
vn 0.5000 0.0000 0.8660
vn -0.0000 -0.3107 0.9505
vn -0.0000 -0.6166 0.7872
vn -0.0000 0.0000 1.0000
vn -0.4753 -0.3107 0.8232
vn -0.3936 -0.6166 0.6818
vn -0.5000 0.0000 0.8660
vn -0.8232 -0.3107 0.4753
vn -0.6818 -0.6166 0.3936
vn -0.8660 0.0000 0.5000
vn -0.9505 -0.3107 0.0000
vn -0.7872 -0.6166 0.0000
vn -1.0000 0.0000 0.0000
vn -0.8232 -0.3107 -0.4753
vn -0.6818 -0.6166 -0.3936
vn -0.8660 0.0000 -0.5000
vn -0.4753 -0.3107 -0.8232
vn -0.3936 -0.6166 -0.6818
vn -0.5000 0.0000 -0.8660
vn -0.4838 0.2522 0.8380
vn -0.0000 0.2522 0.9677
vn 0.3899 0.6261 -0.6753
vn 0.6753 0.6261 -0.3899
vn 0.7797 0.6261 -0.0000
vn 0.6753 0.6261 0.3899
vn 0.3899 0.6261 0.6753
vn -0.0000 0.6261 0.7797
vn -0.3899 0.6261 0.6753
vn -0.6753 0.6261 0.3899
vn -0.7797 0.6261 0.0000
vn -0.6753 0.6261 -0.3899
vn -0.3899 0.6261 -0.6753
vn -0.0000 0.6261 -0.7797
vn 0.8380 0.2522 0.4838
vn 0.9677 0.2522 0.0000
vn -0.4838 0.2522 -0.8380
vn -0.8380 0.2522 -0.4838
vn 0.4838 0.2522 -0.8380
vn -0.0000 0.2522 -0.9677
vn -0.8380 0.2522 0.4838
vn 0.4838 0.2522 0.8380
vn 0.8380 0.2522 -0.4838
vn -0.9677 0.2522 0.0000
vn 0.0000 1.0000 0.0000
vn 0.1338 0.9636 -0.2317
vn -0.0000 0.9636 -0.2675
vn 0.2317 0.9636 -0.1338
vn 0.2675 0.9636 -0.0000
vn 0.2317 0.9636 0.1338
vn 0.1338 0.9636 0.2317
vn -0.0000 0.9636 0.2675
vn -0.1338 0.9636 0.2317
vn -0.2317 0.9636 0.1338
vn -0.2675 0.9636 -0.0000
vn -0.2317 0.9636 -0.1338
vn -0.1338 0.9636 -0.2317
vn 0.0000 -1.0000 0.0000
vn 0.2250 0.8931 -0.3897
usemtl restaurant
s 1
f 2/1/1 75/2/2 76/3/3 4/4/4
f 80/5/5 79/6/6 11/7/6 13/8/5
f 81/9/7 80/5/5 13/8/5 15/10/7
f 82/11/8 81/9/7 15/10/7 17/12/8
f 83/13/9 82/11/8 17/12/8 19/14/9
f 84/15/10 83/13/9 19/14/9 21/16/10
f 85/17/11 84/15/10 21/16/10 23/18/11
f 86/19/12 85/17/11 23/18/11 25/20/12
f 75/21/13 86/19/12 25/20/12 3/22/13
f 79/6/6 78/23/14 9/24/14 11/7/6
f 9/25/15 7/26/16 31/27/16 33/28/15
f 78/23/14 77/29/17 7/30/17 9/24/14
f 2/31/1 4/32/4 63/33/18 64/34/19
f 4/32/4 6/35/20 65/36/21 63/33/18
f 4/4/4 76/3/3 77/37/16 6/38/20
f 6/35/20 8/39/22 66/40/23 65/36/21
f 6/38/20 77/37/16 78/41/15 8/42/22
f 8/39/22 10/43/24 67/44/25 66/40/23
f 8/42/22 78/41/15 79/45/26 10/46/24
f 10/43/24 12/47/27 68/48/28 67/44/25
f 10/46/24 79/45/26 80/49/29 12/50/27
f 12/47/27 14/51/30 69/52/31 68/48/28
f 12/50/27 80/49/29 81/53/32 14/54/30
f 14/51/30 16/55/33 70/56/34 69/52/31
f 14/54/30 81/53/32 82/57/35 16/58/33
f 16/55/33 18/59/36 71/60/37 70/56/34
f 16/58/33 82/57/35 83/61/38 18/62/36
f 18/59/36 20/63/39 72/64/40 71/60/37
f 18/62/36 83/61/38 84/65/41 20/66/39
f 20/63/39 22/67/42 73/68/43 72/64/40
f 20/66/39 84/65/41 85/69/44 22/70/42
f 22/67/42 24/71/45 74/72/46 73/68/43
f 22/70/42 85/69/44 86/73/47 24/74/45
f 24/71/45 2/31/1 64/34/19 74/72/46
f 24/74/45 86/73/47 75/2/2 2/1/1
f 3/75/2 25/76/47 49/77/47 26/78/2
f 7/26/16 5/79/3 29/80/3 31/27/16
f 17/81/35 15/82/32 39/83/32 41/84/35
f 25/76/47 23/85/44 47/86/44 49/77/47
f 40/87/48 38/88/49 57/89/49 58/90/48
f 15/82/32 13/91/29 37/92/29 39/83/32
f 23/85/44 21/93/41 45/94/41 47/86/44
f 13/91/29 11/95/26 35/96/26 37/92/29
f 21/93/41 19/97/38 43/98/38 45/94/41
f 11/95/26 9/25/15 33/28/15 35/96/26
f 19/97/38 17/81/35 41/84/35 43/98/38
f 28/99/50 30/100/51 31/101/51 29/102/50
f 30/100/51 32/103/52 33/104/52 31/101/51
f 32/103/52 34/105/53 35/106/53 33/104/52
f 34/105/53 36/107/54 37/108/54 35/106/53
f 36/107/54 38/109/55 39/110/55 37/108/54
f 38/109/55 40/111/56 41/112/56 39/110/55
f 40/111/56 42/113/57 43/114/57 41/112/56
f 42/113/57 44/115/58 45/116/58 43/114/57
f 44/115/58 46/117/59 47/118/59 45/116/58
f 46/117/59 48/119/60 49/120/60 47/118/59
f 48/119/60 27/121/61 26/122/61 49/120/60
f 5/79/3 3/75/2 26/78/2 29/80/3
f 34/123/62 32/124/63 54/125/63 55/126/62
f 48/127/64 46/128/65 61/129/65 62/130/64
f 28/131/66 27/132/67 51/133/67 52/134/66
f 42/135/68 40/87/48 58/90/48 59/136/68
f 36/137/69 34/123/62 55/126/62 56/138/69
f 27/132/67 48/127/64 62/130/64 51/133/67
f 30/139/70 28/131/66 52/134/66 53/140/70
f 44/141/71 42/135/68 59/136/68 60/142/71
f 38/88/49 36/137/69 56/138/69 57/89/49
f 32/124/63 30/139/70 53/140/70 54/125/63
f 46/128/65 44/141/71 60/142/71 61/129/65
f 27/121/61 28/99/50 29/102/50 26/122/61
f 50/143/72 52/144/73 51/145/74
f 50/143/72 53/146/75 52/144/73
f 50/143/72 54/147/76 53/146/75
f 50/143/72 55/148/77 54/147/76
f 50/143/72 56/149/78 55/148/77
f 50/143/72 57/150/79 56/149/78
f 50/143/72 58/151/80 57/150/79
f 50/143/72 59/152/81 58/151/80
f 50/143/72 60/153/82 59/152/81
f 50/143/72 61/154/83 60/153/82
f 50/143/72 62/155/84 61/154/83
f 50/143/72 51/145/74 62/155/84
f 1/156/85 64/157/85 63/158/85
f 1/156/85 63/158/85 65/159/85
f 1/156/85 65/159/85 66/160/85
f 1/156/85 66/160/85 67/161/85
f 1/156/85 67/161/85 68/162/85
f 1/156/85 68/162/85 69/163/85
f 1/156/85 69/163/85 70/164/85
f 1/156/85 70/164/85 71/165/85
f 1/156/85 71/165/85 72/166/85
f 1/156/85 72/166/85 73/167/85
f 1/156/85 73/167/85 74/168/85
f 1/156/85 74/168/85 64/157/85
f 77/29/17 76/169/86 5/170/86 7/30/17
f 75/21/13 3/22/13 5/170/86 76/169/86
