# Blender v3.4.1 OBJ File: 'restaurant_bits_export.blend'
# www.blender.org
mtllib kitchencounter_innercorner_backsplash.mtl
o kitchencounter_innercorner_backsplash_Cube.899
v -1.000000 0.000000 0.800000
v -1.000000 0.800000 0.800000
v -1.000000 0.000000 -1.000000
v -1.000000 0.800000 -1.000000
v 1.000000 0.000000 -1.000000
v 1.000000 0.800000 -1.000000
v -1.000000 1.000000 0.950000
v -0.950000 1.000000 1.000000
v -0.800000 0.800000 1.000000
v -0.800000 0.000000 1.000000
v -0.800000 0.000000 0.800000
v -0.800000 0.800000 0.800000
v 1.000000 0.000000 1.000000
v 1.000000 0.800000 1.000000
v 0.800000 1.000000 1.000000
v -1.000000 1.000000 -0.800000
v 0.800000 1.000000 -0.800000
v -1.000000 1.200000 -1.000000
v 1.000000 1.200000 -1.000000
v 1.000000 1.200000 1.000000
v -1.000000 1.150000 -0.800000
v -1.000000 1.200000 -0.850000
v 0.850000 1.200000 1.000000
v 0.800000 1.150000 1.000000
v 0.850000 1.200000 -0.850000
v 0.800000 1.150000 -0.800000
v -1.000000 0.950000 1.000000
v -1.000000 0.850000 1.000000
v -1.000000 0.800000 0.950000
v -0.950000 0.800000 1.000000
vt 0.935202 0.018634
vt 0.971048 0.018634
vt 0.938787 0.018634
vt 0.935202 0.116593
vt 0.971048 0.116593
vt 0.971048 0.049884
vt 0.935202 0.049884
vt 0.938787 0.034259
vt 0.938787 0.100968
vt 0.935202 0.116593
vt 0.935202 0.049884
vt 0.971048 0.116593
vt 0.971048 0.049884
vt 0.821988 0.116593
vt 0.821988 0.133271
vt 0.821988 0.149948
vt 0.938787 0.116593
vt 0.938787 0.049884
vt 0.938787 0.049884
vt 0.938787 0.116593
vt 0.821988 0.164521
vt 0.821988 0.164521
vt 0.822676 0.164521
vt 0.846765 0.164521
vt 0.821988 0.133271
vt 0.821988 0.116593
vt 0.821988 0.120763
vt 0.821988 0.129102
vt 0.821988 0.116593
vt 0.821988 0.085343
vt 0.824741 0.085343
vt 0.824741 0.085343
vt 0.846765 0.133271
vt 0.822676 0.133271
vt 0.824741 0.116593
vt 0.849518 0.116593
vt 0.846765 0.145779
vt 0.849518 0.149948
vt 0.847453 0.149948
vt 0.849518 0.181198
vt 0.821988 0.181198
vt 0.821988 0.181198
vt 0.847453 0.181198
vt 0.846765 0.161404
vt 0.846765 0.161404
vt 0.847453 0.165573
vt 0.847453 0.165573
vt 0.971048 0.018634
vt 0.938787 0.018634
vt 0.849518 0.149948
vt 0.849518 0.116593
vt 0.849518 0.181198
vt 0.847453 0.181198
vt 0.846765 0.164521
vt 0.935202 0.018634
vt 0.846765 0.133271
vt 0.846765 0.145779
vt 0.821988 0.161404
vt 0.821988 0.165573
vt 0.821988 0.145779
vt 0.821988 0.148896
vt 0.821988 0.144727
vt 0.822676 0.148896
vt 0.821988 0.105138
vt 0.821988 0.100968
vt 0.822676 0.100968
vt 0.822676 0.116593
vt 0.821988 0.085343
vt 0.822676 0.085343
vt 0.821988 0.149948
vn 0.0000 -1.0000 0.0000
vn 0.0000 0.0000 -1.0000
vn 0.0000 0.0000 1.0000
vn 1.0000 0.0000 0.0000
vn -1.0000 -0.0000 0.0000
vn 0.0000 1.0000 0.0000
vn 0.0000 0.9239 0.3827
vn -0.1101 0.9878 0.1101
vn -0.7071 0.7071 0.0000
vn -0.3827 0.9239 0.0000
vn 0.0000 0.7071 0.7071
vn -0.5774 0.5774 0.5774
vn -0.5773 -0.5773 0.5774
usemtl restaurant
s 1
f 3/1/1 5/2/1 11/3/1
f 4/4/2 6/5/2 5/6/2 3/7/2
f 11/8/3 12/9/3 2/10/3 1/11/3
f 14/12/4 13/13/4 5/6/4 6/5/4
f 4/14/5 16/15/5 18/16/5
f 12/17/5 11/18/5 10/19/5 9/20/5
f 16/21/6 7/22/6 8/23/6 15/24/6
f 13/13/3 14/12/3 9/20/3 10/19/3
f 7/25/5 29/26/5 28/27/5 27/28/5
f 4/14/5 2/29/5 7/25/5 16/15/5
f 2/30/1 12/31/1 9/32/1
f 15/33/3 8/34/3 9/35/3 14/36/3
f 24/37/3 15/33/3 20/38/3 23/39/3
f 19/40/6 18/41/6 22/42/7 25/43/8
f 26/44/9 24/45/9 23/46/10 25/47/8
f 13/48/1 10/49/1 11/3/1
f 4/14/2 18/16/2 19/50/2 6/51/2
f 20/52/6 19/40/6 25/43/8 23/53/10
f 1/11/5 2/10/5 4/4/5 3/7/5
f 5/2/1 13/48/1 11/3/1
f 17/54/6 16/21/6 15/24/6
f 14/36/4 6/51/4 19/50/4 20/38/4
f 1/55/1 3/1/1 11/3/1
f 17/56/5 15/33/5 24/37/5 26/57/5
f 21/58/11 26/44/11 25/47/8 22/59/7
f 16/15/3 17/56/3 26/57/3 21/60/3
f 7/61/12 27/62/12 8/63/12
f 28/64/13 29/65/13 30/66/13
f 30/67/3 9/35/3 8/34/3
f 29/68/1 2/30/1 9/32/1 30/69/1
f 7/25/5 2/29/5 29/26/5
f 28/27/3 30/67/3 8/34/3 27/28/3
f 16/15/5 21/60/5 22/70/5 18/16/5
f 15/33/3 14/36/3 20/38/3
