# Blender v3.4.1 OBJ File: 'restaurant_bits_export.blend'
# www.blender.org
mtllib kitchencounter_straight_A_backsplash.mtl
o kitchencounter_straight_A_backsplash_Cube.894
v -1.000000 0.000000 0.800000
v -1.000000 0.800000 0.800000
v -1.000000 0.000000 -1.000000
v -1.000000 0.800000 -1.000000
v 1.000000 0.000000 0.800000
v 1.000000 0.800000 0.800000
v 1.000000 0.000000 -1.000000
v 1.000000 0.800000 -1.000000
v -1.000000 1.000000 0.950000
v 1.000000 1.000000 0.950000
v -1.000000 1.000000 -0.800000
v 1.000000 1.000000 -0.800000
v -1.000000 1.200000 -1.000000
v 1.000000 1.200000 -1.000000
v 1.000000 0.950000 1.000000
v -1.000000 0.950000 1.000000
v -1.000000 1.150000 -0.800000
v -1.000000 1.200000 -0.850000
v 1.000000 1.200000 -0.850000
v 1.000000 1.150000 -0.800000
v 1.000000 0.850000 1.000000
v 1.000000 0.800000 0.950000
v -1.000000 0.800000 0.950000
v -1.000000 0.850000 1.000000
v -0.860000 0.100000 0.910000
v -0.860000 0.140000 0.950000
v -0.900000 0.140000 0.910000
v -0.860000 0.360000 0.950000
v -0.860000 0.400000 0.910000
v -0.900000 0.360000 0.910000
v -0.860000 0.100000 0.750000
v -0.900000 0.140000 0.750000
v -0.900000 0.360000 0.750000
v -0.860000 0.400000 0.750000
v 0.860000 0.100000 0.910000
v 0.900000 0.140000 0.910000
v 0.860000 0.140000 0.950000
v 0.860000 0.400000 0.910000
v 0.860000 0.360000 0.950000
v 0.900000 0.360000 0.910000
v 0.900000 0.140000 0.750000
v 0.860000 0.100000 0.750000
v 0.860000 0.400000 0.750000
v 0.900000 0.360000 0.750000
v -0.860000 0.440000 0.950000
v -0.900000 0.440000 0.910000
v -0.860000 0.660000 0.950000
v -0.860000 0.700000 0.910000
v -0.900000 0.660000 0.910000
v -0.900000 0.440000 0.750000
v -0.900000 0.660000 0.750000
v -0.860000 0.700000 0.750000
v 0.900000 0.440000 0.910000
v 0.860000 0.440000 0.950000
v 0.860000 0.700000 0.910000
v 0.860000 0.660000 0.950000
v 0.900000 0.660000 0.910000
v 0.900000 0.440000 0.750000
v 0.860000 0.700000 0.750000
v 0.900000 0.660000 0.750000
v -0.000000 0.550000 1.041903
v -0.053977 0.603978 0.986796
v -0.076335 0.550001 0.986796
v -0.053977 0.496024 0.986796
v 0.000000 0.473666 0.986796
v 0.053977 0.496024 0.986796
v 0.076336 0.550001 0.986796
v 0.053977 0.603978 0.986796
v 0.000000 0.626336 0.986796
v -0.041759 0.591758 1.024086
v -0.041759 0.591758 0.949506
v -0.059056 0.550000 1.024086
v -0.059056 0.550000 0.949506
v -0.041759 0.508241 1.024086
v -0.041759 0.508241 0.949506
v -0.000000 0.490944 1.024086
v -0.000000 0.490944 0.949506
v 0.041758 0.508241 1.024086
v 0.041758 0.508241 0.949506
v 0.059056 0.550000 1.024086
v 0.059056 0.550000 0.949506
v 0.041758 0.591758 1.024086
v 0.041758 0.591758 0.949506
v -0.000000 0.609055 1.024086
v -0.000000 0.609055 0.949506
v -0.000000 0.250000 1.041903
v -0.053977 0.303978 0.986796
v -0.076335 0.250001 0.986796
v -0.053977 0.196024 0.986796
v 0.000000 0.173666 0.986796
v 0.053977 0.196024 0.986796
v 0.076336 0.250001 0.986796
v 0.053977 0.303978 0.986796
v 0.000000 0.326336 0.986796
v -0.041759 0.291758 1.024086
v -0.041759 0.291758 0.949506
v -0.059056 0.250000 1.024086
v -0.059056 0.250000 0.949506
v -0.041759 0.208241 1.024086
v -0.041759 0.208241 0.949506
v -0.000000 0.190944 1.024086
v -0.000000 0.190944 0.949506
v 0.041758 0.208241 1.024086
v 0.041758 0.208241 0.949506
v 0.059056 0.250000 1.024086
v 0.059056 0.250000 0.949506
v 0.041758 0.291758 1.024086
v 0.041758 0.291758 0.949506
v -0.000000 0.309055 1.024086
v -0.000000 0.309055 0.949506
vt 0.935202 0.049884
vt 0.935202 0.116593
vt 0.971048 0.116593
vt 0.971048 0.049884
vt 0.971048 0.116593
vt 0.971048 0.049884
vt 0.935202 0.116593
vt 0.935202 0.049884
vt 0.849518 0.164521
vt 0.821988 0.164521
vt 0.821988 0.164521
vt 0.849518 0.164521
vt 0.821988 0.116593
vt 0.821988 0.116593
vt 0.821988 0.133271
vt 0.821988 0.133271
vt 0.849518 0.116593
vt 0.849518 0.149948
vt 0.849518 0.133271
vt 0.821988 0.120763
vt 0.849518 0.120763
vt 0.849518 0.129102
vt 0.821988 0.129102
vt 0.821988 0.116593
vt 0.849518 0.133271
vt 0.849518 0.116593
vt 0.821988 0.145779
vt 0.821988 0.149948
vt 0.821988 0.149948
vt 0.849518 0.116593
vt 0.849518 0.145779
vt 0.849518 0.181198
vt 0.821988 0.181198
vt 0.821988 0.181198
vt 0.849518 0.181198
vt 0.849518 0.148896
vt 0.821988 0.148896
vt 0.821988 0.144727
vt 0.849518 0.144727
vt 0.821988 0.161404
vt 0.849518 0.161404
vt 0.849518 0.165573
vt 0.821988 0.165573
vt 0.849518 0.105138
vt 0.821988 0.105138
vt 0.821988 0.100968
vt 0.849518 0.100968
vt 0.821988 0.085343
vt 0.849518 0.085343
vt 0.849518 0.085343
vt 0.821988 0.085343
vt 0.935202 0.018634
vt 0.971048 0.018634
vt 0.971048 0.018634
vt 0.935202 0.018634
vt 0.667878 0.092808
vt 0.667878 0.111153
vt 0.646665 0.111153
vt 0.646665 0.092808
vt 0.646171 0.077183
vt 0.646171 0.095528
vt 0.646171 0.095528
vt 0.646171 0.077183
vt 0.668371 0.077183
vt 0.668371 0.095528
vt 0.668371 0.095528
vt 0.668371 0.077183
vt 0.646665 0.058223
vt 0.646665 0.061558
vt 0.646171 0.061558
vt 0.646665 0.142403
vt 0.646665 0.145739
vt 0.646171 0.142403
vt 0.667878 0.058223
vt 0.668371 0.061558
vt 0.667878 0.061558
vt 0.667878 0.145739
vt 0.667878 0.142403
vt 0.668371 0.142403
vt 0.646665 0.042598
vt 0.646665 0.042598
vt 0.646171 0.045933
vt 0.646171 0.045933
vt 0.646171 0.111153
vt 0.646171 0.092808
vt 0.646665 0.130114
vt 0.646665 0.130114
vt 0.646171 0.126778
vt 0.646171 0.126778
vt 0.667878 0.042598
vt 0.667878 0.042598
vt 0.668371 0.045933
vt 0.668371 0.045933
vt 0.667878 0.130114
vt 0.667878 0.130114
vt 0.668371 0.126778
vt 0.668371 0.126778
vt 0.668371 0.092808
vt 0.668371 0.111153
vt 0.667878 0.117824
vt 0.667878 0.136169
vt 0.646665 0.136169
vt 0.646665 0.117824
vt 0.667878 0.155130
vt 0.646665 0.155130
vt 0.646665 0.155130
vt 0.667878 0.155130
vt 0.646171 0.102199
vt 0.646171 0.120544
vt 0.646171 0.120544
vt 0.646171 0.102199
vt 0.668371 0.102199
vt 0.668371 0.120544
vt 0.668371 0.120544
vt 0.668371 0.102199
vt 0.646665 0.083239
vt 0.646665 0.086574
vt 0.646171 0.086574
vt 0.646665 0.167419
vt 0.646665 0.170755
vt 0.646171 0.167419
vt 0.667878 0.083239
vt 0.668371 0.086574
vt 0.667878 0.086574
vt 0.667878 0.170755
vt 0.667878 0.167419
vt 0.668371 0.167419
vt 0.646665 0.067614
vt 0.646665 0.067614
vt 0.646171 0.070949
vt 0.646171 0.070949
vt 0.646171 0.136169
vt 0.646171 0.117824
vt 0.646171 0.151794
vt 0.646171 0.151794
vt 0.667878 0.067614
vt 0.667878 0.067614
vt 0.668371 0.070949
vt 0.668371 0.070949
vt 0.668371 0.151794
vt 0.668371 0.151794
vt 0.668371 0.117824
vt 0.668371 0.136169
vt 0.849518 0.149948
vt 0.798466 0.130479
vt 0.796875 0.131921
vt 0.796875 0.111372
vt 0.798466 0.099229
vt 0.798932 0.100248
vt 0.799784 0.080122
vt 0.799125 0.080122
vt 0.794625 0.080122
vt 0.793966 0.080122
vt 0.794818 0.100248
vt 0.795284 0.099229
vt 0.796875 0.059572
vt 0.796875 0.058131
vt 0.794818 0.059996
vt 0.795284 0.061015
vt 0.799784 0.095747
vt 0.799125 0.111372
vt 0.798466 0.092265
vt 0.798932 0.075621
vt 0.796875 0.117737
vt 0.798932 0.115873
vt 0.794818 0.075621
vt 0.795284 0.092265
vt 0.794625 0.111372
vt 0.793966 0.095747
vt 0.794818 0.115873
vt 0.795284 0.130479
vt 0.796875 0.073756
vt 0.796875 0.090822
vt 0.796875 0.100671
vt 0.796875 0.102112
vt 0.798466 0.061015
vt 0.798932 0.059996
vt 0.798466 0.130479
vt 0.796875 0.131921
vt 0.796875 0.111372
vt 0.798466 0.099229
vt 0.798932 0.100248
vt 0.799784 0.080122
vt 0.799125 0.080122
vt 0.794625 0.080122
vt 0.793966 0.080122
vt 0.794818 0.100248
vt 0.795284 0.099229
vt 0.796875 0.059572
vt 0.796875 0.058131
vt 0.794818 0.059996
vt 0.795284 0.061015
vt 0.799784 0.095747
vt 0.799125 0.111372
vt 0.798466 0.092265
vt 0.798932 0.075621
vt 0.796875 0.117737
vt 0.798932 0.115873
vt 0.794818 0.075621
vt 0.795284 0.092265
vt 0.794625 0.111372
vt 0.793966 0.095747
vt 0.794818 0.115873
vt 0.795284 0.130479
vt 0.796875 0.073756
vt 0.796875 0.090822
vt 0.796875 0.100671
vt 0.796875 0.102112
vt 0.798466 0.061015
vt 0.798932 0.059996
vn 0.0000 0.0000 -1.0000
vn 1.0000 0.0000 0.0000
vn 0.0000 0.0000 1.0000
vn 0.0000 1.0000 0.0000
vn -1.0000 -0.0000 0.0000
vn 0.0000 -0.3827 0.9239
vn 0.0000 0.3827 0.9239
vn 0.0000 0.9239 0.3827
vn 0.0000 0.7071 0.7071
vn 0.0000 -0.9239 0.3827
vn 0.0000 -1.0000 0.0000
vn 0.3416 -0.3416 0.8756
vn 0.3416 0.3416 0.8756
vn -0.3416 -0.3416 0.8756
vn -0.8756 -0.3416 0.3416
vn -0.8756 0.3416 0.3416
vn -0.9239 0.3827 0.0000
vn -0.9239 -0.3827 0.0000
vn -0.4606 -0.7588 0.4606
vn -0.4606 0.4606 0.7588
vn -0.4606 0.7588 0.4606
vn 0.3416 -0.8756 0.3416
vn 0.7588 -0.4606 0.4606
vn 0.4606 0.7588 0.4606
vn 0.7588 0.4606 0.4606
vn -0.7071 -0.7071 0.0000
vn -0.7071 0.7071 0.0000
vn 0.3827 -0.9239 0.0000
vn 0.7071 -0.7071 0.0000
vn 0.7071 0.7071 0.0000
vn -0.3416 0.3416 0.8756
vn 0.3827 0.9239 0.0000
vn 0.3416 0.8756 0.3416
vn 0.9239 -0.3827 0.0000
vn 0.8756 -0.3416 0.3416
vn 0.4606 -0.7588 0.4606
vn 0.2042 0.2042 0.9574
vn 0.0000 0.2888 0.9574
vn 0.6416 0.6416 -0.4205
vn 0.9073 0.0000 -0.4204
vn -0.9073 -0.0000 -0.4204
vn -0.6416 0.6416 -0.4204
vn -0.0000 -0.9073 -0.4204
vn -0.6416 -0.6416 -0.4204
vn 0.9073 0.0000 0.4204
vn 0.6416 -0.6416 0.4204
vn 0.0000 0.9073 0.4205
vn 0.6416 0.6416 0.4205
vn -0.6416 -0.6416 0.4204
vn -0.9073 -0.0000 0.4204
vn -0.6416 0.6416 0.4204
vn 0.0000 -0.9073 0.4204
vn -0.0000 0.9073 -0.4205
vn -0.2042 0.2042 0.9574
vn 0.6416 -0.6416 -0.4204
vn 0.2042 -0.2042 0.9574
vn 0.2888 0.0000 0.9574
vn -0.2042 -0.2042 0.9574
vn -0.0000 -0.2888 0.9574
vn -0.2888 0.0000 0.9574
usemtl restaurant
s 1
f 3/1/1 4/2/1 8/3/1 7/4/1
f 8/3/2 6/5/2 5/6/2
f 5/6/3 6/5/3 2/7/3 1/8/3
f 7/4/2 8/3/2 5/6/2
f 12/9/4 11/10/4 9/11/4 10/12/4
f 4/13/5 2/14/5 9/15/5 11/16/5
f 8/17/2 14/18/2 12/19/2
f 24/20/6 21/21/6 15/22/7 16/23/7
f 9/15/5 2/14/5 23/24/5
f 10/25/2 15/22/2 21/21/2 22/26/2
f 11/16/5 17/27/5 18/28/5 13/29/5
f 6/30/2 8/17/2 12/19/2 10/25/2
f 1/8/5 2/7/5 4/2/5
f 11/16/3 12/19/3 20/31/3 17/27/3
f 14/32/4 13/33/4 18/34/8 19/35/8
f 10/36/9 9/37/9 16/38/7 15/39/7
f 17/40/9 20/41/9 19/42/8 18/43/8
f 6/30/2 10/25/2 22/26/2
f 21/44/6 24/45/6 23/46/10 22/47/10
f 2/48/11 6/49/11 22/50/10 23/51/10
f 1/8/5 4/2/5 3/1/5
f 3/52/11 7/53/11 5/54/11 1/55/11
f 37/56/12 39/57/13 28/58/3 26/59/14
f 27/60/15 30/61/16 33/62/17 32/63/18
f 41/64/2 44/65/2 40/66/2 36/67/2
f 25/68/19 26/69/14 27/70/15
f 28/71/20 29/72/21 30/73/16
f 35/74/22 36/75/23 37/76/12
f 38/77/24 39/78/13 40/79/25
f 31/80/26 25/81/19 27/82/15 32/83/18
f 26/59/14 28/58/20 30/84/16 27/85/15
f 29/86/21 34/87/27 33/88/17 30/89/16
f 35/90/22 42/91/28 41/92/29 36/93/23
f 43/94/30 38/95/24 40/96/25 44/97/30
f 39/57/13 37/56/12 36/98/23 40/99/25
f 25/68/19 35/74/22 37/76/12 26/69/14
f 38/77/24 29/72/21 28/71/20 39/78/13
f 31/80/11 42/91/28 35/90/22 25/81/11
f 54/100/12 56/101/13 47/102/31 45/103/14
f 59/104/32 52/105/4 48/106/4 55/107/33
f 46/108/15 49/109/16 51/110/17 50/111/18
f 58/112/34 60/113/2 57/114/2 53/115/35
f 29/116/19 45/117/14 46/118/15
f 47/119/31 48/120/21 49/121/16
f 38/122/36 53/123/35 54/124/12
f 55/125/33 56/126/13 57/127/25
f 34/128/26 29/129/19 46/130/15 50/131/18
f 45/103/14 47/102/31 49/132/16 46/133/15
f 48/106/21 52/105/27 51/134/17 49/135/16
f 38/136/36 43/137/29 58/138/34 53/139/35
f 59/104/32 55/107/33 57/140/25 60/141/30
f 56/101/13 54/100/12 53/142/35 57/143/25
f 29/116/19 38/122/36 54/124/12 45/117/14
f 55/125/33 48/120/21 47/119/31 56/126/13
f 16/23/5 9/15/5 23/24/5 24/20/5
f 20/31/2 12/19/2 14/18/2 19/144/2
f 4/13/1 13/29/1 14/18/1 8/17/1
f 4/13/5 11/16/5 13/29/5
f 82/145/37 84/146/38 61/147/3
f 83/148/39 68/149/39 67/150/40 81/151/40
f 73/152/41 63/153/41 62/154/42 71/155/42
f 77/156/43 65/157/43 64/158/44 75/159/44
f 67/160/45 80/161/45 78/162/46 66/163/46
f 69/164/47 84/146/47 82/145/48 68/165/48
f 64/166/49 74/167/49 72/168/50 63/169/50
f 62/170/51 70/171/51 84/146/47 69/164/47
f 63/169/50 72/168/50 70/171/51 62/170/51
f 65/172/52 76/173/52 74/167/49 64/166/49
f 85/174/53 69/175/53 68/149/39 83/148/39
f 84/146/38 70/171/54 61/147/3
f 79/176/55 66/177/55 65/157/43 77/156/43
f 66/163/46 78/162/46 76/173/52 65/172/52
f 71/155/42 62/154/42 69/175/53 85/174/53
f 78/162/56 80/161/57 61/147/3
f 68/165/48 82/145/48 80/161/45 67/160/45
f 75/159/44 64/158/44 63/153/41 73/152/41
f 81/151/40 67/150/40 66/177/55 79/176/55
f 74/167/58 76/173/59 61/147/3
f 72/168/60 74/167/58 61/147/3
f 76/173/59 78/162/56 61/147/3
f 70/171/54 72/168/60 61/147/3
f 80/161/57 82/145/37 61/147/3
f 107/178/37 109/179/38 86/180/3
f 108/181/39 93/182/39 92/183/40 106/184/40
f 98/185/41 88/186/41 87/187/42 96/188/42
f 102/189/43 90/190/43 89/191/44 100/192/44
f 92/193/45 105/194/45 103/195/46 91/196/46
f 94/197/47 109/179/47 107/178/48 93/198/48
f 89/199/49 99/200/49 97/201/50 88/202/50
f 87/203/51 95/204/51 109/179/47 94/197/47
f 88/202/50 97/201/50 95/204/51 87/203/51
f 90/205/52 101/206/52 99/200/49 89/199/49
f 110/207/53 94/208/53 93/182/39 108/181/39
f 109/179/38 95/204/54 86/180/3
f 104/209/55 91/210/55 90/190/43 102/189/43
f 91/196/46 103/195/46 101/206/52 90/205/52
f 96/188/42 87/187/42 94/208/53 110/207/53
f 103/195/56 105/194/57 86/180/3
f 93/198/48 107/178/48 105/194/45 92/193/45
f 100/192/44 89/191/44 88/186/41 98/185/41
f 106/184/40 92/183/40 91/210/55 104/209/55
f 99/200/58 101/206/59 86/180/3
f 97/201/60 99/200/58 86/180/3
f 101/206/59 103/195/56 86/180/3
f 95/204/54 97/201/60 86/180/3
f 105/194/57 107/178/37 86/180/3
