# Blender v3.4.1 OBJ File: 'restaurant_bits_export.blend'
# www.blender.org
mtllib kitchencounter_straight_B.mtl
o kitchencounter_straight_B_Cube.897
v -1.000000 0.000000 0.800000
v -1.000000 0.800000 0.800000
v -1.000000 0.000000 -1.000000
v -1.000000 0.800000 -1.000000
v 1.000000 0.000000 0.800000
v 1.000000 0.800000 0.800000
v 1.000000 0.000000 -1.000000
v 1.000000 0.800000 -1.000000
v -1.000000 1.000000 0.950000
v -1.000000 1.000000 -1.000000
v 1.000000 1.000000 -1.000000
v 1.000000 1.000000 0.950000
v 1.000000 0.950000 1.000000
v -1.000000 0.950000 1.000000
v 1.000000 0.850000 1.000000
v 1.000000 0.800000 0.950000
v -1.000000 0.800000 0.950000
v -1.000000 0.850000 1.000000
v 0.040000 0.100000 0.910000
v 0.040000 0.140000 0.950000
v -0.000000 0.140000 0.910000
v 0.040000 0.660000 0.950000
v 0.040000 0.700000 0.910000
v -0.000000 0.660000 0.910000
v 0.040000 0.100000 0.750000
v -0.000000 0.140000 0.750000
v -0.000000 0.660000 0.750000
v 0.040000 0.700000 0.750000
v 0.860000 0.100000 0.910000
v 0.900000 0.140000 0.910000
v 0.860000 0.140000 0.950000
v 0.860000 0.700000 0.910000
v 0.860000 0.660000 0.950000
v 0.900000 0.660000 0.910000
v 0.900000 0.140000 0.750000
v 0.860000 0.100000 0.750000
v 0.860000 0.700000 0.750000
v 0.900000 0.660000 0.750000
v -0.860000 0.100000 0.910000
v -0.860000 0.140000 0.950000
v -0.900000 0.140000 0.910000
v -0.860000 0.660000 0.950000
v -0.860000 0.700000 0.910000
v -0.900000 0.660000 0.910000
v -0.860000 0.100000 0.750000
v -0.900000 0.140000 0.750000
v -0.900000 0.660000 0.750000
v -0.860000 0.700000 0.750000
v -0.040000 0.100000 0.910000
v -0.040000 0.140000 0.950000
v -0.040000 0.700000 0.910000
v -0.040000 0.660000 0.950000
v -0.040000 0.100000 0.750000
v -0.040000 0.700000 0.750000
v -0.150000 0.550000 1.041903
v -0.203977 0.603978 0.986796
v -0.226335 0.550001 0.986796
v -0.203977 0.496024 0.986796
v -0.150000 0.473666 0.986796
v -0.096023 0.496024 0.986796
v -0.073664 0.550001 0.986796
v -0.096023 0.603978 0.986796
v -0.150000 0.626336 0.986796
v -0.191759 0.591758 1.024086
v -0.191759 0.591758 0.949506
v -0.209056 0.550000 1.024086
v -0.209056 0.550000 0.949506
v -0.191759 0.508241 1.024086
v -0.191759 0.508241 0.949506
v -0.150000 0.490944 1.024086
v -0.150000 0.490944 0.949506
v -0.108242 0.508241 1.024086
v -0.108242 0.508241 0.949506
v -0.090944 0.550000 1.024086
v -0.090944 0.550000 0.949506
v -0.108242 0.591758 1.024086
v -0.108242 0.591758 0.949506
v -0.150000 0.609055 1.024086
v -0.150000 0.609055 0.949506
v 0.150000 0.550000 1.041903
v 0.096023 0.603978 0.986796
v 0.073665 0.550001 0.986796
v 0.096023 0.496024 0.986796
v 0.150000 0.473666 0.986796
v 0.203977 0.496024 0.986796
v 0.226336 0.550001 0.986796
v 0.203977 0.603978 0.986796
v 0.150000 0.626336 0.986796
v 0.108241 0.591758 1.024086
v 0.108241 0.591758 0.949506
v 0.090944 0.550000 1.024086
v 0.090944 0.550000 0.949506
v 0.108241 0.508241 1.024086
v 0.108241 0.508241 0.949506
v 0.150000 0.490944 1.024086
v 0.150000 0.490944 0.949506
v 0.191758 0.508241 1.024086
v 0.191758 0.508241 0.949506
v 0.209055 0.550000 1.024086
v 0.209055 0.550000 0.949506
v 0.191758 0.591758 1.024086
v 0.191758 0.591758 0.949506
v 0.150000 0.609055 1.024086
v 0.150000 0.609055 0.949506
vt 0.935202 0.049884
vt 0.935202 0.116593
vt 0.935202 0.116593
vt 0.935202 0.049884
vt 0.971048 0.116593
vt 0.971048 0.049884
vt 0.971048 0.116593
vt 0.971048 0.049884
vt 0.935202 0.018634
vt 0.971048 0.018634
vt 0.971048 0.018634
vt 0.935202 0.018634
vt 0.849518 0.116593
vt 0.849518 0.116593
vt 0.849518 0.133271
vt 0.849518 0.133271
vt 0.849518 0.164521
vt 0.821988 0.164521
vt 0.821988 0.164521
vt 0.849518 0.164521
vt 0.821988 0.116593
vt 0.821988 0.116593
vt 0.821988 0.133271
vt 0.821988 0.133271
vt 0.821988 0.120763
vt 0.849518 0.120763
vt 0.849518 0.129102
vt 0.821988 0.129102
vt 0.821988 0.116593
vt 0.849518 0.148896
vt 0.821988 0.148896
vt 0.821988 0.144727
vt 0.849518 0.144727
vt 0.849518 0.105138
vt 0.821988 0.105138
vt 0.821988 0.100968
vt 0.849518 0.100968
vt 0.821988 0.085343
vt 0.849518 0.085343
vt 0.849518 0.085343
vt 0.821988 0.085343
vt 0.849518 0.116593
vt 0.667878 0.092808
vt 0.667878 0.136169
vt 0.657765 0.136169
vt 0.657765 0.092808
vt 0.667878 0.155130
vt 0.657765 0.155130
vt 0.657765 0.155130
vt 0.667878 0.155130
vt 0.668371 0.077183
vt 0.668371 0.120544
vt 0.668371 0.120544
vt 0.668371 0.077183
vt 0.657765 0.058223
vt 0.657765 0.061558
vt 0.657271 0.061558
vt 0.657765 0.167419
vt 0.657765 0.170755
vt 0.657271 0.167419
vt 0.667878 0.058223
vt 0.668371 0.061558
vt 0.667878 0.061558
vt 0.667878 0.170755
vt 0.667878 0.167419
vt 0.668371 0.167419
vt 0.657765 0.042598
vt 0.657765 0.042598
vt 0.657271 0.045933
vt 0.657271 0.045933
vt 0.657271 0.136169
vt 0.657271 0.092808
vt 0.657271 0.151794
vt 0.657271 0.151794
vt 0.667878 0.042598
vt 0.667878 0.042598
vt 0.668371 0.045933
vt 0.668371 0.045933
vt 0.668371 0.151794
vt 0.668371 0.151794
vt 0.668371 0.092808
vt 0.668371 0.136169
vt 0.656778 0.092808
vt 0.656778 0.136169
vt 0.646665 0.136169
vt 0.646665 0.092808
vt 0.656778 0.155130
vt 0.646665 0.155130
vt 0.646665 0.155130
vt 0.656778 0.155130
vt 0.646171 0.077183
vt 0.646171 0.120544
vt 0.646171 0.120544
vt 0.646171 0.077183
vt 0.646665 0.058223
vt 0.646665 0.061558
vt 0.646171 0.061558
vt 0.646665 0.167419
vt 0.646665 0.170755
vt 0.646171 0.167419
vt 0.656778 0.058223
vt 0.656778 0.061558
vt 0.656778 0.170755
vt 0.656778 0.167419
vt 0.646665 0.042598
vt 0.646665 0.042598
vt 0.646171 0.045933
vt 0.646171 0.045933
vt 0.646171 0.136169
vt 0.646171 0.092808
vt 0.646171 0.151794
vt 0.646171 0.151794
vt 0.656778 0.042598
vt 0.656778 0.042598
vt 0.798466 0.130479
vt 0.796875 0.131921
vt 0.796875 0.111372
vt 0.798466 0.099229
vt 0.798932 0.100248
vt 0.799784 0.080122
vt 0.799125 0.080122
vt 0.794625 0.080122
vt 0.793966 0.080122
vt 0.794818 0.100248
vt 0.795284 0.099229
vt 0.796875 0.059572
vt 0.796875 0.058131
vt 0.794818 0.059996
vt 0.795284 0.061015
vt 0.799784 0.095747
vt 0.799125 0.111372
vt 0.798466 0.092265
vt 0.798932 0.075621
vt 0.796875 0.117737
vt 0.798932 0.115873
vt 0.794818 0.075621
vt 0.795284 0.092265
vt 0.794625 0.111372
vt 0.793966 0.095747
vt 0.794818 0.115873
vt 0.795284 0.130479
vt 0.796875 0.073756
vt 0.796875 0.090822
vt 0.796875 0.100671
vt 0.796875 0.102112
vt 0.798466 0.061015
vt 0.798932 0.059996
vt 0.798466 0.130479
vt 0.796875 0.131921
vt 0.796875 0.111372
vt 0.798466 0.099229
vt 0.798932 0.100248
vt 0.799784 0.080122
vt 0.799125 0.080122
vt 0.794625 0.080122
vt 0.793966 0.080122
vt 0.794818 0.100248
vt 0.795284 0.099229
vt 0.796875 0.059572
vt 0.796875 0.058131
vt 0.794818 0.059996
vt 0.795284 0.061015
vt 0.799784 0.095747
vt 0.799125 0.111372
vt 0.798466 0.092265
vt 0.798932 0.075621
vt 0.796875 0.117737
vt 0.798932 0.115873
vt 0.794818 0.075621
vt 0.795284 0.092265
vt 0.794625 0.111372
vt 0.793966 0.095747
vt 0.794818 0.115873
vt 0.795284 0.130479
vt 0.796875 0.073756
vt 0.796875 0.090822
vt 0.796875 0.100671
vt 0.796875 0.102112
vt 0.798466 0.061015
vt 0.798932 0.059996
vn -1.0000 0.0000 0.0000
vn 0.0000 0.0000 -1.0000
vn 1.0000 0.0000 0.0000
vn 0.0000 0.0000 1.0000
vn 0.0000 -1.0000 0.0000
vn 0.0000 1.0000 0.0000
vn 0.0000 -0.3827 0.9239
vn 0.0000 0.3827 0.9239
vn 0.0000 0.7071 0.7071
vn 0.0000 -0.9239 0.3827
vn 0.3416 -0.3416 0.8756
vn 0.3416 0.3416 0.8756
vn -0.3416 0.3416 0.8756
vn -0.3416 -0.3416 0.8756
vn 0.3827 0.9239 0.0000
vn -0.3827 0.9239 0.0000
vn -0.3416 0.8756 0.3416
vn 0.3416 0.8756 0.3416
vn -0.3416 -0.8756 0.3416
vn -0.7588 -0.4606 0.4606
vn -0.7588 0.4606 0.4606
vn 0.3416 -0.8756 0.3416
vn 0.7588 -0.4606 0.4606
vn 0.7588 0.4606 0.4606
vn -0.3827 -0.9239 0.0000
vn -0.7071 -0.7071 0.0000
vn -0.7071 0.7071 0.0000
vn 0.3827 -0.9239 0.0000
vn 0.7071 -0.7071 0.0000
vn 0.7071 0.7071 0.0000
vn -0.8756 -0.3416 0.3416
vn -0.8756 0.3416 0.3416
vn -0.9239 0.3827 0.0000
vn -0.9239 -0.3827 0.0000
vn -0.4606 -0.7588 0.4606
vn -0.4606 0.7588 0.4606
vn 0.4606 0.7588 0.4606
vn 0.2042 0.2042 0.9574
vn 0.0000 0.2888 0.9574
vn 0.6416 0.6416 -0.4205
vn 0.9073 0.0000 -0.4204
vn -0.9073 -0.0000 -0.4204
vn -0.6416 0.6416 -0.4204
vn -0.0000 -0.9073 -0.4204
vn -0.6416 -0.6416 -0.4204
vn 0.9073 0.0000 0.4204
vn 0.6416 -0.6416 0.4204
vn 0.0000 0.9073 0.4205
vn 0.6416 0.6416 0.4205
vn -0.6416 -0.6416 0.4204
vn -0.9073 -0.0000 0.4204
vn -0.6416 0.6416 0.4204
vn 0.0000 -0.9073 0.4204
vn -0.0000 0.9073 -0.4205
vn -0.2042 0.2042 0.9574
vn 0.6416 -0.6416 -0.4204
vn 0.2042 -0.2042 0.9574
vn 0.2888 0.0000 0.9574
vn -0.2042 -0.2042 0.9574
vn -0.0000 -0.2888 0.9574
vn -0.2888 0.0000 0.9574
usemtl restaurant
s 1
f 1/1/1 2/2/1 4/3/1 3/4/1
f 3/4/2 4/3/2 8/5/2 7/6/2
f 7/6/3 8/5/3 6/7/3 5/8/3
f 5/8/4 6/7/4 2/2/4 1/1/4
f 3/9/5 7/10/5 5/11/5 1/12/5
f 6/13/3 8/14/3 11/15/3 12/16/3
f 11/17/6 10/18/6 9/19/6 12/20/6
f 4/21/1 2/22/1 9/23/1 10/24/1
f 8/14/2 4/21/2 10/24/2 11/15/2
f 18/25/7 15/26/7 13/27/8 14/28/8
f 2/22/1 17/29/1 9/23/1
f 12/30/9 9/31/9 14/32/8 13/33/8
f 15/34/7 18/35/7 17/36/10 16/37/10
f 2/38/5 6/39/5 16/40/10 17/41/10
f 17/29/1 18/25/1 14/28/1 9/23/1
f 16/42/3 6/13/3 12/16/3
f 31/43/11 33/44/12 22/45/13 20/46/14
f 37/47/15 28/48/16 23/49/17 32/50/18
f 35/51/3 38/52/3 34/53/3 30/54/3
f 19/55/19 20/56/14 21/57/20
f 22/58/13 23/59/17 24/60/21
f 29/61/22 30/62/23 31/63/11
f 32/64/18 33/65/12 34/66/24
f 25/67/25 19/68/19 21/69/20 26/70/26
f 20/46/14 22/45/13 24/71/21 21/72/20
f 23/49/17 28/48/16 27/73/27 24/74/21
f 29/75/22 36/76/28 35/77/29 30/78/23
f 37/47/15 32/50/18 34/79/24 38/80/30
f 33/44/12 31/43/11 30/81/23 34/82/24
f 19/55/19 29/61/22 31/63/11 20/56/14
f 32/64/18 23/59/17 22/58/13 33/65/12
f 25/67/25 36/76/28 29/75/22 19/68/19
f 50/83/11 52/84/12 42/85/13 40/86/14
f 54/87/6 48/88/6 43/89/6 51/90/6
f 41/91/31 44/92/32 47/93/33 46/94/34
f 39/95/35 40/96/14 41/97/31
f 42/98/13 43/99/36 44/100/32
f 49/101/22 21/57/23 50/102/11
f 51/103/37 52/104/12 24/60/24
f 45/105/26 39/106/35 41/107/31 46/108/34
f 40/86/14 42/85/13 44/109/32 41/110/31
f 43/89/36 48/88/27 47/111/33 44/112/32
f 49/113/22 53/114/28 26/70/29 21/69/23
f 54/87/30 51/90/37 24/74/24 27/73/30
f 52/84/12 50/83/11 21/72/23 24/71/24
f 39/95/35 49/101/22 50/102/11 40/96/14
f 51/103/37 43/99/36 42/98/13 52/104/12
f 45/105/5 53/114/28 49/113/22 39/106/5
f 15/26/3 16/42/3 12/16/3 13/27/3
f 76/115/38 78/116/39 55/117/4
f 77/118/40 62/119/40 61/120/41 75/121/41
f 67/122/42 57/123/42 56/124/43 65/125/43
f 71/126/44 59/127/44 58/128/45 69/129/45
f 61/130/46 74/131/46 72/132/47 60/133/47
f 63/134/48 78/116/48 76/115/49 62/135/49
f 58/136/50 68/137/50 66/138/51 57/139/51
f 56/140/52 64/141/52 78/116/48 63/134/48
f 57/139/51 66/138/51 64/141/52 56/140/52
f 59/142/53 70/143/53 68/137/50 58/136/50
f 79/144/54 63/145/54 62/119/40 77/118/40
f 78/116/39 64/141/55 55/117/4
f 73/146/56 60/147/56 59/127/44 71/126/44
f 60/133/47 72/132/47 70/143/53 59/142/53
f 65/125/43 56/124/43 63/145/54 79/144/54
f 72/132/57 74/131/58 55/117/4
f 62/135/49 76/115/49 74/131/46 61/130/46
f 69/129/45 58/128/45 57/123/42 67/122/42
f 75/121/41 61/120/41 60/147/56 73/146/56
f 68/137/59 70/143/60 55/117/4
f 66/138/61 68/137/59 55/117/4
f 70/143/60 72/132/57 55/117/4
f 64/141/55 66/138/61 55/117/4
f 74/131/58 76/115/38 55/117/4
f 101/148/38 103/149/39 80/150/4
f 102/151/40 87/152/40 86/153/41 100/154/41
f 92/155/42 82/156/42 81/157/43 90/158/43
f 96/159/44 84/160/44 83/161/45 94/162/45
f 86/163/46 99/164/46 97/165/47 85/166/47
f 88/167/48 103/149/48 101/148/49 87/168/49
f 83/169/50 93/170/50 91/171/51 82/172/51
f 81/173/52 89/174/52 103/149/48 88/167/48
f 82/172/51 91/171/51 89/174/52 81/173/52
f 84/175/53 95/176/53 93/170/50 83/169/50
f 104/177/54 88/178/54 87/152/40 102/151/40
f 103/149/39 89/174/55 80/150/4
f 98/179/56 85/180/56 84/160/44 96/159/44
f 85/166/47 97/165/47 95/176/53 84/175/53
f 90/158/43 81/157/43 88/178/54 104/177/54
f 97/165/57 99/164/58 80/150/4
f 87/168/49 101/148/49 99/164/46 86/163/46
f 94/162/45 83/161/45 82/156/42 92/155/42
f 100/154/41 86/153/41 85/180/56 98/179/56
f 93/170/59 95/176/60 80/150/4
f 91/171/61 93/170/59 80/150/4
f 95/176/60 97/165/57 80/150/4
f 89/174/55 91/171/61 80/150/4
f 99/164/58 101/148/38 80/150/4
