# Blender v3.4.1 OBJ File: 'restaurant_bits_export.blend'
# www.blender.org
mtllib kitchencounter_outercorner_backsplash.mtl
o kitchencounter_outercorner_backsplash_Cube.901
v 1.000000 0.000000 0.800000
v 1.000000 0.800000 0.800000
v 1.000000 0.000000 -1.000000
v 1.000000 0.800000 -1.000000
v -0.800000 0.000000 -1.000000
v -0.800000 0.800000 -1.000000
v -0.800000 0.000000 0.800000
v -0.800000 0.800000 0.800000
v -0.950000 1.000000 0.950000
v 0.800000 1.000000 -1.000000
v 1.000000 1.000000 -0.800000
v 0.800000 1.000000 -0.800000
v 1.000000 1.200000 -1.000000
v -1.000000 0.950000 1.000000
v -1.000000 0.950000 -1.000000
v -0.950000 1.000000 -1.000000
v 1.000000 1.000000 0.950000
v 1.000000 0.950000 1.000000
v 0.800000 1.150000 -1.000000
v 0.850000 1.200000 -1.000000
v 1.000000 1.200000 -0.850000
v 1.000000 1.150000 -0.800000
v 0.800000 1.150000 -0.800000
v 0.850000 1.200000 -0.850000
v -0.950000 0.800000 0.950000
v -1.000000 0.850000 1.000000
v -0.950000 0.800000 -1.000000
v -1.000000 0.850000 -1.000000
v 1.000000 0.850000 1.000000
v 1.000000 0.800000 0.950000
vt 0.821988 0.144727
vt 0.821988 0.144727
vt 0.822676 0.148896
vt 0.822676 0.148896
vt 0.938787 0.049884
vt 0.938787 0.116593
vt 0.971048 0.116593
vt 0.971048 0.049884
vt 0.971048 0.116593
vt 0.971048 0.049884
vt 0.846765 0.164521
vt 0.846765 0.164521
vt 0.822676 0.164521
vt 0.822676 0.116593
vt 0.821988 0.120763
vt 0.821988 0.129102
vt 0.822676 0.133271
vt 0.821988 0.120763
vt 0.821988 0.129102
vt 0.824741 0.116593
vt 0.824741 0.085343
vt 0.824741 0.085343
vt 0.822676 0.085343
vt 0.822676 0.085343
vt 0.849518 0.116593
vt 0.849518 0.116593
vt 0.849518 0.133271
vt 0.849518 0.133271
vt 0.846765 0.133271
vt 0.846765 0.145779
vt 0.847453 0.149948
vt 0.849518 0.149948
vt 0.849518 0.120763
vt 0.849518 0.129102
vt 0.821988 0.105138
vt 0.821988 0.105138
vt 0.822676 0.100968
vt 0.822676 0.100968
vt 0.938787 0.116593
vt 0.938787 0.049884
vt 0.938787 0.018634
vt 0.971048 0.018634
vt 0.971048 0.018634
vt 0.938787 0.018634
vt 0.846765 0.133271
vt 0.846765 0.145779
vt 0.849518 0.145779
vt 0.849518 0.181198
vt 0.847453 0.181198
vt 0.847453 0.181198
vt 0.849518 0.181198
vt 0.849518 0.148896
vt 0.849518 0.144727
vt 0.846765 0.161404
vt 0.846765 0.161404
vt 0.847453 0.165573
vt 0.847453 0.165573
vt 0.849518 0.161404
vt 0.849518 0.165573
vt 0.849518 0.100968
vt 0.849518 0.105138
vt 0.849518 0.085343
vt 0.849518 0.085343
vt 0.849518 0.116593
vt 0.849518 0.149948
vt 0.822676 0.164521
vt 0.849518 0.164521
vt 0.849518 0.164521
vn -0.9239 0.3827 0.0000
vn -0.9576 0.2880 0.0000
vn -0.7071 0.7071 0.0000
vn 0.0000 0.0000 -1.0000
vn 1.0000 0.0000 0.0000
vn 0.0000 1.0000 -0.0000
vn -0.9239 -0.3827 0.0000
vn -0.9576 -0.2880 0.0000
vn 0.0000 -1.0000 0.0000
vn 0.0000 -0.2880 0.9576
vn 0.0000 -0.3827 0.9239
vn 0.0000 0.0000 1.0000
vn -0.7071 -0.7071 0.0000
vn -1.0000 0.0000 0.0000
vn -0.3827 0.9239 0.0000
vn -0.3002 0.9054 0.3002
vn 0.0000 0.9239 0.3827
vn 0.0000 0.7071 0.7071
vn 0.0000 -0.7071 0.7071
usemtl restaurant
s 1
f 15/1/1 14/2/2 9/3/3 16/4/3
f 5/5/4 6/6/4 4/7/4 3/8/4
f 3/8/5 4/7/5 2/9/5 1/10/5
f 12/11/6 10/12/6 16/13/6
f 27/14/4 28/15/4 15/16/4 16/17/4
f 15/16/1 28/15/7 26/18/8 14/19/2
f 6/20/4 27/14/4 16/17/4
f 6/21/9 8/22/9 25/23/9 27/24/9
f 2/25/5 4/26/5 11/27/5 17/28/5
f 10/29/4 19/30/4 20/31/4 13/32/4
f 26/18/10 29/33/11 18/34/12 14/19/12
f 26/35/8 28/36/7 27/37/13 25/38/13
f 1/10/12 2/9/12 8/39/12 7/40/12
f 5/5/14 7/40/14 8/39/14 6/6/14
f 5/41/9 3/42/9 1/43/9 7/44/9
f 11/27/5 4/26/5 13/32/5
f 10/29/14 12/45/14 23/46/14 19/30/14
f 12/45/12 11/27/12 22/47/12 23/46/12
f 13/48/6 20/49/15 24/50/16 21/51/17
f 17/52/18 9/3/18 14/2/18 18/53/18
f 19/54/3 23/55/3 24/56/16 20/57/15
f 23/55/18 22/58/18 21/59/17 24/56/16
f 25/38/19 30/60/19 29/61/11 26/35/10
f 2/62/9 30/63/9 25/23/9 8/22/9
f 30/64/5 17/28/5 18/34/5 29/33/5
f 4/26/4 10/29/4 13/32/4
f 22/47/5 11/27/5 13/32/5 21/65/5
f 4/26/4 6/20/4 16/17/4 10/29/4
f 30/64/5 2/25/5 17/28/5
f 12/11/6 9/66/6 17/67/6
f 11/68/6 12/11/6 17/67/6
f 9/66/6 12/11/6 16/13/6
