# Blender v3.4.1 OBJ File: 'restaurant_bits_export.blend'
# www.blender.org
mtllib knife.mtl
o knife_Cube.114
v -0.020014 -0.210704 -0.000000
v -0.024748 -0.045342 -0.050000
v 0.048849 -0.053842 -0.015120
v 0.023128 -0.050871 0.050000
v 0.048849 -0.053842 0.015120
v 0.023128 -0.050871 -0.050000
v -0.050471 -0.042372 -0.015120
v -0.050494 0.148311 0.000000
v -0.042157 0.148311 0.025000
v -0.042157 0.148311 -0.025000
v 0.024994 0.148311 0.025000
v 0.049993 0.148311 0.000000
v 0.024994 0.148311 -0.025000
v -0.024748 -0.045342 0.050000
v -0.199996 0.148311 0.000000
v 0.049993 0.939296 0.000000
v -0.012504 0.906644 0.000000
v -0.199996 0.330379 0.000000
v -0.084254 0.835006 0.000000
v -0.145081 0.716603 0.000000
v -0.185724 0.539402 0.000000
v -0.039093 0.499434 -0.025000
v -0.039093 0.499434 0.025000
v -0.174997 0.148311 0.025000
v 0.036873 0.856271 0.025000
v -0.176698 0.311268 0.025000
v -0.019064 0.827045 0.025000
v -0.083283 0.762927 0.025000
v -0.137725 0.656953 0.025000
v -0.163925 0.498351 0.025000
v -0.174997 0.148311 -0.025000
v 0.036873 0.856271 -0.025000
v -0.176698 0.311268 -0.025000
v -0.019064 0.827045 -0.025000
v -0.083283 0.762927 -0.025000
v -0.137725 0.656953 -0.025000
v -0.163925 0.498351 -0.025000
v -0.024093 0.088984 0.050000
v -0.049991 0.088984 -0.015120
v 0.024108 0.088984 -0.050000
v 0.050004 0.088984 0.015120
v 0.024108 0.088984 0.050000
v 0.050004 0.088984 -0.015120
v -0.024093 0.088984 -0.050000
v -0.049991 0.088984 0.015120
v 0.013700 -0.189522 0.048165
v -0.047883 -0.182410 0.048165
v 0.046785 -0.193342 -0.014565
v 0.046785 -0.193342 0.014565
v -0.047883 -0.182410 -0.048166
v 0.013700 -0.189522 -0.048166
v -0.080970 -0.178589 0.014565
v -0.080970 -0.178589 -0.014565
v -0.050471 -0.042372 0.015120
vt 0.204357 0.914563
vt 0.204479 0.883134
vt 0.195241 0.883134
vt 0.197726 0.914563
vt 0.207920 0.959955
vt 0.207918 0.928526
vt 0.207920 0.959955
vt 0.197726 0.914563
vt 0.195241 0.883134
vt 0.204479 0.883134
vt 0.204357 0.914563
vt 0.197726 0.879683
vt 0.195241 0.848254
vt 0.194095 0.848254
vt 0.194164 0.879683
vt 0.194164 0.869170
vt 0.194095 0.837741
vt 0.194164 0.869170
vt 0.429640 0.948433
vt 0.431135 0.935399
vt 0.458573 0.829487
vt 0.462248 0.830794
vt 0.458573 0.829487
vt 0.431135 0.935399
vt 0.410151 0.905114
vt 0.413691 0.896627
vt 0.416378 0.871670
vt 0.411482 0.876635
vt 0.421801 0.940309
vt 0.424119 0.928128
vt 0.417324 0.915235
vt 0.414210 0.925904
vt 0.418002 0.844802
vt 0.422213 0.843178
vt 0.429181 0.819031
vt 0.425507 0.817724
vt 0.404963 0.900154
vt 0.416378 0.871670
vt 0.413691 0.896627
vt 0.403632 0.928633
vt 0.407691 0.949423
vt 0.417324 0.915235
vt 0.424119 0.928128
vt 0.415282 0.963828
vt 0.418988 0.841243
vt 0.429181 0.819031
vt 0.422213 0.843178
vt 0.411483 0.868321
vt 0.457257 0.790262
vt 0.458482 0.790698
vt 0.438959 0.783753
vt 0.435285 0.782446
vt 0.423122 0.971952
vt 0.444458 0.901211
vt 0.468352 0.794209
vt 0.440913 0.900121
vt 0.431991 0.807900
vt 0.433897 0.892850
vt 0.427102 0.879957
vt 0.423469 0.861350
vt 0.426157 0.836392
vt 0.444458 0.901211
vt 0.458482 0.790698
vt 0.438959 0.783753
vt 0.440913 0.900121
vt 0.468352 0.794209
vt 0.431991 0.807900
vt 0.433897 0.892850
vt 0.427102 0.879957
vt 0.423469 0.861350
vt 0.426157 0.836392
vt 0.204479 0.928526
vt 0.204357 0.959955
vt 0.204222 0.932009
vt 0.202925 0.904304
vt 0.207477 0.903540
vt 0.207761 0.931416
vt 0.204357 0.959955
vt 0.204479 0.928526
vt 0.207761 0.931416
vt 0.207477 0.903540
vt 0.202925 0.904304
vt 0.204222 0.932009
vt 0.195241 0.848254
vt 0.197726 0.879683
vt 0.194164 0.879683
vt 0.197636 0.852842
vt 0.194454 0.825453
vt 0.189902 0.826217
vt 0.194098 0.853436
vt 0.194098 0.842923
vt 0.194098 0.842923
vt 0.197636 0.852842
vt 0.194098 0.853436
vt 0.197636 0.887722
vt 0.204222 0.886617
vt 0.204222 0.886617
vt 0.197636 0.887722
vt 0.198288 0.831983
vt 0.202925 0.836215
vt 0.194454 0.837636
vt 0.207477 0.835452
vt 0.207477 0.835452
vt 0.194454 0.837636
vt 0.202925 0.836215
vt 0.189902 0.838400
vt 0.189902 0.838400
vt 0.189902 0.815704
vt 0.189902 0.815704
vt 0.194454 0.825453
vt 0.189902 0.826217
vt 0.194454 0.860333
vt 0.202925 0.858912
vt 0.202925 0.858912
vt 0.194454 0.860333
vn -0.0000 0.1994 0.9799
vn -0.0000 0.1962 0.9806
vn 0.0000 0.1154 0.9933
vn -0.0000 0.2136 0.9769
vn 0.9346 0.0594 -0.3508
vn 0.9940 0.1098 0.0000
vn 0.9346 0.0594 0.3508
vn 0.0000 0.2136 -0.9769
vn 0.0000 0.1154 -0.9933
vn -0.0000 0.1962 -0.9806
vn 0.0000 0.1994 -0.9799
vn -0.8315 0.0152 0.5553
vn -0.8677 0.0320 0.4961
vn -0.9996 0.0288 0.0000
vn -0.9527 0.0095 0.3038
vn -0.9527 0.0095 -0.3038
vn 0.8003 -0.0063 0.5996
vn 0.7752 0.1113 0.6219
vn 0.7752 0.1113 -0.6219
vn 0.8003 -0.0063 -0.5996
vn -0.5625 0.2498 -0.7882
vn -0.3922 0.0985 -0.9146
vn -0.7109 0.0714 -0.6996
vn -0.7078 0.1185 -0.6964
vn -0.2000 0.3086 -0.9299
vn -0.1472 0.1723 -0.9740
vn -0.2711 0.1607 -0.9490
vn -0.3543 0.3022 -0.8850
vn -0.7149 0.0307 -0.6986
vn -0.7174 0.0145 -0.6965
vn -0.7199 -0.0036 -0.6940
vn -0.1608 0.3078 -0.9378
vn -0.1093 0.2091 -0.9718
vn -0.7078 0.1185 0.6964
vn -0.7109 0.0714 0.6996
vn -0.3922 0.0985 0.9146
vn -0.5625 0.2498 0.7882
vn -0.3543 0.3022 0.8850
vn -0.2711 0.1607 0.9490
vn -0.1472 0.1723 0.9740
vn -0.2000 0.3086 0.9299
vn -0.7199 -0.0036 0.6940
vn -0.7174 0.0145 0.6965
vn -0.7149 0.0307 0.6986
vn 0.0000 -1.0000 -0.0000
vn -0.1093 0.2091 0.9718
vn -0.1608 0.3078 0.9378
vn -0.0000 -0.0000 1.0000
vn -0.0000 0.0000 -1.0000
vn 0.7828 0.0893 0.6158
vn 0.7814 -0.0210 0.6236
vn 0.7563 -0.0369 0.6531
vn 0.9402 -0.0273 0.3397
vn 0.9432 -0.0178 0.3317
vn 0.7828 0.0893 -0.6158
vn 0.9432 -0.0178 -0.3317
vn 0.9402 -0.0273 -0.3397
vn 0.7563 -0.0369 -0.6531
vn 0.7814 -0.0210 -0.6236
vn -0.8677 0.0320 -0.4961
vn -0.8315 0.0152 -0.5553
vn -0.7763 0.0727 -0.6262
vn -0.7442 0.1403 -0.6530
vn -0.9208 0.1925 -0.3392
vn -0.9357 0.0969 -0.3393
vn -0.9357 0.0969 0.3393
vn -0.7763 0.0727 0.6262
vn -0.0007 -0.0064 -1.0000
vn -0.0008 -0.0069 -1.0000
vn -0.0008 -0.0069 1.0000
vn -0.0007 -0.0064 1.0000
vn -0.1151 -0.9934 0.0000
vn 0.0598 -0.9285 0.3665
vn -0.2698 -0.8903 0.3669
vn 0.2237 -0.9665 -0.1261
vn 0.2237 -0.9665 0.1261
vn -0.2698 -0.8903 -0.3669
vn 0.0598 -0.9285 -0.3665
vn -0.4386 -0.8898 0.1263
vn -0.4386 -0.8898 -0.1263
vn -0.9208 0.1925 0.3392
vn -0.7442 0.1403 0.6530
vn -0.0015 -0.0131 -0.9999
vn -0.0015 -0.0131 0.9999
usemtl restaurant
s 1
f 42/1/1 11/2/2 9/3/3 38/4/4
f 43/5/5 12/6/6 41/7/7
f 44/8/8 10/9/9 13/10/10 40/11/11
f 38/12/12 9/13/13 8/14/14 45/15/15
f 45/16/15 8/17/14 39/18/16
f 16/19/17 25/20/17 11/21/18 12/22/6
f 12/22/6 13/23/19 32/24/20 16/19/20
f 20/25/21 36/26/22 37/27/23 21/28/24
f 17/29/25 34/30/26 35/31/27 19/32/28
f 18/33/29 33/34/30 31/35/31 15/36/31
f 21/28/24 37/27/23 33/34/30 18/33/29
f 19/32/28 35/31/27 36/26/22 20/25/21
f 16/19/32 32/24/33 34/30/26 17/29/25
f 21/37/34 30/38/35 29/39/36 20/40/37
f 19/41/38 28/42/39 27/43/40 17/44/41
f 15/45/42 24/46/42 26/47/43 18/48/44
f 8/49/45 9/50/45 24/51/45 15/52/45
f 18/48/44 26/47/43 30/38/35 21/37/34
f 20/40/37 29/39/36 28/42/39 19/41/38
f 17/44/41 27/43/40 25/20/46 16/53/47
f 23/54/48 9/50/3 11/55/2
f 23/54/48 11/55/2 25/56/46
f 23/54/48 26/57/48 24/51/48
f 23/54/48 25/56/46 27/58/40
f 23/54/48 27/58/40 28/59/39
f 23/54/48 28/59/39 29/60/36
f 23/54/48 29/60/36 30/61/48
f 23/54/48 30/61/48 26/57/48
f 22/62/49 10/63/9 31/64/49
f 22/62/49 32/65/33 13/66/10
f 22/62/49 31/64/49 33/67/49
f 22/62/49 34/68/26 32/65/33
f 22/62/49 35/69/27 34/68/26
f 22/62/49 36/70/22 35/69/27
f 22/62/49 37/71/49 36/70/22
f 22/62/49 33/67/49 37/71/49
f 11/72/18 42/73/50 41/7/7 12/6/6
f 4/74/51 46/75/52 49/76/53 5/77/54
f 12/6/6 43/5/5 40/78/55 13/79/19
f 3/80/56 48/81/57 51/82/58 6/83/59
f 10/84/60 44/85/61 39/86/16 8/14/14
f 2/87/62 50/88/63 53/89/64 7/90/65
f 54/91/66 45/16/15 39/18/16 7/92/65
f 14/93/67 38/12/12 45/15/15 54/94/66
f 2/95/68 44/8/8 40/11/11 6/96/69
f 3/80/56 43/5/5 41/7/7 5/77/54
f 4/97/70 42/1/1 38/4/4 14/98/71
f 15/52/45 31/64/45 10/63/45 8/49/45
f 24/51/48 9/50/3 23/54/48
f 13/66/10 10/63/9 22/62/49
f 44/85/61 2/87/62 7/90/65 39/86/16
f 1/99/72 46/100/73 47/101/74
f 1/99/72 48/102/75 49/103/76
f 1/99/72 50/104/77 51/105/78
f 1/99/72 47/101/74 52/106/79
f 1/99/72 53/107/80 50/104/77
f 1/99/72 51/105/78 48/102/75
f 1/99/72 49/103/76 46/100/73
f 1/99/72 52/106/79 53/107/80
f 52/108/81 54/91/66 7/92/65 53/109/64
f 47/110/82 14/93/67 54/94/66 52/111/81
f 50/112/83 2/95/68 6/96/69 51/113/83
f 48/81/57 3/80/56 5/77/54 49/76/53
f 46/114/84 4/97/70 14/98/71 47/115/84
f 43/5/5 3/80/56 6/83/59 40/78/55
f 42/73/50 4/74/51 5/77/54 41/7/7
