# Blender v3.4.1 OBJ File: 'restaurant_bits_export.blend'
# www.blender.org
mtllib lid_B.mtl
o lid_B_Cylinder.202
v -0.099456 0.020000 -0.500000
v -0.095478 0.000000 -0.480000
v 0.095478 0.000000 -0.480000
v 0.099456 0.020000 -0.500000
v 0.271898 0.000000 -0.406924
v 0.283227 0.020000 -0.423880
v 0.406924 0.000000 -0.271898
v 0.423880 0.020000 -0.283227
v 0.480000 0.000000 -0.095478
v 0.500000 0.020000 -0.099456
v 0.480000 0.000000 0.095478
v 0.500000 0.020000 0.099456
v 0.406924 0.000000 0.271898
v 0.423880 0.020000 0.283227
v 0.271898 0.000000 0.406924
v 0.283227 0.020000 0.423880
v 0.095478 0.000000 0.480000
v 0.099456 0.020000 0.500000
v -0.095478 0.000000 0.480000
v -0.099456 0.020000 0.500000
v -0.271898 0.000000 0.406924
v -0.283227 0.020000 0.423880
v -0.406924 0.000000 0.271898
v -0.423880 0.020000 0.283227
v -0.480000 0.000000 0.095478
v -0.500000 0.020000 0.099456
v -0.480000 0.000000 -0.095478
v -0.500000 0.020000 -0.099456
v -0.406924 0.000000 -0.271898
v -0.423880 0.020000 -0.283227
v -0.271898 0.000000 -0.406924
v -0.283227 0.020000 -0.423880
v -0.000000 -0.000000 0.000000
v -0.283227 0.070000 -0.423880
v -0.423880 0.070000 -0.283227
v 0.058431 0.110000 -0.293750
v -0.500000 0.070000 -0.099456
v 0.166396 0.110000 -0.249029
v -0.500000 0.070000 0.099456
v 0.249029 0.110000 -0.166396
v -0.423880 0.070000 0.283227
v 0.293750 0.110000 -0.058431
v -0.283227 0.070000 0.423880
v 0.293750 0.110000 0.058431
v -0.099456 0.070000 0.500000
v 0.249029 0.110000 0.166396
v 0.099456 0.070000 0.500000
v 0.166396 0.110000 0.249029
v 0.283227 0.070000 0.423880
v 0.058431 0.110000 0.293750
v 0.423880 0.070000 0.283227
v -0.058431 0.110000 0.293750
v 0.500000 0.070000 0.099456
v -0.166396 0.110000 0.249029
v 0.500000 0.070000 -0.099456
v -0.249029 0.110000 0.166396
v 0.423880 0.070000 -0.283227
v -0.293750 0.110000 0.058431
v 0.283227 0.070000 -0.423880
v -0.293750 0.110000 -0.058431
v 0.099456 0.070000 -0.500000
v -0.249029 0.110000 -0.166396
v -0.166396 0.110000 -0.249029
v -0.099456 0.070000 -0.500000
v -0.058431 0.110000 -0.293750
v 0.000000 0.120000 0.000000
v 0.000000 0.108645 -0.094232
v 0.000000 0.200379 0.000000
v 0.066632 0.108645 -0.066632
v 0.094232 0.108645 0.000000
v 0.066632 0.108645 0.066632
v 0.000000 0.108645 0.094232
v -0.066632 0.108645 0.066632
v -0.094232 0.108645 0.000000
v -0.066632 0.108645 -0.066632
v 0.000000 0.133142 -0.084294
v 0.059605 0.133142 -0.059605
v 0.084295 0.133142 0.000000
v 0.059605 0.133142 0.059605
v 0.000000 0.133142 0.084295
v -0.059605 0.133142 0.059605
v -0.084294 0.133142 0.000000
v -0.059605 0.133142 -0.059605
v 0.094916 0.183842 -0.094916
v 0.000000 0.183842 -0.134232
v 0.000000 0.150324 -0.134232
v 0.134232 0.183842 0.000000
v 0.094916 0.183842 0.094916
v 0.000000 0.183842 0.134232
v -0.094916 0.183842 0.094916
v -0.134232 0.183842 0.000000
v -0.094916 0.183842 -0.094916
v 0.094916 0.150324 -0.094916
v 0.134232 0.150324 0.000000
v 0.094916 0.150324 0.094916
v 0.000000 0.150324 0.134232
v -0.094916 0.150324 0.094916
v -0.134232 0.150324 0.000000
v -0.094916 0.150324 -0.094916
v 0.066391 0.200379 -0.066391
v 0.000000 0.200379 -0.093892
v 0.093892 0.200379 0.000000
v 0.066391 0.200379 0.066391
v 0.000000 0.200379 0.093892
v -0.066391 0.200379 0.066391
v -0.093892 0.200379 0.000000
v -0.066391 0.200379 -0.066391
vt 0.285913 0.864711
vt 0.302603 0.864711
vt 0.311636 0.864711
vt 0.351737 0.897853
vt 0.351737 0.900692
vt 0.338431 0.900692
vt 0.338431 0.897853
vt 0.337359 0.864711
vt 0.350133 0.864711
vt 0.357047 0.864711
vt 0.357047 0.864711
vt 0.350133 0.864711
vt 0.337359 0.864711
vt 0.320669 0.864711
vt 0.302603 0.864711
vt 0.285913 0.864711
vt 0.273138 0.864711
vt 0.266225 0.864711
vt 0.266225 0.864711
vt 0.273138 0.864711
vt 0.321045 0.882228
vt 0.320669 0.880336
vt 0.302603 0.880336
vt 0.302227 0.882228
vt 0.338431 0.882228
vt 0.337359 0.880336
vt 0.351737 0.882228
vt 0.350133 0.880336
vt 0.358939 0.882228
vt 0.357047 0.880336
vt 0.358939 0.882228
vt 0.357047 0.880336
vt 0.351737 0.882228
vt 0.350133 0.880336
vt 0.338431 0.882228
vt 0.337359 0.880336
vt 0.321045 0.882228
vt 0.320669 0.880336
vt 0.302227 0.882228
vt 0.302603 0.880336
vt 0.284841 0.882228
vt 0.285913 0.880336
vt 0.271534 0.882228
vt 0.273138 0.880336
vt 0.264333 0.882228
vt 0.266225 0.880336
vt 0.264333 0.882228
vt 0.266225 0.880336
vt 0.271534 0.882228
vt 0.273138 0.880336
vt 0.284841 0.882228
vt 0.285913 0.880336
vt 0.284841 0.916317
vt 0.295894 0.951351
vt 0.288076 0.951351
vt 0.271534 0.916317
vt 0.321045 0.897853
vt 0.321045 0.900692
vt 0.338431 0.900692
vt 0.338431 0.897853
vt 0.264333 0.897853
vt 0.264333 0.900692
vt 0.271534 0.900692
vt 0.271534 0.897853
vt 0.321045 0.897853
vt 0.321045 0.900692
vt 0.302227 0.900692
vt 0.302227 0.897853
vt 0.351737 0.897853
vt 0.351737 0.900692
vt 0.358939 0.900692
vt 0.358939 0.897853
vt 0.284841 0.897853
vt 0.284841 0.900692
vt 0.271534 0.900692
vt 0.271534 0.897853
vt 0.358939 0.897853
vt 0.358939 0.900692
vt 0.284841 0.897853
vt 0.284841 0.900692
vt 0.302227 0.900692
vt 0.302227 0.897853
vt 0.264333 0.897853
vt 0.264333 0.900692
vt 0.320669 0.864711
vt 0.351737 0.916317
vt 0.335196 0.951351
vt 0.339426 0.951351
vt 0.358939 0.916317
vt 0.283845 0.951351
vt 0.264333 0.916317
vt 0.339426 0.951351
vt 0.358939 0.916317
vt 0.283845 0.951351
vt 0.264333 0.916317
vt 0.335196 0.951351
vt 0.351737 0.916317
vt 0.271534 0.916317
vt 0.288076 0.951351
vt 0.295894 0.951351
vt 0.284841 0.916317
vt 0.327378 0.951351
vt 0.338431 0.916317
vt 0.317164 0.951351
vt 0.321045 0.916317
vt 0.302227 0.916317
vt 0.306108 0.951351
vt 0.317164 0.951351
vt 0.321045 0.916317
vt 0.306108 0.951351
vt 0.302227 0.916317
vt 0.327378 0.951351
vt 0.338431 0.916317
vt 0.311636 0.952297
vt 0.331671 0.951911
vt 0.324244 0.951911
vt 0.331949 0.929098
vt 0.342568 0.929098
vt 0.324244 0.860184
vt 0.331671 0.860184
vt 0.342568 0.867653
vt 0.331949 0.867653
vt 0.306308 0.951911
vt 0.288373 0.951911
vt 0.280669 0.929098
vt 0.306308 0.929098
vt 0.306308 0.860184
vt 0.306308 0.867653
vt 0.288373 0.860184
vt 0.280669 0.867653
vt 0.280943 0.951911
vt 0.288373 0.951911
vt 0.280669 0.929098
vt 0.270048 0.929098
vt 0.324244 0.951911
vt 0.331949 0.929098
vt 0.280943 0.860184
vt 0.270048 0.867653
vt 0.284630 0.880785
vt 0.288373 0.891434
vt 0.306308 0.891434
vt 0.306308 0.880785
vt 0.275652 0.880785
vt 0.280943 0.891434
vt 0.284630 0.880785
vt 0.288373 0.891434
vt 0.306308 0.880785
vt 0.306308 0.891434
vt 0.327985 0.880785
vt 0.324244 0.891434
vt 0.336963 0.880785
vt 0.331671 0.891434
vt 0.327985 0.880785
vt 0.324244 0.891434
vt 0.306308 0.898903
vt 0.306308 0.913473
vt 0.331949 0.913473
vt 0.331949 0.898903
vt 0.342568 0.913473
vt 0.342568 0.898903
vt 0.331949 0.913473
vt 0.331949 0.898903
vt 0.306308 0.913473
vt 0.306308 0.898903
vt 0.280669 0.913473
vt 0.280669 0.898903
vt 0.270048 0.913473
vt 0.270048 0.898903
vt 0.280669 0.913473
vt 0.280669 0.898903
vt 0.306308 0.951911
vt 0.306308 0.929098
vt 0.324244 0.860184
vt 0.331949 0.867653
vt 0.306308 0.860184
vt 0.306308 0.867653
vt 0.288373 0.860184
vt 0.280669 0.867653
vt 0.306308 0.951911
vn -0.0000 -1.0000 -0.0000
vn 0.8315 0.0000 0.5556
vn 0.5556 0.0000 0.8315
vn 0.1366 -0.7139 -0.6868
vn -0.1366 -0.7139 -0.6868
vn 0.3890 -0.7139 -0.5822
vn 0.5822 -0.7139 -0.3890
vn 0.6868 -0.7139 -0.1366
vn 0.6868 -0.7139 0.1366
vn 0.5822 -0.7139 0.3890
vn 0.3890 -0.7139 0.5822
vn 0.1366 -0.7139 0.6868
vn -0.1366 -0.7139 0.6868
vn -0.3890 -0.7139 0.5822
vn -0.5822 -0.7139 0.3890
vn -0.6868 -0.7139 0.1366
vn -0.6868 -0.7139 -0.1366
vn -0.5822 -0.7139 -0.3890
vn -0.3890 -0.7139 -0.5822
vn -0.1038 0.9824 0.1554
vn -0.0666 0.9928 0.0997
vn -0.0997 0.9928 0.0666
vn -0.1554 0.9824 0.1038
vn 0.1951 0.0000 -0.9808
vn 0.5556 0.0000 -0.8315
vn -0.9808 0.0000 -0.1951
vn -0.8315 0.0000 -0.5556
vn 0.1951 0.0000 0.9808
vn -0.1951 0.0000 0.9808
vn 0.8315 0.0000 -0.5556
vn 0.9808 0.0000 -0.1951
vn -0.5556 0.0000 0.8315
vn -0.8315 0.0000 0.5556
vn 0.9808 0.0000 0.1951
vn -0.5556 0.0000 -0.8315
vn -0.1951 0.0000 -0.9808
vn -0.9808 0.0000 0.1951
vn 0.1554 0.9824 -0.1038
vn 0.0997 0.9928 -0.0666
vn 0.1177 0.9928 -0.0234
vn 0.1833 0.9824 -0.0365
vn -0.1177 0.9928 0.0234
vn -0.1833 0.9824 0.0365
vn 0.1177 0.9928 0.0234
vn 0.1833 0.9824 0.0365
vn -0.1177 0.9928 -0.0234
vn -0.1833 0.9824 -0.0365
vn 0.0997 0.9928 0.0666
vn 0.1554 0.9824 0.1038
vn -0.1554 0.9824 -0.1038
vn -0.0997 0.9928 -0.0666
vn -0.0666 0.9928 -0.0997
vn -0.1038 0.9824 -0.1554
vn 0.0666 0.9928 0.0997
vn 0.1038 0.9824 0.1554
vn 0.0234 0.9928 0.1177
vn 0.0365 0.9824 0.1833
vn -0.0365 0.9824 -0.1833
vn -0.0234 0.9928 -0.1177
vn 0.0234 0.9928 -0.1177
vn 0.0365 0.9824 -0.1833
vn -0.0234 0.9928 0.1177
vn -0.0365 0.9824 0.1833
vn 0.0666 0.9928 -0.0997
vn 0.1038 0.9824 -0.1554
vn 0.0000 1.0000 -0.0000
vn 0.2388 0.9711 0.0000
vn 0.1689 0.9711 0.1689
vn 0.2682 0.9253 0.2682
vn 0.3793 0.9253 -0.0000
vn 0.2301 -0.9456 0.2301
vn 0.3254 -0.9456 0.0000
vn -0.0000 0.9711 0.2388
vn -0.1689 0.9711 0.1689
vn -0.2682 0.9253 0.2682
vn -0.0000 0.9253 0.3793
vn 0.0000 -0.9456 0.3254
vn -0.2301 -0.9456 0.2301
vn -0.2388 0.9711 0.0000
vn -0.1689 0.9711 -0.1689
vn -0.2682 0.9253 -0.2682
vn -0.3793 0.9253 -0.0000
vn 0.1689 0.9711 -0.1689
vn 0.2682 0.9253 -0.2682
vn -0.3254 -0.9456 0.0000
vn -0.6552 0.3759 -0.6552
vn -0.0000 0.3759 -0.9267
vn -0.9267 0.3759 -0.0000
vn -0.6552 0.3759 0.6552
vn -0.0000 0.3759 0.9267
vn 0.6552 0.3759 0.6552
vn 0.9267 0.3759 0.0000
vn 0.6552 0.3759 -0.6552
vn 0.0000 0.0000 -1.0000
vn 0.3827 0.0000 -0.9239
vn 0.9239 0.0000 -0.3827
vn 1.0000 0.0000 -0.0000
vn 0.9239 0.0000 0.3827
vn 0.3827 0.0000 0.9239
vn -0.0000 0.0000 1.0000
vn -0.3827 0.0000 0.9239
vn -0.9239 0.0000 0.3827
vn -1.0000 0.0000 -0.0000
vn -0.9239 0.0000 -0.3827
vn -0.3827 0.0000 -0.9239
vn -0.0000 0.9711 -0.2388
vn -0.0000 0.9253 -0.3793
vn 0.2301 -0.9456 -0.2301
vn -0.0000 -0.9456 -0.3254
vn -0.2301 -0.9456 -0.2301
usemtl restaurant
s 1
f 31/1/1 2/2/1 33/3/1
f 14/4/2 51/5/2 49/6/3 16/7/3
f 5/8/1 7/9/1 33/3/1
f 7/9/1 9/10/1 33/3/1
f 9/10/1 11/11/1 33/3/1
f 11/11/1 13/12/1 33/3/1
f 13/12/1 15/13/1 33/3/1
f 15/13/1 17/14/1 33/3/1
f 17/14/1 19/15/1 33/3/1
f 19/15/1 21/16/1 33/3/1
f 21/16/1 23/17/1 33/3/1
f 23/17/1 25/18/1 33/3/1
f 25/18/1 27/19/1 33/3/1
f 27/19/1 29/20/1 33/3/1
f 29/20/1 31/1/1 33/3/1
f 4/21/4 3/22/4 2/23/5 1/24/5
f 6/25/6 5/26/6 3/22/4 4/21/4
f 8/27/7 7/28/7 5/26/6 6/25/6
f 10/29/8 9/30/8 7/28/7 8/27/7
f 12/31/9 11/32/9 9/30/8 10/29/8
f 14/33/10 13/34/10 11/32/9 12/31/9
f 16/35/11 15/36/11 13/34/10 14/33/10
f 18/37/12 17/38/12 15/36/11 16/35/11
f 20/39/13 19/40/13 17/38/12 18/37/12
f 22/41/14 21/42/14 19/40/13 20/39/13
f 24/43/15 23/44/15 21/42/14 22/41/14
f 26/45/16 25/46/16 23/44/15 24/43/15
f 28/47/17 27/48/17 25/46/16 26/45/16
f 30/49/18 29/50/18 27/48/17 28/47/17
f 32/51/19 31/52/19 29/50/18 30/49/18
f 1/24/5 2/23/5 31/52/19 32/51/19
f 43/53/20 54/54/21 56/55/22 41/56/23
f 4/57/24 61/58/24 59/59/25 6/60/25
f 28/61/26 37/62/26 35/63/27 30/64/27
f 18/65/28 47/66/28 45/67/29 20/68/29
f 8/69/30 57/70/30 55/71/31 10/72/31
f 22/73/32 43/74/32 41/75/33 24/76/33
f 12/77/34 53/78/34 51/5/2 14/4/2
f 32/79/35 34/80/35 64/81/36 1/82/36
f 1/82/36 64/81/36 61/58/24 4/57/24
f 26/83/37 39/84/37 37/62/26 28/61/26
f 16/7/3 49/6/3 47/66/28 18/65/28
f 6/60/25 59/59/25 57/70/30 8/69/30
f 30/64/27 35/63/27 34/80/35 32/79/35
f 20/68/29 45/67/29 43/74/32 22/73/32
f 10/72/31 55/71/31 53/78/34 12/77/34
f 24/76/33 41/75/33 39/84/37 26/83/37
f 33/3/1 3/85/1 5/8/1
f 2/2/1 3/85/1 33/3/1
f 57/86/38 40/87/39 42/88/40 55/89/41
f 41/56/23 56/55/22 58/90/42 39/91/43
f 55/89/41 42/88/40 44/92/44 53/93/45
f 39/91/43 58/90/42 60/94/46 37/95/47
f 53/93/45 44/92/44 46/96/48 51/97/49
f 35/98/50 62/99/51 63/100/52 34/101/53
f 51/97/49 46/96/48 48/102/54 49/103/55
f 37/95/47 60/94/46 62/99/51 35/98/50
f 49/103/55 48/102/54 50/104/56 47/105/57
f 64/106/58 65/107/59 36/108/60 61/109/61
f 47/105/57 50/104/56 52/110/62 45/111/63
f 34/101/53 63/100/52 65/107/59 64/106/58
f 61/109/61 36/108/60 38/112/64 59/113/65
f 45/111/63 52/110/62 54/54/21 43/53/20
f 59/113/65 38/112/64 40/87/39 57/86/38
f 58/90/42 66/114/66 60/94/46
f 38/112/64 66/114/66 40/87/39
f 48/102/54 66/114/66 50/104/56
f 63/100/52 66/114/66 65/107/59
f 46/96/48 66/114/66 48/102/54
f 56/55/22 66/114/66 58/90/42
f 36/108/60 66/114/66 38/112/64
f 54/54/21 66/114/66 56/55/22
f 65/107/59 66/114/66 36/108/60
f 44/92/44 66/114/66 46/96/48
f 42/88/40 66/114/66 44/92/44
f 52/110/62 66/114/66 54/54/21
f 60/94/46 66/114/66 62/99/51
f 50/104/56 66/114/66 52/110/62
f 62/99/51 66/114/66 63/100/52
f 40/87/39 66/114/66 42/88/40
f 102/115/67 103/116/68 88/117/69 87/118/70
f 79/119/71 78/120/72 94/121/72 95/122/71
f 104/123/73 105/124/74 90/125/75 89/126/76
f 80/127/77 79/119/71 95/122/71 96/128/77
f 81/129/78 80/127/77 96/128/77 97/130/78
f 106/131/79 107/132/80 92/133/81 91/134/82
f 100/135/83 102/115/67 87/118/70 84/136/84
f 82/137/85 81/129/78 97/130/78 98/138/85
f 75/139/86 83/140/86 76/141/87 67/142/87
f 74/143/88 82/144/88 83/140/86 75/139/86
f 73/145/89 81/146/89 82/144/88 74/143/88
f 72/147/90 80/148/90 81/146/89 73/145/89
f 71/149/91 79/150/91 80/148/90 72/147/90
f 70/151/92 78/152/92 79/150/91 71/149/91
f 69/153/93 77/154/93 78/152/92 70/151/92
f 67/142/87 76/141/87 77/154/93 69/153/93
f 86/155/94 85/156/94 84/157/95 93/158/95
f 93/158/96 84/157/96 87/159/97 94/160/97
f 94/160/97 87/159/97 88/161/98 95/162/98
f 95/162/99 88/161/99 89/163/100 96/164/100
f 96/164/100 89/163/100 90/165/101 97/166/101
f 97/166/102 90/165/102 91/167/103 98/168/103
f 98/168/103 91/167/103 92/169/104 99/170/104
f 99/170/105 92/169/105 85/156/94 86/155/94
f 107/132/80 101/171/106 85/172/107 92/133/81
f 78/120/72 77/173/108 93/174/108 94/121/72
f 101/171/106 100/135/83 84/136/84 85/172/107
f 77/173/108 76/175/109 86/176/109 93/174/108
f 105/124/74 106/131/79 91/134/82 90/125/75
f 76/175/109 83/177/110 99/178/110 86/176/109
f 83/177/110 82/137/85 98/138/85 99/178/110
f 103/116/68 104/123/73 89/126/76 88/117/69
f 68/179/66 100/135/83 101/171/106
f 68/179/66 102/115/67 100/135/83
f 68/179/66 103/116/68 102/115/67
f 68/179/66 104/123/73 103/116/68
f 68/179/66 105/124/74 104/123/73
f 68/179/66 106/131/79 105/124/74
f 68/179/66 107/132/80 106/131/79
f 68/179/66 101/171/106 107/132/80
