# Blender v3.4.1 OBJ File: 'restaurant_bits_export.blend'
# www.blender.org
mtllib menu.mtl
o menu_Cube.18195
v -0.190000 0.740000 0.050000
v -0.230000 0.800000 0.030000
v -0.250000 0.780000 0.030000
v -0.250000 0.780000 -0.030000
v -0.230000 0.800000 -0.030000
v -0.190000 0.740000 -0.050000
v 0.250000 0.780000 0.030000
v 0.230000 0.800000 0.030000
v 0.190000 0.740000 0.050000
v 0.190000 0.740000 -0.050000
v 0.230000 0.800000 -0.030000
v 0.250000 0.780000 -0.030000
v -0.250000 0.148676 0.030000
v -0.190000 0.200000 0.050000
v -0.190000 0.200000 -0.050000
v -0.250000 0.148676 -0.030000
v 0.250000 0.148676 -0.030000
v 0.190000 0.200000 -0.050000
v 0.190000 0.200000 0.050000
v 0.250000 0.148676 0.030000
v -0.250000 0.088676 -0.130000
v -0.230000 0.110290 -0.132850
v -0.230000 0.080000 -0.150000
v -0.250000 0.000000 -0.130000
v -0.230000 0.000000 -0.150000
v 0.230000 0.000000 -0.150000
v 0.250000 0.000000 -0.130000
v 0.250000 0.088676 -0.130000
v 0.230000 0.080000 -0.150000
v 0.230000 0.110290 -0.132850
v 0.250000 0.088676 0.130000
v 0.230000 0.110290 0.132850
v 0.230000 0.080000 0.150000
v 0.250000 0.000000 0.130000
v 0.230000 0.000000 0.150000
v -0.230000 0.000000 0.150000
v -0.250000 0.000000 0.130000
v -0.250000 0.088676 0.130000
v -0.230000 0.080000 0.150000
v -0.230000 0.110290 0.132850
v -0.230000 0.160000 0.050000
v -0.230000 0.780000 0.050000
v 0.230000 0.780000 -0.050000
v -0.230000 0.780000 -0.050000
v 0.230000 0.780000 0.050000
v -0.230000 0.160000 -0.050000
v 0.230000 0.160000 -0.050000
v 0.230000 0.160000 0.050000
v -0.171000 0.227000 0.030000
v -0.171000 0.713000 0.030000
v 0.171000 0.713000 0.030000
v 0.171000 0.227000 0.030000
v 0.171000 0.713000 -0.030000
v -0.171000 0.713000 -0.030000
v -0.171000 0.227000 -0.030000
v 0.171000 0.227000 -0.030000
vt 0.458144 0.953523
vt 0.404453 0.953523
vt 0.404453 0.953523
vt 0.458144 0.953523
vt 0.460479 0.830625
vt 0.460479 0.904314
vt 0.460479 0.904314
vt 0.460479 0.830625
vt 0.402119 0.854872
vt 0.402119 0.854872
vt 0.402119 0.844522
vt 0.402119 0.844522
vt 0.402119 0.830625
vt 0.402119 0.904314
vt 0.402119 0.904314
vt 0.402119 0.830625
vt 0.453476 0.867866
vt 0.409122 0.867866
vt 0.411340 0.871017
vt 0.451258 0.871017
vt 0.402119 0.861875
vt 0.402119 0.861875
vt 0.460479 0.854872
vt 0.460479 0.854872
vt 0.460479 0.844522
vt 0.460479 0.844522
vt 0.404453 0.863197
vt 0.458144 0.863197
vt 0.458144 0.857395
vt 0.404453 0.857395
vt 0.458144 0.863197
vt 0.404453 0.863197
vt 0.404453 0.857395
vt 0.458144 0.857395
vt 0.460479 0.813272
vt 0.402119 0.813272
vt 0.404453 0.813272
vt 0.458144 0.813272
vt 0.458144 0.828897
vt 0.458144 0.838235
vt 0.404453 0.838235
vt 0.404453 0.828897
vt 0.460479 0.861875
vt 0.460479 0.861875
vt 0.402119 0.813272
vt 0.460479 0.813272
vt 0.458144 0.813272
vt 0.404453 0.813272
vt 0.404453 0.828897
vt 0.404453 0.838235
vt 0.458144 0.838235
vt 0.458144 0.828897
vt 0.404453 0.935564
vt 0.404453 0.937898
vt 0.402119 0.935564
vt 0.402119 0.935564
vt 0.404453 0.937898
vt 0.404453 0.935564
vt 0.460479 0.935564
vt 0.458144 0.937898
vt 0.458144 0.935564
vt 0.458144 0.935564
vt 0.458144 0.937898
vt 0.460479 0.935564
vt 0.402119 0.870497
vt 0.404453 0.873020
vt 0.404453 0.869485
vt 0.460479 0.870497
vt 0.458144 0.869485
vt 0.458144 0.873020
vt 0.460479 0.870497
vt 0.458144 0.873020
vt 0.458144 0.869485
vt 0.402119 0.870497
vt 0.404453 0.869485
vt 0.404453 0.873020
vt 0.404453 0.831947
vt 0.404453 0.904314
vt 0.404453 0.904314
vt 0.404453 0.831947
vt 0.458144 0.831947
vt 0.458144 0.904314
vt 0.458144 0.904314
vt 0.458144 0.831947
vt 0.404453 0.860147
vt 0.402119 0.860147
vt 0.460479 0.860147
vt 0.458144 0.860147
vt 0.404453 0.878822
vt 0.402119 0.877500
vt 0.458144 0.878822
vt 0.460479 0.877500
vt 0.458144 0.860147
vt 0.460479 0.860147
vt 0.404453 0.860147
vt 0.402119 0.860147
vt 0.402119 0.877500
vt 0.404453 0.878822
vt 0.460479 0.877500
vt 0.458144 0.878822
vt 0.409122 0.884020
vt 0.409122 0.820991
vt 0.411340 0.824142
vt 0.411340 0.880868
vt 0.409122 0.836616
vt 0.409122 0.899645
vt 0.453476 0.899645
vt 0.409122 0.899645
vt 0.453476 0.899645
vt 0.409122 0.836616
vt 0.453476 0.836616
vt 0.453476 0.836616
vt 0.597456 0.767408
vt 0.597456 0.976391
vt 0.520359 0.976391
vt 0.520359 0.767408
vt 0.453476 0.820991
vt 0.453476 0.884020
vt 0.451258 0.880868
vt 0.451258 0.824142
vt 0.409122 0.867866
vt 0.453476 0.867866
vt 0.451258 0.871017
vt 0.411340 0.871017
vt 0.453476 0.868395
vt 0.409122 0.868395
vt 0.411340 0.865243
vt 0.451258 0.865243
vt 0.520359 0.767408
vt 0.520359 0.976391
vt 0.597456 0.976391
vt 0.597456 0.767408
vt 0.409122 0.820991
vt 0.409122 0.884020
vt 0.411340 0.880868
vt 0.411340 0.824142
vt 0.409122 0.868395
vt 0.453476 0.868395
vt 0.451258 0.865243
vt 0.411340 0.865243
vt 0.453476 0.884020
vt 0.453476 0.820991
vt 0.451258 0.824142
vt 0.451258 0.880868
vn 0.3416 0.8756 -0.3416
vn -0.3416 0.8756 -0.3416
vn -0.3416 0.8756 0.3416
vn 0.3416 0.8756 0.3416
vn 0.9701 0.1196 -0.2112
vn 0.8756 0.3416 -0.3416
vn 0.8756 0.3416 0.3416
vn 0.9701 0.1196 0.2112
vn -0.8692 0.2436 0.4303
vn -0.8692 0.2436 -0.4303
vn -0.9239 0.0000 -0.3827
vn -0.9239 0.0000 0.3827
vn -0.9701 0.1196 0.2112
vn -0.8756 0.3416 0.3416
vn -0.8756 0.3416 -0.3416
vn -0.9701 0.1196 -0.2112
vn 0.0000 0.5952 -0.8036
vn 0.8692 0.2436 -0.4303
vn 0.8692 0.2436 0.4303
vn 0.9239 0.0000 0.3827
vn 0.9239 0.0000 -0.3827
vn 0.0000 0.8575 -0.5145
vn 0.4734 0.4340 -0.7665
vn 0.3403 0.6743 -0.6554
vn -0.3403 0.6743 -0.6554
vn 0.4734 0.4340 0.7665
vn 0.0000 0.8575 0.5145
vn -0.3403 0.6743 0.6554
vn 0.3403 0.6743 0.6554
vn 0.0000 -1.0000 0.0000
vn 0.0000 0.0000 1.0000
vn 0.3403 0.2151 0.9154
vn -0.3403 0.2151 0.9154
vn 0.0000 0.0000 -1.0000
vn -0.3403 0.2151 -0.9154
vn 0.3403 0.2151 -0.9154
vn -0.4606 0.4606 0.7588
vn -0.3416 0.3416 -0.8756
vn 0.3416 0.3416 0.8756
vn 0.3416 0.3416 -0.8756
vn -0.7544 0.3234 0.5712
vn -0.5829 0.2499 -0.7732
vn -0.7071 0.0000 -0.7071
vn 0.7071 0.0000 -0.7071
vn 0.7071 0.0000 0.7071
vn -0.7071 0.0000 0.7071
vn 0.7250 0.0000 0.6887
vn -0.7250 0.0000 0.6887
vn 0.0000 0.5952 0.8036
vn 0.0000 -0.5952 0.8036
vn 0.7250 0.0000 -0.6887
vn 0.0000 -0.5952 -0.8036
vn -0.7250 0.0000 -0.6887
usemtl restaurant
s 1
f 11/1/1 5/2/2 2/3/3 8/4/4
f 17/5/5 12/6/6 7/7/7 20/8/8
f 38/9/9 21/10/10 24/11/11 37/12/12
f 13/13/13 3/14/14 4/15/15 16/16/16
f 18/17/17 15/18/17 55/19/17 56/20/17
f 13/21/13 16/22/16 21/10/10 38/9/9
f 28/23/18 31/24/19 34/25/20 27/26/21
f 46/27/22 47/28/23 30/29/24 22/30/25
f 48/31/26 41/32/27 40/33/28 32/34/29
f 27/35/30 24/36/30 25/37/30 26/38/30
f 35/39/31 33/40/32 39/41/33 36/42/31
f 17/43/5 20/44/8 31/24/19 28/23/18
f 37/45/30 34/46/30 35/47/30 36/48/30
f 25/49/34 23/50/35 29/51/36 26/52/34
f 42/53/37 2/54/3 3/55/14
f 4/56/15 5/57/2 44/58/38
f 7/59/7 8/60/4 45/61/39
f 43/62/40 11/63/1 12/64/6
f 21/65/10 22/66/25 23/67/35
f 28/68/18 29/69/36 30/70/24
f 31/71/19 32/72/29 33/73/32
f 38/74/9 39/75/33 40/76/28
f 41/77/41 42/78/37 3/14/14 13/13/13
f 2/54/3 5/57/2 4/56/15 3/55/14
f 5/57/2 11/63/1 43/62/40 44/58/38
f 11/63/1 8/60/4 7/59/7 12/64/6
f 8/60/4 2/54/3 42/53/37 45/61/39
f 44/79/38 46/80/42 16/16/16 4/15/15
f 12/6/6 17/5/5 47/81/23 43/82/40
f 45/83/39 48/84/26 20/8/8 7/7/7
f 23/67/35 25/85/43 24/86/11 21/65/10
f 28/68/18 27/87/21 26/88/44 29/69/36
f 22/66/25 30/70/24 29/69/36 23/67/35
f 46/89/42 22/66/25 21/65/10 16/90/16
f 30/70/24 47/91/23 17/92/5 28/68/18
f 33/73/32 35/93/45 34/94/20 31/71/19
f 36/95/46 39/75/33 38/74/9 37/96/12
f 32/72/29 40/76/28 39/75/33 33/73/32
f 13/97/13 38/74/9 40/76/28 41/98/41
f 31/71/19 20/99/8 48/100/26 32/72/29
f 1/101/47 14/102/47 49/103/47 50/104/47
f 14/105/31 1/106/31 42/78/31 41/77/31
f 10/107/34 6/108/34 44/79/38 43/82/40
f 1/106/31 9/109/31 45/83/39 42/78/31
f 6/108/34 15/110/34 46/80/42 44/79/38
f 18/111/34 10/107/34 43/82/40 47/81/23
f 9/109/31 19/112/31 48/84/26 45/83/39
f 19/112/31 14/105/31 41/77/31 48/84/26
f 15/110/34 18/111/34 47/81/23 46/80/42
f 52/113/31 51/114/31 50/115/31 49/116/31
f 19/117/48 9/118/48 51/119/48 52/120/48
f 14/121/49 19/122/49 52/123/49 49/124/49
f 9/125/50 1/126/50 50/127/50 51/128/50
f 55/129/34 54/130/34 53/131/34 56/132/34
f 15/133/51 6/134/51 54/135/51 55/136/51
f 6/137/52 10/138/52 53/139/52 54/140/52
f 10/141/53 18/142/53 56/143/53 53/144/53
f 37/45/30 24/36/30 27/35/30 34/46/30
