# Blender v3.4.1 OBJ File: 'restaurant_bits_export.blend'
# www.blender.org
mtllib oven_door.mtl
o oven_door_Cube.069
v -0.870000 0.400000 1.170000
v -0.670000 0.630000 1.200000
v -0.900000 0.430001 1.170000
v -0.670000 1.370001 1.200000
v -0.870000 1.600001 1.170000
v -0.900000 1.570001 1.170000
v -0.870000 0.400000 0.930000
v -0.900000 0.430001 0.930000
v -0.870000 0.430001 0.900000
v -0.870000 1.600001 0.930000
v -0.870000 1.570001 0.900000
v -0.900000 1.570001 0.930000
v 0.370000 0.400000 1.170000
v 0.400000 0.430001 1.170000
v 0.170000 0.630000 1.200000
v 0.370000 1.600001 1.170000
v 0.170000 1.370001 1.200000
v 0.400000 1.570001 1.170000
v 0.370000 0.400000 0.930000
v 0.370000 0.430001 0.900000
v 0.400000 0.430001 0.930000
v 0.370000 1.600001 0.930000
v 0.400000 1.570001 0.930000
v 0.370000 1.570001 0.900000
v -0.870000 0.430001 1.200000
v -0.870000 1.570001 1.200000
v 0.370000 1.570001 1.200000
v 0.370000 0.430001 1.200000
v -0.670000 0.730000 1.100000
v -0.670000 1.270001 1.100000
v 0.170000 1.270001 1.100000
v 0.170000 0.730000 1.100000
v -0.670000 1.420001 1.300000
v -0.670000 1.520001 1.300000
v -0.770000 1.420001 1.200000
v -0.770000 1.520001 1.200000
v 0.170000 1.420001 1.300000
v 0.170000 1.520001 1.300000
v 0.270000 1.420001 1.200000
v 0.270000 1.520001 1.200000
vt 0.449176 0.842551
vt 0.415839 0.842551
vt 0.415839 0.838036
vt 0.449176 0.838036
vt 0.458305 0.831362
vt 0.458305 0.882830
vt 0.458305 0.882830
vt 0.458305 0.831362
vt 0.457114 0.915435
vt 0.407901 0.915435
vt 0.407901 0.915435
vt 0.457114 0.915435
vt 0.406711 0.831362
vt 0.406711 0.882830
vt 0.406711 0.882830
vt 0.406711 0.831362
vt 0.407901 0.846987
vt 0.407901 0.898455
vt 0.457114 0.898455
vt 0.457114 0.846987
vt 0.407901 0.814382
vt 0.407901 0.815737
vt 0.406711 0.815737
vt 0.407901 0.929705
vt 0.407901 0.931060
vt 0.406711 0.929705
vt 0.407901 0.814382
vt 0.406711 0.815737
vt 0.407901 0.815737
vt 0.407901 0.931060
vt 0.407901 0.929705
vt 0.406711 0.929705
vt 0.457114 0.814382
vt 0.458305 0.815737
vt 0.457114 0.815737
vt 0.457114 0.931060
vt 0.457114 0.929705
vt 0.458305 0.929705
vt 0.457114 0.814382
vt 0.457114 0.815737
vt 0.458305 0.815737
vt 0.457114 0.931060
vt 0.458305 0.929705
vt 0.457114 0.929705
vt 0.407901 0.798757
vt 0.407901 0.798757
vt 0.406711 0.800112
vt 0.406711 0.800112
vt 0.407901 0.862612
vt 0.407901 0.914080
vt 0.406711 0.914080
vt 0.406711 0.862612
vt 0.406711 0.914080
vt 0.407901 0.914080
vt 0.407901 0.862612
vt 0.406711 0.862612
vt 0.458305 0.914080
vt 0.458305 0.862612
vt 0.457114 0.862612
vt 0.457114 0.914080
vt 0.457114 0.798757
vt 0.457114 0.798757
vt 0.458305 0.800112
vt 0.458305 0.800112
vt 0.458305 0.914080
vt 0.457114 0.914080
vt 0.457114 0.862612
vt 0.458305 0.862612
vt 0.415839 0.856016
vt 0.415839 0.889426
vt 0.407901 0.898455
vt 0.407901 0.846987
vt 0.449176 0.889426
vt 0.449176 0.856016
vt 0.457114 0.846987
vt 0.457114 0.898455
vt 0.324176 0.860531
vt 0.324176 0.884911
vt 0.290839 0.884911
vt 0.290839 0.860531
vt 0.449176 0.824766
vt 0.449176 0.858176
vt 0.449176 0.853661
vt 0.449176 0.829281
vt 0.415839 0.871641
vt 0.449176 0.871641
vt 0.449176 0.876156
vt 0.415839 0.876156
vt 0.415839 0.858176
vt 0.415839 0.824766
vt 0.415839 0.829281
vt 0.415839 0.853661
vt 0.290839 0.868517
vt 0.290839 0.875718
vt 0.286870 0.875718
vt 0.286870 0.868517
vt 0.286870 0.893439
vt 0.286870 0.900640
vt 0.328145 0.900640
vt 0.328145 0.893439
vt 0.328145 0.868517
vt 0.328145 0.875718
vt 0.324176 0.875718
vt 0.324176 0.868517
vt 0.324176 0.893439
vt 0.324176 0.900640
vt 0.290839 0.900640
vt 0.290839 0.893439
vt 0.286870 0.843595
vt 0.328145 0.843595
vt 0.324176 0.843595
vt 0.290839 0.843595
vt 0.328145 0.950484
vt 0.286870 0.950484
vt 0.290839 0.950484
vt 0.324176 0.950484
vn 0.0000 -0.7071 0.7071
vn 1.0000 0.0000 0.0000
vn 0.0000 1.0000 0.0000
vn -1.0000 0.0000 0.0000
vn 0.0000 0.0000 -1.0000
vn -0.5774 -0.5773 0.5774
vn -0.5774 0.5773 0.5774
vn -0.5774 -0.5773 -0.5774
vn -0.5773 0.5773 -0.5774
vn 0.5774 -0.5773 0.5774
vn 0.5774 0.5773 0.5774
vn 0.5774 -0.5773 -0.5774
vn 0.5773 0.5774 -0.5774
vn -0.7071 -0.7071 0.0000
vn -0.7071 0.0000 0.7071
vn -0.7071 0.7071 0.0000
vn -0.7071 0.0000 -0.7071
vn 0.0000 -0.7071 -0.7071
vn 0.0000 0.7071 -0.7071
vn 0.7071 0.0000 -0.7071
vn 0.7071 -0.7071 0.0000
vn 0.7071 0.7071 0.0000
vn 0.7071 0.0000 0.7071
vn 0.0000 0.7071 0.7071
vn 0.0000 -1.0000 0.0000
vn 0.0000 0.0000 1.0000
usemtl restaurant
s off
f 17/1/1 4/2/1 30/3/1 31/4/1
f 21/5/2 23/6/2 18/7/2 14/8/2
f 22/9/3 10/10/3 5/11/3 16/12/3
f 3/13/4 6/14/4 12/15/4 8/16/4
f 9/17/5 11/18/5 24/19/5 20/20/5
f 1/21/6 25/22/6 3/23/6
f 26/24/7 5/25/7 6/26/7
f 7/27/8 8/28/8 9/29/8
f 10/30/9 11/31/9 12/32/9
f 13/33/10 14/34/10 28/35/10
f 16/36/11 27/37/11 18/38/11
f 19/39/12 20/40/12 21/41/12
f 22/42/13 23/43/13 24/44/13
f 7/45/14 1/46/14 3/47/14 8/48/14
f 25/49/15 26/50/15 6/51/15 3/52/15
f 5/11/16 10/10/16 12/53/16 6/51/16
f 11/54/17 9/55/17 8/56/17 12/53/17
f 19/39/18 7/27/18 9/29/18 20/40/18
f 10/30/19 22/42/19 24/44/19 11/31/19
f 23/57/20 21/58/20 20/59/20 24/60/20
f 13/61/21 19/62/21 21/63/21 14/64/21
f 22/9/22 16/12/22 18/65/22 23/57/22
f 27/66/23 28/67/23 14/68/23 18/65/23
f 1/21/1 13/33/1 28/35/1 25/22/1
f 16/36/24 5/25/24 26/24/24 27/37/24
f 7/45/25 19/62/25 13/61/25 1/46/25
f 2/69/26 4/70/26 26/71/26 25/72/26
f 17/73/26 15/74/26 28/75/26 27/76/26
f 15/74/26 2/69/26 25/72/26 28/75/26
f 4/70/26 17/73/26 27/76/26 26/71/26
f 32/77/26 31/78/26 30/79/26 29/80/26
f 15/81/4 17/82/4 31/83/4 32/84/4
f 2/85/24 15/86/24 32/87/24 29/88/24
f 4/89/2 2/90/2 29/91/2 30/92/2
f 33/93/15 34/94/15 36/95/15 35/96/15
f 35/97/5 36/98/5 40/99/5 39/100/5
f 39/101/23 40/102/23 38/103/23 37/104/23
f 37/105/26 38/106/26 34/107/26 33/108/26
f 35/109/25 39/110/25 37/111/25 33/112/25
f 40/113/3 36/114/3 34/115/3 38/116/3
