# Blender v3.4.1 OBJ File: 'restaurant_bits_export.blend'
# www.blender.org
mtllib pan_B.mtl
o pan_B_Cylinder.200
v 0.500000 0.230000 -0.099456
v 0.480000 0.250000 -0.095478
v 0.480000 0.250000 0.095478
v 0.500000 0.230000 0.099456
v 0.406924 0.250000 0.271898
v 0.423880 0.230000 0.283227
v 0.271898 0.250000 0.406924
v 0.283227 0.230000 0.423880
v 0.095478 0.250000 0.480000
v 0.099456 0.230000 0.500000
v -0.095478 0.250000 0.480000
v -0.099456 0.230000 0.500000
v -0.271898 0.250000 0.406924
v -0.283227 0.230000 0.423880
v -0.406924 0.250000 0.271898
v -0.423880 0.230000 0.283227
v -0.480000 0.250000 0.095478
v -0.500000 0.230000 0.099456
v -0.480000 0.250000 -0.095478
v -0.500000 0.230000 -0.099456
v -0.406924 0.250000 -0.271898
v -0.423880 0.230000 -0.283227
v -0.271898 0.250000 -0.406924
v -0.283227 0.230000 -0.423880
v -0.095478 0.250000 -0.480000
v -0.099456 0.230000 -0.500000
v 0.095478 0.250000 -0.480000
v 0.099456 0.230000 -0.500000
v 0.271898 0.250000 -0.406924
v 0.283227 0.230000 -0.423880
v 0.406924 0.250000 -0.271898
v 0.423880 0.230000 -0.283227
v 0.400000 0.230000 0.079565
v 0.420000 0.250000 0.083543
v 0.420000 0.250000 -0.083543
v 0.400000 0.230000 -0.079565
v 0.356059 0.250000 -0.237911
v 0.339104 0.230000 -0.226582
v 0.237911 0.250000 -0.356059
v 0.226582 0.230000 -0.339104
v 0.083543 0.250000 -0.420000
v 0.079565 0.230000 -0.400000
v -0.083543 0.250000 -0.420000
v -0.079565 0.230000 -0.400000
v -0.237911 0.250000 -0.356059
v -0.226582 0.230000 -0.339104
v -0.356059 0.250000 -0.237911
v -0.339104 0.230000 -0.226582
v -0.420000 0.250000 -0.083543
v -0.400000 0.230000 -0.079565
v -0.420000 0.250000 0.083543
v -0.400000 0.230000 0.079565
v -0.356059 0.250000 0.237911
v -0.339104 0.230000 0.226582
v -0.237911 0.250000 0.356059
v -0.226582 0.230000 0.339104
v -0.083543 0.250000 0.420000
v -0.079565 0.230000 0.400000
v 0.083543 0.250000 0.420000
v 0.079565 0.230000 0.400000
v 0.237911 0.250000 0.356059
v 0.226582 0.230000 0.339104
v 0.339104 0.230000 0.226582
v 0.356059 0.250000 0.237911
v 0.350000 0.050000 0.069619
v 0.350000 0.050000 -0.069619
v 0.296716 0.050000 -0.198259
v 0.198259 0.050000 -0.296716
v 0.069619 0.050000 -0.350000
v -0.069619 0.050000 -0.350000
v -0.198259 0.050000 -0.296716
v -0.296716 0.050000 -0.198259
v -0.350000 0.050000 -0.069619
v -0.350000 0.050000 0.069619
v -0.296716 0.050000 0.198259
v -0.198259 0.050000 0.296716
v -0.069619 0.050000 0.350000
v 0.069619 0.050000 0.350000
v 0.198259 0.050000 0.296716
v 0.296716 0.050000 0.198259
v 0.400000 0.000000 -0.079565
v 0.500000 0.100000 -0.099456
v 0.470711 0.029289 -0.093630
v 0.500000 0.100000 0.099456
v 0.400000 0.000000 0.079565
v 0.470711 0.029289 0.093630
v 0.423880 0.100000 0.283227
v 0.339104 0.000000 0.226582
v 0.399049 0.029289 0.266636
v 0.283227 0.100000 0.423880
v 0.226582 0.000000 0.339104
v 0.266636 0.029289 0.399049
v 0.099456 0.100000 0.500000
v 0.079565 0.000000 0.400000
v 0.093630 0.029289 0.470711
v -0.099456 0.100000 0.500000
v -0.079565 0.000000 0.400000
v -0.093630 0.029289 0.470711
v -0.283227 0.100000 0.423880
v -0.226582 0.000000 0.339104
v -0.266636 0.029289 0.399049
v -0.423880 0.100000 0.283227
v -0.339104 0.000000 0.226582
v -0.399049 0.029289 0.266636
v -0.500000 0.100000 0.099456
v -0.400000 0.000000 0.079565
v -0.470711 0.029289 0.093630
v -0.500000 0.100000 -0.099456
v -0.400000 0.000000 -0.079565
v -0.470711 0.029289 -0.093630
v -0.423880 0.100000 -0.283227
v -0.339104 0.000000 -0.226582
v -0.399049 0.029289 -0.266636
v -0.283227 0.100000 -0.423880
v -0.226582 0.000000 -0.339104
v -0.266636 0.029289 -0.399049
v -0.099456 0.100000 -0.500000
v -0.079565 0.000000 -0.400000
v -0.093630 0.029289 -0.470711
v 0.099456 0.100000 -0.500000
v 0.079565 0.000000 -0.400000
v 0.093630 0.029289 -0.470711
v 0.283227 0.100000 -0.423880
v 0.226582 0.000000 -0.339104
v 0.266636 0.029289 -0.399049
v 0.423880 0.100000 -0.283227
v 0.339104 0.000000 -0.226582
v 0.399049 0.029289 -0.266636
v 0.000000 0.050000 -0.000000
v -0.000000 0.000000 -0.000000
v -0.036437 0.107057 0.452563
v -0.036747 0.186753 0.459535
v 0.036437 0.107057 0.452563
v 0.036747 0.186753 0.459535
v -0.060840 0.151647 0.963393
v -0.060824 0.211419 0.968622
v 0.060840 0.151647 0.963393
v 0.060824 0.211419 0.968622
v -0.000000 0.092115 0.451255
v -0.000000 0.201696 0.460842
v 0.044601 0.136207 0.584773
v 0.078519 0.180483 0.978014
v -0.000000 0.144048 0.974826
v -0.000000 0.216917 0.981202
v -0.078520 0.180483 0.978014
v -0.044659 0.215902 0.591745
v 0.044659 0.215902 0.591745
v -0.044601 0.136207 0.584773
v -0.000000 0.178278 1.000000
v -0.064816 0.176055 0.588259
v -0.000000 0.230845 0.593053
v -0.000000 0.121264 0.583465
v 0.064816 0.176055 0.588259
v 0.073704 0.230745 0.852635
v -0.073565 0.152756 0.845812
v 0.073565 0.152756 0.845812
v -0.073704 0.230745 0.852635
v 0.106546 0.191698 0.849815
v -0.000000 0.138061 0.845123
v -0.000000 0.245336 0.854508
v -0.106546 0.191698 0.849815
vt 0.313984 0.864190
vt 0.313984 0.890511
vt 0.323079 0.890511
vt 0.323079 0.864190
vt 0.322518 0.910185
vt 0.313787 0.910185
vt 0.313196 0.910185
vt 0.320836 0.910185
vt 0.329201 0.910185
vt 0.326684 0.910185
vt 0.332818 0.910185
vt 0.329848 0.910185
vt 0.332818 0.910185
vt 0.329848 0.910185
vt 0.329201 0.910185
vt 0.326684 0.910185
vt 0.322518 0.910185
vt 0.320836 0.910185
vt 0.313787 0.910185
vt 0.313196 0.910185
vt 0.304336 0.910185
vt 0.304926 0.910185
vt 0.295604 0.910185
vt 0.297286 0.910185
vt 0.288921 0.910185
vt 0.291438 0.910185
vt 0.285304 0.910185
vt 0.288274 0.910185
vt 0.285304 0.910185
vt 0.288274 0.910185
vt 0.288921 0.910185
vt 0.291438 0.910185
vt 0.320275 0.890511
vt 0.318874 0.854067
vt 0.323747 0.854067
vt 0.325845 0.890511
vt 0.295604 0.910185
vt 0.297286 0.910185
vt 0.304336 0.910185
vt 0.304926 0.910185
vt 0.295043 0.864190
vt 0.295043 0.890511
vt 0.304139 0.890511
vt 0.304139 0.864190
vt 0.330040 0.890511
vt 0.330040 0.864190
vt 0.312999 0.890511
vt 0.312507 0.854067
vt 0.288082 0.864190
vt 0.288082 0.890511
vt 0.284314 0.864190
vt 0.284314 0.890511
vt 0.284314 0.864190
vt 0.284314 0.890511
vt 0.288082 0.864190
vt 0.288082 0.890511
vt 0.295043 0.864190
vt 0.295043 0.890511
vt 0.304139 0.864190
vt 0.304139 0.890511
vt 0.313984 0.864190
vt 0.313984 0.890511
vt 0.323079 0.864190
vt 0.323079 0.890511
vt 0.330040 0.864190
vt 0.330040 0.890511
vt 0.333808 0.864190
vt 0.333808 0.890511
vt 0.333808 0.864190
vt 0.333808 0.890511
vt 0.305123 0.890511
vt 0.305615 0.854067
vt 0.299249 0.854067
vt 0.297847 0.890511
vt 0.312999 0.890511
vt 0.312507 0.854067
vt 0.297847 0.890511
vt 0.299249 0.854067
vt 0.305615 0.854067
vt 0.305123 0.890511
vt 0.320275 0.890511
vt 0.318874 0.854067
vt 0.292278 0.890511
vt 0.294376 0.854067
vt 0.325845 0.890511
vt 0.323747 0.854067
vt 0.289264 0.890511
vt 0.291738 0.854067
vt 0.328859 0.890511
vt 0.326384 0.854067
vt 0.289264 0.890511
vt 0.291738 0.854067
vt 0.328859 0.890511
vt 0.326384 0.854067
vt 0.292278 0.890511
vt 0.294376 0.854067
vt 0.313984 0.921761
vt 0.304139 0.921761
vt 0.304336 0.925810
vt 0.313787 0.925810
vt 0.323079 0.921761
vt 0.322518 0.925810
vt 0.330040 0.921761
vt 0.329201 0.925810
vt 0.333808 0.921761
vt 0.332818 0.925810
vt 0.333808 0.921761
vt 0.332818 0.925810
vt 0.330040 0.921761
vt 0.329201 0.925810
vt 0.323079 0.921761
vt 0.322518 0.925810
vt 0.313984 0.921761
vt 0.313787 0.925810
vt 0.304139 0.921761
vt 0.304336 0.925810
vt 0.295043 0.921761
vt 0.295604 0.925810
vt 0.288082 0.921761
vt 0.288921 0.925810
vt 0.284314 0.921761
vt 0.285304 0.925810
vt 0.284314 0.921761
vt 0.285304 0.925810
vt 0.288082 0.921761
vt 0.288921 0.925810
vt 0.295043 0.921761
vt 0.295604 0.925810
vt 0.313196 0.925810
vt 0.304926 0.925810
vt 0.305123 0.921761
vt 0.312999 0.921761
vt 0.320836 0.925810
vt 0.320275 0.921761
vt 0.297286 0.925810
vt 0.297847 0.921761
vt 0.291438 0.925810
vt 0.292278 0.921761
vt 0.288274 0.925810
vt 0.289264 0.921761
vt 0.288274 0.925810
vt 0.289264 0.921761
vt 0.291438 0.925810
vt 0.292278 0.921761
vt 0.297286 0.925810
vt 0.297847 0.921761
vt 0.304926 0.925810
vt 0.305123 0.921761
vt 0.313196 0.925810
vt 0.312999 0.921761
vt 0.320836 0.925810
vt 0.320275 0.921761
vt 0.326684 0.925810
vt 0.325845 0.921761
vt 0.329848 0.925810
vt 0.328859 0.921761
vt 0.329848 0.925810
vt 0.328859 0.921761
vt 0.326684 0.925810
vt 0.325845 0.921761
vt 0.313695 0.865499
vt 0.304427 0.865499
vt 0.312999 0.843943
vt 0.305123 0.843943
vt 0.322258 0.865499
vt 0.320275 0.843943
vt 0.328811 0.865499
vt 0.325845 0.843943
vt 0.332358 0.865499
vt 0.328859 0.843943
vt 0.332358 0.865499
vt 0.328859 0.843943
vt 0.328811 0.865499
vt 0.325845 0.843943
vt 0.322258 0.865499
vt 0.320275 0.843943
vt 0.313695 0.865499
vt 0.312999 0.843943
vt 0.304427 0.865499
vt 0.305123 0.843943
vt 0.295864 0.865499
vt 0.297847 0.843943
vt 0.289311 0.865499
vt 0.292278 0.843943
vt 0.285764 0.865499
vt 0.289264 0.843943
vt 0.285764 0.865499
vt 0.289264 0.843943
vt 0.289311 0.865499
vt 0.292278 0.843943
vt 0.295864 0.865499
vt 0.297847 0.843943
vt 0.312507 0.869692
vt 0.305615 0.869692
vt 0.309061 0.869692
vt 0.299249 0.869692
vt 0.294376 0.869692
vt 0.291738 0.869692
vt 0.291738 0.869692
vt 0.294376 0.869692
vt 0.299249 0.869692
vt 0.305615 0.869692
vt 0.312507 0.869692
vt 0.318874 0.869692
vt 0.323747 0.869692
vt 0.326384 0.869692
vt 0.326384 0.869692
vt 0.323747 0.869692
vt 0.318874 0.869692
vt 0.305123 0.828318
vt 0.312999 0.828318
vt 0.309061 0.828318
vt 0.320275 0.828318
vt 0.325845 0.828318
vt 0.328859 0.828318
vt 0.328859 0.828318
vt 0.325845 0.828318
vt 0.320275 0.828318
vt 0.312999 0.828318
vt 0.305123 0.828318
vt 0.297847 0.828318
vt 0.292278 0.828318
vt 0.289264 0.828318
vt 0.289264 0.828318
vt 0.292278 0.828318
vt 0.297847 0.828318
vt 0.356743 0.843397
vt 0.357309 0.841858
vt 0.350889 0.840646
vt 0.350923 0.843621
vt 0.351122 0.882756
vt 0.357466 0.880485
vt 0.356743 0.874647
vt 0.350923 0.874871
vt 0.358555 0.880039
vt 0.357309 0.873108
vt 0.357002 0.886749
vt 0.357624 0.887862
vt 0.357002 0.886749
vt 0.357467 0.880485
vt 0.356743 0.874647
vt 0.338176 0.879589
vt 0.338349 0.887656
vt 0.351261 0.890661
vt 0.350923 0.874871
vt 0.351122 0.882756
vt 0.338176 0.879589
vt 0.338004 0.871521
vt 0.338349 0.887656
vt 0.331805 0.881755
vt 0.331460 0.865619
vt 0.356743 0.843397
vt 0.350923 0.843621
vt 0.351261 0.921911
vt 0.351354 0.924866
vt 0.357624 0.919112
vt 0.357002 0.917999
vt 0.338413 0.921932
vt 0.338349 0.918906
vt 0.351261 0.921911
vt 0.338349 0.918906
vt 0.331805 0.913005
vt 0.331870 0.916030
vt 0.331805 0.913005
vt 0.338004 0.840271
vt 0.337939 0.837245
vt 0.357002 0.917999
vt 0.331460 0.834369
vt 0.331395 0.831343
vt 0.338004 0.840271
vt 0.331460 0.834369
vt 0.331460 0.865619
vt 0.338004 0.871521
vt 0.331805 0.881755
vt 0.351261 0.890661
vn 0.9622 -0.1938 0.1914
vn 0.9808 0.0000 0.1951
vn 0.8315 0.0000 0.5556
vn 0.8157 -0.1938 0.5450
vn 0.0000 1.0000 0.0000
vn -0.8000 0.2725 -0.5345
vn -0.5345 0.2725 -0.8000
vn 0.8157 -0.1938 -0.5450
vn 0.8315 0.0000 -0.5556
vn 0.9808 0.0000 -0.1951
vn 0.9622 -0.1938 -0.1914
vn 0.5556 0.0000 0.8315
vn 0.5450 -0.1938 0.8157
vn -0.9437 0.2725 -0.1877
vn 0.5450 -0.1938 -0.8157
vn 0.5556 0.0000 -0.8315
vn 0.1914 -0.1938 -0.9622
vn 0.1951 0.0000 -0.9808
vn -0.1914 -0.1938 -0.9622
vn -0.1951 0.0000 -0.9808
vn -0.5450 -0.1938 -0.8157
vn -0.5556 0.0000 -0.8315
vn -0.8157 -0.1938 -0.5450
vn -0.8315 0.0000 -0.5556
vn -0.9622 -0.1938 -0.1914
vn -0.9808 0.0000 -0.1951
vn -0.9622 -0.1938 0.1914
vn -0.9808 0.0000 0.1951
vn -0.8157 -0.1938 0.5450
vn -0.8315 0.0000 0.5556
vn -0.5450 -0.1938 0.8157
vn -0.5556 0.0000 0.8315
vn -0.1914 -0.1938 0.9622
vn -0.1951 0.0000 0.9808
vn 0.1914 -0.1938 0.9622
vn 0.1951 0.0000 0.9808
vn 0.9437 0.2725 0.1877
vn 0.8000 0.2725 0.5345
vn 0.9437 0.2725 -0.1877
vn -0.8000 0.2725 0.5345
vn -0.9437 0.2725 0.1877
vn 0.8000 0.2725 -0.5345
vn -0.5345 0.2725 0.8000
vn 0.5345 0.2725 -0.8000
vn -0.1877 0.2725 0.9437
vn 0.1877 0.2725 -0.9437
vn 0.1877 0.2725 0.9437
vn -0.1877 0.2725 -0.9437
vn 0.5345 0.2725 0.8000
vn 0.6868 0.7139 0.1366
vn 0.6868 0.7139 -0.1366
vn 0.5822 0.7139 0.3890
vn 0.3890 0.7139 0.5822
vn 0.1366 0.7139 0.6868
vn -0.1366 0.7139 0.6868
vn -0.3890 0.7139 0.5822
vn -0.5822 0.7139 0.3890
vn -0.6868 0.7139 0.1366
vn -0.6868 0.7139 -0.1366
vn -0.5822 0.7139 -0.3890
vn -0.3890 0.7139 -0.5822
vn -0.1366 0.7139 -0.6868
vn 0.1366 0.7139 -0.6868
vn 0.3890 0.7139 -0.5822
vn 0.5822 0.7139 -0.3890
vn 0.7110 -0.6889 0.1414
vn 0.7110 -0.6889 -0.1414
vn 0.2105 -0.9767 0.0419
vn 0.2105 -0.9767 -0.0419
vn 0.6027 -0.6889 0.4027
vn 0.1784 -0.9767 0.1192
vn 0.4027 -0.6889 0.6027
vn 0.1192 -0.9767 0.1784
vn 0.1414 -0.6889 0.7110
vn 0.0419 -0.9767 0.2105
vn -0.1414 -0.6889 0.7110
vn -0.0419 -0.9767 0.2105
vn -0.4027 -0.6889 0.6027
vn -0.1192 -0.9767 0.1784
vn -0.6027 -0.6889 0.4027
vn -0.1784 -0.9767 0.1192
vn -0.7110 -0.6889 0.1414
vn -0.2105 -0.9767 0.0419
vn -0.7110 -0.6889 -0.1414
vn -0.2105 -0.9767 -0.0419
vn -0.6027 -0.6889 -0.4027
vn -0.1784 -0.9767 -0.1192
vn -0.4027 -0.6889 -0.6027
vn -0.1192 -0.9767 -0.1784
vn -0.1414 -0.6889 -0.7110
vn -0.0419 -0.9767 -0.2105
vn 0.1797 -0.3891 -0.9035
vn 0.0734 -0.9265 -0.3691
vn 0.0419 -0.9767 -0.2105
vn 0.4027 -0.6889 -0.6027
vn 0.1192 -0.9767 -0.1784
vn 0.6027 -0.6889 -0.4027
vn 0.1784 -0.9767 -0.1192
vn 0.0000 -1.0000 0.0000
vn 0.5138 -0.8552 0.0687
vn -0.0000 -0.9996 0.0284
vn 0.0000 -0.9992 0.0392
vn 0.5663 -0.8239 0.0221
vn 0.8097 -0.5867 0.0137
vn 0.7838 -0.6131 0.0992
vn 0.2298 -0.5646 0.7927
vn 0.0000 -0.5802 0.8145
vn 0.2283 0.4149 0.8808
vn -0.0000 0.4262 0.9046
vn -0.2283 0.4149 0.8808
vn -0.2298 -0.5646 0.7927
vn 0.9927 0.0181 -0.1195
vn 0.5919 0.7912 -0.1539
vn 0.5528 0.8317 0.0520
vn 0.8135 0.5811 0.0239
vn -0.5663 -0.8239 0.0221
vn -0.8097 -0.5867 0.0137
vn -0.9927 0.0181 -0.1195
vn -0.6266 -0.7773 0.0564
vn -0.5919 0.7912 -0.1539
vn -0.8053 0.5405 -0.2438
vn -0.7279 -0.6836 0.0526
vn -0.5138 -0.8552 0.0687
vn -0.0000 0.9977 0.0684
vn -0.0000 0.9795 0.2016
vn 0.5139 0.8300 0.2166
vn 0.0000 0.9897 -0.1433
vn -0.5528 0.8317 0.0520
vn 0.8053 0.5405 -0.2438
vn 0.0000 0.9743 -0.2253
vn 0.6266 -0.7773 0.0564
vn -0.0000 -0.9915 0.1301
vn -0.5139 0.8300 0.2166
vn 0.7279 -0.6836 0.0526
vn -0.0000 -0.9788 0.2049
vn -0.7838 -0.6131 0.0992
vn -0.8135 0.5811 0.0239
vn -0.7843 0.5856 0.2046
vn 0.7843 0.5856 0.2046
usemtl restaurant
s 1
f 84/1/1 4/2/2 6/3/3 87/4/4
f 5/5/5 3/6/5 34/7/5 64/8/5
f 7/9/5 5/5/5 64/8/5 61/10/5
f 9/11/5 7/9/5 61/10/5 59/12/5
f 11/13/5 9/11/5 59/12/5 57/14/5
f 13/15/5 11/13/5 57/14/5 55/16/5
f 15/17/5 13/15/5 55/16/5 53/18/5
f 17/19/5 15/17/5 53/18/5 51/20/5
f 19/21/5 17/19/5 51/20/5 49/22/5
f 21/23/5 19/21/5 49/22/5 47/24/5
f 23/25/5 21/23/5 47/24/5 45/26/5
f 25/27/5 23/25/5 45/26/5 43/28/5
f 27/29/5 25/27/5 43/28/5 41/30/5
f 29/31/5 27/29/5 41/30/5 39/32/5
f 63/33/6 80/34/6 79/35/7 62/36/7
f 31/37/5 29/31/5 39/32/5 37/38/5
f 2/39/5 31/37/5 37/38/5 35/40/5
f 126/41/8 32/42/9 1/43/10 82/44/11
f 87/4/4 6/3/3 8/45/12 90/46/13
f 33/47/14 65/48/14 80/34/6 63/33/6
f 123/49/15 30/50/16 32/42/9 126/41/8
f 120/51/17 28/52/18 30/50/16 123/49/15
f 117/53/19 26/54/20 28/52/18 120/51/17
f 114/55/21 24/56/22 26/54/20 117/53/19
f 111/57/23 22/58/24 24/56/22 114/55/21
f 108/59/25 20/60/26 22/58/24 111/57/23
f 105/61/27 18/62/28 20/60/26 108/59/25
f 102/63/29 16/64/30 18/62/28 105/61/27
f 99/65/31 14/66/32 16/64/30 102/63/29
f 96/67/33 12/68/34 14/66/32 99/65/31
f 93/69/35 10/70/36 12/68/34 96/67/33
f 90/46/13 8/45/12 10/70/36 93/69/35
f 50/71/37 73/72/37 72/73/38 48/74/38
f 52/75/39 74/76/39 73/72/37 50/71/37
f 38/77/40 67/78/40 66/79/41 36/80/41
f 54/81/42 75/82/42 74/76/39 52/75/39
f 40/83/43 68/84/43 67/78/40 38/77/40
f 56/85/44 76/86/44 75/82/42 54/81/42
f 42/87/45 69/88/45 68/84/43 40/83/43
f 58/89/46 77/90/46 76/86/44 56/85/44
f 44/91/47 70/92/47 69/88/45 42/87/45
f 60/93/48 78/94/48 77/90/46 58/89/46
f 46/95/49 71/96/49 70/92/47 44/91/47
f 62/36/7 79/35/7 78/94/48 60/93/48
f 48/74/38 72/73/38 71/96/49 46/95/49
f 4/97/50 1/98/51 2/99/51 3/100/50
f 6/101/52 4/97/50 3/100/50 5/102/52
f 8/103/53 6/101/52 5/102/52 7/104/53
f 10/105/54 8/103/53 7/104/53 9/106/54
f 12/107/55 10/105/54 9/106/54 11/108/55
f 14/109/56 12/107/55 11/108/55 13/110/56
f 16/111/57 14/109/56 13/110/56 15/112/57
f 18/113/58 16/111/57 15/112/57 17/114/58
f 20/115/59 18/113/58 17/114/58 19/116/59
f 22/117/60 20/115/59 19/116/59 21/118/60
f 24/119/61 22/117/60 21/118/60 23/120/61
f 26/121/62 24/119/61 23/120/61 25/122/62
f 28/123/63 26/121/62 25/122/62 27/124/63
f 30/125/64 28/123/63 27/124/63 29/126/64
f 32/127/65 30/125/64 29/126/64 31/128/65
f 1/98/51 32/127/65 31/128/65 2/99/51
f 34/129/59 35/130/58 36/131/58 33/132/59
f 64/133/60 34/129/59 33/132/59 63/134/60
f 35/130/58 37/135/57 38/136/57 36/131/58
f 37/135/57 39/137/56 40/138/56 38/136/57
f 39/137/56 41/139/55 42/140/55 40/138/56
f 41/139/55 43/141/54 44/142/54 42/140/55
f 43/141/54 45/143/53 46/144/53 44/142/54
f 45/143/53 47/145/52 48/146/52 46/144/53
f 47/145/52 49/147/50 50/148/50 48/146/52
f 49/147/50 51/149/51 52/150/51 50/148/50
f 51/149/51 53/151/65 54/152/65 52/150/51
f 53/151/65 55/153/64 56/154/64 54/152/65
f 55/153/64 57/155/63 58/156/63 56/154/64
f 57/155/63 59/157/62 60/158/62 58/156/63
f 59/157/62 61/159/61 62/160/61 60/158/62
f 61/159/61 64/133/60 63/134/60 62/160/61
f 3/6/5 2/39/5 35/40/5 34/7/5
f 36/80/41 66/79/41 65/48/14 33/47/14
f 82/44/11 84/1/1 86/161/66 83/162/67
f 83/162/67 86/161/66 85/163/68 81/164/69
f 84/1/1 87/4/4 89/165/70 86/161/66
f 86/161/66 89/165/70 88/166/71 85/163/68
f 87/4/4 90/46/13 92/167/72 89/165/70
f 89/165/70 92/167/72 91/168/73 88/166/71
f 90/46/13 93/69/35 95/169/74 92/167/72
f 92/167/72 95/169/74 94/170/75 91/168/73
f 93/69/35 96/67/33 98/171/76 95/169/74
f 95/169/74 98/171/76 97/172/77 94/170/75
f 96/67/33 99/65/31 101/173/78 98/171/76
f 98/171/76 101/173/78 100/174/79 97/172/77
f 99/65/31 102/63/29 104/175/80 101/173/78
f 101/173/78 104/175/80 103/176/81 100/174/79
f 102/63/29 105/61/27 107/177/82 104/175/80
f 104/175/80 107/177/82 106/178/83 103/176/81
f 105/61/27 108/59/25 110/179/84 107/177/82
f 107/177/82 110/179/84 109/180/85 106/178/83
f 108/59/25 111/57/23 113/181/86 110/179/84
f 110/179/84 113/181/86 112/182/87 109/180/85
f 111/57/23 114/55/21 116/183/88 113/181/86
f 113/181/86 116/183/88 115/184/89 112/182/87
f 114/55/21 117/53/19 119/185/90 116/183/88
f 116/183/88 119/185/90 118/186/91 115/184/89
f 117/53/19 120/51/17 122/187/92 119/185/90
f 119/185/90 122/187/93 121/188/94 118/186/91
f 120/51/17 123/49/15 125/189/95 122/187/92
f 122/187/93 125/189/95 124/190/96 121/188/94
f 123/49/15 126/41/8 128/191/97 125/189/95
f 125/189/95 128/191/97 127/192/98 124/190/96
f 126/41/8 82/44/11 83/162/67 128/191/97
f 128/191/97 83/162/67 81/164/69 127/192/98
f 82/44/11 1/43/10 4/2/2 84/1/1
f 65/193/5 66/194/5 129/195/5
f 66/194/5 67/196/5 129/195/5
f 67/196/5 68/197/5 129/195/5
f 68/197/5 69/198/5 129/195/5
f 69/198/5 70/199/5 129/195/5
f 70/199/5 71/200/5 129/195/5
f 71/200/5 72/201/5 129/195/5
f 72/201/5 73/202/5 129/195/5
f 73/202/5 74/203/5 129/195/5
f 74/203/5 75/204/5 129/195/5
f 75/204/5 76/205/5 129/195/5
f 76/205/5 77/206/5 129/195/5
f 77/206/5 78/207/5 129/195/5
f 78/207/5 79/208/5 129/195/5
f 79/208/5 80/209/5 129/195/5
f 80/209/5 65/193/5 129/195/5
f 81/210/69 85/211/68 130/212/99
f 85/211/68 88/213/71 130/212/99
f 88/213/71 91/214/73 130/212/99
f 91/214/73 94/215/75 130/212/99
f 94/215/75 97/216/77 130/212/99
f 97/216/77 100/217/79 130/212/99
f 100/217/79 103/218/81 130/212/99
f 103/218/81 106/219/83 130/212/99
f 106/219/83 109/220/85 130/212/99
f 109/220/85 112/221/87 130/212/99
f 112/221/87 115/222/89 130/212/99
f 115/222/89 118/223/91 130/212/99
f 118/223/91 121/224/94 130/212/99
f 121/224/94 124/225/96 130/212/99
f 124/225/96 127/226/98 130/212/99
f 127/226/98 81/210/69 130/212/99
f 137/227/100 143/228/101 159/229/102 156/230/103
f 158/231/104 142/232/105 137/233/100 156/234/103
f 137/233/106 142/232/106 149/235/107 143/236/107
f 142/232/108 138/237/108 144/238/109 149/235/109
f 149/235/109 144/238/109 136/239/110 145/240/110
f 143/236/107 149/235/107 145/240/111 135/241/111
f 153/242/112 147/243/113 154/244/114 158/231/115
f 155/245/116 161/246/117 150/247/118 148/248/119
f 150/247/118 146/249/120 132/250/121
f 148/248/119 150/247/118 131/251/122
f 159/229/102 143/228/101 135/252/123 155/253/116
f 154/254/114 160/255/124 144/256/125 138/257/126
f 160/255/124 151/258/127 146/259/120 157/260/128
f 147/261/113 134/262/129 140/263/130 151/258/127
f 151/258/127 140/263/130 132/264/121 146/259/120
f 141/265/131 156/230/103 159/229/102 152/266/132
f 144/256/125 160/255/124 157/260/128 136/267/133
f 133/268/134 141/265/131 152/266/132 139/269/135
f 139/269/135 152/266/132 148/270/119 131/271/122
f 145/240/136 161/246/117 155/245/116 135/241/123
f 133/272/134 153/242/112 141/273/131
f 134/274/129 147/243/113 153/242/112
f 136/239/133 157/275/128 161/246/137 145/240/138
f 161/246/137 157/275/128 146/249/120 150/247/118
f 152/266/132 159/229/102 155/253/116 148/270/119
f 141/273/131 153/242/112 158/231/104 156/234/103
f 154/244/114 138/237/126 142/232/139 158/231/115
f 154/254/114 147/261/113 151/258/127 160/255/124
f 131/251/122 150/247/118 132/250/121
f 133/272/134 134/274/129 153/242/112
