# Blender v3.4.1 OBJ File: 'restaurant_bits_export.blend'
# www.blender.org
mtllib pan_006.mtl
o pan.006_Cylinder.230
v 0.375000 0.330000 -0.074592
v 0.360000 0.350000 -0.071608
v 0.360000 0.350000 0.071608
v 0.375000 0.330000 0.074592
v 0.305193 0.350000 0.203924
v 0.317910 0.330000 0.212420
v 0.203924 0.350000 0.305193
v 0.212420 0.330000 0.317910
v 0.071608 0.350000 0.360000
v 0.074592 0.330000 0.375000
v -0.071608 0.350000 0.360000
v -0.074592 0.330000 0.375000
v -0.203924 0.350000 0.305193
v -0.212420 0.330000 0.317910
v -0.305193 0.350000 0.203924
v -0.317910 0.330000 0.212420
v -0.360000 0.350000 0.071608
v -0.375000 0.330000 0.074592
v -0.360000 0.350000 -0.071608
v -0.375000 0.330000 -0.074592
v -0.305193 0.350000 -0.203924
v -0.317910 0.330000 -0.212420
v -0.203924 0.350000 -0.305193
v -0.212420 0.330000 -0.317910
v -0.071608 0.350000 -0.360000
v -0.074592 0.330000 -0.375000
v 0.071609 0.350000 -0.360000
v 0.074592 0.330000 -0.375000
v 0.203924 0.350000 -0.305193
v 0.212420 0.330000 -0.317910
v 0.305193 0.350000 -0.203924
v 0.317910 0.330000 -0.212420
v 0.293410 0.330000 0.058363
v 0.308080 0.350000 0.061281
v 0.308080 0.350000 -0.061281
v 0.293410 0.330000 -0.058363
v 0.261178 0.350000 -0.174514
v 0.248741 0.330000 -0.166203
v 0.174513 0.350000 -0.261178
v 0.166203 0.330000 -0.248741
v 0.061281 0.350000 -0.308080
v 0.058363 0.330000 -0.293410
v -0.061281 0.350000 -0.308080
v -0.058363 0.330000 -0.293410
v -0.174514 0.350000 -0.261178
v -0.166203 0.330000 -0.248741
v -0.261178 0.350000 -0.174513
v -0.248741 0.330000 -0.166203
v -0.308080 0.350000 -0.061281
v -0.293410 0.330000 -0.058363
v -0.308080 0.350000 0.061281
v -0.293410 0.330000 0.058363
v -0.261178 0.350000 0.174514
v -0.248741 0.330000 0.166203
v -0.174514 0.350000 0.261178
v -0.166203 0.330000 0.248741
v -0.061281 0.350000 0.308080
v -0.058363 0.330000 0.293410
v 0.061281 0.350000 0.308080
v 0.058363 0.330000 0.293410
v 0.174514 0.350000 0.261178
v 0.166203 0.330000 0.248741
v 0.248741 0.330000 0.166203
v 0.261178 0.350000 0.174514
v 0.256734 0.050000 0.051068
v 0.256734 0.050000 -0.051067
v 0.217648 0.050000 -0.145428
v 0.145428 0.050000 -0.217648
v 0.051068 0.050000 -0.256734
v -0.051067 0.050000 -0.256734
v -0.145428 0.050000 -0.217648
v -0.217648 0.050000 -0.145428
v -0.256734 0.050000 -0.051068
v -0.256734 0.050000 0.051067
v -0.217648 0.050000 0.145428
v -0.145428 0.050000 0.217648
v -0.051067 0.050000 0.256734
v 0.051067 0.050000 0.256734
v 0.145428 0.050000 0.217648
v 0.217648 0.050000 0.145428
v 0.300000 0.000000 -0.059674
v 0.375000 0.030000 -0.074592
v 0.375000 0.030000 0.074592
v 0.300000 0.000000 0.059674
v 0.317910 0.030000 0.212420
v 0.254328 0.000000 0.169936
v 0.212420 0.030000 0.317910
v 0.169936 0.000000 0.254328
v 0.074592 0.030000 0.375000
v 0.059674 0.000000 0.300000
v -0.074592 0.030000 0.375000
v -0.059674 0.000000 0.300000
v -0.212420 0.030000 0.317910
v -0.169936 0.000000 0.254328
v -0.317910 0.030000 0.212420
v -0.254328 0.000000 0.169936
v -0.375000 0.030000 0.074592
v -0.300000 0.000000 0.059674
v -0.375000 0.030000 -0.074592
v -0.300000 0.000000 -0.059674
v -0.317910 0.030000 -0.212420
v -0.254328 0.000000 -0.169936
v -0.212420 0.030000 -0.317910
v -0.169936 0.000000 -0.254328
v -0.074592 0.030000 -0.375000
v -0.059674 0.000000 -0.300000
v 0.074592 0.030000 -0.375000
v 0.059674 0.000000 -0.300000
v 0.212420 0.030000 -0.317910
v 0.169936 0.000000 -0.254328
v 0.317910 0.030000 -0.212420
v 0.254328 0.000000 -0.169936
v 0.000000 0.050000 -0.000000
v -0.000000 0.000000 -0.000000
v -0.036437 0.207057 0.352565
v -0.036747 0.286753 0.359538
v 0.036437 0.207057 0.352565
v 0.036747 0.286753 0.359538
v -0.060840 0.251647 0.863395
v -0.060824 0.311419 0.868625
v 0.060840 0.251647 0.863395
v 0.060824 0.311419 0.868625
v -0.000000 0.192115 0.351258
v -0.000000 0.301696 0.360845
v 0.044601 0.236207 0.484776
v 0.078519 0.280483 0.878017
v -0.000000 0.244048 0.874829
v -0.000000 0.316917 0.881205
v -0.078520 0.280483 0.878017
v -0.044659 0.315902 0.491748
v 0.044659 0.315902 0.491748
v -0.044601 0.236207 0.484776
v -0.000000 0.278278 0.900003
v -0.064816 0.276055 0.488262
v -0.000000 0.330845 0.493056
v -0.000000 0.221264 0.483468
v 0.064816 0.276055 0.488262
v 0.073704 0.330745 0.752638
v -0.073565 0.252756 0.745815
v 0.073565 0.252756 0.745815
v -0.073704 0.330745 0.752638
v 0.106546 0.291698 0.749818
v -0.000000 0.238061 0.745126
v -0.000000 0.345336 0.754511
v -0.106546 0.291698 0.749818
vt 0.438984 0.864190
vt 0.438984 0.890511
vt 0.448079 0.890511
vt 0.448079 0.864190
vt 0.447518 0.910185
vt 0.438787 0.910185
vt 0.438196 0.910185
vt 0.445836 0.910185
vt 0.454201 0.910185
vt 0.451684 0.910185
vt 0.457818 0.910185
vt 0.454848 0.910185
vt 0.457818 0.910185
vt 0.454848 0.910185
vt 0.454201 0.910185
vt 0.451684 0.910185
vt 0.447518 0.910185
vt 0.445836 0.910185
vt 0.438787 0.910185
vt 0.438196 0.910185
vt 0.429336 0.910185
vt 0.429926 0.910185
vt 0.420604 0.910185
vt 0.422286 0.910185
vt 0.413921 0.910185
vt 0.416438 0.910185
vt 0.410304 0.910185
vt 0.413274 0.910185
vt 0.410304 0.910185
vt 0.413274 0.910185
vt 0.413921 0.910185
vt 0.416438 0.910185
vt 0.445275 0.890511
vt 0.443874 0.854067
vt 0.448747 0.854067
vt 0.450845 0.890511
vt 0.420604 0.910185
vt 0.422286 0.910185
vt 0.429336 0.910185
vt 0.429926 0.910185
vt 0.420043 0.864190
vt 0.420043 0.890511
vt 0.429139 0.890511
vt 0.429139 0.864190
vt 0.455040 0.890511
vt 0.455040 0.864190
vt 0.437999 0.890511
vt 0.437507 0.854067
vt 0.413082 0.864190
vt 0.413082 0.890511
vt 0.409314 0.864190
vt 0.409314 0.890511
vt 0.409314 0.864190
vt 0.409314 0.890511
vt 0.413082 0.864190
vt 0.413082 0.890511
vt 0.420043 0.864190
vt 0.420043 0.890511
vt 0.429139 0.864190
vt 0.429139 0.890511
vt 0.438984 0.864190
vt 0.438984 0.890511
vt 0.448079 0.864190
vt 0.448079 0.890511
vt 0.455040 0.864190
vt 0.455040 0.890511
vt 0.458808 0.864190
vt 0.458808 0.890511
vt 0.458808 0.864190
vt 0.458808 0.890511
vt 0.430123 0.890511
vt 0.430615 0.854067
vt 0.424249 0.854067
vt 0.422847 0.890511
vt 0.437999 0.890511
vt 0.437507 0.854067
vt 0.422847 0.890511
vt 0.424249 0.854067
vt 0.430615 0.854067
vt 0.430123 0.890511
vt 0.445275 0.890511
vt 0.443874 0.854067
vt 0.417278 0.890511
vt 0.419376 0.854067
vt 0.450845 0.890511
vt 0.448747 0.854067
vt 0.414264 0.890511
vt 0.416738 0.854067
vt 0.453859 0.890511
vt 0.451384 0.854067
vt 0.414264 0.890511
vt 0.416738 0.854067
vt 0.453859 0.890511
vt 0.451384 0.854067
vt 0.417278 0.890511
vt 0.419376 0.854067
vt 0.438984 0.921761
vt 0.429139 0.921761
vt 0.429336 0.925810
vt 0.438787 0.925810
vt 0.448079 0.921761
vt 0.447518 0.925810
vt 0.455040 0.921761
vt 0.454201 0.925810
vt 0.458808 0.921761
vt 0.457818 0.925810
vt 0.458808 0.921761
vt 0.457818 0.925810
vt 0.455040 0.921761
vt 0.454201 0.925810
vt 0.448079 0.921761
vt 0.447518 0.925810
vt 0.438984 0.921761
vt 0.438787 0.925810
vt 0.429139 0.921761
vt 0.429336 0.925810
vt 0.420043 0.921761
vt 0.420604 0.925810
vt 0.413082 0.921761
vt 0.413921 0.925810
vt 0.409314 0.921761
vt 0.410304 0.925810
vt 0.409314 0.921761
vt 0.410304 0.925810
vt 0.413082 0.921761
vt 0.413921 0.925810
vt 0.420043 0.921761
vt 0.420604 0.925810
vt 0.438196 0.925810
vt 0.429926 0.925810
vt 0.430123 0.921761
vt 0.437999 0.921761
vt 0.445836 0.925810
vt 0.445275 0.921761
vt 0.422286 0.925810
vt 0.422847 0.921761
vt 0.416438 0.925810
vt 0.417278 0.921761
vt 0.413274 0.925810
vt 0.414264 0.921761
vt 0.413274 0.925810
vt 0.414264 0.921761
vt 0.416438 0.925810
vt 0.417278 0.921761
vt 0.422286 0.925810
vt 0.422847 0.921761
vt 0.429926 0.925810
vt 0.430123 0.921761
vt 0.438196 0.925810
vt 0.437999 0.921761
vt 0.445836 0.925810
vt 0.445275 0.921761
vt 0.451684 0.925810
vt 0.450845 0.921761
vt 0.454848 0.925810
vt 0.453859 0.921761
vt 0.454848 0.925810
vt 0.453859 0.921761
vt 0.451684 0.925810
vt 0.450845 0.921761
vt 0.445275 0.843943
vt 0.437999 0.843943
vt 0.450845 0.843943
vt 0.453859 0.843943
vt 0.453859 0.843943
vt 0.450845 0.843943
vt 0.445275 0.843943
vt 0.437999 0.843943
vt 0.430123 0.843943
vt 0.422847 0.843943
vt 0.417278 0.843943
vt 0.414264 0.843943
vt 0.414264 0.843943
vt 0.417278 0.843943
vt 0.422847 0.843943
vt 0.430123 0.843943
vt 0.437507 0.869692
vt 0.430615 0.869692
vt 0.434061 0.869692
vt 0.424249 0.869692
vt 0.419376 0.869692
vt 0.416738 0.869692
vt 0.416738 0.869692
vt 0.419376 0.869692
vt 0.424249 0.869692
vt 0.430615 0.869692
vt 0.437507 0.869692
vt 0.443874 0.869692
vt 0.448747 0.869692
vt 0.451384 0.869692
vt 0.451384 0.869692
vt 0.448747 0.869692
vt 0.443874 0.869692
vt 0.430123 0.828318
vt 0.437999 0.828318
vt 0.434061 0.828318
vt 0.445275 0.828318
vt 0.450845 0.828318
vt 0.453859 0.828318
vt 0.453859 0.828318
vt 0.450845 0.828318
vt 0.445275 0.828318
vt 0.437999 0.828318
vt 0.430123 0.828318
vt 0.422847 0.828318
vt 0.417278 0.828318
vt 0.414264 0.828318
vt 0.414264 0.828318
vt 0.417278 0.828318
vt 0.422847 0.828318
vt 0.481743 0.843397
vt 0.482309 0.841858
vt 0.475889 0.840646
vt 0.475923 0.843621
vt 0.476122 0.882756
vt 0.482466 0.880485
vt 0.481743 0.874647
vt 0.475923 0.874871
vt 0.483555 0.880039
vt 0.482309 0.873108
vt 0.482002 0.886749
vt 0.482624 0.887862
vt 0.482002 0.886749
vt 0.482467 0.880485
vt 0.481743 0.874647
vt 0.463176 0.879589
vt 0.463349 0.887656
vt 0.476261 0.890661
vt 0.475923 0.874871
vt 0.476122 0.882756
vt 0.463176 0.879589
vt 0.463004 0.871521
vt 0.463349 0.887656
vt 0.456805 0.881755
vt 0.456460 0.865619
vt 0.481743 0.843397
vt 0.475923 0.843621
vt 0.476261 0.921911
vt 0.476354 0.924866
vt 0.482624 0.919112
vt 0.482002 0.917999
vt 0.463413 0.921932
vt 0.463349 0.918906
vt 0.476261 0.921911
vt 0.463349 0.918906
vt 0.456805 0.913005
vt 0.456870 0.916030
vt 0.456805 0.913005
vt 0.463004 0.840271
vt 0.462939 0.837245
vt 0.482002 0.917999
vt 0.456460 0.834369
vt 0.456395 0.831343
vt 0.463004 0.840271
vt 0.456460 0.834369
vt 0.456460 0.865619
vt 0.463004 0.871521
vt 0.456805 0.881755
vt 0.476261 0.890661
vn 0.9808 0.0000 0.1951
vn 0.8315 0.0000 0.5556
vn 0.0000 1.0000 0.0000
vn -0.8242 0.1324 -0.5507
vn -0.5507 0.1324 -0.8242
vn 0.8315 0.0000 -0.5556
vn 0.9808 0.0000 -0.1951
vn 0.5556 0.0000 0.8315
vn -0.9722 0.1324 -0.1934
vn 0.5556 0.0000 -0.8315
vn 0.1951 0.0000 -0.9808
vn -0.1951 0.0000 -0.9808
vn -0.5556 0.0000 -0.8315
vn -0.8315 0.0000 -0.5556
vn -0.9808 0.0000 -0.1951
vn -0.9808 0.0000 0.1951
vn -0.8315 0.0000 0.5556
vn -0.5556 0.0000 0.8315
vn -0.1951 0.0000 0.9808
vn 0.1951 0.0000 0.9808
vn 0.9722 0.1324 0.1934
vn 0.8242 0.1324 0.5507
vn 0.9722 0.1324 -0.1934
vn -0.8242 0.1324 0.5507
vn -0.9722 0.1324 0.1934
vn 0.8242 0.1324 -0.5507
vn -0.5507 0.1324 0.8242
vn 0.5507 0.1324 -0.8242
vn -0.1934 0.1324 0.9722
vn 0.1934 0.1324 -0.9722
vn 0.1934 0.1324 0.9722
vn -0.1934 0.1324 -0.9722
vn 0.5507 0.1324 0.8242
vn 0.7791 0.6074 0.1550
vn 0.7791 0.6074 -0.1550
vn 0.6605 0.6074 0.4413
vn 0.4413 0.6074 0.6605
vn 0.1550 0.6074 0.7791
vn -0.1550 0.6074 0.7791
vn -0.4413 0.6074 0.6605
vn -0.6605 0.6074 0.4413
vn -0.7791 0.6074 0.1550
vn -0.7791 0.6074 -0.1550
vn -0.6605 0.6074 -0.4413
vn -0.4413 0.6074 -0.6605
vn -0.1550 0.6074 -0.7791
vn 0.1550 0.6074 -0.7791
vn 0.4413 0.6074 -0.6605
vn 0.6605 0.6074 -0.4413
vn -0.7854 0.5989 -0.1562
vn -0.7854 0.5989 0.1562
vn -0.6658 0.5989 -0.4449
vn -0.6658 0.5989 0.4449
vn -0.4449 0.5989 0.6658
vn -0.1562 0.5989 0.7854
vn 0.1562 0.5989 0.7854
vn 0.4449 0.5989 0.6658
vn 0.6658 0.5989 0.4449
vn 0.7854 0.5989 0.1562
vn 0.7854 0.5989 -0.1562
vn 0.6658 0.5989 -0.4449
vn 0.4449 0.5989 -0.6658
vn 0.1562 0.5989 -0.7854
vn -0.1562 0.5989 -0.7854
vn -0.4449 0.5989 -0.6658
vn 0.3037 -0.9309 0.2029
vn 0.1730 -0.9781 0.1156
vn 0.2041 -0.9781 0.0406
vn 0.3582 -0.9309 0.0712
vn 0.2029 -0.9309 0.3037
vn 0.1156 -0.9781 0.1730
vn 0.0712 -0.9309 0.3582
vn 0.0406 -0.9781 0.2041
vn -0.0712 -0.9309 0.3582
vn -0.0406 -0.9781 0.2041
vn -0.2029 -0.9309 0.3037
vn -0.1156 -0.9781 0.1730
vn -0.3037 -0.9309 0.2029
vn -0.1730 -0.9781 0.1156
vn -0.3582 -0.9309 0.0712
vn -0.2041 -0.9781 0.0406
vn -0.3582 -0.9309 -0.0712
vn -0.2041 -0.9781 -0.0406
vn -0.3037 -0.9309 -0.2029
vn -0.1730 -0.9781 -0.1156
vn -0.2029 -0.9309 -0.3037
vn -0.1156 -0.9781 -0.1730
vn -0.0712 -0.9309 -0.3582
vn -0.0406 -0.9781 -0.2041
vn 0.0712 -0.9309 -0.3582
vn 0.0406 -0.9781 -0.2041
vn 0.2029 -0.9309 -0.3037
vn 0.1156 -0.9781 -0.1730
vn 0.3037 -0.9309 -0.2029
vn 0.1730 -0.9781 -0.1156
vn 0.3582 -0.9309 -0.0712
vn 0.2041 -0.9781 -0.0406
vn 0.0000 -1.0000 0.0000
vn 0.5138 -0.8552 0.0687
vn 0.0000 -0.9996 0.0284
vn 0.0000 -0.9992 0.0392
vn 0.5663 -0.8239 0.0221
vn 0.8097 -0.5867 0.0137
vn 0.7838 -0.6131 0.0992
vn 0.2298 -0.5646 0.7927
vn 0.0000 -0.5802 0.8145
vn 0.2283 0.4149 0.8808
vn -0.0000 0.4262 0.9046
vn -0.2283 0.4149 0.8808
vn -0.2298 -0.5646 0.7927
vn 0.9927 0.0181 -0.1195
vn 0.5919 0.7912 -0.1539
vn 0.5528 0.8317 0.0520
vn 0.8135 0.5811 0.0239
vn -0.5663 -0.8239 0.0221
vn -0.8097 -0.5867 0.0137
vn -0.9927 0.0181 -0.1195
vn -0.6266 -0.7773 0.0564
vn -0.5919 0.7912 -0.1539
vn -0.8053 0.5405 -0.2438
vn -0.7279 -0.6836 0.0526
vn -0.5138 -0.8552 0.0687
vn -0.0000 0.9977 0.0684
vn 0.0000 0.9795 0.2016
vn 0.5139 0.8300 0.2166
vn 0.0000 0.9897 -0.1433
vn -0.5528 0.8317 0.0520
vn 0.8053 0.5405 -0.2438
vn 0.0000 0.9743 -0.2253
vn 0.6266 -0.7773 0.0564
vn -0.0000 -0.9915 0.1301
vn -0.5139 0.8300 0.2166
vn 0.7279 -0.6836 0.0526
vn -0.0000 -0.9788 0.2049
vn -0.7838 -0.6131 0.0992
vn -0.8135 0.5811 0.0239
vn -0.7843 0.5856 0.2046
vn 0.7843 0.5856 0.2046
usemtl restaurant
s 1
f 83/1/1 4/2/1 6/3/2 85/4/2
f 5/5/3 3/6/3 34/7/3 64/8/3
f 7/9/3 5/5/3 64/8/3 61/10/3
f 9/11/3 7/9/3 61/10/3 59/12/3
f 11/13/3 9/11/3 59/12/3 57/14/3
f 13/15/3 11/13/3 57/14/3 55/16/3
f 15/17/3 13/15/3 55/16/3 53/18/3
f 17/19/3 15/17/3 53/18/3 51/20/3
f 19/21/3 17/19/3 51/20/3 49/22/3
f 21/23/3 19/21/3 49/22/3 47/24/3
f 23/25/3 21/23/3 47/24/3 45/26/3
f 25/27/3 23/25/3 45/26/3 43/28/3
f 27/29/3 25/27/3 43/28/3 41/30/3
f 29/31/3 27/29/3 41/30/3 39/32/3
f 63/33/4 80/34/4 79/35/5 62/36/5
f 31/37/3 29/31/3 39/32/3 37/38/3
f 2/39/3 31/37/3 37/38/3 35/40/3
f 111/41/6 32/42/6 1/43/7 82/44/7
f 85/4/2 6/3/2 8/45/8 87/46/8
f 33/47/9 65/48/9 80/34/4 63/33/4
f 109/49/10 30/50/10 32/42/6 111/41/6
f 107/51/11 28/52/11 30/50/10 109/49/10
f 105/53/12 26/54/12 28/52/11 107/51/11
f 103/55/13 24/56/13 26/54/12 105/53/12
f 101/57/14 22/58/14 24/56/13 103/55/13
f 99/59/15 20/60/15 22/58/14 101/57/14
f 97/61/16 18/62/16 20/60/15 99/59/15
f 95/63/17 16/64/17 18/62/16 97/61/16
f 93/65/18 14/66/18 16/64/17 95/63/17
f 91/67/19 12/68/19 14/66/18 93/65/18
f 89/69/20 10/70/20 12/68/19 91/67/19
f 87/46/8 8/45/8 10/70/20 89/69/20
f 50/71/21 73/72/21 72/73/22 48/74/22
f 52/75/23 74/76/23 73/72/21 50/71/21
f 38/77/24 67/78/24 66/79/25 36/80/25
f 54/81/26 75/82/26 74/76/23 52/75/23
f 40/83/27 68/84/27 67/78/24 38/77/24
f 56/85/28 76/86/28 75/82/26 54/81/26
f 42/87/29 69/88/29 68/84/27 40/83/27
f 58/89/30 77/90/30 76/86/28 56/85/28
f 44/91/31 70/92/31 69/88/29 42/87/29
f 60/93/32 78/94/32 77/90/30 58/89/30
f 46/95/33 71/96/33 70/92/31 44/91/31
f 62/36/5 79/35/5 78/94/32 60/93/32
f 48/74/22 72/73/22 71/96/33 46/95/33
f 4/97/34 1/98/35 2/99/35 3/100/34
f 6/101/36 4/97/34 3/100/34 5/102/36
f 8/103/37 6/101/36 5/102/36 7/104/37
f 10/105/38 8/103/37 7/104/37 9/106/38
f 12/107/39 10/105/38 9/106/38 11/108/39
f 14/109/40 12/107/39 11/108/39 13/110/40
f 16/111/41 14/109/40 13/110/40 15/112/41
f 18/113/42 16/111/41 15/112/41 17/114/42
f 20/115/43 18/113/42 17/114/42 19/116/43
f 22/117/44 20/115/43 19/116/43 21/118/44
f 24/119/45 22/117/44 21/118/44 23/120/45
f 26/121/46 24/119/45 23/120/45 25/122/46
f 28/123/47 26/121/46 25/122/46 27/124/47
f 30/125/48 28/123/47 27/124/47 29/126/48
f 32/127/49 30/125/48 29/126/48 31/128/49
f 1/98/35 32/127/49 31/128/49 2/99/35
f 34/129/50 35/130/51 36/131/51 33/132/50
f 64/133/52 34/129/50 33/132/50 63/134/52
f 35/130/51 37/135/53 38/136/53 36/131/51
f 37/135/53 39/137/54 40/138/54 38/136/53
f 39/137/54 41/139/55 42/140/55 40/138/54
f 41/139/55 43/141/56 44/142/56 42/140/55
f 43/141/56 45/143/57 46/144/57 44/142/56
f 45/143/57 47/145/58 48/146/58 46/144/57
f 47/145/58 49/147/59 50/148/59 48/146/58
f 49/147/59 51/149/60 52/150/60 50/148/59
f 51/149/60 53/151/61 54/152/61 52/150/60
f 53/151/61 55/153/62 56/154/62 54/152/61
f 55/153/62 57/155/63 58/156/63 56/154/62
f 57/155/63 59/157/64 60/158/64 58/156/63
f 59/157/64 61/159/65 62/160/65 60/158/64
f 61/159/65 64/133/52 63/134/52 62/160/65
f 3/6/3 2/39/3 35/40/3 34/7/3
f 36/80/25 66/79/25 65/48/9 33/47/9
f 85/4/66 86/161/67 84/162/68 83/1/69
f 87/46/70 88/163/71 86/161/67 85/4/66
f 89/69/72 90/164/73 88/163/71 87/46/70
f 91/67/74 92/165/75 90/164/73 89/69/72
f 93/65/76 94/166/77 92/165/75 91/67/74
f 95/63/78 96/167/79 94/166/77 93/65/76
f 97/61/80 98/168/81 96/167/79 95/63/78
f 99/59/82 100/169/83 98/168/81 97/61/80
f 101/57/84 102/170/85 100/169/83 99/59/82
f 103/55/86 104/171/87 102/170/85 101/57/84
f 105/53/88 106/172/89 104/171/87 103/55/86
f 107/51/90 108/173/91 106/172/89 105/53/88
f 109/49/92 110/174/93 108/173/91 107/51/90
f 111/41/94 112/175/95 110/174/93 109/49/92
f 82/44/96 81/176/97 112/175/95 111/41/94
f 82/44/7 1/43/7 4/2/1 83/1/1
f 65/177/3 66/178/3 113/179/3
f 66/178/3 67/180/3 113/179/3
f 67/180/3 68/181/3 113/179/3
f 68/181/3 69/182/3 113/179/3
f 69/182/3 70/183/3 113/179/3
f 70/183/3 71/184/3 113/179/3
f 71/184/3 72/185/3 113/179/3
f 72/185/3 73/186/3 113/179/3
f 73/186/3 74/187/3 113/179/3
f 74/187/3 75/188/3 113/179/3
f 75/188/3 76/189/3 113/179/3
f 76/189/3 77/190/3 113/179/3
f 77/190/3 78/191/3 113/179/3
f 78/191/3 79/192/3 113/179/3
f 79/192/3 80/193/3 113/179/3
f 80/193/3 65/177/3 113/179/3
f 81/194/97 84/195/68 114/196/98
f 84/195/68 86/197/67 114/196/98
f 86/197/67 88/198/71 114/196/98
f 88/198/71 90/199/73 114/196/98
f 90/199/73 92/200/75 114/196/98
f 92/200/75 94/201/77 114/196/98
f 94/201/77 96/202/79 114/196/98
f 96/202/79 98/203/81 114/196/98
f 98/203/81 100/204/83 114/196/98
f 100/204/83 102/205/85 114/196/98
f 102/205/85 104/206/87 114/196/98
f 104/206/87 106/207/89 114/196/98
f 106/207/89 108/208/91 114/196/98
f 108/208/91 110/209/93 114/196/98
f 110/209/93 112/210/95 114/196/98
f 112/210/95 81/194/97 114/196/98
f 83/1/69 84/162/68 81/176/97 82/44/96
f 121/211/99 127/212/100 143/213/101 140/214/102
f 142/215/103 126/216/104 121/217/99 140/218/102
f 121/217/105 126/216/105 133/219/106 127/220/106
f 126/216/107 122/221/107 128/222/108 133/219/108
f 133/219/108 128/222/108 120/223/109 129/224/109
f 127/220/106 133/219/106 129/224/110 119/225/110
f 137/226/111 131/227/112 138/228/113 142/215/114
f 139/229/115 145/230/116 134/231/117 132/232/118
f 134/231/117 130/233/119 116/234/120
f 132/232/118 134/231/117 115/235/121
f 143/213/101 127/212/100 119/236/122 139/237/115
f 138/238/113 144/239/123 128/240/124 122/241/125
f 144/239/123 135/242/126 130/243/119 141/244/127
f 131/245/112 118/246/128 124/247/129 135/242/126
f 135/242/126 124/247/129 116/248/120 130/243/119
f 125/249/130 140/214/102 143/213/101 136/250/131
f 128/240/124 144/239/123 141/244/127 120/251/132
f 117/252/133 125/249/130 136/250/131 123/253/134
f 123/253/134 136/250/131 132/254/118 115/255/121
f 129/224/135 145/230/116 139/229/115 119/225/122
f 117/256/133 137/226/111 125/257/130
f 118/258/128 131/227/112 137/226/111
f 120/223/132 141/259/127 145/230/136 129/224/137
f 145/230/136 141/259/127 130/233/119 134/231/117
f 136/250/131 143/213/101 139/237/115 132/254/118
f 125/257/130 137/226/111 142/215/103 140/218/102
f 138/228/113 122/221/125 126/216/138 142/215/114
f 138/238/113 131/245/112 135/242/126 144/239/123
f 115/235/121 134/231/117 116/234/120
f 117/256/133 118/258/128 137/226/111
