# Blender v3.4.1 OBJ File: 'restaurant_bits_export.blend'
# www.blender.org
mtllib pillar_B.mtl
o pillar_B_Cube.150
v 0.500000 4.000000 -0.500000
v 0.400000 4.100000 -0.400000
v 0.500000 4.000000 0.500000
v 0.400000 4.100000 0.400000
v -0.500000 4.000000 -0.500000
v -0.400000 4.100000 -0.400000
v -0.400000 4.100000 0.400000
v -0.500000 4.000000 0.500000
v 0.400000 2.000000 0.400000
v 0.500000 2.100000 0.500000
v 0.500000 1.900000 0.500000
v 0.400000 2.000000 -0.400000
v 0.500000 2.100000 -0.500000
v 0.500000 1.900000 -0.500000
v -0.400000 2.000000 -0.400000
v -0.500000 2.100000 -0.500000
v -0.500000 1.900000 -0.500000
v -0.400000 2.000000 0.400000
v -0.500000 1.900000 0.500000
v -0.500000 2.100000 0.500000
v 0.500000 0.000000 -0.500000
v 0.500000 0.000000 0.500000
v -0.500000 0.000000 -0.500000
v -0.500000 0.000000 0.500000
vt 0.553467 0.588105
vt 0.553467 0.626892
vt 0.553467 0.626892
vt 0.553467 0.588105
vt 0.571839 0.660183
vt 0.555508 0.660183
vt 0.553467 0.658142
vt 0.573881 0.658142
vt 0.571839 0.660183
vt 0.573881 0.658142
vt 0.555508 0.660183
vt 0.553467 0.658142
vt 0.573881 0.626892
vt 0.573881 0.588105
vt 0.305508 0.664189
vt 0.305508 0.664189
vt 0.303467 0.662148
vt 0.303467 0.662148
vt 0.553467 0.556855
vt 0.553467 0.556855
vt 0.555508 0.554814
vt 0.555508 0.554814
vt 0.321839 0.664189
vt 0.323881 0.662148
vt 0.573881 0.556855
vt 0.571839 0.554814
vt 0.321839 0.664189
vt 0.323881 0.662148
vt 0.573881 0.556855
vt 0.571839 0.554814
vt 0.573881 0.626892
vt 0.573881 0.588105
vt 0.303467 0.592111
vt 0.303467 0.630898
vt 0.323881 0.630898
vt 0.323881 0.592111
vt 0.303467 0.560861
vt 0.323881 0.560861
vt 0.323881 0.560861
vt 0.303467 0.560861
vt 0.303467 0.592111
vt 0.303467 0.630898
vt 0.323881 0.630898
vt 0.323881 0.592111
vn -1.0000 0.0000 0.0000
vn 0.0000 0.7071 0.7071
vn 0.7071 0.7071 0.0000
vn 0.0000 0.7071 -0.7071
vn -0.7071 0.7071 0.0000
vn 0.0000 0.0000 -1.0000
vn -0.7071 -0.7071 0.0000
vn 0.0000 -0.7071 -0.7071
vn 0.7071 -0.7071 0.0000
vn 0.0000 -0.7071 0.7071
vn 0.0000 1.0000 0.0000
vn 1.0000 0.0000 0.0000
vn 0.0000 0.0000 1.0000
vn 0.0000 -1.0000 0.0000
usemtl restaurant
s 1
f 20/1/1 8/2/1 5/3/1 16/4/1
f 4/5/2 7/6/2 8/7/2 3/8/2
f 2/9/3 4/5/3 3/8/3 1/10/3
f 6/11/4 2/9/4 1/10/4 5/12/4
f 7/6/5 6/11/5 5/12/5 8/7/5
f 16/4/6 5/3/6 1/13/6 13/14/6
f 18/15/5 15/16/5 17/17/5 19/18/5
f 20/19/7 16/20/7 15/21/7 18/22/7
f 15/16/4 12/23/4 14/24/4 17/17/4
f 16/20/8 13/25/8 12/26/8 15/21/8
f 12/23/3 9/27/3 11/28/3 14/24/3
f 13/25/9 10/29/9 9/30/9 12/26/9
f 9/27/2 18/15/2 19/18/2 11/28/2
f 10/29/10 20/19/10 18/22/10 9/30/10
f 2/9/11 6/11/11 7/6/11 4/5/11
f 13/14/12 1/13/12 3/31/12 10/32/12
f 23/33/6 17/34/6 14/35/6 21/36/6
f 10/32/13 3/31/13 8/2/13 20/1/13
f 23/37/14 21/38/14 22/39/14 24/40/14
f 24/41/1 19/42/1 17/34/1 23/33/1
f 21/36/12 14/35/12 11/43/12 22/44/12
f 22/44/13 11/43/13 19/42/13 24/41/13
