# Blender v3.4.1 OBJ File: 'restaurant_bits_export.blend'
# www.blender.org
mtllib plate_dirty.mtl
o plate_dirty_Cylinder.572
v -0.074592 0.100000 -0.375000
v 0.074592 0.100000 -0.375000
v 0.212420 0.100000 -0.317910
v 0.317910 0.100000 -0.212420
v 0.375000 0.100000 -0.074592
v 0.375000 0.100000 0.074592
v 0.317910 0.100000 0.212420
v 0.212420 0.100000 0.317910
v 0.074592 0.100000 0.375000
v -0.074592 0.100000 0.375000
v -0.212420 0.100000 0.317910
v -0.317910 0.100000 0.212420
v -0.375000 0.100000 0.074592
v -0.375000 0.100000 -0.074592
v -0.317910 0.100000 -0.212420
v -0.212420 0.100000 -0.317910
v 0.094483 0.100000 -0.475000
v -0.094483 0.100000 -0.475000
v 0.269066 0.100000 -0.402686
v 0.402686 0.100000 -0.269066
v 0.475000 0.100000 -0.094483
v 0.475000 0.100000 0.094483
v 0.402686 0.100000 0.269066
v 0.269066 0.100000 0.402686
v 0.094483 0.100000 0.475000
v -0.094483 0.100000 0.475000
v -0.269066 0.100000 0.402686
v -0.402686 0.100000 0.269066
v -0.475000 0.100000 0.094483
v -0.475000 0.100000 -0.094483
v -0.402686 0.100000 -0.269066
v -0.269066 0.100000 -0.402686
v 0.000000 0.030000 -0.000000
v 0.000000 -0.000000 0.000000
v -0.094483 0.050000 -0.475000
v 0.094483 0.050000 -0.475000
v 0.269066 0.050000 -0.402686
v 0.402686 0.050000 -0.269066
v 0.475000 0.050000 -0.094483
v 0.475000 0.050000 0.094483
v 0.402686 0.050000 0.269066
v 0.269066 0.050000 0.402686
v 0.094483 0.050000 0.475000
v -0.094483 0.050000 0.475000
v -0.269066 0.050000 0.402686
v -0.402686 0.050000 0.269066
v -0.475000 0.050000 0.094483
v -0.475000 0.050000 -0.094483
v -0.402686 0.050000 -0.269066
v -0.269066 0.050000 -0.402686
v 0.059674 0.030000 -0.300000
v -0.059674 0.030000 -0.300000
v 0.169936 0.030000 -0.254328
v 0.254328 0.030000 -0.169936
v 0.300000 0.030000 -0.059674
v 0.300000 0.030000 0.059674
v 0.254328 0.030000 0.169936
v 0.169936 0.030000 0.254328
v 0.059674 0.030000 0.300000
v -0.059674 0.030000 0.300000
v -0.169936 0.030000 0.254328
v -0.254328 0.030000 0.169936
v -0.300000 0.030000 0.059674
v -0.300000 0.030000 -0.059674
v -0.254328 0.030000 -0.169936
v -0.169936 0.030000 -0.254328
v 0.084538 -0.000000 -0.425000
v -0.084538 -0.000000 -0.425000
v 0.240743 -0.000000 -0.360298
v 0.360298 -0.000000 -0.240743
v 0.425000 -0.000000 -0.084538
v 0.425000 -0.000000 0.084538
v 0.360298 -0.000000 0.240743
v 0.240743 -0.000000 0.360298
v 0.084538 -0.000000 0.425000
v -0.084538 -0.000000 0.425000
v -0.240743 -0.000000 0.360298
v -0.360298 -0.000000 0.240743
v -0.425000 -0.000000 0.084538
v -0.425000 -0.000000 -0.084538
v -0.360298 -0.000000 -0.240743
v -0.240743 -0.000000 -0.360298
v 0.180000 0.027992 -0.154786
v 0.239952 0.027992 -0.129952
v 0.264785 0.027992 -0.070000
v 0.239952 0.027992 -0.010048
v 0.180000 0.027992 0.014786
v 0.120048 0.027992 -0.010048
v 0.095214 0.027992 -0.070000
v 0.120048 0.027992 -0.129952
v 0.205119 0.084292 -0.070000
v 0.179005 0.064900 -0.140761
v 0.233220 0.049102 -0.121947
v 0.254195 0.049502 -0.070000
v 0.233220 0.049102 -0.018053
v 0.179005 0.064900 0.000761
v 0.127436 0.051585 -0.019250
v 0.107452 0.052465 -0.070000
v 0.127436 0.051585 -0.120750
v 0.037156 0.027809 -0.233186
v 0.080760 0.027809 -0.251248
v 0.124364 0.027809 -0.233187
v 0.142426 0.027809 -0.189582
v 0.124364 0.027809 -0.145978
v 0.080760 0.027809 -0.127917
v 0.037156 0.027809 -0.145978
v 0.019094 0.027809 -0.189582
v 0.091451 0.079108 -0.200273
v 0.047699 0.064716 -0.221237
v 0.081660 0.053918 -0.238947
v 0.115546 0.054319 -0.224368
v 0.130125 0.053918 -0.190483
v 0.112414 0.064716 -0.156521
v 0.079477 0.056401 -0.141529
v 0.047139 0.057282 -0.155961
v 0.032706 0.056401 -0.188300
v -0.151881 0.027992 -0.119003
v -0.092407 0.027992 -0.094637
v -0.033981 0.027992 0.031359
v -0.056673 0.027992 0.089602
v -0.108544 0.027992 0.126033
v -0.201628 0.027992 0.124232
v -0.187845 0.027992 -0.025498
v -0.094166 0.084142 0.030224
v -0.151017 0.065832 -0.099964
v -0.097430 0.049973 -0.082028
v -0.045785 0.049447 0.029481
v -0.065140 0.049221 0.079894
v -0.114014 0.065357 0.109507
v -0.192877 0.051104 0.110813
v -0.177083 0.050829 -0.014354
v -0.000410 0.026809 0.066783
v 0.074059 0.026809 0.095518
v 0.050933 0.026809 0.196508
v -0.031811 0.026809 0.207635
v -0.075861 0.026809 0.156328
v -0.027419 0.026809 0.109437
v 0.017609 0.077960 0.162849
v 0.000834 0.054560 0.082041
v 0.061076 0.053786 0.105103
v 0.041669 0.053264 0.186007
v -0.024272 0.064173 0.190813
v -0.059496 0.054921 0.153649
v -0.017918 0.058675 0.118852
v -0.033282 0.028071 -0.164280
v -0.013775 0.028071 -0.205302
v 0.017932 0.028071 -0.186023
v 0.014583 0.028071 -0.166197
v -0.011630 0.028071 -0.147893
v -0.009344 0.056925 -0.175970
v -0.026583 0.040794 -0.165381
v -0.014377 0.036364 -0.196543
v 0.011422 0.040794 -0.184095
v 0.009380 0.037252 -0.168814
v -0.008087 0.037252 -0.152516
vt 0.545133 0.807228
vt 0.545133 0.819240
vt 0.557669 0.819240
vt 0.557669 0.807228
vt 0.583774 0.807228
vt 0.583774 0.819240
vt 0.593369 0.819240
vt 0.593369 0.807228
vt 0.598561 0.819240
vt 0.598561 0.807228
vt 0.598561 0.819240
vt 0.598561 0.807228
vt 0.593369 0.819240
vt 0.593369 0.807228
vt 0.583774 0.819240
vt 0.583774 0.807228
vt 0.571238 0.819240
vt 0.571238 0.807228
vt 0.557669 0.819240
vt 0.557669 0.807228
vt 0.545133 0.819240
vt 0.545133 0.807228
vt 0.535539 0.819240
vt 0.535539 0.807228
vt 0.530346 0.819240
vt 0.530346 0.807228
vt 0.530346 0.819240
vt 0.530346 0.807228
vt 0.535539 0.819240
vt 0.535539 0.807228
vt 0.576656 0.802424
vt 0.568739 0.802424
vt 0.569810 0.819240
vt 0.579707 0.819240
vt 0.571238 0.807228
vt 0.571238 0.819240
vt 0.559098 0.841894
vt 0.569810 0.841894
vt 0.571238 0.841894
vt 0.557669 0.841894
vt 0.579707 0.841894
vt 0.583774 0.841894
vt 0.587281 0.841894
vt 0.593369 0.841894
vt 0.591381 0.841894
vt 0.598561 0.841894
vt 0.591381 0.841894
vt 0.598561 0.841894
vt 0.587281 0.841894
vt 0.593369 0.841894
vt 0.579707 0.841894
vt 0.583774 0.841894
vt 0.569810 0.841894
vt 0.571238 0.841894
vt 0.559098 0.841894
vt 0.557669 0.841894
vt 0.549201 0.841894
vt 0.545133 0.841894
vt 0.541626 0.841894
vt 0.535539 0.841894
vt 0.537527 0.841894
vt 0.530346 0.841894
vt 0.537527 0.841894
vt 0.530346 0.841894
vt 0.541626 0.841894
vt 0.535539 0.841894
vt 0.549201 0.841894
vt 0.545133 0.841894
vt 0.552251 0.802424
vt 0.560169 0.802424
vt 0.559098 0.819240
vt 0.549201 0.819240
vt 0.560169 0.802424
vt 0.559098 0.819240
vt 0.568739 0.802424
vt 0.576656 0.802424
vt 0.579707 0.819240
vt 0.569810 0.819240
vt 0.552251 0.802424
vt 0.549201 0.819240
vt 0.582716 0.802424
vt 0.587281 0.819240
vt 0.546192 0.802424
vt 0.541626 0.819240
vt 0.585995 0.802424
vt 0.591381 0.819240
vt 0.542912 0.802424
vt 0.537527 0.819240
vt 0.585995 0.802424
vt 0.591381 0.819240
vt 0.542912 0.802424
vt 0.537527 0.819240
vt 0.582716 0.802424
vt 0.587281 0.819240
vt 0.546192 0.802424
vt 0.541626 0.819240
vt 0.557669 0.790086
vt 0.571238 0.790086
vt 0.570524 0.778075
vt 0.558384 0.778075
vt 0.583774 0.790086
vt 0.581740 0.778075
vt 0.593369 0.790086
vt 0.590325 0.778075
vt 0.598561 0.790086
vt 0.594971 0.778075
vt 0.598561 0.790086
vt 0.594971 0.778075
vt 0.593369 0.790086
vt 0.590325 0.778075
vt 0.583774 0.790086
vt 0.581740 0.778075
vt 0.571238 0.790086
vt 0.570524 0.778075
vt 0.557669 0.790086
vt 0.558384 0.778075
vt 0.545133 0.790086
vt 0.547167 0.778075
vt 0.535539 0.790086
vt 0.538582 0.778075
vt 0.530346 0.790086
vt 0.533936 0.778075
vt 0.530346 0.790086
vt 0.533936 0.778075
vt 0.535539 0.790086
vt 0.538582 0.778075
vt 0.545133 0.790086
vt 0.547167 0.778075
vt 0.564454 0.819566
vt 0.568739 0.819566
vt 0.560169 0.819566
vt 0.576656 0.819566
vt 0.582716 0.819566
vt 0.585995 0.819566
vt 0.585995 0.819566
vt 0.582716 0.819566
vt 0.576656 0.819566
vt 0.568739 0.819566
vt 0.560169 0.819566
vt 0.552251 0.819566
vt 0.546192 0.819566
vt 0.542912 0.819566
vt 0.542912 0.819566
vt 0.546192 0.819566
vt 0.552251 0.819566
vt 0.564454 0.760932
vt 0.558384 0.760932
vt 0.570524 0.760932
vt 0.581740 0.760932
vt 0.590325 0.760932
vt 0.594971 0.760932
vt 0.594971 0.760932
vt 0.590325 0.760932
vt 0.581740 0.760932
vt 0.570524 0.760932
vt 0.558384 0.760932
vt 0.547167 0.760932
vt 0.538582 0.760932
vt 0.533936 0.760932
vt 0.533936 0.760932
vt 0.538582 0.760932
vt 0.547167 0.760932
vt 0.953775 0.575320
vt 0.954819 0.642802
vt 0.962111 0.667005
vt 0.962252 0.575320
vt 0.974242 0.575320
vt 0.972744 0.639017
vt 0.969778 0.638289
vt 0.970730 0.575320
vt 0.962111 0.667005
vt 0.962252 0.575320
vt 0.954819 0.642802
vt 0.953775 0.575320
vt 0.951993 0.644402
vt 0.950263 0.575320
vt 0.969778 0.638289
vt 0.970730 0.575320
vt 0.969778 0.678261
vt 0.962111 0.696883
vt 0.965804 0.719741
vt 0.972744 0.678733
vt 0.969778 0.678261
vt 0.962111 0.696883
vt 0.954819 0.681188
vt 0.951993 0.682225
vt 0.954819 0.681188
vt 0.939499 0.543737
vt 0.941424 0.620308
vt 0.943544 0.635422
vt 0.942053 0.543737
vt 0.954385 0.543737
vt 0.953138 0.616522
vt 0.955200 0.615794
vt 0.956939 0.543737
vt 0.952695 0.635422
vt 0.954385 0.543737
vt 0.948037 0.620308
vt 0.948219 0.543737
vt 0.943464 0.621908
vt 0.942053 0.543737
vt 0.948346 0.615794
vt 0.948219 0.543737
vt 0.948346 0.652689
vt 0.943544 0.665417
vt 0.949731 0.682382
vt 0.953138 0.653161
vt 0.955200 0.652689
vt 0.952695 0.665417
vt 0.948037 0.655616
vt 0.943464 0.656654
vt 0.941424 0.655616
vt 0.910235 0.575320
vt 0.911757 0.641429
vt 0.915443 0.668700
vt 0.915321 0.575320
vt 0.931993 0.575320
vt 0.930324 0.638918
vt 0.927588 0.638506
vt 0.928785 0.575320
vt 0.920676 0.667835
vt 0.921450 0.575320
vt 0.909524 0.641929
vt 0.908287 0.575320
vt 0.923021 0.639872
vt 0.923732 0.575320
vt 0.923021 0.679288
vt 0.915443 0.697983
vt 0.923483 0.719565
vt 0.930324 0.678669
vt 0.927588 0.678402
vt 0.920676 0.697422
vt 0.909524 0.680621
vt 0.911757 0.680298
vt 0.944001 0.541919
vt 0.942691 0.614605
vt 0.933366 0.634434
vt 0.932300 0.541919
vt 0.928385 0.617616
vt 0.926071 0.541919
vt 0.934265 0.624440
vt 0.932921 0.541919
vt 0.936916 0.616962
vt 0.936741 0.541919
vt 0.945435 0.615553
vt 0.947271 0.541919
vt 0.945435 0.652532
vt 0.936916 0.653446
vt 0.939289 0.681028
vt 0.942691 0.651918
vt 0.933366 0.664777
vt 0.928385 0.653870
vt 0.934265 0.658295
vt 0.935154 0.544211
vt 0.935655 0.560900
vt 0.933040 0.567339
vt 0.932092 0.544211
vt 0.934851 0.544211
vt 0.934766 0.559288
vt 0.938414 0.567339
vt 0.939334 0.544211
vt 0.938125 0.560900
vt 0.938861 0.544211
vt 0.950391 0.574913
vt 0.948665 0.582964
vt 0.951102 0.612285
vt 0.954039 0.582964
vt 0.953750 0.576525
vt 0.951280 0.576525
vn -0.5159 -0.3710 -0.7721
vn -0.5556 0.0000 -0.8315
vn -0.1951 0.0000 -0.9808
vn 0.5159 -0.3710 -0.7721
vn 0.5556 0.0000 -0.8315
vn 0.8315 0.0000 -0.5556
vn 0.9808 0.0000 -0.1951
vn 0.9108 -0.3710 -0.1812
vn 0.9808 0.0000 0.1951
vn 0.9108 -0.3710 0.1812
vn 0.8315 0.0000 0.5556
vn 0.7721 -0.3710 0.5159
vn 0.5556 0.0000 0.8315
vn 0.5159 -0.3710 0.7721
vn 0.1951 0.0000 0.9808
vn -0.1951 0.0000 0.9808
vn -0.5556 0.0000 0.8315
vn -0.8315 0.0000 0.5556
vn -0.7721 -0.3710 0.5159
vn -0.9808 0.0000 0.1951
vn -0.9108 -0.3710 0.1812
vn -0.9808 0.0000 -0.1951
vn -0.9108 -0.3710 -0.1812
vn -0.8315 0.0000 -0.5556
vn -0.7721 -0.3710 -0.5159
vn -0.3751 0.7376 -0.5614
vn -0.1317 0.7376 -0.6622
vn 0.1812 -0.3710 -0.9108
vn 0.1951 0.0000 -0.9808
vn 0.0000 1.0000 -0.0000
vn 0.3751 0.7376 0.5614
vn 0.1317 0.7376 0.6622
vn 0.1317 0.7376 -0.6622
vn -0.1317 0.7376 0.6622
vn -0.3751 0.7376 0.5614
vn 0.3751 0.7376 -0.5614
vn -0.5614 0.7376 0.3751
vn 0.5614 0.7376 -0.3751
vn -0.6622 0.7376 0.1317
vn 0.6622 0.7376 -0.1317
vn -0.6622 0.7376 -0.1317
vn 0.6622 0.7376 0.1317
vn -0.5614 0.7376 -0.3751
vn 0.5614 0.7376 0.3751
vn -0.1366 -0.7139 -0.6868
vn 0.1366 -0.7139 -0.6868
vn 0.3890 -0.7139 -0.5822
vn 0.5822 -0.7139 -0.3890
vn 0.6868 -0.7139 -0.1366
vn 0.6868 -0.7139 0.1366
vn 0.5822 -0.7139 0.3890
vn 0.3890 -0.7139 0.5822
vn 0.1366 -0.7139 0.6868
vn -0.1366 -0.7139 0.6868
vn -0.3890 -0.7139 0.5822
vn -0.5822 -0.7139 0.3890
vn -0.6868 -0.7139 0.1366
vn -0.6868 -0.7139 -0.1366
vn -0.5822 -0.7139 -0.3890
vn -0.3890 -0.7139 -0.5822
vn 0.0000 -1.0000 0.0000
vn -0.6454 0.4123 -0.6429
vn -0.6463 0.4124 -0.6420
vn -0.0320 0.7459 -0.6653
vn 0.0021 0.3992 -0.9169
vn 0.9002 0.4354 -0.0000
vn 0.7858 0.6185 0.0000
vn 0.5906 0.6005 0.5391
vn 0.6432 0.4151 0.6434
vn -0.0320 0.7459 0.6653
vn 0.0021 0.3992 0.9169
vn -0.6463 0.4124 0.6420
vn -0.6454 0.4123 0.6429
vn -0.8992 0.4375 0.0000
vn 0.5906 0.6005 -0.5391
vn 0.6432 0.4151 -0.6434
vn 0.1801 0.9837 -0.0000
vn -0.3043 0.9420 0.1412
vn -0.3098 0.9508 0.0000
vn -0.3043 0.9420 -0.1412
vn -0.9093 0.4160 0.0043
vn -0.9094 0.4160 0.0034
vn -0.4947 0.7418 -0.4527
vn -0.6423 0.4174 -0.6428
vn 0.6417 0.4201 -0.6417
vn 0.5614 0.6080 -0.5614
vn 0.8023 0.5960 -0.0318
vn 0.9083 0.4184 -0.0003
vn 0.4527 0.7418 0.4947
vn 0.6428 0.4174 0.6423
vn -0.0034 0.4160 0.9094
vn -0.0043 0.4160 0.9093
vn -0.6407 0.4231 0.6407
vn 0.0318 0.5960 -0.8023
vn 0.0003 0.4184 -0.9083
vn 0.1221 0.9850 -0.1221
vn -0.1061 0.9346 0.3396
vn -0.2326 0.9444 0.2326
vn -0.3396 0.9346 0.1061
vn -0.9141 0.3450 -0.2131
vn -0.9165 0.3572 -0.1801
vn -0.9044 0.3159 -0.2867
vn 0.8787 0.4773 -0.0108
vn 0.7729 0.6334 -0.0375
vn 0.6383 0.6297 0.4428
vn 0.6909 0.4749 0.5451
vn 0.1623 0.7792 0.6054
vn 0.2642 0.4685 0.8430
vn -0.0395 0.4451 0.8946
vn -0.9177 0.3848 -0.0991
vn 0.3673 0.4548 -0.8113
vn 0.3857 0.6592 -0.6455
vn 0.5684 0.6468 -0.5086
vn 0.5955 0.4603 -0.6584
vn 0.1981 0.9801 0.0102
vn -0.2728 0.9602 0.0595
vn -0.3751 0.9270 0.0049
vn -0.3917 0.9191 0.0418
vn 0.1264 0.3933 0.9107
vn 0.5501 0.5981 0.5828
vn 0.1426 0.5105 0.8480
vn -0.6954 0.4262 0.5786
vn -0.6371 0.3518 -0.6859
vn -0.7244 0.3514 -0.5930
vn -0.7297 0.3512 -0.5866
vn -0.8057 0.3446 -0.4818
vn 0.3231 0.4478 -0.8337
vn 0.1724 0.7679 -0.6169
vn 0.6321 0.7064 -0.3184
vn 0.9009 0.3788 0.2118
vn 0.1624 0.9751 0.1511
vn -0.2743 0.9567 -0.0970
vn -0.2901 0.9563 0.0369
vn -0.2447 0.9451 -0.2167
vn -0.5060 0.4317 0.7467
vn -0.4360 0.5483 0.7136
vn -0.4219 0.5690 0.7059
vn 0.3822 0.5183 -0.7650
vn 0.3337 0.5682 -0.7522
vn 0.3266 0.5750 -0.7501
vn 0.8651 0.4683 0.1801
vn 0.7789 0.5887 0.2163
vn 0.7043 0.5513 0.4472
vn 0.7691 0.4302 0.4726
vn 0.5666 0.4613 0.6828
vn 0.5833 0.3431 0.7363
vn -0.8361 0.3849 -0.3909
vn -0.8059 0.4496 -0.3851
vn -0.8161 0.4290 -0.3872
vn -0.7457 0.5535 -0.3708
vn 0.2320 0.6590 -0.7154
vn 0.5720 0.6999 0.4277
vn -0.2949 0.7242 0.6233
usemtl restaurant
s 1
f 50/1/1 32/2/2 18/3/3 35/4/3
f 37/5/4 19/6/5 20/7/6 38/8/6
f 38/8/6 20/7/6 21/9/7 39/10/8
f 39/10/8 21/9/7 22/11/9 40/12/10
f 40/12/10 22/11/9 23/13/11 41/14/12
f 41/14/12 23/13/11 24/15/13 42/16/14
f 42/16/14 24/15/13 25/17/15 43/18/15
f 43/18/15 25/17/15 26/19/16 44/20/16
f 44/20/16 26/19/16 27/21/17 45/22/17
f 45/22/17 27/21/17 28/23/18 46/24/19
f 46/24/19 28/23/18 29/25/20 47/26/21
f 47/26/21 29/25/20 30/27/22 48/28/23
f 48/28/23 30/27/22 31/29/24 49/30/25
f 49/30/25 31/29/24 32/2/2 50/1/1
f 58/31/26 59/32/27 9/33/27 8/34/26
f 36/35/28 17/36/29 19/6/5 37/5/4
f 35/4/3 18/3/3 17/36/29 36/35/28
f 1/37/30 2/38/30 17/39/30 18/40/30
f 2/38/30 3/41/30 19/42/30 17/39/30
f 3/41/30 4/43/30 20/44/30 19/42/30
f 4/43/30 5/45/30 21/46/30 20/44/30
f 5/45/30 6/47/30 22/48/30 21/46/30
f 6/47/30 7/49/30 23/50/30 22/48/30
f 7/49/30 8/51/30 24/52/30 23/50/30
f 8/51/30 9/53/30 25/54/30 24/52/30
f 9/53/30 10/55/30 26/56/30 25/54/30
f 10/55/30 11/57/30 27/58/30 26/56/30
f 11/57/30 12/59/30 28/60/30 27/58/30
f 12/59/30 13/61/30 29/62/30 28/60/30
f 13/61/30 14/63/30 30/64/30 29/62/30
f 14/63/30 15/65/30 31/66/30 30/64/30
f 15/65/30 16/67/30 32/68/30 31/66/30
f 16/67/30 1/37/30 18/40/30 32/68/30
f 66/69/31 52/70/32 1/71/32 16/72/31
f 59/32/27 60/73/33 10/74/33 9/33/27
f 51/75/34 53/76/35 3/77/35 2/78/34
f 60/73/33 61/79/36 11/80/36 10/74/33
f 53/76/35 54/81/37 4/82/37 3/77/35
f 61/79/36 62/83/38 12/84/38 11/80/36
f 54/81/37 55/85/39 5/86/39 4/82/37
f 62/83/38 63/87/40 13/88/40 12/84/38
f 55/85/39 56/89/41 6/90/41 5/86/39
f 63/87/40 64/91/42 14/92/42 13/88/40
f 56/89/41 57/93/43 7/94/43 6/90/41
f 64/91/42 65/95/44 15/96/44 14/92/42
f 57/93/43 58/31/26 8/34/26 7/94/43
f 65/95/44 66/69/31 16/72/31 15/96/44
f 52/70/32 51/75/34 2/78/34 1/71/32
f 35/97/45 36/98/28 67/99/46 68/100/45
f 36/98/28 37/101/4 69/102/47 67/99/46
f 37/101/4 38/103/48 70/104/48 69/102/47
f 38/103/48 39/105/8 71/106/49 70/104/48
f 39/105/8 40/107/10 72/108/50 71/106/49
f 40/107/10 41/109/12 73/110/51 72/108/50
f 41/109/12 42/111/14 74/112/52 73/110/51
f 42/111/14 43/113/53 75/114/53 74/112/52
f 43/113/53 44/115/54 76/116/54 75/114/53
f 44/115/54 45/117/55 77/118/55 76/116/54
f 45/117/55 46/119/19 78/120/56 77/118/55
f 46/119/19 47/121/21 79/122/57 78/120/56
f 47/121/21 48/123/23 80/124/58 79/122/57
f 48/123/23 49/125/25 81/126/59 80/124/58
f 49/125/25 50/127/1 82/128/60 81/126/59
f 50/127/1 35/97/45 68/100/45 82/128/60
f 33/129/30 51/130/30 52/131/30
f 33/129/30 53/132/30 51/130/30
f 33/129/30 54/133/30 53/132/30
f 33/129/30 55/134/30 54/133/30
f 33/129/30 56/135/30 55/134/30
f 33/129/30 57/136/30 56/135/30
f 33/129/30 58/137/30 57/136/30
f 33/129/30 59/138/30 58/137/30
f 33/129/30 60/139/30 59/138/30
f 33/129/30 61/140/30 60/139/30
f 33/129/30 62/141/30 61/140/30
f 33/129/30 63/142/30 62/141/30
f 33/129/30 64/143/30 63/142/30
f 33/129/30 65/144/30 64/143/30
f 33/129/30 66/145/30 65/144/30
f 33/129/30 52/131/30 66/145/30
f 34/146/61 68/147/61 67/148/61
f 34/146/61 67/148/61 69/149/61
f 34/146/61 69/149/61 70/150/61
f 34/146/61 70/150/61 71/151/61
f 34/146/61 71/151/61 72/152/61
f 34/146/61 72/152/61 73/153/61
f 34/146/61 73/153/61 74/154/61
f 34/146/61 74/154/61 75/155/61
f 34/146/61 75/155/61 76/156/61
f 34/146/61 76/156/61 77/157/61
f 34/146/61 77/157/61 78/158/61
f 34/146/61 78/158/61 79/159/61
f 34/146/61 79/159/61 80/160/61
f 34/146/61 80/160/61 81/161/61
f 34/146/61 81/161/61 82/162/61
f 34/146/61 82/162/61 68/147/61
f 90/163/62 99/164/63 92/165/64 83/166/65
f 85/167/66 94/168/67 95/169/68 86/170/69
f 86/170/69 95/169/68 96/171/70 87/172/71
f 87/172/71 96/171/70 97/173/72 88/174/73
f 88/174/73 97/173/72 98/175/74 89/176/74
f 89/176/74 98/175/74 99/164/63 90/163/62
f 83/166/65 92/165/64 93/177/75 84/178/76
f 84/178/76 93/177/75 94/168/67 85/167/66
f 93/179/75 92/180/64 91/181/77
f 94/182/67 93/179/75 91/181/77
f 95/183/68 94/182/67 91/181/77
f 96/184/70 95/183/68 91/181/77
f 97/185/78 96/184/70 91/181/77
f 98/186/79 97/185/78 91/181/77
f 99/187/80 98/186/79 91/181/77
f 92/180/64 99/187/80 91/181/77
f 107/188/81 116/189/82 109/190/83 100/191/84
f 102/192/85 111/193/86 112/194/87 103/195/88
f 103/195/88 112/194/87 113/196/89 104/197/90
f 104/197/90 113/196/89 114/198/91 105/199/92
f 105/199/92 114/198/91 115/200/93 106/201/93
f 106/201/93 115/200/93 116/189/82 107/188/81
f 100/191/84 109/190/83 110/202/94 101/203/95
f 101/203/95 110/202/94 111/193/86 102/192/85
f 110/204/94 109/205/83 108/206/96
f 111/207/86 110/204/94 108/206/96
f 112/208/87 111/207/86 108/206/96
f 113/209/89 112/208/87 108/206/96
f 114/210/97 113/209/89 108/206/96
f 115/211/98 114/210/97 108/206/96
f 116/212/99 115/211/98 108/206/96
f 109/205/83 116/212/99 108/206/96
f 123/213/100 131/214/101 125/215/102 117/216/102
f 119/217/103 127/218/104 128/219/105 120/220/106
f 120/220/106 128/219/105 129/221/107 121/222/108
f 121/222/108 129/221/107 130/223/109 122/224/109
f 122/224/110 130/223/110 131/214/101 123/213/100
f 117/216/111 125/215/112 126/225/113 118/226/114
f 118/226/114 126/225/113 127/218/104 119/217/103
f 126/227/113 125/228/112 124/229/115
f 127/230/104 126/227/113 124/229/115
f 128/231/105 127/230/104 124/229/115
f 129/232/107 128/231/105 124/229/115
f 130/233/116 129/232/107 124/229/115
f 131/234/117 130/233/116 124/229/115
f 125/228/118 131/234/117 124/229/115
f 134/235/119 141/236/120 142/237/121 135/238/119
f 135/238/122 142/237/122 143/239/122 136/240/122
f 136/240/123 143/239/123 144/241/124 137/242/125
f 137/242/125 144/241/124 139/243/126 132/244/126
f 132/244/127 139/243/128 140/245/129 133/246/127
f 133/246/130 140/245/129 141/236/120 134/235/130
f 140/247/129 139/248/128 138/249/131
f 141/250/120 140/247/129 138/249/131
f 142/251/121 141/250/120 138/249/131
f 143/252/132 142/251/133 138/249/131
f 144/253/134 143/252/132 138/249/131
f 139/248/128 144/253/134 138/249/131
f 149/254/135 155/255/136 151/256/137 145/257/135
f 146/258/138 152/259/139 153/260/140 147/261/138
f 147/261/141 153/260/142 154/262/143 148/263/144
f 148/263/144 154/262/143 155/255/145 149/254/146
f 145/257/147 151/256/148 152/259/149 146/258/147
f 152/264/149 151/265/148 150/266/150
f 153/267/140 152/264/139 150/266/151
f 154/268/143 153/267/142 150/266/152
f 155/269/145 154/268/143 150/266/152
f 151/265/137 155/269/136 150/266/153
