# Blender v3.4.1 OBJ File: 'restaurant_bits_export.blend'
# www.blender.org
mtllib plate.mtl
o plate_Cylinder.105
v -0.074592 0.100000 -0.375000
v 0.074592 0.100000 -0.375000
v 0.212420 0.100000 -0.317910
v 0.317910 0.100000 -0.212420
v 0.375000 0.100000 -0.074592
v 0.375000 0.100000 0.074592
v 0.317910 0.100000 0.212420
v 0.212420 0.100000 0.317910
v 0.074592 0.100000 0.375000
v -0.074592 0.100000 0.375000
v -0.212420 0.100000 0.317910
v -0.317910 0.100000 0.212420
v -0.375000 0.100000 0.074592
v -0.375000 0.100000 -0.074592
v -0.317910 0.100000 -0.212420
v -0.212420 0.100000 -0.317910
v 0.094483 0.100000 -0.475000
v -0.094483 0.100000 -0.475000
v 0.269066 0.100000 -0.402686
v 0.402686 0.100000 -0.269066
v 0.475000 0.100000 -0.094483
v 0.475000 0.100000 0.094483
v 0.402686 0.100000 0.269066
v 0.269066 0.100000 0.402686
v 0.094483 0.100000 0.475000
v -0.094483 0.100000 0.475000
v -0.269066 0.100000 0.402686
v -0.402686 0.100000 0.269066
v -0.475000 0.100000 0.094483
v -0.475000 0.100000 -0.094483
v -0.402686 0.100000 -0.269066
v -0.269066 0.100000 -0.402686
v 0.000000 0.030000 -0.000000
v 0.000000 -0.000000 0.000000
v -0.094483 0.050000 -0.475000
v 0.094483 0.050000 -0.475000
v 0.269066 0.050000 -0.402686
v 0.402686 0.050000 -0.269066
v 0.475000 0.050000 -0.094483
v 0.475000 0.050000 0.094483
v 0.402686 0.050000 0.269066
v 0.269066 0.050000 0.402686
v 0.094483 0.050000 0.475000
v -0.094483 0.050000 0.475000
v -0.269066 0.050000 0.402686
v -0.402686 0.050000 0.269066
v -0.475000 0.050000 0.094483
v -0.475000 0.050000 -0.094483
v -0.402686 0.050000 -0.269066
v -0.269066 0.050000 -0.402686
v 0.059674 0.030000 -0.300000
v -0.059674 0.030000 -0.300000
v 0.169936 0.030000 -0.254328
v 0.254328 0.030000 -0.169936
v 0.300000 0.030000 -0.059674
v 0.300000 0.030000 0.059674
v 0.254328 0.030000 0.169936
v 0.169936 0.030000 0.254328
v 0.059674 0.030000 0.300000
v -0.059674 0.030000 0.300000
v -0.169936 0.030000 0.254328
v -0.254328 0.030000 0.169936
v -0.300000 0.030000 0.059674
v -0.300000 0.030000 -0.059674
v -0.254328 0.030000 -0.169936
v -0.169936 0.030000 -0.254328
v 0.084538 -0.000000 -0.425000
v -0.084538 -0.000000 -0.425000
v 0.240743 -0.000000 -0.360298
v 0.360298 -0.000000 -0.240743
v 0.425000 -0.000000 -0.084538
v 0.425000 -0.000000 0.084538
v 0.360298 -0.000000 0.240743
v 0.240743 -0.000000 0.360298
v 0.084538 -0.000000 0.425000
v -0.084538 -0.000000 0.425000
v -0.240743 -0.000000 0.360298
v -0.360298 -0.000000 0.240743
v -0.425000 -0.000000 0.084538
v -0.425000 -0.000000 -0.084538
v -0.360298 -0.000000 -0.240743
v -0.240743 -0.000000 -0.360298
vt 0.539862 0.870000
vt 0.539862 0.886136
vt 0.552398 0.886136
vt 0.552398 0.870000
vt 0.578503 0.870000
vt 0.578503 0.886136
vt 0.588098 0.886136
vt 0.588098 0.870000
vt 0.593290 0.886136
vt 0.593290 0.870000
vt 0.593290 0.886136
vt 0.593290 0.870000
vt 0.588098 0.886136
vt 0.588098 0.870000
vt 0.578503 0.886136
vt 0.578503 0.870000
vt 0.565967 0.886136
vt 0.565967 0.870000
vt 0.552398 0.886136
vt 0.552398 0.870000
vt 0.539862 0.886136
vt 0.539862 0.870000
vt 0.530268 0.886136
vt 0.530268 0.870000
vt 0.525075 0.886136
vt 0.525075 0.870000
vt 0.525075 0.886136
vt 0.525075 0.870000
vt 0.530268 0.886136
vt 0.530268 0.870000
vt 0.571385 0.863545
vt 0.563468 0.863545
vt 0.564539 0.886136
vt 0.574436 0.886136
vt 0.565967 0.870000
vt 0.565967 0.886136
vt 0.553827 0.916570
vt 0.564539 0.916570
vt 0.565967 0.916570
vt 0.552398 0.916570
vt 0.574436 0.916570
vt 0.578503 0.916570
vt 0.582010 0.916570
vt 0.588098 0.916570
vt 0.586110 0.916570
vt 0.593290 0.916570
vt 0.586110 0.916570
vt 0.593290 0.916570
vt 0.582010 0.916570
vt 0.588098 0.916570
vt 0.574436 0.916570
vt 0.578503 0.916570
vt 0.564539 0.916570
vt 0.565967 0.916570
vt 0.553827 0.916570
vt 0.552398 0.916570
vt 0.543930 0.916570
vt 0.539862 0.916570
vt 0.536355 0.916570
vt 0.530268 0.916570
vt 0.532256 0.916570
vt 0.525075 0.916570
vt 0.532256 0.916570
vt 0.525075 0.916570
vt 0.536355 0.916570
vt 0.530268 0.916570
vt 0.543930 0.916570
vt 0.539862 0.916570
vt 0.546980 0.863545
vt 0.554898 0.863545
vt 0.553827 0.886136
vt 0.543930 0.886136
vt 0.554898 0.863545
vt 0.553827 0.886136
vt 0.563468 0.863545
vt 0.571385 0.863545
vt 0.574436 0.886136
vt 0.564539 0.886136
vt 0.546980 0.863545
vt 0.543930 0.886136
vt 0.577445 0.863545
vt 0.582010 0.886136
vt 0.540920 0.863545
vt 0.536355 0.886136
vt 0.580724 0.863545
vt 0.586110 0.886136
vt 0.537641 0.863545
vt 0.532256 0.886136
vt 0.580724 0.863545
vt 0.586110 0.886136
vt 0.537641 0.863545
vt 0.532256 0.886136
vt 0.577445 0.863545
vt 0.582010 0.886136
vt 0.540920 0.863545
vt 0.536355 0.886136
vt 0.552398 0.846970
vt 0.565967 0.846970
vt 0.565253 0.830833
vt 0.553112 0.830833
vt 0.578503 0.846970
vt 0.576469 0.830833
vt 0.588098 0.846970
vt 0.585054 0.830833
vt 0.593290 0.846970
vt 0.589700 0.830833
vt 0.593290 0.846970
vt 0.589700 0.830833
vt 0.588098 0.846970
vt 0.585054 0.830833
vt 0.578503 0.846970
vt 0.576469 0.830833
vt 0.565967 0.846970
vt 0.565253 0.830833
vt 0.552398 0.846970
vt 0.553112 0.830833
vt 0.539862 0.846970
vt 0.541896 0.830833
vt 0.530268 0.846970
vt 0.533311 0.830833
vt 0.525075 0.846970
vt 0.528665 0.830833
vt 0.525075 0.846970
vt 0.528665 0.830833
vt 0.530268 0.846970
vt 0.533311 0.830833
vt 0.539862 0.846970
vt 0.541896 0.830833
vt 0.559183 0.886574
vt 0.563468 0.886574
vt 0.554898 0.886574
vt 0.571385 0.886574
vt 0.577445 0.886574
vt 0.580724 0.886574
vt 0.580724 0.886574
vt 0.577445 0.886574
vt 0.571385 0.886574
vt 0.563468 0.886574
vt 0.554898 0.886574
vt 0.546980 0.886574
vt 0.540920 0.886574
vt 0.537641 0.886574
vt 0.537641 0.886574
vt 0.540920 0.886574
vt 0.546980 0.886574
vt 0.559183 0.807804
vt 0.553112 0.807804
vt 0.565253 0.807804
vt 0.576469 0.807804
vt 0.585054 0.807804
vt 0.589700 0.807804
vt 0.589700 0.807804
vt 0.585054 0.807804
vt 0.576469 0.807804
vt 0.565253 0.807804
vt 0.553112 0.807804
vt 0.541896 0.807804
vt 0.533311 0.807804
vt 0.528665 0.807804
vt 0.528665 0.807804
vt 0.533311 0.807804
vt 0.541896 0.807804
vn -0.5159 -0.3710 -0.7721
vn -0.5556 0.0000 -0.8315
vn -0.1951 0.0000 -0.9808
vn 0.5159 -0.3710 -0.7721
vn 0.5556 0.0000 -0.8315
vn 0.8315 0.0000 -0.5556
vn 0.9808 0.0000 -0.1951
vn 0.9108 -0.3710 -0.1812
vn 0.9808 0.0000 0.1951
vn 0.9108 -0.3710 0.1812
vn 0.8315 0.0000 0.5556
vn 0.7721 -0.3710 0.5159
vn 0.5556 0.0000 0.8315
vn 0.5159 -0.3710 0.7721
vn 0.1951 0.0000 0.9808
vn -0.1951 0.0000 0.9808
vn -0.5556 0.0000 0.8315
vn -0.8315 0.0000 0.5556
vn -0.7721 -0.3710 0.5159
vn -0.9808 0.0000 0.1951
vn -0.9108 -0.3710 0.1812
vn -0.9808 0.0000 -0.1951
vn -0.9108 -0.3710 -0.1812
vn -0.8315 0.0000 -0.5556
vn -0.7721 -0.3710 -0.5159
vn -0.3751 0.7376 -0.5614
vn -0.1317 0.7376 -0.6622
vn 0.1812 -0.3710 -0.9108
vn 0.1951 0.0000 -0.9808
vn 0.0000 1.0000 -0.0000
vn 0.3751 0.7376 0.5614
vn 0.1317 0.7376 0.6622
vn 0.1317 0.7376 -0.6622
vn -0.1317 0.7376 0.6622
vn -0.3751 0.7376 0.5614
vn 0.3751 0.7376 -0.5614
vn -0.5614 0.7376 0.3751
vn 0.5614 0.7376 -0.3751
vn -0.6622 0.7376 0.1317
vn 0.6622 0.7376 -0.1317
vn -0.6622 0.7376 -0.1317
vn 0.6622 0.7376 0.1317
vn -0.5614 0.7376 -0.3751
vn 0.5614 0.7376 0.3751
vn -0.1366 -0.7139 -0.6868
vn 0.1366 -0.7139 -0.6868
vn 0.3890 -0.7139 -0.5822
vn 0.5822 -0.7139 -0.3890
vn 0.6868 -0.7139 -0.1366
vn 0.6868 -0.7139 0.1366
vn 0.5822 -0.7139 0.3890
vn 0.3890 -0.7139 0.5822
vn 0.1366 -0.7139 0.6868
vn -0.1366 -0.7139 0.6868
vn -0.3890 -0.7139 0.5822
vn -0.5822 -0.7139 0.3890
vn -0.6868 -0.7139 0.1366
vn -0.6868 -0.7139 -0.1366
vn -0.5822 -0.7139 -0.3890
vn -0.3890 -0.7139 -0.5822
vn 0.0000 -1.0000 0.0000
usemtl restaurant
s 1
f 50/1/1 32/2/2 18/3/3 35/4/3
f 37/5/4 19/6/5 20/7/6 38/8/6
f 38/8/6 20/7/6 21/9/7 39/10/8
f 39/10/8 21/9/7 22/11/9 40/12/10
f 40/12/10 22/11/9 23/13/11 41/14/12
f 41/14/12 23/13/11 24/15/13 42/16/14
f 42/16/14 24/15/13 25/17/15 43/18/15
f 43/18/15 25/17/15 26/19/16 44/20/16
f 44/20/16 26/19/16 27/21/17 45/22/17
f 45/22/17 27/21/17 28/23/18 46/24/19
f 46/24/19 28/23/18 29/25/20 47/26/21
f 47/26/21 29/25/20 30/27/22 48/28/23
f 48/28/23 30/27/22 31/29/24 49/30/25
f 49/30/25 31/29/24 32/2/2 50/1/1
f 58/31/26 59/32/27 9/33/27 8/34/26
f 36/35/28 17/36/29 19/6/5 37/5/4
f 35/4/3 18/3/3 17/36/29 36/35/28
f 1/37/30 2/38/30 17/39/30 18/40/30
f 2/38/30 3/41/30 19/42/30 17/39/30
f 3/41/30 4/43/30 20/44/30 19/42/30
f 4/43/30 5/45/30 21/46/30 20/44/30
f 5/45/30 6/47/30 22/48/30 21/46/30
f 6/47/30 7/49/30 23/50/30 22/48/30
f 7/49/30 8/51/30 24/52/30 23/50/30
f 8/51/30 9/53/30 25/54/30 24/52/30
f 9/53/30 10/55/30 26/56/30 25/54/30
f 10/55/30 11/57/30 27/58/30 26/56/30
f 11/57/30 12/59/30 28/60/30 27/58/30
f 12/59/30 13/61/30 29/62/30 28/60/30
f 13/61/30 14/63/30 30/64/30 29/62/30
f 14/63/30 15/65/30 31/66/30 30/64/30
f 15/65/30 16/67/30 32/68/30 31/66/30
f 16/67/30 1/37/30 18/40/30 32/68/30
f 66/69/31 52/70/32 1/71/32 16/72/31
f 59/32/27 60/73/33 10/74/33 9/33/27
f 51/75/34 53/76/35 3/77/35 2/78/34
f 60/73/33 61/79/36 11/80/36 10/74/33
f 53/76/35 54/81/37 4/82/37 3/77/35
f 61/79/36 62/83/38 12/84/38 11/80/36
f 54/81/37 55/85/39 5/86/39 4/82/37
f 62/83/38 63/87/40 13/88/40 12/84/38
f 55/85/39 56/89/41 6/90/41 5/86/39
f 63/87/40 64/91/42 14/92/42 13/88/40
f 56/89/41 57/93/43 7/94/43 6/90/41
f 64/91/42 65/95/44 15/96/44 14/92/42
f 57/93/43 58/31/26 8/34/26 7/94/43
f 65/95/44 66/69/31 16/72/31 15/96/44
f 52/70/32 51/75/34 2/78/34 1/71/32
f 35/97/45 36/98/28 67/99/46 68/100/45
f 36/98/28 37/101/4 69/102/47 67/99/46
f 37/101/4 38/103/48 70/104/48 69/102/47
f 38/103/48 39/105/8 71/106/49 70/104/48
f 39/105/8 40/107/10 72/108/50 71/106/49
f 40/107/10 41/109/12 73/110/51 72/108/50
f 41/109/12 42/111/14 74/112/52 73/110/51
f 42/111/14 43/113/53 75/114/53 74/112/52
f 43/113/53 44/115/54 76/116/54 75/114/53
f 44/115/54 45/117/55 77/118/55 76/116/54
f 45/117/55 46/119/19 78/120/56 77/118/55
f 46/119/19 47/121/21 79/122/57 78/120/56
f 47/121/21 48/123/23 80/124/58 79/122/57
f 48/123/23 49/125/25 81/126/59 80/124/58
f 49/125/25 50/127/1 82/128/60 81/126/59
f 50/127/1 35/97/45 68/100/45 82/128/60
f 33/129/30 51/130/30 52/131/30
f 33/129/30 53/132/30 51/130/30
f 33/129/30 54/133/30 53/132/30
f 33/129/30 55/134/30 54/133/30
f 33/129/30 56/135/30 55/134/30
f 33/129/30 57/136/30 56/135/30
f 33/129/30 58/137/30 57/136/30
f 33/129/30 59/138/30 58/137/30
f 33/129/30 60/139/30 59/138/30
f 33/129/30 61/140/30 60/139/30
f 33/129/30 62/141/30 61/140/30
f 33/129/30 63/142/30 62/141/30
f 33/129/30 64/143/30 63/142/30
f 33/129/30 65/144/30 64/143/30
f 33/129/30 66/145/30 65/144/30
f 33/129/30 52/131/30 66/145/30
f 34/146/61 68/147/61 67/148/61
f 34/146/61 67/148/61 69/149/61
f 34/146/61 69/149/61 70/150/61
f 34/146/61 70/150/61 71/151/61
f 34/146/61 71/151/61 72/152/61
f 34/146/61 72/152/61 73/153/61
f 34/146/61 73/153/61 74/154/61
f 34/146/61 74/154/61 75/155/61
f 34/146/61 75/155/61 76/156/61
f 34/146/61 76/156/61 77/157/61
f 34/146/61 77/157/61 78/158/61
f 34/146/61 78/158/61 79/159/61
f 34/146/61 79/159/61 80/160/61
f 34/146/61 80/160/61 81/161/61
f 34/146/61 81/161/61 82/162/61
f 34/146/61 82/162/61 68/147/61
