# Blender v3.4.1 OBJ File: 'restaurant_bits_export.blend'
# www.blender.org
mtllib shelf_papertowel.mtl
o shelf_papertowel_Cube.238
v -0.950000 -0.100000 0.600000
v -1.000000 -0.100000 0.550000
v -0.950000 0.100000 0.600000
v -0.950000 0.150000 0.550000
v -1.000000 0.100000 0.550000
v -1.000000 -0.100000 0.050000
v -0.950000 -0.100000 0.000000
v -0.950000 0.150000 0.050000
v -0.950000 0.100000 0.000000
v -1.000000 0.100000 0.050000
v 1.000000 -0.100000 0.550000
v 0.950000 -0.100000 0.600000
v 0.950000 0.150000 0.550000
v 0.950000 0.100000 0.600000
v 1.000000 0.100000 0.550000
v 0.950000 -0.100000 0.000000
v 1.000000 -0.100000 0.050000
v 0.950000 0.150000 0.050000
v 1.000000 0.100000 0.050000
v 0.950000 0.100000 0.000000
v 0.700000 -0.548522 0.525274
v 0.700000 -0.430008 0.557030
v 0.700000 -0.635281 0.438515
v 0.700000 -0.667037 0.320001
v 0.700000 -0.635281 0.201486
v 0.700000 -0.548522 0.114727
v 0.700000 -0.430008 0.082972
v 0.700000 -0.311493 0.114727
v 0.700000 -0.224735 0.201486
v 0.700000 -0.192979 0.320001
v 0.700000 -0.224735 0.438515
v 0.700000 -0.311493 0.525274
v 0.700000 -0.476106 0.399845
v 0.700000 -0.430008 0.412197
v 0.700000 -0.509852 0.366099
v 0.700000 -0.522204 0.320001
v 0.700000 -0.509852 0.273902
v 0.700000 -0.476106 0.240156
v 0.700000 -0.430008 0.227804
v 0.700000 -0.383910 0.240156
v 0.700000 -0.350163 0.273902
v 0.700000 -0.337811 0.320001
v 0.700000 -0.350163 0.366099
v 0.700000 -0.383910 0.399845
v 0.667363 -0.430008 0.056955
v 0.667363 -0.298485 0.092196
v 0.667363 -0.693054 0.320001
v 0.667363 -0.657812 0.188478
v 0.667363 -0.202203 0.451524
v 0.667363 -0.298485 0.547805
v 0.667363 -0.430008 0.583047
v 0.667363 -0.561531 0.547805
v 0.667363 -0.202203 0.188478
v 0.667363 -0.561531 0.092196
v 0.667363 -0.657812 0.451524
v 0.667363 -0.166962 0.320001
v 0.800000 -0.476106 0.399845
v 0.800000 -0.430008 0.412197
v 0.800000 -0.509852 0.366099
v 0.800000 -0.522204 0.320001
v 0.800000 -0.509852 0.273902
v 0.800000 -0.476106 0.240156
v 0.800000 -0.430008 0.227804
v 0.800000 -0.383910 0.240156
v 0.800000 -0.350163 0.273902
v 0.800000 -0.337811 0.320001
v 0.800000 -0.350163 0.366099
v 0.800000 -0.383910 0.399845
v -0.700000 -0.548523 0.525274
v -0.700000 -0.430008 0.557030
v -0.700000 -0.635281 0.438515
v -0.700000 -0.667037 0.320001
v -0.700000 -0.635281 0.201486
v -0.700000 -0.548523 0.114727
v -0.700000 -0.430008 0.082972
v -0.700000 -0.311493 0.114727
v -0.700000 -0.224735 0.201486
v -0.700000 -0.192979 0.320001
v -0.700000 -0.224735 0.438515
v -0.700000 -0.311493 0.525274
v -0.700000 -0.476106 0.399845
v -0.700000 -0.430008 0.412197
v -0.700000 -0.509852 0.366099
v -0.700000 -0.522204 0.320001
v -0.700000 -0.509852 0.273902
v -0.700000 -0.476106 0.240156
v -0.700000 -0.430008 0.227804
v -0.700000 -0.383910 0.240156
v -0.700000 -0.350164 0.273902
v -0.700000 -0.337812 0.320001
v -0.700000 -0.350164 0.366099
v -0.700000 -0.383910 0.399845
v -0.667363 -0.430008 0.056955
v -0.667363 -0.298485 0.092196
v -0.667363 -0.693054 0.320001
v -0.667363 -0.657812 0.188478
v -0.667363 -0.202203 0.451524
v -0.667363 -0.298485 0.547805
v -0.667363 -0.430008 0.583047
v -0.667363 -0.561531 0.547805
v -0.667363 -0.202203 0.188478
v -0.667363 -0.561531 0.092196
v -0.667363 -0.657812 0.451524
v -0.667363 -0.166962 0.320001
v -0.800000 -0.476106 0.399845
v -0.800000 -0.430008 0.412197
v -0.800000 -0.509852 0.366099
v -0.800000 -0.522204 0.320001
v -0.800000 -0.509852 0.273902
v -0.800000 -0.476106 0.240156
v -0.800000 -0.430008 0.227804
v -0.800000 -0.383910 0.240156
v -0.800000 -0.350164 0.273902
v -0.800000 -0.337812 0.320001
v -0.800000 -0.350164 0.366099
v -0.800000 -0.383910 0.399845
v 0.667363 -0.909672 0.188478
v 0.667363 -0.909672 0.092196
v -0.667363 -0.909672 0.188478
v -0.667363 -0.909672 0.092196
v 0.777273 -0.150000 0.050000
v -0.777273 -0.150000 0.050000
v -0.777273 -0.100000 0.000000
v 0.777273 -0.100000 0.000000
v -0.777273 0.150000 0.050000
v 0.777273 0.150000 0.050000
v 0.777273 0.100000 0.000000
v -0.777273 0.100000 0.000000
v -0.777273 -0.150000 0.550000
v 0.777273 -0.150000 0.550000
v 0.777273 -0.100000 0.600000
v -0.777273 -0.100000 0.600000
v 0.777273 0.150000 0.550000
v -0.777273 0.150000 0.550000
v -0.777273 0.100000 0.600000
v 0.777273 0.100000 0.600000
v -1.000000 -0.550000 0.350000
v -0.950000 -0.600000 0.350000
v -0.950000 -0.550000 0.400000
v -0.950000 -0.550000 0.000000
v -0.950000 -0.600000 0.050000
v -1.000000 -0.550000 0.050000
v 0.950000 -0.550000 0.400000
v 0.950000 -0.600000 0.350000
v 1.000000 -0.550000 0.350000
v 1.000000 -0.550000 0.050000
v 0.950000 -0.600000 0.050000
v 0.950000 -0.550000 0.000000
v -0.777273 -0.600000 0.050000
v 0.777273 -0.550000 0.000000
v 0.777273 -0.600000 0.350000
v -0.777273 -0.550000 0.400000
v 0.777273 -0.600000 0.050000
v -0.777273 -0.550000 0.000000
v -0.777273 -0.600000 0.350000
v 0.777273 -0.550000 0.400000
vt 0.785932 0.884030
vt 0.785932 0.892073
vt 0.778986 0.892073
vt 0.778986 0.884030
vt 0.857399 0.868405
vt 0.857399 0.876448
vt 0.857399 0.876448
vt 0.857399 0.868405
vt 0.785932 0.925333
vt 0.778986 0.925333
vt 0.778986 0.925333
vt 0.785932 0.925333
vt 0.776976 0.868405
vt 0.776976 0.876448
vt 0.776976 0.876448
vt 0.776976 0.868405
vt 0.848443 0.884030
vt 0.848443 0.892073
vt 0.855388 0.892073
vt 0.855388 0.884030
vt 0.785932 0.897185
vt 0.785932 0.897185
vt 0.785932 0.895175
vt 0.785932 0.895175
vt 0.778986 0.923323
vt 0.776976 0.923323
vt 0.778986 0.884030
vt 0.785932 0.884030
vt 0.785932 0.865935
vt 0.778986 0.865935
vt 0.778986 0.923323
vt 0.776976 0.923323
vt 0.785932 0.913270
vt 0.785932 0.915280
vt 0.855388 0.925333
vt 0.855388 0.923323
vt 0.857399 0.923323
vt 0.778986 0.865935
vt 0.785932 0.865935
vt 0.855388 0.925333
vt 0.857399 0.923323
vt 0.855388 0.923323
vt 0.776976 0.915280
vt 0.778986 0.915280
vt 0.778986 0.897185
vt 0.776976 0.897185
vt 0.778986 0.915280
vt 0.776976 0.915280
vt 0.785932 0.866395
vt 0.785932 0.866395
vt 0.785932 0.850310
vt 0.785932 0.850310
vt 0.848443 0.925333
vt 0.848443 0.923323
vt 0.857399 0.915280
vt 0.855388 0.915280
vt 0.857399 0.915280
vt 0.855388 0.915280
vt 0.855388 0.897185
vt 0.857399 0.897185
vt 0.848443 0.913270
vt 0.848443 0.915280
vt 0.848443 0.897185
vt 0.785932 0.923323
vt 0.857399 0.897185
vt 0.855388 0.897185
vt 0.848443 0.897185
vt 0.848443 0.895175
vt 0.848443 0.895175
vt 0.785932 0.850770
vt 0.848443 0.850770
vt 0.848443 0.850770
vt 0.785932 0.850770
vt 0.848443 0.925333
vt 0.848443 0.923323
vt 0.855388 0.865935
vt 0.848443 0.865935
vt 0.848443 0.913270
vt 0.848443 0.915280
vt 0.785932 0.923323
vt 0.776976 0.850310
vt 0.776976 0.850310
vt 0.785932 0.913270
vt 0.785932 0.915280
vt 0.778986 0.892073
vt 0.785932 0.892073
vt 0.855388 0.884030
vt 0.855388 0.892073
vt 0.848443 0.892073
vt 0.848443 0.884030
vt 0.778986 0.895175
vt 0.778986 0.897185
vt 0.776976 0.897185
vt 0.778986 0.895175
vt 0.855388 0.895175
vt 0.855388 0.895175
vt 0.848443 0.832675
vt 0.855388 0.832675
vt 0.855388 0.832675
vt 0.848443 0.832675
vt 0.778986 0.832675
vt 0.785932 0.832675
vt 0.785932 0.832675
vt 0.778986 0.832675
vt 0.848443 0.865935
vt 0.855388 0.865935
vt 0.857399 0.850310
vt 0.857399 0.850310
vt 0.848443 0.866395
vt 0.848443 0.866395
vt 0.848443 0.850310
vt 0.848443 0.850310
vt 0.591744 0.851892
vt 0.593174 0.851075
vt 0.593174 0.843638
vt 0.591744 0.843638
vt 0.591744 0.829342
vt 0.593174 0.830756
vt 0.593174 0.828763
vt 0.591744 0.827130
vt 0.591744 0.851892
vt 0.593174 0.851075
vt 0.593174 0.856520
vt 0.591744 0.813178
vt 0.591744 0.835384
vt 0.593174 0.836200
vt 0.593174 0.843638
vt 0.591744 0.843638
vt 0.591744 0.813178
vt 0.593174 0.856520
vt 0.591744 0.835384
vt 0.593174 0.836200
vt 0.591744 0.829342
vt 0.593174 0.830756
vt 0.591744 0.815390
vt 0.593174 0.858513
vt 0.593174 0.866016
vt 0.593174 0.866016
vt 0.593174 0.858578
vt 0.593174 0.863123
vt 0.593174 0.853134
vt 0.593174 0.861005
vt 0.593174 0.851141
vt 0.593174 0.860230
vt 0.593174 0.853134
vt 0.593174 0.861005
vt 0.593174 0.858578
vt 0.593174 0.863123
vt 0.593174 0.866016
vt 0.593174 0.866016
vt 0.593174 0.873453
vt 0.593174 0.868909
vt 0.593174 0.878898
vt 0.593174 0.871027
vt 0.593174 0.880891
vt 0.593174 0.871802
vt 0.593174 0.878898
vt 0.593174 0.871027
vt 0.593174 0.873453
vt 0.593174 0.868909
vt 0.591744 0.857934
vt 0.591744 0.860146
vt 0.533259 0.860146
vt 0.533259 0.857934
vt 0.591744 0.849508
vt 0.591744 0.851720
vt 0.533259 0.851720
vt 0.533259 0.849508
vt 0.591744 0.888394
vt 0.591744 0.880140
vt 0.533259 0.880140
vt 0.533259 0.888394
vt 0.591744 0.857934
vt 0.533259 0.857934
vt 0.591744 0.874097
vt 0.591744 0.880140
vt 0.533259 0.880140
vt 0.533259 0.874097
vt 0.591744 0.888394
vt 0.591744 0.896647
vt 0.533259 0.896647
vt 0.533259 0.888394
vt 0.591744 0.837233
vt 0.591744 0.821427
vt 0.591744 0.821427
vt 0.591744 0.843275
vt 0.591744 0.896647
vt 0.533259 0.896647
vt 0.591744 0.851720
vt 0.533259 0.851720
vt 0.718174 0.604824
vt 0.722556 0.604824
vt 0.722556 0.604283
vt 0.718174 0.604283
vt 0.718174 0.610343
vt 0.722556 0.610343
vt 0.722556 0.611822
vt 0.718174 0.611822
vt 0.718174 0.606303
vt 0.722556 0.606303
vt 0.722556 0.608323
vt 0.718174 0.608323
vt 0.718174 0.611822
vt 0.722556 0.611822
vt 0.722556 0.610343
vt 0.718174 0.610343
vt 0.718174 0.606303
vt 0.722556 0.606303
vt 0.718174 0.604824
vt 0.722556 0.604824
vt 0.718174 0.612363
vt 0.722556 0.612363
vt 0.718174 0.608323
vt 0.722556 0.608323
vt 0.533259 0.851892
vt 0.533259 0.843638
vt 0.531828 0.843638
vt 0.531828 0.851075
vt 0.533259 0.829342
vt 0.533259 0.827130
vt 0.531828 0.828763
vt 0.531828 0.830756
vt 0.533259 0.851892
vt 0.533259 0.813178
vt 0.531828 0.856520
vt 0.531828 0.851075
vt 0.533259 0.835384
vt 0.533259 0.843638
vt 0.531828 0.843638
vt 0.531828 0.836200
vt 0.533259 0.813178
vt 0.531828 0.856520
vt 0.533259 0.835384
vt 0.531828 0.836200
vt 0.533259 0.829342
vt 0.531828 0.830756
vt 0.533259 0.815390
vt 0.531828 0.858513
vt 0.531828 0.866016
vt 0.531828 0.863123
vt 0.531828 0.858578
vt 0.531828 0.866016
vt 0.531828 0.861005
vt 0.531828 0.853134
vt 0.531828 0.860230
vt 0.531828 0.851141
vt 0.531828 0.861005
vt 0.531828 0.853134
vt 0.531828 0.863123
vt 0.531828 0.858578
vt 0.531828 0.866016
vt 0.531828 0.866016
vt 0.531828 0.868909
vt 0.531828 0.873453
vt 0.531828 0.871027
vt 0.531828 0.878898
vt 0.531828 0.871802
vt 0.531828 0.880891
vt 0.531828 0.871027
vt 0.531828 0.878898
vt 0.531828 0.868909
vt 0.531828 0.873453
vt 0.656828 0.604824
vt 0.656828 0.604283
vt 0.652447 0.604283
vt 0.652447 0.604824
vt 0.656828 0.610343
vt 0.656828 0.611822
vt 0.652447 0.611822
vt 0.652447 0.610343
vt 0.656828 0.606303
vt 0.656828 0.608323
vt 0.652447 0.608323
vt 0.652447 0.606303
vt 0.656828 0.611822
vt 0.656828 0.610343
vt 0.652447 0.610343
vt 0.652447 0.611822
vt 0.656828 0.606303
vt 0.652447 0.606303
vt 0.656828 0.604824
vt 0.652447 0.604824
vt 0.656828 0.612363
vt 0.652447 0.612363
vt 0.656828 0.608323
vt 0.652447 0.608323
vt 0.591744 0.799906
vt 0.591744 0.799906
vt 0.533259 0.799906
vt 0.533259 0.799906
vt 0.533259 0.843275
vt 0.533259 0.821427
vt 0.533259 0.821427
vt 0.533259 0.837233
vt 0.591744 0.858292
vt 0.533259 0.858292
vt 0.533259 0.874097
vt 0.533259 0.858292
vt 0.591744 0.858292
vt 0.591744 0.874097
vn 0.0000 0.0000 1.0000
vn 1.0000 0.0000 0.0000
vn 0.0000 1.0000 0.0000
vn -1.0000 0.0000 0.0000
vn 0.0000 0.0000 -1.0000
vn -0.5774 0.5774 0.5773
vn -0.5773 0.5774 -0.5774
vn 0.5774 0.5774 0.5773
vn 0.0000 -0.4061 0.9138
vn 0.5773 0.5774 -0.5774
vn -0.7071 0.0000 -0.7071
vn -0.7071 0.0000 0.7071
vn -0.7071 0.7071 0.0000
vn 0.0000 0.7071 -0.7071
vn 0.7071 0.0000 -0.7071
vn 0.6746 -0.2998 0.6746
vn 0.7071 0.7071 0.0000
vn 0.7071 0.0000 0.7071
vn 0.0000 0.7071 0.7071
vn 0.0000 -1.0000 0.0000
vn 0.0000 -0.7071 0.7071
vn 0.0000 -0.7071 -0.7071
vn -0.5773 -0.5774 0.5774
vn -0.5773 -0.5774 -0.5774
vn 0.5773 -0.5774 0.5774
vn 0.5773 -0.5774 -0.5774
vn -0.7071 -0.7071 0.0000
vn 0.7071 -0.7071 0.0000
vn -0.6746 -0.2998 0.6746
vn 0.3144 0.4747 -0.8221
vn 0.8723 0.2445 -0.4234
vn 0.8723 -0.0000 -0.4889
vn 0.3144 0.0000 -0.9493
vn 0.7692 -0.6388 0.0162
vn 0.8723 -0.4234 -0.2445
vn 0.8723 -0.4889 -0.0000
vn 0.3144 -0.9493 -0.0000
vn 0.3144 0.4747 0.8221
vn 0.8723 0.2445 0.4234
vn 0.8723 0.4234 0.2445
vn 0.3144 0.8221 0.4747
vn 0.3144 -0.4747 0.8221
vn 0.8723 -0.2445 0.4234
vn 0.8723 0.0000 0.4889
vn 0.3144 0.0000 0.9493
vn 0.3144 0.8221 -0.4747
vn 0.8723 0.4234 -0.2445
vn 0.4357 -0.2583 -0.8622
vn 0.8723 -0.2445 -0.4234
vn 0.3144 -0.8221 0.4747
vn 0.8723 -0.4234 0.2445
vn 0.3144 0.9493 0.0000
vn 0.8723 0.4889 0.0000
vn 0.7703 0.0000 0.6377
vn 0.7703 -0.3189 0.5523
vn 0.7703 -0.5523 0.3189
vn 0.7703 -0.6377 0.0000
vn 0.7703 -0.5523 -0.3189
vn 0.7703 -0.3189 -0.5523
vn 0.7703 -0.0000 -0.6377
vn 0.7703 0.3189 -0.5523
vn 0.7703 0.5523 -0.3189
vn 0.7703 0.6377 0.0000
vn 0.7703 0.5523 0.3189
vn 0.7703 0.3189 0.5523
vn -0.3144 0.9493 0.0000
vn -0.3144 0.8221 0.4747
vn -0.3144 -0.8221 0.4747
vn -0.3144 -0.9493 0.0000
vn -0.4357 -0.2583 -0.8622
vn -0.3144 0.0000 -0.9493
vn -0.3144 0.8221 -0.4747
vn -0.3144 -0.4747 0.8221
vn -0.3144 0.4747 0.8221
vn -0.3144 0.0000 0.9493
vn 0.5774 -0.5774 0.5774
vn 0.5774 -0.5774 -0.5774
vn -0.3144 0.4747 -0.8221
vn -0.7692 -0.6388 0.0162
vn 0.0000 -0.8660 -0.5000
vn 0.0000 0.5000 0.8660
vn 0.0000 0.8660 0.5000
vn 0.0000 -0.5000 0.8660
vn 0.0000 0.8660 -0.5000
vn -0.0000 0.5000 -0.8660
vn 0.0000 -0.5000 -0.8660
vn 0.0000 -0.8660 0.5000
vn -0.8723 0.0000 -0.4889
vn -0.8723 0.2445 -0.4234
vn -0.8723 -0.4889 0.0000
vn -0.8723 -0.4234 -0.2445
vn -0.8723 0.4234 0.2445
vn -0.8723 0.2445 0.4234
vn -0.8723 0.0000 0.4889
vn -0.8723 -0.2445 0.4234
vn -0.8723 0.4234 -0.2445
vn -0.8723 -0.2445 -0.4234
vn -0.8723 -0.4234 0.2445
vn -0.8723 0.4889 0.0000
vn -0.7703 0.0000 0.6377
vn -0.7703 -0.3189 0.5523
vn -0.7703 -0.5523 0.3189
vn -0.7703 -0.6377 0.0000
vn -0.7703 -0.5523 -0.3189
vn -0.7703 -0.3189 -0.5523
vn -0.7703 0.0000 -0.6377
vn -0.7703 0.3189 -0.5523
vn -0.7703 0.5523 -0.3189
vn -0.7703 0.6377 0.0000
vn -0.7703 0.5523 0.3189
vn -0.7703 0.3189 0.5523
vn -0.5774 -0.5774 0.5774
vn -0.5774 -0.5774 -0.5774
usemtl restaurant
s off
f 132/1/1 135/2/1 3/3/1 1/4/1
f 17/5/2 19/6/2 15/7/2 11/8/2
f 125/9/3 8/10/3 4/11/3 134/12/3
f 2/13/4 5/14/4 10/15/4 6/16/4
f 124/17/5 127/18/5 20/19/5 16/20/5
f 154/21/2 152/22/2 155/23/2 149/24/2
f 3/25/6 4/11/6 5/26/6
f 7/27/5 123/28/5 154/29/5 140/30/5
f 8/10/7 9/31/7 10/32/7
f 152/22/2 129/33/2 132/34/2
f 13/35/8 14/36/8 15/37/8
f 132/1/9 1/4/9 139/38/9 152/39/9
f 18/40/10 19/41/10 20/42/10
f 6/43/11 7/44/11 140/45/11 142/46/11
f 1/47/12 3/25/12 5/26/12 2/48/12
f 4/11/13 8/10/13 10/32/13 5/26/13
f 9/31/11 7/44/11 6/43/11 10/32/11
f 122/49/2 129/50/2 152/51/2 154/52/2
f 126/53/14 18/40/14 20/42/14 127/54/14
f 19/41/15 17/55/15 16/56/15 20/42/15
f 11/57/16 12/58/16 143/59/16 145/60/16
f 18/40/17 13/35/17 15/37/17 19/41/17
f 14/36/18 12/58/18 11/57/18 15/37/18
f 121/61/4 124/62/4 150/63/4
f 134/12/19 4/11/19 3/25/19 135/64/19
f 16/56/15 17/55/15 146/65/15 148/66/15
f 156/67/4 150/63/4 153/68/4 151/69/4
f 122/70/20 121/71/20 130/72/20 129/73/20
f 13/35/19 133/74/19 136/75/19 14/36/19
f 133/74/19 134/12/19 135/64/19 136/75/19
f 124/17/5 16/20/5 148/76/5 150/77/5
f 129/33/21 130/78/21 131/79/21 132/34/21
f 8/10/14 125/9/14 128/80/14 9/31/14
f 125/9/14 126/53/14 127/54/14 128/80/14
f 2/13/4 6/16/4 142/81/4 137/82/4
f 121/61/22 122/83/22 123/84/22 124/62/22
f 7/27/5 9/85/5 128/86/5 123/28/5
f 123/28/5 128/86/5 127/18/5 124/17/5
f 18/40/3 126/53/3 133/74/3 13/35/3
f 126/53/3 125/9/3 134/12/3 133/74/3
f 12/87/1 14/88/1 136/89/1 131/90/1
f 131/90/1 136/89/1 135/2/1 132/1/1
f 138/91/23 139/92/23 137/93/23
f 141/94/24 142/46/24 140/45/24
f 144/95/25 145/60/25 143/59/25
f 147/96/26 148/66/26 146/65/26
f 141/94/27 138/91/27 137/93/27 142/46/27
f 149/24/22 141/94/22 140/45/22 154/21/22
f 144/95/28 147/96/28 146/65/28 145/60/28
f 151/69/21 144/95/21 143/59/21 156/67/21
f 153/97/20 147/98/20 144/99/20 151/100/20
f 141/101/20 149/102/20 155/103/20 138/104/20
f 138/91/21 155/23/21 152/22/21 139/92/21
f 147/96/22 153/68/22 150/63/22 148/66/22
f 12/87/9 131/90/9 156/105/9 143/106/9
f 131/79/4 130/78/4 156/67/4
f 1/47/29 2/48/29 137/93/29 139/92/29
f 17/5/2 11/8/2 145/107/2 146/108/2
f 123/84/2 122/83/2 154/21/2
f 130/109/4 121/110/4 150/111/4 156/112/4
s 1
f 46/113/30 28/114/31 27/115/32 45/116/33
f 48/117/34 25/118/35 24/119/36 47/120/37
f 50/121/38 32/122/39 31/123/40 49/124/41
f 52/125/42 21/126/43 22/127/44 51/128/45
f 53/129/46 29/130/47 28/114/31 46/113/30
f 54/131/48 26/132/49 25/118/35 48/117/34
f 51/128/45 22/127/44 32/122/39 50/121/38
f 55/133/50 23/134/51 21/126/43 52/125/42
f 56/135/52 30/136/53 29/130/47 53/129/46
f 45/116/33 27/115/32 26/132/49 54/131/48
f 47/120/37 24/119/36 23/134/51 55/133/50
f 49/124/41 31/123/40 30/136/53 56/135/52
f 34/137/54 22/138/44 21/139/43 33/140/55
f 33/140/55 21/139/43 23/141/51 35/142/56
f 35/142/56 23/141/51 24/143/36 36/144/57
f 36/144/57 24/143/36 25/145/35 37/146/58
f 37/146/58 25/145/35 26/147/49 38/148/59
f 38/148/59 26/147/49 27/149/32 39/150/60
f 39/150/60 27/149/32 28/151/31 40/152/61
f 40/152/61 28/151/31 29/153/47 41/154/62
f 41/154/62 29/153/47 30/155/53 42/156/63
f 42/156/63 30/155/53 31/157/40 43/158/64
f 43/158/64 31/157/40 32/159/39 44/160/65
f 44/160/65 32/159/39 22/138/44 34/137/54
f 49/161/41 56/162/52 104/163/66 97/164/67
f 47/165/37 55/166/50 103/167/68 95/168/69
f 45/169/33 54/170/48 102/171/70 93/172/71
f 56/162/52 53/173/46 101/174/72 104/163/66
f 55/175/50 52/176/42 100/177/73 103/178/68
f 51/179/45 50/180/38 98/181/74 99/182/75
f 48/183/34 117/184/76 118/185/77 54/186/48
f 53/173/46 46/187/30 94/188/78 101/174/72
f 52/176/42 51/179/45 99/182/75 100/177/73
f 50/180/38 49/161/41 97/164/67 98/181/74
f 48/189/34 47/165/37 95/168/69 96/190/79
f 37/191/58 61/192/80 60/193/20 36/194/57
f 44/195/65 68/196/81 67/197/82 43/198/64
f 33/199/55 57/200/83 58/201/1 34/202/54
f 41/203/62 65/204/84 64/205/85 40/206/61
f 38/207/59 62/208/86 61/192/80 37/191/58
f 34/202/54 58/201/1 68/196/81 44/195/65
f 35/209/56 59/210/87 57/200/83 33/199/55
f 42/211/63 66/212/3 65/204/84 41/203/62
f 39/213/60 63/214/5 62/208/86 38/207/59
f 36/194/57 60/193/20 59/210/87 35/209/56
f 43/198/64 67/197/82 66/212/3 42/211/63
f 40/206/61 64/205/85 63/214/5 39/213/60
f 94/215/78 93/216/71 75/217/88 76/218/89
f 96/219/79 95/220/69 72/221/90 73/222/91
f 98/223/74 97/224/67 79/225/92 80/226/93
f 100/227/73 99/228/75 70/229/94 69/230/95
f 101/231/72 94/215/78 76/218/89 77/232/96
f 102/233/70 96/219/79 73/222/91 74/234/97
f 99/228/75 98/223/74 80/226/93 70/229/94
f 103/235/68 100/227/73 69/230/95 71/236/98
f 104/237/66 101/231/72 77/232/96 78/238/99
f 93/216/71 102/233/70 74/234/97 75/217/88
f 95/220/69 103/235/68 71/236/98 72/221/90
f 97/224/67 104/237/66 78/238/99 79/225/92
f 82/239/100 81/240/101 69/241/95 70/242/94
f 81/240/101 83/243/102 71/244/98 69/241/95
f 83/243/102 84/245/103 72/246/90 71/244/98
f 84/245/103 85/247/104 73/248/91 72/246/90
f 85/247/104 86/249/105 74/250/97 73/248/91
f 86/249/105 87/251/106 75/252/88 74/250/97
f 87/251/106 88/253/107 76/254/89 75/252/88
f 88/253/107 89/255/108 77/256/96 76/254/89
f 89/255/108 90/257/109 78/258/99 77/256/96
f 90/257/109 91/259/110 79/260/92 78/258/99
f 91/259/110 92/261/111 80/262/93 79/260/92
f 92/261/111 82/239/100 70/242/94 80/262/93
f 85/263/104 84/264/103 108/265/20 109/266/80
f 92/267/111 91/268/110 115/269/82 116/270/81
f 81/271/101 82/272/100 106/273/1 105/274/83
f 89/275/108 88/276/107 112/277/85 113/278/84
f 86/279/105 85/263/104 109/266/80 110/280/86
f 82/272/100 92/267/111 116/270/81 106/273/1
f 83/281/102 81/271/101 105/274/83 107/282/87
f 90/283/109 89/275/108 113/278/84 114/284/3
f 87/285/106 86/279/105 110/280/86 111/286/5
f 84/264/103 83/281/102 107/282/87 108/265/20
f 91/268/110 90/283/109 114/284/3 115/269/82
f 88/276/107 87/285/106 111/286/5 112/277/85
f 46/187/30 45/169/33 93/172/71 94/188/78
f 118/287/77 117/288/76 119/289/112 120/290/113
f 102/291/70 120/292/113 119/293/112 96/294/79
f 54/170/48 118/295/77 120/296/113 102/171/70
f 96/297/79 119/298/112 117/299/76 48/300/34
