# Blender v3.4.1 OBJ File: 'restaurant_bits_export.blend'
# www.blender.org
mtllib table_round_A_small.mtl
o table_round_A_small_Cylinder.070
v 0.000006 0.800000 -0.100000
v 0.070716 0.800000 -0.070711
v 0.100006 0.800000 -0.000000
v 0.070716 0.800000 0.070711
v 0.000006 0.800000 0.100000
v -0.070705 0.800000 0.070711
v -0.099994 0.800000 -0.000000
v -0.070705 0.800000 -0.070711
v -0.099994 0.100000 -0.000000
v 0.070716 0.100000 0.070711
v 0.100006 0.100000 -0.000000
v -0.070705 0.100000 -0.070711
v 0.000006 0.100000 0.100000
v 0.000006 0.100000 -0.100000
v 0.070716 0.100000 -0.070711
v -0.070705 0.100000 0.070711
v 0.083725 0.000000 -0.421293
v -0.083876 0.000000 -0.421293
v 0.238568 0.000000 -0.357155
v 0.357079 0.000000 -0.238643
v 0.421217 0.000000 -0.083800
v 0.421217 0.000000 0.083800
v 0.357079 0.000000 0.238643
v 0.238568 0.000000 0.357155
v 0.083725 0.000000 0.421293
v -0.083876 0.000000 0.421293
v -0.238719 0.000000 0.357155
v -0.357230 0.000000 0.238643
v -0.421368 0.000000 0.083800
v -0.421368 0.000000 -0.083800
v -0.357230 0.000000 -0.238643
v -0.238719 0.000000 -0.357155
v -0.000088 -0.000000 0.000000
v -0.421368 0.050000 -0.083800
v -0.383749 0.100000 -0.076319
v 0.357079 0.050000 0.238643
v 0.325195 0.100000 0.217335
v -0.357230 0.050000 -0.238643
v -0.325337 0.100000 -0.217337
v 0.238568 0.050000 0.357155
v 0.217266 0.100000 0.325265
v -0.238719 0.050000 -0.357155
v -0.217406 0.100000 -0.325267
v 0.083725 0.050000 0.421293
v 0.076249 0.100000 0.383677
v 0.083725 0.050000 -0.421293
v 0.076249 0.100000 -0.383677
v -0.083876 0.050000 0.421293
v -0.076387 0.100000 0.383678
v 0.238568 0.050000 -0.357155
v 0.217266 0.100000 -0.325265
v -0.238719 0.050000 0.357155
v -0.217406 0.100000 0.325267
v 0.357079 0.050000 -0.238643
v 0.325195 0.100000 -0.217335
v -0.357230 0.050000 0.238643
v -0.325337 0.100000 0.217337
v 0.421217 0.050000 -0.083800
v 0.383606 0.100000 -0.076318
v -0.383749 0.100000 0.076319
v -0.421368 0.050000 0.083800
v 0.383606 0.100000 0.076318
v 0.421217 0.050000 0.083800
v -0.076387 0.100000 -0.383678
v -0.083876 0.050000 -0.421293
v -0.000000 0.800000 0.000000
v 0.000000 0.820000 -0.750000
v -0.000000 1.000000 0.000000
v 0.000000 0.980000 -0.750000
v 0.194114 0.820000 -0.724444
v 0.194114 0.980000 -0.724444
v 0.375000 0.820000 -0.649519
v 0.375000 0.980000 -0.649519
v 0.530330 0.820000 -0.530330
v 0.530330 0.980000 -0.530330
v 0.649519 0.820000 -0.375000
v 0.649519 0.980000 -0.375000
v 0.724444 0.820000 -0.194114
v 0.724444 0.980000 -0.194114
v 0.750000 0.820000 0.000000
v 0.750000 0.980000 0.000000
v 0.724444 0.820000 0.194114
v 0.724444 0.980000 0.194114
v 0.649519 0.820000 0.375000
v 0.649519 0.980000 0.375000
v 0.530330 0.820000 0.530330
v 0.530330 0.980000 0.530330
v 0.375000 0.820000 0.649519
v 0.375000 0.980000 0.649519
v 0.194114 0.820000 0.724444
v 0.194114 0.980000 0.724444
v -0.000000 0.820000 0.750000
v -0.000000 0.980000 0.750000
v -0.194114 0.820000 0.724444
v -0.194114 0.980000 0.724444
v -0.375000 0.820000 0.649519
v -0.375000 0.980000 0.649519
v -0.530330 0.820000 0.530330
v -0.530330 0.980000 0.530330
v -0.649519 0.820000 0.375000
v -0.649519 0.980000 0.375000
v -0.724444 0.820000 0.194114
v -0.724444 0.980000 0.194114
v -0.750000 0.820000 -0.000000
v -0.750000 0.980000 -0.000000
v -0.724444 0.820000 -0.194114
v -0.724444 0.980000 -0.194114
v -0.649519 0.820000 -0.375000
v -0.649519 0.980000 -0.375000
v -0.530330 0.820000 -0.530330
v -0.530330 0.980000 -0.530330
v -0.375000 0.820000 -0.649519
v -0.375000 0.980000 -0.649519
v -0.194114 0.820000 -0.724444
v -0.194114 0.980000 -0.724444
v 0.183924 0.800000 -0.686413
v 0.000000 0.800000 -0.710627
v 0.000000 1.000000 -0.710627
v 0.183924 1.000000 -0.686413
v 0.355313 0.800000 -0.615421
v 0.355313 1.000000 -0.615421
v 0.502489 0.800000 -0.502489
v 0.502489 1.000000 -0.502489
v 0.615421 0.800000 -0.355313
v 0.615421 1.000000 -0.355313
v 0.686413 0.800000 -0.183924
v 0.686413 1.000000 -0.183924
v 0.710627 0.800000 0.000000
v 0.710627 1.000000 0.000000
v 0.686413 0.800000 0.183924
v 0.686413 1.000000 0.183924
v 0.615421 0.800000 0.355313
v 0.615421 1.000000 0.355313
v 0.502489 0.800000 0.502489
v 0.502489 1.000000 0.502489
v 0.355313 0.800000 0.615421
v 0.355313 1.000000 0.615421
v 0.183924 0.800000 0.686413
v 0.183924 1.000000 0.686413
v -0.000000 0.800000 0.710627
v -0.000000 1.000000 0.710627
v -0.183924 0.800000 0.686413
v -0.183924 1.000000 0.686413
v -0.355313 0.800000 0.615421
v -0.355313 1.000000 0.615421
v -0.502489 0.800000 0.502489
v -0.502489 1.000000 0.502489
v -0.615421 0.800000 0.355313
v -0.615421 1.000000 0.355313
v -0.686413 0.800000 0.183924
v -0.686413 1.000000 0.183924
v -0.710627 0.800000 -0.000000
v -0.710627 1.000000 -0.000000
v -0.686413 0.800000 -0.183924
v -0.686413 1.000000 -0.183924
v -0.615421 0.800000 -0.355313
v -0.615421 1.000000 -0.355313
v -0.502489 0.800000 -0.502489
v -0.502489 1.000000 -0.502489
v -0.355313 0.800000 -0.615421
v -0.355313 1.000000 -0.615421
v -0.183924 0.800000 -0.686413
v -0.183924 1.000000 -0.686413
vt 0.403702 0.836182
vt 0.397872 0.836182
vt 0.397872 0.831931
vt 0.403702 0.831931
vt 0.414475 0.836182
vt 0.428551 0.836182
vt 0.428551 0.831931
vt 0.414475 0.831931
vt 0.438755 0.840433
vt 0.455925 0.840433
vt 0.465736 0.840433
vt 0.474465 0.836182
vt 0.474465 0.836182
vt 0.474465 0.831931
vt 0.474465 0.831931
vt 0.443786 0.836182
vt 0.428551 0.836182
vt 0.428551 0.831931
vt 0.443786 0.831931
vt 0.433590 0.840433
vt 0.416413 0.840433
vt 0.406602 0.840433
vt 0.443786 0.836182
vt 0.443786 0.831931
vt 0.397872 0.836182
vt 0.397872 0.831931
vt 0.414475 0.836182
vt 0.414475 0.831931
vt 0.468635 0.836182
vt 0.468635 0.831931
vt 0.457862 0.836182
vt 0.468635 0.836182
vt 0.468635 0.831931
vt 0.457862 0.831931
vt 0.403702 0.836182
vt 0.403702 0.831931
vt 0.457862 0.836182
vt 0.457862 0.831931
vt 0.437079 0.840433
vt 0.438755 0.840433
vt 0.455925 0.840433
vt 0.443107 0.840433
vt 0.432307 0.915571
vt 0.431613 0.915571
vt 0.431613 0.856058
vt 0.432307 0.856058
vt 0.440037 0.915571
vt 0.440731 0.915571
vt 0.440731 0.856058
vt 0.440037 0.856058
vt 0.435265 0.915571
vt 0.433590 0.915571
vt 0.433590 0.856058
vt 0.435265 0.856058
vt 0.437079 0.915571
vt 0.438755 0.915571
vt 0.438755 0.856058
vt 0.437079 0.856058
vt 0.433590 0.915571
vt 0.435265 0.915571
vt 0.435265 0.856058
vt 0.433590 0.856058
vt 0.438755 0.915571
vt 0.437079 0.915571
vt 0.437079 0.856058
vt 0.438755 0.856058
vt 0.432307 0.915571
vt 0.432307 0.856058
vt 0.440037 0.915571
vt 0.440037 0.856058
vt 0.431613 0.840433
vt 0.401292 0.840433
vt 0.401292 0.840433
vt 0.440731 0.840433
vt 0.440037 0.840433
vt 0.471046 0.840433
vt 0.437079 0.840433
vt 0.443107 0.840433
vt 0.435265 0.840433
vt 0.429232 0.840433
vt 0.435265 0.840433
vt 0.429232 0.840433
vt 0.433590 0.840433
vt 0.416413 0.840433
vt 0.440037 0.840433
vt 0.465736 0.840433
vt 0.432307 0.840433
vt 0.406602 0.840433
vt 0.471046 0.840433
vt 0.436167 0.816306
vt 0.428551 0.816306
vt 0.443786 0.816306
vt 0.457862 0.816306
vt 0.468635 0.816306
vt 0.474465 0.816306
vt 0.474465 0.816306
vt 0.468635 0.816306
vt 0.457862 0.816306
vt 0.443786 0.816306
vt 0.428551 0.816306
vt 0.414475 0.816306
vt 0.403702 0.816306
vt 0.397872 0.816306
vt 0.397872 0.816306
vt 0.403702 0.816306
vt 0.414475 0.816306
vt 0.474465 0.867432
vt 0.474465 0.867432
vt 0.471046 0.871683
vt 0.471046 0.871683
vt 0.397872 0.867432
vt 0.403702 0.867432
vt 0.406602 0.871683
vt 0.401292 0.871683
vt 0.468635 0.867432
vt 0.465736 0.871683
vt 0.414475 0.867432
vt 0.416413 0.871683
vt 0.457862 0.867432
vt 0.455925 0.871683
vt 0.428551 0.867432
vt 0.429232 0.871683
vt 0.443786 0.867432
vt 0.443107 0.871683
vt 0.443786 0.867432
vt 0.443107 0.871683
vt 0.428551 0.867432
vt 0.414475 0.867432
vt 0.416413 0.871683
vt 0.429232 0.871683
vt 0.457862 0.867432
vt 0.455925 0.871683
vt 0.403702 0.867432
vt 0.406602 0.871683
vt 0.468635 0.867432
vt 0.465736 0.871683
vt 0.397872 0.867432
vt 0.401292 0.871683
vt 0.432307 0.840433
vt 0.800623 0.125690
vt 0.800623 0.133507
vt 0.812022 0.133507
vt 0.812022 0.125690
vt 0.834042 0.125690
vt 0.834042 0.133507
vt 0.843163 0.133507
vt 0.843163 0.125690
vt 0.850162 0.133507
vt 0.850162 0.125690
vt 0.854562 0.133507
vt 0.854562 0.125690
vt 0.856062 0.133507
vt 0.856062 0.125690
vt 0.854562 0.133507
vt 0.854562 0.125690
vt 0.850162 0.133507
vt 0.850162 0.125690
vt 0.843163 0.133507
vt 0.843163 0.125690
vt 0.834042 0.133507
vt 0.834042 0.125690
vt 0.823420 0.133507
vt 0.823420 0.125690
vt 0.812022 0.133507
vt 0.812022 0.125690
vt 0.800623 0.133507
vt 0.800623 0.125690
vt 0.790002 0.133507
vt 0.790002 0.125690
vt 0.780880 0.133507
vt 0.780880 0.125690
vt 0.773882 0.133507
vt 0.773882 0.125690
vt 0.769482 0.133507
vt 0.769482 0.125690
vt 0.767981 0.133507
vt 0.767981 0.125690
vt 0.769482 0.133507
vt 0.769482 0.125690
vt 0.773882 0.133507
vt 0.773882 0.125690
vt 0.780880 0.133507
vt 0.780880 0.125690
vt 0.790002 0.133507
vt 0.790002 0.125690
vt 0.823420 0.125690
vt 0.823420 0.133507
vt 0.812022 0.156940
vt 0.823420 0.156940
vt 0.823267 0.155963
vt 0.812022 0.155963
vt 0.823420 0.164757
vt 0.812022 0.164757
vt 0.812022 0.165734
vt 0.823267 0.165734
vt 0.834042 0.156940
vt 0.833746 0.155963
vt 0.834042 0.164757
vt 0.833746 0.165734
vt 0.843163 0.156940
vt 0.842744 0.155963
vt 0.843163 0.164757
vt 0.842744 0.165734
vt 0.850162 0.156940
vt 0.849649 0.155963
vt 0.850162 0.164757
vt 0.849649 0.165734
vt 0.854562 0.156940
vt 0.853989 0.155963
vt 0.854562 0.164757
vt 0.853989 0.165734
vt 0.856062 0.156940
vt 0.855470 0.155963
vt 0.856062 0.164757
vt 0.855470 0.165734
vt 0.854562 0.156940
vt 0.853989 0.155963
vt 0.854562 0.164757
vt 0.853989 0.165734
vt 0.850162 0.156940
vt 0.849649 0.155963
vt 0.850162 0.164757
vt 0.849649 0.165734
vt 0.843163 0.156940
vt 0.842744 0.155963
vt 0.843163 0.164757
vt 0.842744 0.165734
vt 0.834042 0.156940
vt 0.833746 0.155963
vt 0.834042 0.164757
vt 0.833746 0.165734
vt 0.823420 0.156940
vt 0.823267 0.155963
vt 0.823420 0.164757
vt 0.823267 0.165734
vt 0.812022 0.156940
vt 0.812022 0.155963
vt 0.812022 0.164757
vt 0.812022 0.165734
vt 0.800623 0.156940
vt 0.800777 0.155963
vt 0.800623 0.164757
vt 0.800777 0.165734
vt 0.790002 0.156940
vt 0.790298 0.155963
vt 0.790002 0.164757
vt 0.790298 0.165734
vt 0.780880 0.156940
vt 0.781299 0.155963
vt 0.780880 0.164757
vt 0.781299 0.165734
vt 0.773882 0.156940
vt 0.774395 0.155963
vt 0.773882 0.164757
vt 0.774395 0.165734
vt 0.769482 0.156940
vt 0.770054 0.155963
vt 0.769482 0.164757
vt 0.770054 0.165734
vt 0.767981 0.156940
vt 0.768574 0.155963
vt 0.767981 0.164757
vt 0.768574 0.165734
vt 0.769482 0.156940
vt 0.770054 0.155963
vt 0.769482 0.164757
vt 0.770054 0.165734
vt 0.773882 0.156940
vt 0.774395 0.155963
vt 0.773882 0.164757
vt 0.774395 0.165734
vt 0.780880 0.156940
vt 0.781299 0.155963
vt 0.780880 0.164757
vt 0.781299 0.165734
vt 0.790002 0.156940
vt 0.790298 0.155963
vt 0.790002 0.164757
vt 0.790298 0.165734
vt 0.800623 0.156940
vt 0.800777 0.155963
vt 0.800623 0.164757
vt 0.800777 0.165734
vt 0.812022 0.093463
vt 0.812022 0.093463
vt 0.823267 0.093463
vt 0.812022 0.150109
vt 0.823267 0.150109
vt 0.812022 0.150109
vt 0.833746 0.093463
vt 0.833746 0.150109
vt 0.842744 0.093463
vt 0.842744 0.150109
vt 0.849649 0.093463
vt 0.849649 0.150109
vt 0.853989 0.093463
vt 0.853989 0.150109
vt 0.855470 0.093463
vt 0.855470 0.150109
vt 0.853989 0.093463
vt 0.853989 0.150109
vt 0.849649 0.093463
vt 0.849649 0.150109
vt 0.842744 0.093463
vt 0.842744 0.150109
vt 0.833746 0.093463
vt 0.833746 0.150109
vt 0.823267 0.093463
vt 0.823267 0.150109
vt 0.812022 0.093463
vt 0.812022 0.150109
vt 0.800777 0.093463
vt 0.800777 0.150109
vt 0.790298 0.093463
vt 0.790298 0.150109
vt 0.781299 0.093463
vt 0.781299 0.150109
vt 0.774395 0.093463
vt 0.774395 0.150109
vt 0.770054 0.093463
vt 0.770054 0.150109
vt 0.768574 0.093463
vt 0.768574 0.150109
vt 0.770054 0.093463
vt 0.770054 0.150109
vt 0.774395 0.093463
vt 0.774395 0.150109
vt 0.781299 0.093463
vt 0.781299 0.150109
vt 0.790298 0.093463
vt 0.790298 0.150109
vt 0.800777 0.093463
vt 0.800777 0.150109
vn -0.7906 0.3098 0.5282
vn -0.9325 0.3098 0.1855
vn -0.9808 0.0000 0.1951
vn -0.8315 0.0000 0.5556
vn -0.5282 0.3098 -0.7906
vn -0.1855 0.3098 -0.9325
vn -0.1951 0.0000 -0.9808
vn -0.5556 0.0000 -0.8315
vn 0.0000 1.0000 0.0000
vn 0.9325 0.3098 -0.1855
vn 0.9325 0.3098 0.1855
vn 0.9808 0.0000 0.1951
vn 0.9808 0.0000 -0.1951
vn 0.1855 0.3098 0.9325
vn -0.1855 0.3098 0.9325
vn -0.1951 0.0000 0.9808
vn 0.1951 0.0000 0.9808
vn 0.1855 0.3098 -0.9325
vn 0.1951 0.0000 -0.9808
vn -0.9325 0.3098 -0.1855
vn -0.9808 0.0000 -0.1951
vn -0.5282 0.3098 0.7906
vn -0.5556 0.0000 0.8315
vn 0.7906 0.3098 0.5282
vn 0.8315 0.0000 0.5556
vn 0.5282 0.3098 -0.7906
vn 0.7906 0.3098 -0.5282
vn 0.8315 0.0000 -0.5556
vn 0.5556 0.0000 -0.8315
vn -0.7906 0.3098 -0.5282
vn -0.8315 0.0000 -0.5556
vn 0.5282 0.3098 0.7906
vn 0.5556 0.0000 0.8315
vn -0.9239 0.0000 0.3827
vn -1.0000 0.0000 0.0000
vn 0.9239 0.0000 -0.3827
vn 1.0000 0.0000 -0.0000
vn -0.0000 0.0000 1.0000
vn -0.3827 0.0000 0.9239
vn 0.0000 0.0000 -1.0000
vn 0.3827 0.0000 -0.9239
vn -0.3827 0.0000 -0.9239
vn 0.3827 0.0000 0.9239
vn -0.9239 0.0000 -0.3827
vn 0.9239 0.0000 0.3827
vn -0.0000 -1.0000 -0.0000
vn 0.7782 0.6086 -0.1548
vn 0.7782 0.6086 0.1548
vn -0.6597 0.6087 0.4408
vn -0.7782 0.6087 0.1548
vn 0.6598 0.6086 -0.4408
vn -0.4408 0.6086 0.6597
vn 0.4408 0.6086 -0.6597
vn -0.1548 0.6086 0.7782
vn 0.1548 0.6086 -0.7782
vn 0.1548 0.6086 0.7782
vn -0.4408 0.6086 -0.6597
vn -0.1548 0.6086 -0.7782
vn 0.4408 0.6086 0.6597
vn -0.6597 0.6087 -0.4408
vn 0.6598 0.6086 0.4408
vn -0.7782 0.6087 -0.1548
vn -0.2588 0.0000 -0.9659
vn 0.5000 0.0000 -0.8660
vn 0.7071 0.0000 -0.7071
vn 0.8660 0.0000 -0.5000
vn 0.9659 0.0000 -0.2588
vn 0.9659 0.0000 0.2588
vn 0.8660 0.0000 0.5000
vn 0.7071 0.0000 0.7071
vn 0.5000 0.0000 0.8660
vn 0.2588 0.0000 0.9659
vn -0.2588 0.0000 0.9659
vn -0.5000 0.0000 0.8660
vn -0.7071 0.0000 0.7071
vn -0.8660 0.0000 0.5000
vn -0.9659 0.0000 0.2588
vn -0.9659 0.0000 -0.2588
vn -0.8660 0.0000 -0.5000
vn -0.7071 0.0000 -0.7071
vn -0.5000 0.0000 -0.8660
vn 0.2588 0.0000 -0.9659
vn -0.0000 -0.8916 -0.4529
vn 0.1172 -0.8916 -0.4375
vn 0.0650 -0.9680 -0.2425
vn -0.0000 -0.9680 -0.2510
vn 0.1172 0.8916 -0.4375
vn -0.0000 0.8916 -0.4529
vn 0.2264 -0.8916 -0.3922
vn 0.1255 -0.9680 -0.2174
vn 0.2264 0.8916 -0.3922
vn 0.3202 -0.8916 -0.3202
vn 0.1775 -0.9680 -0.1775
vn 0.3202 0.8916 -0.3202
vn 0.3922 -0.8916 -0.2264
vn 0.2174 -0.9680 -0.1255
vn 0.3922 0.8916 -0.2264
vn 0.4375 -0.8916 -0.1172
vn 0.2425 -0.9680 -0.0650
vn 0.4375 0.8916 -0.1172
vn 0.4529 -0.8916 -0.0000
vn 0.2510 -0.9680 -0.0000
vn 0.4529 0.8916 0.0000
vn 0.4375 -0.8916 0.1172
vn 0.2425 -0.9680 0.0650
vn 0.4375 0.8916 0.1172
vn 0.3922 -0.8916 0.2264
vn 0.2174 -0.9680 0.1255
vn 0.3922 0.8916 0.2264
vn 0.3202 -0.8916 0.3202
vn 0.1775 -0.9680 0.1775
vn 0.3202 0.8916 0.3202
vn 0.2264 -0.8916 0.3922
vn 0.1255 -0.9680 0.2174
vn 0.2264 0.8916 0.3922
vn 0.1172 -0.8916 0.4375
vn 0.0650 -0.9680 0.2425
vn 0.1172 0.8916 0.4374
vn -0.0000 -0.8916 0.4529
vn -0.0000 -0.9680 0.2510
vn -0.0000 0.8916 0.4529
vn -0.1172 -0.8916 0.4375
vn -0.0650 -0.9680 0.2425
vn -0.1172 0.8916 0.4375
vn -0.2264 -0.8916 0.3922
vn -0.1255 -0.9680 0.2174
vn -0.2264 0.8916 0.3922
vn -0.3202 -0.8916 0.3202
vn -0.1775 -0.9680 0.1775
vn -0.3202 0.8916 0.3202
vn -0.3922 -0.8916 0.2264
vn -0.2174 -0.9680 0.1255
vn -0.3922 0.8916 0.2264
vn -0.4375 -0.8916 0.1172
vn -0.2425 -0.9680 0.0650
vn -0.4375 0.8916 0.1172
vn -0.4529 -0.8916 -0.0000
vn -0.2510 -0.9680 0.0000
vn -0.4529 0.8916 -0.0000
vn -0.4375 -0.8916 -0.1172
vn -0.2425 -0.9680 -0.0650
vn -0.4375 0.8916 -0.1172
vn -0.3922 -0.8916 -0.2264
vn -0.2174 -0.9680 -0.1255
vn -0.3922 0.8916 -0.2264
vn -0.3202 -0.8916 -0.3202
vn -0.1775 -0.9680 -0.1775
vn -0.3202 0.8916 -0.3202
vn -0.2264 -0.8916 -0.3922
vn -0.1255 -0.9680 -0.2174
vn -0.2264 0.8916 -0.3922
vn -0.1172 -0.8916 -0.4375
vn -0.0650 -0.9680 -0.2425
vn -0.1172 0.8916 -0.4375
usemtl restaurant
s 1
f 56/1/1 61/2/2 29/3/3 28/4/4
f 42/5/5 65/6/6 18/7/7 32/8/8
f 10/9/9 41/10/9 37/11/9
f 58/12/10 63/13/11 22/14/12 21/15/13
f 44/16/14 48/17/15 26/18/16 25/19/17
f 12/20/9 43/21/9 39/22/9
f 65/6/6 46/23/18 17/24/19 18/7/7
f 61/2/2 34/25/20 30/26/21 29/3/3
f 48/17/15 52/27/22 27/28/23 26/18/16
f 63/13/11 36/29/24 23/30/25 22/14/12
f 50/31/26 54/32/27 20/33/28 19/34/29
f 38/35/30 42/5/5 32/8/8 31/36/31
f 52/27/22 56/1/1 28/4/4 27/28/23
f 40/37/32 44/16/14 25/19/17 24/38/33
f 54/32/27 58/12/10 21/15/13 20/33/28
f 14/39/9 15/40/9 51/41/9 47/42/9
f 6/43/34 7/44/35 9/45/35 16/46/34
f 2/47/36 3/48/37 11/49/37 15/50/36
f 5/51/38 6/52/39 16/53/39 13/54/38
f 1/55/40 2/56/41 15/57/41 14/58/40
f 8/59/42 1/60/40 14/61/40 12/62/42
f 4/63/43 5/64/38 13/65/38 10/66/43
f 7/44/35 8/67/44 12/68/44 9/45/35
f 3/48/37 4/69/45 10/70/45 11/49/37
f 34/25/20 38/35/30 31/36/31 30/26/21
f 36/29/24 40/37/32 24/38/33 23/30/25
f 9/71/9 35/72/9 60/73/9
f 11/74/9 10/75/9 37/11/9 62/76/9
f 10/9/9 13/77/9 45/78/9 41/10/9
f 12/20/9 14/79/9 64/80/9 43/21/9
f 46/23/18 50/31/26 19/34/29 17/24/19
f 13/81/9 49/82/9 45/78/9
f 14/39/9 47/42/9 64/80/9
f 13/81/9 16/83/9 53/84/9 49/82/9
f 15/85/9 55/86/9 51/41/9
f 16/87/9 57/88/9 53/84/9
f 15/85/9 11/74/9 59/89/9 55/86/9
f 16/87/9 9/71/9 60/73/9 57/88/9
f 11/74/9 62/76/9 59/89/9
f 33/90/46 18/91/46 17/92/46
f 33/90/46 17/92/46 19/93/46
f 33/90/46 19/93/46 20/94/46
f 33/90/46 20/94/46 21/95/46
f 33/90/46 21/95/46 22/96/46
f 33/90/46 22/96/46 23/97/46
f 33/90/46 23/97/46 24/98/46
f 33/90/46 24/98/46 25/99/46
f 33/90/46 25/99/46 26/100/46
f 33/90/46 26/100/46 27/101/46
f 33/90/46 27/101/46 28/102/46
f 33/90/46 28/102/46 29/103/46
f 33/90/46 29/103/46 30/104/46
f 33/90/46 30/104/46 31/105/46
f 33/90/46 31/105/46 32/106/46
f 33/90/46 32/106/46 18/91/46
f 63/107/11 58/108/10 59/109/47 62/110/48
f 61/111/2 56/112/1 57/113/49 60/114/50
f 58/108/10 54/115/27 55/116/51 59/109/47
f 56/112/1 52/117/22 53/118/52 57/113/49
f 54/115/27 50/119/26 51/120/53 55/116/51
f 52/117/22 48/121/15 49/122/54 53/118/52
f 50/119/26 46/123/18 47/124/55 51/120/53
f 48/121/15 44/125/14 45/126/56 49/122/54
f 65/127/6 42/128/5 43/129/57 64/130/58
f 46/123/18 65/127/6 64/130/58 47/124/55
f 44/125/14 40/131/32 41/132/59 45/126/56
f 42/128/5 38/133/30 39/134/60 43/129/57
f 40/131/32 36/135/24 37/136/61 41/132/59
f 38/133/30 34/137/20 35/138/62 39/134/60
f 36/135/24 63/107/11 62/110/48 37/136/61
f 34/137/20 61/111/2 60/114/50 35/138/62
f 9/71/9 12/139/9 39/22/9 35/72/9
f 114/140/63 115/141/63 69/142/40 67/143/40
f 72/144/64 73/145/64 75/146/65 74/147/65
f 74/147/65 75/146/65 77/148/66 76/149/66
f 76/149/66 77/148/66 79/150/67 78/151/67
f 78/151/67 79/150/67 81/152/37 80/153/37
f 80/153/37 81/152/37 83/154/68 82/155/68
f 82/155/68 83/154/68 85/156/69 84/157/69
f 84/157/69 85/156/69 87/158/70 86/159/70
f 86/159/70 87/158/70 89/160/71 88/161/71
f 88/161/71 89/160/71 91/162/72 90/163/72
f 90/163/72 91/162/72 93/164/38 92/165/38
f 92/165/38 93/164/38 95/166/73 94/167/73
f 94/167/73 95/166/73 97/168/74 96/169/74
f 96/169/74 97/168/74 99/170/75 98/171/75
f 98/171/75 99/170/75 101/172/76 100/173/76
f 100/173/76 101/172/76 103/174/77 102/175/77
f 102/175/77 103/174/77 105/176/35 104/177/35
f 104/177/35 105/176/35 107/178/78 106/179/78
f 106/179/78 107/178/78 109/180/79 108/181/79
f 108/181/79 109/180/79 111/182/80 110/183/80
f 110/183/80 111/182/80 113/184/81 112/185/81
f 112/185/81 113/184/81 115/141/63 114/140/63
f 70/186/82 71/187/82 73/145/64 72/144/64
f 67/143/40 69/142/40 71/187/82 70/186/82
f 67/188/83 70/189/84 116/190/85 117/191/86
f 71/192/87 69/193/88 118/194/88 119/195/87
f 70/189/84 72/196/89 120/197/90 116/190/85
f 73/198/91 71/192/87 119/195/87 121/199/91
f 72/196/89 74/200/92 122/201/93 120/197/90
f 75/202/94 73/198/91 121/199/91 123/203/94
f 74/200/92 76/204/95 124/205/96 122/201/93
f 77/206/97 75/202/94 123/203/94 125/207/97
f 76/204/95 78/208/98 126/209/99 124/205/96
f 79/210/100 77/206/97 125/207/97 127/211/100
f 78/208/98 80/212/101 128/213/102 126/209/99
f 81/214/103 79/210/100 127/211/100 129/215/103
f 80/212/101 82/216/104 130/217/105 128/213/102
f 83/218/106 81/214/103 129/215/103 131/219/106
f 82/216/104 84/220/107 132/221/108 130/217/105
f 85/222/109 83/218/106 131/219/106 133/223/109
f 84/220/107 86/224/110 134/225/111 132/221/108
f 87/226/112 85/222/109 133/223/109 135/227/112
f 86/224/110 88/228/113 136/229/114 134/225/111
f 89/230/115 87/226/112 135/227/112 137/231/115
f 88/228/113 90/232/116 138/233/117 136/229/114
f 91/234/118 89/230/115 137/231/115 139/235/118
f 90/232/116 92/236/119 140/237/120 138/233/117
f 93/238/121 91/234/118 139/235/118 141/239/121
f 92/236/119 94/240/122 142/241/123 140/237/120
f 95/242/124 93/238/121 141/239/121 143/243/124
f 94/240/122 96/244/125 144/245/126 142/241/123
f 97/246/127 95/242/124 143/243/124 145/247/127
f 96/244/125 98/248/128 146/249/129 144/245/126
f 99/250/130 97/246/127 145/247/127 147/251/130
f 98/248/128 100/252/131 148/253/132 146/249/129
f 101/254/133 99/250/130 147/251/130 149/255/133
f 100/252/131 102/256/134 150/257/135 148/253/132
f 103/258/136 101/254/133 149/255/133 151/259/136
f 102/256/134 104/260/137 152/261/138 150/257/135
f 105/262/139 103/258/136 151/259/136 153/263/139
f 104/260/137 106/264/140 154/265/141 152/261/138
f 107/266/142 105/262/139 153/263/139 155/267/142
f 106/264/140 108/268/143 156/269/144 154/265/141
f 109/270/145 107/266/142 155/267/142 157/271/145
f 108/268/143 110/272/146 158/273/147 156/269/144
f 111/274/148 109/270/145 157/271/145 159/275/148
f 110/272/146 112/276/149 160/277/150 158/273/147
f 113/278/151 111/274/148 159/275/148 161/279/151
f 112/276/149 114/280/152 162/281/153 160/277/150
f 115/282/154 113/278/151 161/279/151 163/283/154
f 114/280/152 67/188/83 117/191/86 162/281/153
f 69/193/88 115/282/154 163/283/154 118/194/88
f 66/284/46 117/285/86 116/286/85
f 68/287/9 119/288/9 118/289/9
f 66/284/46 116/286/85 120/290/90
f 68/287/9 121/291/9 119/288/9
f 66/284/46 120/290/90 122/292/93
f 68/287/9 123/293/9 121/291/9
f 66/284/46 122/292/93 124/294/96
f 68/287/9 125/295/9 123/293/9
f 66/284/46 124/294/96 126/296/99
f 68/287/9 127/297/9 125/295/9
f 66/284/46 126/296/99 128/298/102
f 68/287/9 129/299/9 127/297/9
f 66/284/46 128/298/102 130/300/105
f 68/287/9 131/301/9 129/299/9
f 66/284/46 130/300/105 132/302/108
f 68/287/9 133/303/9 131/301/9
f 66/284/46 132/302/108 134/304/111
f 68/287/9 135/305/9 133/303/9
f 66/284/46 134/304/111 136/306/114
f 68/287/9 137/307/9 135/305/9
f 66/284/46 136/306/114 138/308/117
f 68/287/9 139/309/9 137/307/9
f 66/284/46 138/308/117 140/310/120
f 68/287/9 141/311/9 139/309/9
f 66/284/46 140/310/120 142/312/123
f 68/287/9 143/313/9 141/311/9
f 66/284/46 142/312/123 144/314/126
f 68/287/9 145/315/9 143/313/9
f 66/284/46 144/314/126 146/316/129
f 68/287/9 147/317/9 145/315/9
f 66/284/46 146/316/129 148/318/132
f 68/287/9 149/319/9 147/317/9
f 66/284/46 148/318/132 150/320/135
f 68/287/9 151/321/9 149/319/9
f 66/284/46 150/320/135 152/322/138
f 68/287/9 153/323/9 151/321/9
f 66/284/46 152/322/138 154/324/141
f 68/287/9 155/325/9 153/323/9
f 66/284/46 154/324/141 156/326/144
f 68/287/9 157/327/9 155/325/9
f 66/284/46 156/326/144 158/328/147
f 68/287/9 159/329/9 157/327/9
f 66/284/46 158/328/147 160/330/150
f 68/287/9 161/331/9 159/329/9
f 66/284/46 160/330/150 162/332/153
f 68/287/9 163/333/9 161/331/9
f 66/284/46 162/332/153 117/285/86
f 68/287/9 118/289/9 163/333/9
