# Blender v3.4.1 OBJ File: 'restaurant_bits_export.blend'
# www.blender.org
mtllib towelrail.mtl
o towelrail_Cube.167
v 0.800000 0.775000 1.175000
v 0.775000 0.800000 1.139645
v 0.739645 0.800000 1.175000
v 0.775000 0.775000 1.200000
v -0.800000 0.775000 1.175000
v -0.775000 0.775000 1.200000
v -0.739645 0.800000 1.175000
v -0.775000 0.800000 1.139645
v -0.800000 0.725000 1.175000
v -0.775000 0.700000 1.139645
v -0.739645 0.700000 1.175000
v -0.775000 0.725000 1.200000
v 0.800000 0.725000 1.175000
v 0.775000 0.725000 1.200000
v 0.739645 0.700000 1.175000
v 0.775000 0.700000 1.139645
v 0.689645 0.800000 1.125000
v 0.725000 0.800000 1.089645
v 0.687500 0.775000 1.087500
v -0.689645 0.800000 1.125000
v -0.687500 0.775000 1.087500
v -0.725000 0.800000 1.089645
v 0.707322 0.700000 1.107322
v 0.687500 0.725000 1.087500
v -0.707322 0.700000 1.107322
v -0.687500 0.725000 1.087500
v -0.725000 0.800000 0.800000
v -0.700000 0.775000 0.800000
v -0.800000 0.775000 0.800000
v -0.775000 0.800000 0.800000
v -0.700000 0.725000 0.800000
v -0.725000 0.700000 0.800000
v -0.775000 0.700000 0.800000
v -0.800000 0.725000 0.800000
v 0.800000 0.725000 0.800000
v 0.775000 0.700000 0.800000
v 0.775000 0.800000 0.800000
v 0.800000 0.775000 0.800000
v 0.700000 0.775000 0.800000
v 0.725000 0.800000 0.800000
v 0.725000 0.700000 0.800000
v 0.700000 0.725000 0.800000
v 0.621469 0.750000 1.150000
v 0.097176 0.750000 1.150000
v 0.092194 0.725000 1.200000
v 0.626450 0.725000 1.200000
v 0.626450 0.700000 1.175000
v 0.092194 0.700000 1.175000
v 0.626450 0.725000 1.100000
v 0.092194 0.725000 1.100000
v 0.092194 0.700000 1.125000
v 0.626450 0.700000 1.125000
v 0.092194 0.800000 1.175000
v 0.626450 0.800000 1.175000
v 0.626450 0.775000 1.200000
v 0.092194 0.775000 1.200000
v 0.626450 0.800000 1.125000
v 0.092194 0.800000 1.125000
v 0.092194 0.775000 1.100000
v 0.626450 0.775000 1.100000
v 0.092194 0.792521 1.242299
v 0.134482 0.801275 1.263433
v 0.584162 0.801275 1.263433
v 0.626450 0.792521 1.242299
v 0.092194 0.707479 1.242299
v 0.134482 0.698725 1.263433
v 0.626450 0.707479 1.242299
v 0.584162 0.698725 1.263433
v 0.134482 0.863433 1.201275
v 0.092194 0.842299 1.192521
v 0.584162 0.636567 1.098725
v 0.626450 0.657701 1.107479
v 0.626450 0.657701 1.192521
v 0.584162 0.636567 1.201275
v 0.584162 0.801275 1.036567
v 0.626450 0.792521 1.057701
v 0.626450 0.842299 1.107479
v 0.584162 0.863433 1.098725
v 0.134482 0.636567 1.098725
v 0.092194 0.657701 1.107479
v 0.092194 0.707479 1.057701
v 0.134482 0.698725 1.036567
v 0.626450 0.707479 1.057701
v 0.584162 0.698725 1.036567
v 0.626450 0.842299 1.192521
v 0.584162 0.863433 1.201275
v 0.134482 0.636567 1.201275
v 0.092194 0.657701 1.192521
v 0.134482 0.801275 1.036567
v 0.092194 0.792521 1.057701
v 0.092194 0.842299 1.107479
v 0.134482 0.863433 1.098725
v 0.538477 0.280553 1.263433
v 0.584162 0.331127 1.263433
v 0.584162 0.331127 1.201275
v 0.538477 0.280553 1.201275
v 0.180168 0.280553 1.201275
v 0.134482 0.331127 1.201275
v 0.134482 0.331127 1.263433
v 0.180168 0.280553 1.263433
vt 0.397915 0.938848
vt 0.403110 0.938848
vt 0.403110 0.938848
vt 0.397915 0.938848
vt 0.458506 0.938848
vt 0.470264 0.938848
vt 0.465070 0.938848
vt 0.458506 0.938848
vt 0.464847 0.884182
vt 0.464847 0.889376
vt 0.466146 0.889376
vt 0.466146 0.884182
vt 0.473937 0.938848
vt 0.473937 0.938848
vt 0.468743 0.938848
vt 0.468743 0.938848
vt 0.404946 0.850335
vt 0.397915 0.850335
vt 0.397915 0.850335
vt 0.403110 0.850335
vt 0.395318 0.889376
vt 0.395318 0.889376
vt 0.395318 0.884182
vt 0.395318 0.884182
vt 0.458506 0.889376
vt 0.458506 0.884182
vt 0.407005 0.889376
vt 0.407005 0.884182
vt 0.405707 0.884182
vt 0.405707 0.889376
vt 0.423675 0.889376
vt 0.397915 0.889376
vt 0.397915 0.884182
vt 0.423675 0.884182
vt 0.466907 0.850335
vt 0.468743 0.850335
vt 0.473937 0.850335
vt 0.473937 0.850335
vt 0.458506 0.850335
vt 0.470264 0.850335
vt 0.458506 0.850335
vt 0.476534 0.889376
vt 0.473937 0.923223
vt 0.470264 0.923223
vt 0.473937 0.889376
vt 0.401588 0.923223
vt 0.397915 0.923223
vt 0.395318 0.852932
vt 0.401588 0.850335
vt 0.397915 0.852932
vt 0.476534 0.852932
vt 0.473937 0.852932
vt 0.465070 0.923223
vt 0.468743 0.923223
vt 0.406782 0.923223
vt 0.403110 0.923223
vt 0.473937 0.884182
vt 0.476534 0.884182
vt 0.423675 0.889376
vt 0.423675 0.923223
vt 0.458506 0.889376
vt 0.458506 0.923223
vt 0.423675 0.850335
vt 0.407005 0.852932
vt 0.423675 0.852932
vt 0.458506 0.852932
vt 0.405707 0.852932
vt 0.403110 0.923223
vt 0.476534 0.852932
vt 0.473937 0.923223
vt 0.476534 0.889376
vt 0.464847 0.852932
vt 0.466146 0.852932
vt 0.468743 0.923223
vt 0.395318 0.852932
vt 0.397915 0.923223
vt 0.401588 0.938848
vt 0.406782 0.938848
vt 0.476534 0.884182
vt 0.565550 0.866687
vt 0.565550 0.856788
vt 0.565550 0.853319
vt 0.565550 0.870156
vt 0.565550 0.851838
vt 0.565550 0.856788
vt 0.565550 0.853319
vt 0.565550 0.843464
vt 0.535112 0.854904
vt 0.561157 0.854904
vt 0.561157 0.854904
vt 0.535112 0.854904
vt 0.530719 0.866687
vt 0.530719 0.871636
vt 0.530719 0.880011
vt 0.530719 0.870156
vt 0.423675 0.884182
vt 0.530719 0.856788
vt 0.530719 0.851838
vt 0.530719 0.843464
vt 0.530719 0.853319
vt 0.423675 0.850335
vt 0.530719 0.851838
vt 0.530719 0.856788
vt 0.530719 0.853319
vt 0.530719 0.843464
vt 0.535112 0.887514
vt 0.561157 0.887514
vt 0.561157 0.867211
vt 0.535112 0.867211
vt 0.565550 0.851838
vt 0.565550 0.843464
vt 0.565550 0.871636
vt 0.565550 0.871636
vt 0.565550 0.880011
vt 0.565550 0.880011
vt 0.565550 0.866687
vt 0.565550 0.870156
vt 0.530719 0.866687
vt 0.530719 0.870156
vt 0.530719 0.871636
vt 0.530719 0.880011
vt 0.458506 0.884182
vt 0.561157 0.839279
vt 0.535112 0.839279
vt 0.535112 0.851586
vt 0.561157 0.851586
vt 0.423675 0.938848
vt 0.423675 0.938848
vt 0.423675 0.923223
vt 0.458506 0.852932
vt 0.423675 0.852932
vt 0.458506 0.923223
vt 0.561157 0.934389
vt 0.535112 0.934389
vt 0.535112 0.914086
vt 0.561157 0.914086
vt 0.535112 0.946695
vt 0.561157 0.946695
vt 0.561157 0.946695
vt 0.535112 0.946695
vt 0.561157 0.918764
vt 0.535112 0.918764
vt 0.535112 0.931070
vt 0.561157 0.931070
vt 0.535112 0.882836
vt 0.535112 0.870529
vt 0.535112 0.810058
vt 0.535112 0.810058
vt 0.565550 0.885781
vt 0.565550 0.868944
vt 0.561157 0.898461
vt 0.565550 0.874714
vt 0.565550 0.874714
vt 0.561157 0.901779
vt 0.561157 0.901779
vt 0.530719 0.911261
vt 0.530719 0.901406
vt 0.565550 0.884569
vt 0.530719 0.874714
vt 0.530719 0.884569
vt 0.535112 0.914086
vt 0.535112 0.901779
vt 0.530719 0.885781
vt 0.530719 0.895636
vt 0.565550 0.901406
vt 0.565550 0.911261
vt 0.530719 0.884569
vt 0.530719 0.911261
vt 0.535112 0.898461
vt 0.530719 0.868944
vt 0.565550 0.911261
vt 0.535112 0.901779
vt 0.530719 0.874714
vt 0.565550 0.895636
vt 0.561157 0.914086
vt 0.565550 0.884569
vt 0.561157 0.841308
vt 0.535112 0.841308
vt 0.539858 0.831295
vt 0.556411 0.831295
vt 0.535112 0.794433
vt 0.561157 0.794433
vt 0.556411 0.784420
vt 0.539858 0.784420
vt 0.539858 0.800045
vt 0.556411 0.800045
vt 0.556411 0.800045
vt 0.539858 0.800045
vt 0.561157 0.810058
vt 0.561157 0.810058
vt 0.561157 0.870529
vt 0.561157 0.882836
vn 0.0000 1.0000 0.0000
vn -0.9094 -0.4137 -0.0428
vn -0.9991 0.0000 -0.0434
vn -0.9297 -0.3657 -0.0433
vn 0.0000 -1.0000 -0.0000
vn -0.3812 -0.9202 0.0892
vn -0.3827 -0.9239 0.0000
vn -0.8218 0.4349 0.3681
vn -0.9239 0.3827 0.0000
vn -0.9239 -0.3827 0.0000
vn -0.8218 -0.4349 0.3681
vn -0.2006 0.0000 -0.9797
vn -0.1855 -0.4169 -0.8898
vn -0.1878 -0.3892 -0.9018
vn 0.9991 0.0000 -0.0434
vn 0.9094 -0.4137 -0.0428
vn 0.9297 -0.3657 -0.0433
vn 0.0000 0.3827 0.9239
vn -0.3681 0.4349 0.8218
vn -0.3681 -0.4349 0.8218
vn 0.0000 -0.3827 0.9239
vn 0.3827 -0.9239 0.0000
vn 0.3812 -0.9202 0.0892
vn 0.0892 -0.9202 0.3812
vn 0.0000 -0.9239 0.3827
vn 0.8218 0.4349 0.3681
vn 0.5949 0.7917 0.1392
vn 0.1392 0.7917 0.5949
vn 0.3681 0.4349 0.8218
vn -0.1392 0.7917 0.5949
vn -0.5949 0.7917 0.1392
vn -0.0892 -0.9202 0.3812
vn 0.8218 -0.4349 0.3681
vn 0.3681 -0.4349 0.8218
vn -0.2279 0.7851 -0.5759
vn -0.5805 0.7897 -0.1985
vn -0.4162 0.8276 -0.3767
vn 0.1933 0.7905 -0.5812
vn 0.3846 0.8359 -0.3916
vn 0.5805 0.7897 -0.1985
vn 0.0050 0.7809 -0.6246
vn 0.0000 0.7071 0.7071
vn 0.0142 -0.6705 -0.7417
vn 0.0160 -0.4118 -0.9111
vn 0.0162 -0.3605 -0.9326
vn 0.7367 -0.6752 -0.0374
vn 0.6244 0.7810 -0.0135
vn 0.9239 -0.3827 0.0000
vn 0.7071 0.7071 0.0000
vn 0.9239 0.3827 0.0000
vn -0.7367 -0.6752 -0.0374
vn -0.6244 0.7810 -0.0135
vn -0.7071 0.7071 0.0000
vn 1.0000 0.0000 0.0000
vn -0.2323 -0.8986 -0.3722
vn 0.2323 -0.8986 -0.3722
vn 0.3109 -0.9246 0.2200
vn -0.3109 -0.9246 0.2200
vn -1.0000 0.0000 0.0000
vn 0.0160 0.0000 -0.9999
vn -0.2323 0.3722 -0.8986
vn 0.2323 0.3722 -0.8986
vn 0.2323 -0.3722 -0.8986
vn -0.2323 -0.3722 -0.8986
vn -0.1501 -0.6923 -0.7059
vn -0.0626 0.7804 -0.6222
vn 0.2323 0.3722 0.8986
vn -0.2323 0.3722 0.8986
vn -0.2266 -0.1603 0.9607
vn 0.2266 -0.1603 0.9607
vn -0.2323 0.8986 0.3722
vn 0.2323 0.8986 0.3722
vn 0.2323 0.8986 -0.3722
vn -0.2323 0.8986 -0.3722
vn -0.9333 -0.3591 0.0000
vn 0.4758 0.3366 -0.8126
vn 0.4758 -0.3366 -0.8126
vn 0.4758 -0.8126 -0.3366
vn 0.4758 -0.8126 0.3366
vn -0.4758 0.8126 0.3366
vn -0.4758 0.3366 0.8126
vn 0.4758 -0.3366 0.8126
vn -0.4758 -0.8126 -0.3366
vn -0.4758 -0.3366 -0.8126
vn -0.4758 0.3366 -0.8126
vn -0.4758 0.8126 -0.3366
vn 0.4758 0.3366 0.8126
vn 0.4758 0.8126 0.3366
vn -0.4758 -0.3366 0.8126
vn 0.4758 0.8126 -0.3366
vn -0.4758 -0.8126 0.3366
vn 0.0000 0.0000 1.0000
vn 0.0000 0.0000 -1.0000
vn 0.7421 -0.6703 0.0000
vn 0.9333 -0.3591 0.0000
vn -0.7421 -0.6703 0.0000
usemtl restaurant
s 1
f 8/1/1 22/2/1 27/3/1 30/4/1
f 54/5/1 3/6/1 17/7/1 57/8/1
f 24/9/2 19/10/3 39/11/3 42/12/4
f 2/13/1 37/14/1 40/15/1 18/16/1
f 25/17/5 10/18/6 33/19/7 32/20/5
f 5/21/8 29/22/9 34/23/10 9/24/11
f 60/25/12 19/10/12 24/9/13 49/26/14
f 21/27/15 26/28/16 31/29/17 28/30/15
f 56/31/18 6/32/19 12/33/20 45/34/21
f 23/35/5 41/36/5 36/37/22 16/38/23
f 52/39/5 23/35/5 15/40/24 47/41/25
f 1/42/26 2/43/27 3/44/28 4/45/29
f 5/21/8 6/32/19 7/46/30 8/47/31
f 9/48/11 10/18/6 11/49/32 12/50/20
f 13/51/33 14/52/34 15/40/24 16/38/23
f 17/53/35 18/54/36 19/10/37
f 20/55/38 21/27/39 22/56/40
f 4/45/29 14/57/34 13/58/33 1/42/26
f 5/21/8 9/24/11 12/33/20 6/32/19
f 59/59/41 21/27/39 20/55/38 58/60/41
f 55/61/18 4/45/29 3/44/28 54/62/42
f 51/63/43 25/17/43 26/64/44 50/65/45
f 47/41/25 15/40/24 14/52/34 46/66/21
f 25/17/46 32/20/46 31/67/17 26/64/16
f 27/68/47 22/56/40 21/27/39 28/30/47
f 16/38/23 36/37/22 35/69/48 13/51/33
f 37/70/49 2/43/27 1/42/26 38/71/50
f 24/72/2 42/73/4 41/36/51 23/35/51
f 39/11/52 19/10/37 18/54/36 40/74/52
f 9/48/11 34/75/10 33/19/7 10/18/6
f 29/22/9 5/21/8 8/47/31 30/76/53
f 17/7/1 3/6/1 2/13/1 18/16/1
f 7/77/1 20/78/1 22/2/1 8/1/1
f 25/17/5 11/49/32 10/18/6
f 23/35/5 16/38/23 15/40/24
f 13/58/33 35/79/48 38/71/50 1/42/26
f 60/80/54 49/81/54 83/82/54 76/83/54
f 47/84/54 46/85/54 67/86/54 73/87/54
f 79/88/55 71/89/56 74/90/57 87/91/58
f 59/92/59 58/93/59 91/94/59 90/95/59
f 21/27/60 59/59/60 50/96/45 26/28/44
f 45/97/59 48/98/59 88/99/59 65/100/59
f 25/17/5 51/63/5 48/101/25 11/49/32
f 51/102/59 50/103/59 81/104/59 80/105/59
f 89/106/61 75/107/62 84/108/63 82/109/64
f 52/110/54 47/84/54 73/87/54 72/111/54
f 49/81/54 52/110/54 72/111/54 83/82/54
f 54/112/54 57/113/54 77/114/54 85/115/54
f 55/116/54 54/112/54 85/115/54 64/117/54
f 56/118/59 45/97/59 65/100/59 61/119/59
f 58/93/59 53/120/59 70/121/59 91/94/59
f 57/113/54 60/80/54 76/83/54 77/114/54
f 4/45/29 55/61/18 46/122/21 14/57/34
f 71/123/56 79/124/55 82/125/64 84/126/63
f 7/77/1 53/127/1 58/128/1 20/78/1
f 48/98/59 51/102/59 80/105/59 88/99/59
f 6/32/19 56/31/18 53/129/42 7/46/30
f 23/35/65 52/39/65 49/130/14 24/72/13
f 11/49/32 48/101/25 45/131/21 12/50/20
f 19/10/37 60/25/66 57/132/66 17/53/35
f 46/85/54 55/116/54 64/117/54 67/86/54
f 63/133/67 62/134/68 66/135/69 68/136/70
f 69/137/71 86/138/72 78/139/73 92/140/74
f 75/141/62 89/142/61 92/143/74 78/144/73
f 66/145/59 87/146/59 98/147/75 99/148/75
f 50/103/59 59/92/59 90/95/59 81/104/59
f 62/134/68 63/133/67 86/138/72 69/137/71
f 76/149/76 83/150/77 84/151/63 75/141/62
f 72/152/78 73/153/79 74/154/57 71/155/56
f 62/134/68 69/137/71 70/156/80 61/157/81
f 73/153/79 67/158/82 68/136/70 74/154/57
f 80/159/83 81/160/84 82/161/64 79/162/55
f 90/163/85 91/164/86 92/143/74 89/142/61
f 64/165/87 85/166/88 86/138/72 63/133/67
f 61/157/81 65/167/89 66/135/69 62/134/68
f 69/137/71 92/140/74 91/168/86 70/156/80
f 89/142/61 82/169/64 81/170/84 90/163/85
f 85/166/88 77/171/90 78/139/73 86/138/72
f 79/162/55 87/172/58 88/173/91 80/159/83
f 75/141/62 78/144/73 77/174/90 76/149/76
f 63/133/67 68/136/70 67/158/82 64/165/87
f 87/172/58 66/135/69 65/167/89 88/173/91
f 71/155/56 84/175/63 83/176/77 72/152/78
f 53/120/59 56/118/59 61/119/59 70/121/59
f 94/177/92 99/178/92 100/179/92 93/180/92
f 68/136/70 66/135/69 99/178/92 94/177/92
f 98/181/93 95/182/93 96/183/93 97/184/93
f 97/185/5 96/186/5 93/187/5 100/188/5
f 93/187/94 96/186/94 95/189/95 94/190/95
f 97/185/96 100/188/96 99/148/75 98/147/75
f 74/191/54 68/192/54 94/190/95 95/189/95
f 87/91/93 74/90/93 95/182/93 98/181/93
