# Blender v3.4.1 OBJ File: 'restaurant_bits_export.blend'
# www.blender.org
mtllib wall_doorway.mtl
o wall_doorway_Cube.145
v -1.000000 3.000000 -0.250000
v -1.000000 3.000000 0.250000
v 1.000000 3.000000 -0.250000
v 1.000000 3.000000 0.250000
v 2.000000 3.000000 0.136565
v 1.900000 3.000000 0.250000
v -2.000000 3.000000 -0.136565
v -1.900000 3.000000 -0.250000
v 2.000000 3.000000 -0.136564
v 1.899999 3.000000 -0.250000
v -2.000000 3.000000 0.136565
v -1.900000 3.000000 0.250000
v -1.000000 2.000000 0.150000
v -1.000000 1.900000 -0.250000
v -1.000000 2.100000 0.250000
v -1.000000 4.000000 0.250000
v -1.000000 0.000000 -0.250000
v -1.000000 2.000000 -0.150000
v -1.000000 2.100000 -0.250000
v -1.000000 4.000000 -0.250000
v -1.000000 1.900000 0.250000
v -1.000000 0.000000 0.250000
v 1.000000 2.000000 -0.150000
v 1.000000 2.000000 0.150000
v 1.000000 2.100000 -0.250000
v 1.000000 1.900000 -0.250000
v 1.000000 2.100000 0.250000
v 1.000000 4.000000 0.250000
v 1.000000 4.000000 -0.250000
v 1.000000 1.900000 0.250000
v 1.000000 0.000000 0.250000
v 1.000000 0.000000 -0.250000
v -1.900000 2.000000 -0.150000
v -2.000000 2.000000 -0.035131
v 1.900000 1.900000 0.250000
v 2.000000 1.900000 0.136193
v -1.900000 1.900000 -0.250000
v -2.000000 1.900000 -0.136193
v -2.000000 1.900000 0.136193
v -1.900000 1.900000 0.250000
v 1.899999 1.900000 -0.250000
v 2.000000 1.900000 -0.136192
v 2.000000 2.000000 -0.035130
v 1.899999 2.000000 -0.150000
v 2.000000 2.000000 0.035131
v 1.900000 2.000000 0.150000
v -1.900000 2.100000 0.250000
v -2.000000 2.100000 0.136193
v 1.900000 2.100000 0.250000
v 2.000000 2.100000 0.136193
v 1.899999 2.100000 -0.250000
v 2.000000 2.100000 -0.136192
v -1.900000 2.100000 -0.250000
v -2.000000 2.100000 -0.136193
v -2.000000 2.000000 0.035131
v -1.900000 2.000000 0.150000
v -2.000000 3.900000 -0.136724
v -1.900000 4.000000 -0.250000
v -1.900000 0.000000 -0.250000
v -2.000000 0.100000 -0.136724
v 1.899999 4.000000 -0.250000
v 2.000000 3.900000 -0.136723
v 2.000000 0.100000 -0.136723
v 1.899999 0.000000 -0.250000
v 2.000000 3.900000 0.136724
v 1.900000 4.000000 0.250000
v 1.900000 0.000000 0.250000
v 2.000000 0.100000 0.136724
v -1.900000 4.000000 0.250000
v -2.000000 3.900000 0.136724
v -2.000000 0.100000 0.136724
v -1.900000 0.000000 0.250000
v 1.000000 0.000000 -0.150000
v 1.000000 0.000000 0.150000
v -1.000000 0.000000 0.150000
v -1.000000 0.000000 -0.150000
v 1.000000 3.000000 -0.150000
v 1.000000 3.000000 0.150000
v -1.000000 3.000000 0.150000
v -1.000000 3.000000 -0.150000
v 0.800000 0.000000 -0.150000
v 0.800000 0.000000 0.150000
v -0.800000 0.000000 -0.150000
v -0.800000 0.000000 0.150000
v 0.800000 2.800000 -0.150000
v 0.800000 2.800000 0.150000
v -0.800000 2.800000 -0.150000
v -0.800000 2.800000 0.150000
vt 0.408452 0.865191
vt 0.408452 0.865191
vt 0.408452 0.945776
vt 0.408452 0.945776
vt 0.430668 0.865191
vt 0.430668 0.945776
vt 0.430668 0.945776
vt 0.430668 0.865191
vt 0.430668 0.914526
vt 0.408452 0.914526
vt 0.408452 0.914526
vt 0.430668 0.914526
vt 0.405675 0.896441
vt 0.405675 0.896441
vt 0.408452 0.896441
vt 0.408452 0.896441
vt 0.433444 0.982782
vt 0.430668 0.977026
vt 0.408452 0.977026
vt 0.405675 0.982782
vt 0.433444 0.982782
vt 0.430668 0.977026
vt 0.430668 0.896441
vt 0.433444 0.896441
vt 0.405675 0.982782
vt 0.408452 0.977026
vt 0.430668 0.896441
vt 0.433444 0.896441
vt 0.522846 0.624850
vt 0.522846 0.606478
vt 0.522846 0.606478
vt 0.522846 0.624850
vt 0.543260 0.626892
vt 0.543260 0.606478
vt 0.524888 0.606478
vt 0.524888 0.626892
vt 0.584088 0.626892
vt 0.584088 0.606478
vt 0.602460 0.606478
vt 0.602460 0.626892
vt 0.604502 0.588105
vt 0.604502 0.606478
vt 0.604502 0.606478
vt 0.604502 0.588105
vt 0.524888 0.588105
vt 0.524888 0.606478
vt 0.522846 0.588105
vt 0.602460 0.588105
vt 0.602460 0.606478
vt 0.604502 0.624850
vt 0.543260 0.626892
vt 0.543260 0.606478
vt 0.602460 0.626892
vt 0.584088 0.606478
vt 0.584088 0.626892
vt 0.524888 0.626892
vt 0.334088 0.592111
vt 0.334088 0.630898
vt 0.334088 0.630898
vt 0.334088 0.592111
vt 0.293260 0.630898
vt 0.293260 0.592111
vt 0.293260 0.592111
vt 0.293260 0.630898
vt 0.293260 0.664189
vt 0.293260 0.664189
vt 0.293260 0.662148
vt 0.293260 0.662148
vt 0.543260 0.556855
vt 0.543260 0.556855
vt 0.543260 0.554814
vt 0.543260 0.554814
vt 0.584088 0.658142
vt 0.543260 0.658142
vt 0.543260 0.658142
vt 0.584088 0.658142
vt 0.274888 0.560861
vt 0.293260 0.560861
vt 0.293260 0.560861
vt 0.274888 0.560861
vt 0.274888 0.664189
vt 0.274888 0.662148
vt 0.524888 0.556855
vt 0.524888 0.554814
vt 0.274888 0.630898
vt 0.274888 0.592111
vt 0.543260 0.588105
vt 0.584088 0.588105
vt 0.543260 0.588105
vt 0.334088 0.664189
vt 0.334088 0.664189
vt 0.334088 0.662148
vt 0.334088 0.662148
vt 0.352460 0.664189
vt 0.352460 0.662148
vt 0.352460 0.630898
vt 0.352460 0.592111
vt 0.584088 0.556855
vt 0.584088 0.554814
vt 0.584088 0.554814
vt 0.584088 0.556855
vt 0.602460 0.556855
vt 0.602460 0.554814
vt 0.584088 0.588105
vt 0.584088 0.575228
vt 0.584088 0.575228
vt 0.543260 0.575228
vt 0.543260 0.575228
vt 0.602460 0.658142
vt 0.602460 0.658142
vt 0.524888 0.658142
vt 0.524888 0.658142
vt 0.604502 0.656100
vt 0.604502 0.656100
vt 0.334088 0.560861
vt 0.352460 0.560861
vt 0.352460 0.560861
vt 0.334088 0.560861
vt 0.272846 0.594153
vt 0.274888 0.592111
vt 0.272846 0.594153
vt 0.272846 0.630898
vt 0.272846 0.630898
vt 0.522846 0.556855
vt 0.522846 0.554814
vt 0.602460 0.588105
vt 0.604502 0.556855
vt 0.604502 0.554814
vt 0.524888 0.588105
vt 0.522846 0.588105
vt 0.524888 0.556855
vt 0.524888 0.554814
vt 0.522846 0.554814
vt 0.522846 0.556855
vt 0.352460 0.664189
vt 0.352460 0.662148
vt 0.354502 0.662148
vt 0.354502 0.664189
vt 0.274888 0.664189
vt 0.274888 0.662148
vt 0.272846 0.662148
vt 0.272846 0.664189
vt 0.604502 0.624850
vt 0.354502 0.630898
vt 0.354502 0.594153
vt 0.354502 0.664189
vt 0.354502 0.662148
vt 0.602460 0.556855
vt 0.602460 0.554814
vt 0.604502 0.554814
vt 0.604502 0.556855
vt 0.272846 0.664189
vt 0.272846 0.662148
vt 0.274888 0.630898
vt 0.352460 0.630898
vt 0.352460 0.592111
vt 0.354502 0.594153
vt 0.354502 0.630898
vt 0.522846 0.656100
vt 0.522846 0.656100
vt 0.354502 0.562903
vt 0.354502 0.562903
vn 1.0000 0.0000 -0.0000
vn -1.0000 0.0000 0.0000
vn 0.0000 -1.0000 0.0000
vn 0.0000 -0.0000 -1.0000
vn 0.0000 0.0000 1.0000
vn -0.7321 -0.2253 0.6429
vn -0.7503 -0.0001 0.6611
vn -0.7092 -0.3317 0.6221
vn 0.7321 -0.2253 -0.6429
vn 0.7503 -0.0001 -0.6611
vn 0.7092 -0.3317 -0.6221
vn -0.7499 -0.0001 -0.6616
vn -0.7503 -0.0001 -0.6611
vn 0.7499 -0.0001 0.6616
vn 0.7503 -0.0001 0.6611
vn 0.0000 1.0000 0.0000
vn 0.0000 0.7071 0.7071
vn 0.0000 -0.7071 0.7071
vn 0.0000 0.7071 -0.7071
vn 0.0000 -0.7071 -0.7071
vn 0.7071 0.7071 -0.0000
vn -0.7071 -0.7071 0.0000
vn -0.6277 -0.5519 0.5490
vn 0.7321 -0.2253 0.6429
vn 0.7092 -0.3317 0.6221
vn 0.6277 -0.5519 -0.5490
vn -0.7321 -0.2253 -0.6429
vn -0.7092 -0.3317 -0.6221
vn -0.6277 -0.5519 -0.5490
vn 0.6277 0.5519 0.5490
vn 0.7319 0.2252 0.6431
vn 0.7091 0.3317 0.6222
vn -0.6277 0.5519 -0.5490
vn -0.7319 0.2252 -0.6431
vn -0.7091 0.3317 -0.6222
vn 0.7499 -0.0001 -0.6616
vn 0.7504 0.0001 -0.6610
vn 0.7319 0.2252 -0.6431
vn 0.7091 0.3317 -0.6222
vn 0.6277 0.5519 -0.5490
vn 0.6277 -0.5519 0.5490
vn -0.7499 -0.0001 0.6616
vn -0.7319 0.2252 0.6431
vn -0.6277 0.5519 0.5490
vn -0.7091 0.3317 0.6222
vn -0.7504 0.0001 -0.6610
vn -0.7504 0.0001 0.6610
vn 0.7504 0.0001 0.6610
vn -0.7071 0.7071 0.0000
vn 0.7071 -0.7071 -0.0000
usemtl restaurant
s off
f 84/1/1 83/2/1 87/3/1 88/4/1
f 82/5/2 86/6/2 85/7/2 81/8/2
f 86/9/3 88/10/3 87/11/3 85/12/3
f 75/13/3 76/14/3 83/15/3 84/16/3
f 77/17/4 85/18/4 87/19/4 80/20/4
f 78/21/5 86/22/5 82/23/5 74/24/5
f 79/25/5 75/13/5 84/16/5 88/26/5
f 74/24/3 82/23/3 81/27/3 73/28/3
f 79/25/5 88/26/5 86/22/5 78/21/5
f 73/28/4 81/27/4 85/18/4 77/17/4
f 76/14/4 80/20/4 87/19/4 83/15/4
s 1
f 57/29/2 7/30/2 11/31/2 70/32/2
f 20/33/4 1/34/4 8/35/4 58/36/4
f 28/37/5 4/38/5 6/39/5 66/40/5
f 52/41/1 9/42/1 5/43/1 50/44/1
f 47/45/6 12/46/7 11/31/7 48/47/8
f 51/48/9 10/49/10 9/42/10 52/41/11
f 58/36/12 8/35/13 7/30/13 57/29/12
f 66/40/14 6/39/15 5/43/15 65/50/14
f 16/51/5 2/52/5 4/38/5 28/37/5
f 61/53/4 10/49/4 3/54/4 29/55/4
f 69/56/5 12/46/5 2/52/5 16/51/5
f 29/55/4 3/54/4 1/34/4 20/33/4
f 31/57/2 30/58/2 26/59/2 32/60/2
f 21/61/1 22/62/1 17/63/1 14/64/1
f 18/65/1 13/66/1 21/67/1 14/68/1
f 19/69/1 15/70/1 13/71/1 18/72/1
f 29/73/16 20/74/16 16/75/16 28/76/16
f 59/77/3 17/78/3 22/79/3 72/80/3
f 56/81/17 40/82/17 21/67/17 13/66/17
f 47/83/18 56/84/18 13/71/18 15/70/18
f 40/85/5 72/86/5 22/62/5 21/61/5
f 12/46/5 47/45/5 15/87/5 2/52/5
f 10/49/4 51/48/4 25/88/4 3/54/4
f 1/34/1 2/52/1 15/87/1 19/89/1
f 24/90/2 23/91/2 26/92/2 30/93/2
f 44/94/19 41/95/19 26/92/19 23/91/19
f 41/96/4 64/97/4 32/60/4 26/59/4
f 25/98/2 23/99/2 24/100/2 27/101/2
f 51/102/20 44/103/20 23/99/20 25/98/20
f 4/38/2 3/54/2 25/88/2 27/104/2
f 3/105/3 4/106/3 2/107/3 1/108/3
f 61/109/16 29/73/16 28/76/16 66/110/16
f 20/74/16 58/111/16 69/112/16 16/75/16
f 62/113/21 61/109/21 66/110/21 65/114/21
f 32/115/3 64/116/3 67/117/3 31/118/3
f 60/119/22 59/120/22 72/86/22 71/121/22
f 38/122/2 60/119/2 71/121/2 39/123/2
f 56/84/23 47/83/6 48/124/8 55/125/23
f 6/39/15 49/126/24 50/44/25 5/43/15
f 44/103/26 51/102/9 52/127/11 43/128/26
f 8/35/13 53/129/27 54/130/28 7/30/13
f 53/131/27 33/132/29 34/133/29 54/134/28
f 46/135/30 35/136/31 36/137/32 45/138/30
f 33/139/33 37/140/34 38/141/35 34/142/33
f 10/49/10 61/53/36 62/143/36 9/42/10
f 64/97/37 41/96/38 42/144/39 63/145/37
f 41/95/38 44/94/40 43/146/40 42/147/39
f 49/148/24 46/149/41 45/150/41 50/151/25
f 12/46/7 69/56/42 70/32/42 11/31/7
f 40/82/43 56/81/44 55/152/44 39/153/45
f 37/154/34 59/120/46 60/119/46 38/122/35
f 72/86/47 40/85/43 39/123/45 71/121/47
f 35/155/31 67/156/48 68/157/48 36/158/32
f 42/147/1 43/146/1 45/138/1 36/137/1
f 9/42/1 62/143/1 65/50/1 5/43/1
f 24/90/17 30/93/17 35/136/17 46/135/17
f 54/134/2 34/133/2 55/125/2 48/124/2
f 43/128/1 52/127/1 50/151/1 45/150/1
f 63/145/1 42/144/1 36/158/1 68/157/1
f 19/69/20 18/72/20 33/132/20 53/131/20
f 27/101/18 24/100/18 46/149/18 49/148/18
f 58/111/49 57/159/49 70/160/49 69/112/49
f 14/64/4 17/63/4 59/120/4 37/154/4
f 18/65/19 14/68/19 37/140/19 33/139/19
f 34/142/2 38/141/2 39/153/2 55/152/2
f 64/116/50 63/161/50 68/162/50 67/117/50
f 30/58/5 31/57/5 67/156/5 35/155/5
f 4/38/5 27/104/5 49/126/5 6/39/5
f 1/34/4 19/89/4 53/129/4 8/35/4
f 7/30/2 54/130/2 48/47/2 11/31/2
