# Blender v3.4.1 OBJ File: 'restaurant_bits_export.blend'
# www.blender.org
mtllib wall_orderwindow.mtl
o wall_orderwindow_Cube.050
v -1.900000 2.000000 -0.150000
v -1.900000 2.100000 -0.250000
v -1.900000 1.900000 -0.250000
v -2.000000 2.000000 0.036388
v -2.000000 2.100000 0.136406
v -2.000000 1.900000 0.136370
v -1.500000 2.000000 -0.150000
v -1.500000 2.100000 -0.250000
v -1.500000 1.900000 -0.250000
v -1.500000 2.000000 0.150000
v -1.500000 1.900000 0.250000
v -1.500000 2.100000 0.250000
v -2.000000 2.000000 -0.036389
v -2.000000 1.900000 -0.136371
v -2.000000 2.100000 -0.136406
v -1.900000 2.000000 0.150000
v -1.900000 1.900000 0.250000
v -1.900000 2.100000 0.250000
v 1.900000 2.000000 0.150000
v 1.900000 2.100000 0.250000
v 1.900000 1.900000 0.250000
v 2.000000 2.000000 -0.036388
v 2.000000 2.100000 -0.136405
v 2.000000 1.900000 -0.136370
v 1.500000 2.000000 -0.150000
v 1.500000 2.100000 -0.250000
v 1.500000 1.900000 -0.250000
v 1.500000 2.000000 0.150000
v 1.500000 1.900000 0.250000
v 1.500000 2.100000 0.250000
v 2.000000 2.000000 0.036388
v 2.000000 2.100000 0.136406
v 2.000000 1.900000 0.136370
v 1.899999 2.000000 -0.150000
v 1.899999 1.900000 -0.250000
v 1.899999 2.100000 -0.250000
v -1.500000 1.000000 -0.250000
v -1.500000 1.000000 0.250000
v 1.500000 1.000000 -0.250000
v 1.500000 1.000000 0.250000
v 2.000000 1.000000 0.136211
v -2.000000 1.000000 -0.136212
v 1.899999 1.000000 -0.250000
v -1.900000 1.000000 0.250000
v 1.900000 1.000000 0.250000
v -1.900000 1.000000 -0.250000
v 2.000000 1.000000 -0.136211
v -2.000000 1.000000 0.136211
v 1.500000 1.000000 0.150000
v -1.500000 1.000000 0.150000
v 1.500000 3.000000 0.150000
v -1.500000 3.000000 0.150000
v 1.300000 1.000000 0.150000
v -1.300000 1.000000 0.150000
v 1.300000 2.800000 0.150000
v -1.300000 2.800000 0.150000
v 1.500000 1.000000 -0.150000
v -1.500000 1.000000 -0.150000
v 1.500000 3.000000 -0.150000
v -1.500000 3.000000 -0.150000
v 1.300000 1.000000 -0.150000
v -1.300000 1.000000 -0.150000
v 1.300000 2.800000 -0.150000
v -1.300000 2.800000 -0.150000
v -1.500000 3.000000 -0.250000
v -1.500000 3.000000 0.250000
v 1.500000 3.000000 -0.250000
v 1.500000 3.000000 0.250000
v 2.000000 3.000000 0.136565
v 1.900000 3.000000 0.250000
v -2.000000 3.000000 -0.136565
v -1.900000 3.000000 -0.250000
v 2.000000 3.000000 -0.136564
v 1.899999 3.000000 -0.250000
v -2.000000 3.000000 0.136565
v -1.900000 3.000000 0.250000
v -1.500000 4.000000 0.250000
v -1.500000 0.000000 -0.250000
v -1.500000 4.000000 -0.250000
v -1.500000 0.000000 0.250000
v 1.500000 4.000000 0.250000
v 1.500000 4.000000 -0.250000
v 1.500000 0.000000 0.250000
v 1.500000 0.000000 -0.250000
v -2.000000 3.900000 -0.136724
v -1.900000 4.000000 -0.250000
v -1.900000 0.000000 -0.250000
v -2.000000 0.100000 -0.136724
v 1.899999 4.000000 -0.250000
v 2.000000 3.900000 -0.136723
v 2.000000 0.100000 -0.136723
v 1.899999 0.000000 -0.250000
v 2.000000 3.900000 0.136724
v 1.900000 4.000000 0.250000
v 1.900000 0.000000 0.250000
v 2.000000 0.100000 0.136724
v -1.900000 4.000000 0.250000
v -2.000000 3.900000 0.136724
v -2.000000 0.100000 0.136724
v -1.900000 0.000000 0.250000
v -1.500000 1.000000 -0.450000
v -1.500000 1.000000 0.450000
v 1.500000 1.000000 -0.450000
v 1.500000 1.000000 0.450000
v -1.500000 1.200000 -0.400000
v -1.500000 1.150000 -0.450000
v -1.500000 1.150000 0.450000
v -1.500000 1.200000 0.400000
v 1.500000 1.200000 0.400000
v 1.500000 1.150000 0.450000
v 1.500000 1.150000 -0.450000
v 1.500000 1.200000 -0.400000
vt 0.455514 0.982782
vt 0.451911 0.977026
vt 0.451911 0.896441
vt 0.455514 0.896441
vt 0.419482 0.982782
vt 0.419482 0.896441
vt 0.423085 0.896441
vt 0.423085 0.977026
vt 0.455514 0.982782
vt 0.455514 0.896441
vt 0.451911 0.896441
vt 0.451911 0.977026
vt 0.419482 0.982782
vt 0.423085 0.977026
vt 0.423085 0.896441
vt 0.419482 0.896441
vt 0.423085 0.945776
vt 0.423085 0.945776
vt 0.423085 0.865191
vt 0.423085 0.865191
vt 0.451911 0.865191
vt 0.451911 0.865191
vt 0.451911 0.945776
vt 0.451911 0.945776
vt 0.451911 0.914526
vt 0.451911 0.914526
vt 0.423085 0.914526
vt 0.423085 0.914526
vt 0.602460 0.606478
vt 0.602460 0.588105
vt 0.584088 0.588105
vt 0.584088 0.606478
vt 0.274888 0.664189
vt 0.272846 0.664189
vt 0.272846 0.662148
vt 0.274888 0.662148
vt 0.524888 0.556855
vt 0.522846 0.556855
vt 0.522846 0.554814
vt 0.524888 0.554814
vt 0.543260 0.554814
vt 0.543260 0.556855
vt 0.293260 0.662148
vt 0.293260 0.664189
vt 0.524888 0.554814
vt 0.522846 0.554814
vt 0.522846 0.556855
vt 0.524888 0.556855
vt 0.274888 0.662148
vt 0.272846 0.662148
vt 0.272846 0.664189
vt 0.274888 0.664189
vt 0.543260 0.554814
vt 0.543260 0.556855
vt 0.293260 0.662148
vt 0.293260 0.664189
vt 0.352460 0.664189
vt 0.354502 0.664189
vt 0.354502 0.662148
vt 0.352460 0.662148
vt 0.602460 0.556855
vt 0.604502 0.556855
vt 0.604502 0.554814
vt 0.602460 0.554814
vt 0.354502 0.664189
vt 0.354502 0.662148
vt 0.604502 0.556855
vt 0.604502 0.554814
vt 0.584088 0.554814
vt 0.584088 0.554814
vt 0.584088 0.556855
vt 0.584088 0.556855
vt 0.334088 0.662148
vt 0.334088 0.662148
vt 0.334088 0.664189
vt 0.334088 0.664189
vt 0.602460 0.554814
vt 0.602460 0.556855
vt 0.352460 0.662148
vt 0.352460 0.664189
vt 0.524888 0.588105
vt 0.524888 0.606478
vt 0.522846 0.606478
vt 0.522846 0.588105
vt 0.274888 0.612525
vt 0.274888 0.630898
vt 0.272846 0.630898
vt 0.272846 0.612525
vt 0.272846 0.630898
vt 0.272846 0.612525
vt 0.293260 0.630898
vt 0.293260 0.612525
vt 0.274888 0.612525
vt 0.274888 0.630898
vt 0.293260 0.630898
vt 0.293260 0.612525
vt 0.604502 0.606478
vt 0.604502 0.588105
vt 0.352460 0.630898
vt 0.352460 0.612525
vt 0.354502 0.612525
vt 0.354502 0.630898
vt 0.334088 0.630898
vt 0.334088 0.612525
vt 0.352460 0.612525
vt 0.352460 0.630898
vt 0.354502 0.630898
vt 0.354502 0.612525
vt 0.334088 0.630898
vt 0.334088 0.612525
vt 0.543260 0.606478
vt 0.543260 0.588105
vt 0.524888 0.588105
vt 0.524888 0.606478
vt 0.334088 0.643775
vt 0.293260 0.643775
vt 0.293260 0.643775
vt 0.334088 0.643775
vt 0.522846 0.606478
vt 0.522846 0.588105
vt 0.584088 0.606478
vt 0.584088 0.588105
vt 0.602460 0.588105
vt 0.602460 0.606478
vt 0.543260 0.606478
vt 0.543260 0.588105
vt 0.604502 0.606478
vt 0.604502 0.588105
vt 0.584088 0.575228
vt 0.584088 0.575228
vt 0.543260 0.575228
vt 0.543260 0.575228
vt 0.274888 0.592111
vt 0.272846 0.594153
vt 0.352460 0.592111
vt 0.354502 0.594153
vt 0.522846 0.624850
vt 0.522846 0.624850
vt 0.543260 0.626892
vt 0.524888 0.626892
vt 0.584088 0.626892
vt 0.602460 0.626892
vt 0.604502 0.624850
vt 0.543260 0.626892
vt 0.602460 0.626892
vt 0.584088 0.626892
vt 0.524888 0.626892
vt 0.293260 0.592111
vt 0.274888 0.592111
vt 0.334088 0.592111
vt 0.352460 0.592111
vt 0.584088 0.658142
vt 0.543260 0.658142
vt 0.543260 0.658142
vt 0.584088 0.658142
vt 0.274888 0.560861
vt 0.293260 0.560861
vt 0.293260 0.560861
vt 0.274888 0.560861
vt 0.272846 0.594153
vt 0.293260 0.592111
vt 0.334088 0.592111
vt 0.334088 0.560861
vt 0.334088 0.560861
vt 0.602460 0.658142
vt 0.602460 0.658142
vt 0.524888 0.658142
vt 0.524888 0.658142
vt 0.604502 0.656100
vt 0.604502 0.656100
vt 0.352460 0.560861
vt 0.352460 0.560861
vt 0.272846 0.562903
vt 0.272846 0.562903
vt 0.604502 0.624850
vt 0.354502 0.594153
vt 0.522846 0.656100
vt 0.522846 0.656100
vt 0.354502 0.562903
vt 0.354502 0.562903
vt 0.849853 0.830845
vt 0.849853 0.830845
vt 0.775149 0.830845
vt 0.775149 0.830845
vt 0.849853 0.862095
vt 0.775149 0.862095
vt 0.775149 0.881453
vt 0.849853 0.881453
vt 0.849853 0.881453
vt 0.849853 0.887905
vt 0.849853 0.887905
vt 0.849853 0.919155
vt 0.775149 0.919155
vt 0.775149 0.919155
vt 0.849853 0.919155
vt 0.775149 0.862095
vt 0.849853 0.862095
vt 0.775149 0.881453
vt 0.775149 0.950405
vt 0.849853 0.950405
vt 0.849853 0.950405
vt 0.775149 0.950405
vt 0.849853 0.950405
vt 0.775149 0.950405
vt 0.775149 0.950405
vt 0.849853 0.950405
vt 0.775149 0.887905
vt 0.775149 0.887905
vn 0.0000 0.0000 1.0000
vn 0.0000 0.0000 -1.0000
vn 1.0000 0.0000 0.0000
vn -1.0000 0.0000 0.0000
vn 0.0000 -1.0000 0.0000
vn -0.6263 0.5512 0.5513
vn -0.7312 -0.2250 0.6440
vn -0.7082 -0.3310 0.6236
vn -0.6262 -0.5513 0.5513
vn 0.0000 -0.7071 0.7071
vn 0.0000 0.7071 0.7071
vn -0.6262 -0.5513 -0.5513
vn -0.7082 -0.3310 -0.6236
vn -0.7312 -0.2250 -0.6440
vn -0.6263 0.5512 -0.5513
vn 0.0000 -0.7071 -0.7071
vn 0.0000 0.7071 -0.7071
vn 0.6263 0.5512 -0.5513
vn 0.7312 -0.2250 -0.6440
vn 0.7082 -0.3310 -0.6236
vn 0.6262 -0.5513 -0.5513
vn 0.6262 -0.5513 0.5513
vn 0.7082 -0.3310 0.6236
vn 0.7312 -0.2250 0.6440
vn 0.6263 0.5512 0.5513
vn 0.0000 -0.3827 0.9239
vn -0.7501 -0.0001 0.6613
vn -0.7506 0.0001 0.6607
vn -0.7509 -0.0001 0.6604
vn -0.7509 -0.0001 -0.6604
vn -0.7506 0.0001 -0.6607
vn 0.7501 -0.0001 -0.6613
vn 0.7509 -0.0001 0.6604
vn 0.7506 0.0001 0.6607
vn 0.7506 0.0001 -0.6607
vn 0.7509 -0.0001 -0.6604
vn 0.0000 1.0000 0.0000
vn 0.7501 -0.0001 0.6613
vn -0.7501 -0.0001 -0.6613
vn -0.7504 0.0002 -0.6610
vn 0.7504 0.0002 0.6610
vn -0.7499 -0.0001 -0.6616
vn 0.7499 -0.0001 0.6616
vn 0.7071 0.7071 -0.0000
vn -0.7071 -0.7071 0.0000
vn 0.7499 -0.0001 -0.6616
vn 0.7504 0.0002 -0.6610
vn -0.7499 -0.0001 0.6616
vn -0.7504 0.0002 0.6610
vn -0.7071 0.7071 0.0000
vn 0.7071 -0.7071 -0.0000
usemtl restaurant
s off
f 51/1/1 55/2/1 53/3/1 49/4/1
f 52/5/1 50/6/1 54/7/1 56/8/1
f 52/5/1 56/8/1 55/2/1 51/1/1
f 59/9/2 57/10/2 61/11/2 63/12/2
f 60/13/2 64/14/2 62/15/2 58/16/2
f 60/13/2 59/9/2 63/12/2 64/14/2
f 64/17/3 56/18/3 54/19/3 62/20/3
f 61/21/4 53/22/4 55/23/4 63/24/4
f 63/25/5 55/26/5 56/27/5 64/28/5
s 1
f 74/29/2 36/30/2 26/31/2 67/32/2
f 16/33/6 4/34/6 6/35/6 17/36/6
f 18/37/7 5/38/8 4/39/9 16/40/9
f 16/40/10 10/41/10 12/42/10 18/37/10
f 17/36/11 11/43/11 10/44/11 16/33/11
f 1/45/12 13/46/12 15/47/13 2/48/14
f 3/49/15 14/50/15 13/51/15 1/52/15
f 7/53/16 1/45/16 2/48/16 8/54/16
f 9/55/17 3/49/17 1/52/17 7/56/17
f 13/46/4 4/39/4 5/38/4 15/47/4
f 14/50/4 6/35/4 4/34/4 13/51/4
f 10/41/3 7/53/3 8/54/3 12/42/3
f 11/43/3 9/55/3 7/56/3 10/44/3
f 34/57/18 22/58/18 24/59/18 35/60/18
f 36/61/19 23/62/20 22/63/21 34/64/21
f 22/58/3 31/65/3 33/66/3 24/59/3
f 23/62/3 32/67/3 31/68/3 22/63/3
f 25/69/4 28/70/4 30/71/4 26/72/4
f 27/73/4 29/74/4 28/75/4 25/76/4
f 34/64/16 25/69/16 26/72/16 36/61/16
f 35/60/17 27/73/17 25/76/17 34/57/17
f 19/77/22 31/68/22 32/67/23 20/78/24
f 21/79/25 33/66/25 31/65/25 19/80/25
f 28/70/10 19/77/10 20/78/26 30/71/26
f 29/74/11 21/79/11 19/80/11 28/75/11
f 18/81/7 76/82/27 75/83/27 5/84/8
f 44/85/28 17/86/29 6/87/29 48/88/28
f 14/89/4 42/90/4 48/88/4 6/87/4
f 9/91/2 37/92/2 46/93/2 3/94/2
f 3/94/30 46/93/31 42/90/31 14/89/30
f 11/95/3 38/96/3 37/92/3 9/91/3
f 36/30/19 74/29/32 73/97/32 23/98/20
f 21/99/33 45/100/34 41/101/34 33/102/33
f 29/103/1 40/104/1 45/100/1 21/99/1
f 43/105/35 35/106/36 24/107/36 47/108/35
f 47/108/3 24/107/3 33/102/3 41/101/3
f 29/103/4 27/109/4 39/110/4 40/104/4
f 65/111/2 8/112/2 2/113/2 72/114/2
f 39/115/37 37/116/37 38/117/37 40/118/37
f 71/119/4 15/120/4 5/84/4 75/83/4
f 68/121/1 30/122/26 20/123/26 70/124/1
f 66/125/3 12/126/3 8/112/3 65/111/3
f 23/98/3 73/97/3 69/127/3 32/128/3
f 67/129/5 68/130/5 66/131/5 65/132/5
f 70/124/38 20/123/24 32/128/23 69/127/38
f 72/114/39 2/113/14 15/120/13 71/119/39
f 76/82/1 18/81/1 12/126/1 66/125/1
f 87/133/40 88/134/40 42/90/31 46/93/31
f 45/100/34 95/135/41 96/136/41 41/101/34
f 85/137/4 71/119/4 75/83/4 98/138/4
f 79/139/2 65/111/2 72/114/2 86/140/2
f 81/141/1 68/121/1 70/124/1 94/142/1
f 68/121/4 67/32/4 26/31/4 30/122/4
f 17/86/1 44/85/1 38/96/1 11/95/1
f 35/106/2 43/105/2 39/110/2 27/109/2
f 86/140/42 72/114/39 71/119/39 85/137/42
f 94/142/43 70/124/38 69/127/38 93/143/43
f 77/144/1 66/125/1 68/121/1 81/141/1
f 89/145/2 74/29/2 67/32/2 82/146/2
f 97/147/1 76/82/1 66/125/1 77/144/1
f 82/146/2 67/32/2 65/111/2 79/139/2
f 80/148/1 38/96/1 44/85/1 100/149/1
f 84/150/2 39/110/2 43/105/2 92/151/2
f 82/152/37 79/153/37 77/154/37 81/155/37
f 87/156/5 78/157/5 80/158/5 100/159/5
f 88/134/4 99/160/4 48/88/4 42/90/4
f 37/92/2 78/161/2 87/133/2 46/93/2
f 38/96/1 80/148/1 83/162/1 40/104/1
f 39/110/2 84/150/2 78/161/2 37/92/2
f 78/157/5 84/163/5 83/164/5 80/158/5
f 89/165/37 82/152/37 81/155/37 94/166/37
f 79/153/37 86/167/37 97/168/37 77/154/37
f 90/169/44 89/165/44 94/166/44 93/170/44
f 84/163/5 92/171/5 95/172/5 83/164/5
f 88/173/45 87/156/45 100/159/45 99/174/45
f 74/29/32 89/145/46 90/175/46 73/97/32
f 92/151/47 43/105/35 47/108/35 91/176/47
f 76/82/27 97/147/48 98/138/48 75/83/27
f 100/149/49 44/85/28 48/88/28 99/160/49
f 73/97/3 90/175/3 93/143/3 69/127/3
f 91/176/3 47/108/3 41/101/3 96/136/3
f 86/167/50 85/177/50 98/178/50 97/168/50
f 92/171/51 91/179/51 96/180/51 95/172/51
f 95/135/1 45/100/1 40/104/1 83/162/1
f 103/181/5 104/182/5 102/183/5 101/184/5
f 103/185/2 101/186/2 106/187/2 111/188/2
f 110/189/3 111/188/3 112/190/3 109/191/3
f 112/192/37 105/193/37 108/194/37 109/195/37
f 102/196/1 104/197/1 110/189/1 107/198/1
f 107/199/11 110/200/11 109/201/11 108/202/11
f 111/203/17 106/204/17 105/205/17 112/206/17
f 106/187/4 107/198/4 108/207/4 105/208/4
f 104/197/3 103/185/3 111/188/3 110/189/3
f 101/186/4 102/196/4 107/198/4 106/187/4
